<svg id="Calque_1" data-name="Calque 1" xmlns="http://www.w3.org/2000/svg" viewBox="0 0 107 154.39"><defs><style>.cls-1{fill:#f2fdff;}.cls-1,.cls-2,.cls-4{stroke:#ffb100;}.cls-1,.cls-2,.cls-3,.cls-4,.cls-5,.cls-6{stroke-miterlimit:10;}.cls-1,.cls-2{stroke-width:3px;}.cls-2,.cls-3,.cls-4,.cls-5{fill:none;}.cls-3{stroke:#ffbe4b;}.cls-3,.cls-4,.cls-5{stroke-width:0.5px;}.cls-5,.cls-6{stroke:#2e1800;}.cls-6{fill:#2e1800;stroke-width:0.25px;}</style></defs><rect class="cls-1" x="1.5" y="34.89" width="104" height="118" rx="10.54"/><path class="cls-2" d="M190.94,165.5" transform="translate(-137.44 -70.11)"/><path class="cls-2" d="M190.94,164.5" transform="translate(-137.44 -70.11)"/><path class="cls-2" d="M190.94,164.5" transform="translate(-137.44 -70.11)"/><path d="M172.37,130.32l5.33-3V128l-4.63,2.55,4.63,2.67v.69l-5.33-3.07Z" transform="translate(-137.44 -70.11)"/><path d="M184.12,132.17a2.31,2.31,0,0,1-2.33,1.9c-1.5,0-2.57-1.11-2.57-3.11,0-1.65.88-3.17,2.64-3.17a2.15,2.15,0,0,1,2.26,1.92h-.61a1.63,1.63,0,0,0-1.66-1.36c-1.27,0-2,1.08-2,2.58s.67,2.58,1.93,2.58a1.7,1.7,0,0,0,1.72-1.34Z" transform="translate(-137.44 -70.11)"/><path d="M190.43,130.92c0,1.67-.93,3.15-2.71,3.15-1.62,0-2.63-1.33-2.63-3.14s.95-3.14,2.69-3.14C189.37,127.79,190.43,129,190.43,130.92Zm-4.7,0c0,1.43.77,2.58,2,2.58s2-1.07,2-2.58-.72-2.58-2-2.58S185.73,129.49,185.73,130.93Z" transform="translate(-137.44 -70.11)"/><path d="M196.62,125.09v7.11c0,.58,0,1.13,0,1.73h-.57a9.26,9.26,0,0,1,0-1,2,2,0,0,1-2,1.15c-1.56,0-2.5-1.27-2.5-3.07s1-3.21,2.65-3.21c1.2,0,1.68.51,1.86.9v-3.6ZM192.15,131c0,1.64.85,2.53,1.88,2.53,1.58,0,2-1.09,2-2.72s-.37-2.44-1.9-2.44C193,128.35,192.15,129.3,192.15,131Z" transform="translate(-137.44 -70.11)"/><path d="M198.72,131c0,1.55.8,2.51,1.95,2.51a1.68,1.68,0,0,0,1.72-1.13H203a2.31,2.31,0,0,1-2.37,1.69c-1.82,0-2.53-1.57-2.53-3.09,0-1.72.85-3.19,2.6-3.19a2.48,2.48,0,0,1,2.44,2.72c0,.17,0,.34,0,.49Zm3.81-.52c0-1.19-.66-2.13-1.84-2.13s-1.8.87-1.93,2.13Z" transform="translate(-137.44 -70.11)"/><path d="M210,130.94l-5.33,3v-.71l4.63-2.55L204.65,128v-.7l5.33,3.07Z" transform="translate(-137.44 -70.11)"/><rect class="cls-3" x="43.5" y="108.39" width="20" height="5" rx="2.41"/><path class="cls-3" d="M190.94,189.41" transform="translate(-137.44 -70.11)"/><path class="cls-3" d="M195.94,192.5a7.25,7.25,0,0,1-10,0" transform="translate(-137.44 -70.11)"/><rect class="cls-3" x="43.5" y="115.39" width="20" height="5" rx="2.41"/><circle class="cls-3" cx="53.5" cy="94.89" r="11.5"/><line class="cls-4" x1="40.81" y1="73.84" x2="46.3" y2="82.94"/><line class="cls-4" x1="52.64" y1="70.06" x2="53.14" y2="80.68"/><line class="cls-4" x1="31.76" y1="81.03" x2="40.02" y2="87.72"/><line class="cls-4" x1="59.79" y1="82.69" x2="65.99" y2="74.05"/><line class="cls-4" x1="74.02" y1="81.03" x2="65.76" y2="87.72"/><path d="M168.48,206.28l5.32-3V204l-4.63,2.56,4.63,2.66v.69l-5.32-3.07Z" transform="translate(-137.44 -70.11)"/><path d="M179.92,208.75a6.24,6.24,0,0,0,.09,1.14h-.58a4.11,4.11,0,0,1-.11-.92,2,2,0,0,1-2,1.07,1.78,1.78,0,0,1-2-1.8c0-1.32,1-1.92,2.81-1.92h1.14v-.61c0-.6-.18-1.41-1.54-1.41s-1.4.64-1.53,1.13h-.6a1.86,1.86,0,0,1,2.14-1.68c1.37,0,2.13.58,2.13,1.9Zm-.59-1.92h-1.17c-1.33,0-2.16.35-2.16,1.38a1.25,1.25,0,0,0,1.38,1.27c1.71,0,2-1.14,2-2.43Z" transform="translate(-137.44 -70.11)"/><path d="M181.84,208.24a1.59,1.59,0,0,0,1.71,1.24c1.07,0,1.5-.49,1.5-1.16s-.29-1-1.63-1.34c-1.55-.37-1.93-.84-1.93-1.63s.62-1.6,2-1.6a1.91,1.91,0,0,1,2.1,1.68H185a1.41,1.41,0,0,0-1.52-1.13c-1,0-1.34.52-1.34,1s.28.83,1.47,1.11c1.69.41,2.11,1,2.11,1.86,0,1.09-.89,1.77-2.14,1.77a2.09,2.09,0,0,1-2.31-1.8Z" transform="translate(-137.44 -70.11)"/><path d="M186.24,203.89h1.11V202h.6v1.87h1.43v.57H188v3.9c0,.67.15,1,.72,1a2.34,2.34,0,0,0,.63-.07v.53a2.27,2.27,0,0,1-.75.11c-.77,0-1.2-.39-1.2-1.35v-4.17h-1.11Z" transform="translate(-137.44 -70.11)"/><path d="M194.92,208.14c0,.59,0,1.52,0,1.75h-.57a7.9,7.9,0,0,1,0-1,1.84,1.84,0,0,1-1.93,1.19c-.86,0-2-.34-2-2.18v-4H191v3.83c0,.88.28,1.73,1.47,1.73,1.34,0,1.84-.76,1.84-2.47v-3.09h.6Z" transform="translate(-137.44 -70.11)"/><path d="M201.31,208.13A2.32,2.32,0,0,1,199,210c-1.5,0-2.57-1.12-2.57-3.12,0-1.65.88-3.17,2.64-3.17a2.15,2.15,0,0,1,2.26,1.92h-.62a1.61,1.61,0,0,0-1.65-1.36c-1.27,0-2,1.08-2,2.58s.67,2.58,1.93,2.58a1.68,1.68,0,0,0,1.71-1.34Z" transform="translate(-137.44 -70.11)"/><path d="M202.89,207c0,1.55.79,2.51,1.94,2.51a1.68,1.68,0,0,0,1.73-1.13h.61a2.29,2.29,0,0,1-2.36,1.7c-1.82,0-2.53-1.58-2.53-3.1,0-1.71.85-3.19,2.6-3.19a2.48,2.48,0,0,1,2.44,2.72c0,.17,0,.34,0,.49Zm3.8-.52a1.9,1.9,0,0,0-1.83-2.13c-1.24,0-1.8.87-1.93,2.13Z" transform="translate(-137.44 -70.11)"/><path d="M208.93,208.24a1.57,1.57,0,0,0,1.7,1.24c1.07,0,1.5-.49,1.5-1.16s-.29-1-1.63-1.34c-1.55-.37-1.93-.84-1.93-1.63s.62-1.6,2-1.6a1.92,1.92,0,0,1,2.1,1.68h-.6a1.43,1.43,0,0,0-1.53-1.13c-1,0-1.34.52-1.34,1s.29.83,1.48,1.11c1.69.41,2.11,1,2.11,1.86,0,1.09-.89,1.77-2.15,1.77a2.07,2.07,0,0,1-2.3-1.8Z" transform="translate(-137.44 -70.11)"/><path d="M219.62,206.91l-5.33,3v-.7l4.63-2.56L214.29,204v-.7l5.33,3.07Z" transform="translate(-137.44 -70.11)"/><polyline class="cls-5" points="8.39 33.89 52.48 0.31 98.56 33.77"/><circle class="cls-6" cx="8.06" cy="34.39" r="0.5"/><circle class="cls-6" cx="99.06" cy="34.39" r="0.5"/><text x="-137.44" y="-70.11"/></svg>