<svg id="Calque_1" data-name="Calque 1" xmlns="http://www.w3.org/2000/svg" viewBox="0 0 91 282"><defs><style>.cls-1{fill:#1900c3;}.cls-2{fill:#501200;}.cls-3{font-size:32px;fill:#fff;font-family:CooperBlack, Cooper Black;letter-spacing:0.2em;}</style></defs><rect class="cls-1" x="0.5" y="0.5" width="90" height="281" rx="13.5"/><path class="cls-2" d="M714.5,254.17a13,13,0,0,1,13,13v254a13,13,0,0,1-13,13h-63a13,13,0,0,1-13-13v-254a13,13,0,0,1,13-13h63m0-1h-63a14,14,0,0,0-14,14v254a14,14,0,0,0,14,14h63a14,14,0,0,0,14-14v-254a14,14,0,0,0-14-14Z" transform="translate(-637.5 -253.17)"/><text class="cls-3" transform="translate(54.9 182.76) rotate(-90)">CSS</text></svg>