<svg id="Calque_1" data-name="Calque 1" xmlns="http://www.w3.org/2000/svg" viewBox="0 0 92.33 126.28"><defs><style>.cls-1{fill:#511200;}.cls-1,.cls-2{stroke:#000;stroke-miterlimit:10;}.cls-2{fill:#ffe6c3;}</style></defs><rect class="cls-1" x="0.5" y="0.5" width="82.04" height="125.28"/><rect class="cls-2" x="9.79" y="0.5" width="82.04" height="125.28"/><path d="M97.1,109.72q1.83,0,1.83.75a.59.59,0,0,1-.09.34,1.77,1.77,0,0,1-.36.29.59.59,0,0,0-.29.37,4.43,4.43,0,0,0-.06.92c0,.27.05.44.15.5a.58.58,0,0,0,.27.08h.84a2.24,2.24,0,0,0,.75-.07c.09,0,.14-.15.14-.32a5.35,5.35,0,0,0-.07-1.08.57.57,0,0,0-.27-.41,1.08,1.08,0,0,1-.34-.25.41.41,0,0,1-.09-.28.63.63,0,0,1,.19-.43,1,1,0,0,1,.47-.27,6.58,6.58,0,0,1,1.53-.15,4.75,4.75,0,0,1,1.59.2.66.66,0,0,1,.51.61.56.56,0,0,1-.36.53.9.9,0,0,0-.3.2,1,1,0,0,0-.11.36c0,.1,0,.53-.06,1.3s0,1.39,0,1.84a8.7,8.7,0,0,0,.08,1.51.53.53,0,0,0,.11.23,2.3,2.3,0,0,0,.37.24.4.4,0,0,1,.22.37.68.68,0,0,1-.53.65,5.13,5.13,0,0,1-1.72.2,4.5,4.5,0,0,1-1.54-.2.62.62,0,0,1-.45-.58.56.56,0,0,1,.35-.52.79.79,0,0,0,.23-.19,1.23,1.23,0,0,0,.12-.35,5.85,5.85,0,0,0,.1-1.2c0-.25,0-.4-.11-.46a1,1,0,0,0-.56-.09,4.47,4.47,0,0,0-1.34.12c-.08,0-.12.12-.14.27a4.64,4.64,0,0,0,0,.7,1.82,1.82,0,0,0,.19,1,1.07,1.07,0,0,0,.3.24.47.47,0,0,1,.25.46q0,.41-.57.63a6.31,6.31,0,0,1-3.19,0,.88.88,0,0,1-.42-.25.47.47,0,0,1-.14-.35.45.45,0,0,1,.09-.3,1.56,1.56,0,0,1,.41-.27.43.43,0,0,0,.23-.21,1.12,1.12,0,0,0,.1-.43,14.47,14.47,0,0,0,.09-1.8c0-.13,0-.29,0-.48,0-.94,0-1.47,0-1.61a1.47,1.47,0,0,0-.08-.66,1.12,1.12,0,0,0-.48-.36.39.39,0,0,1-.26-.37c0-.39.38-.66,1.15-.82A6.85,6.85,0,0,1,97.1,109.72Z" transform="translate(-61.95 -52.24)"/><path d="M106.7,109.85h3.09a3.62,3.62,0,0,0,.91-.14,1.25,1.25,0,0,1,.31,0c.32,0,.62.23.92.7a2.65,2.65,0,0,1,.45,1.45.86.86,0,0,1-.31.74.87.87,0,0,1-.56.18.84.84,0,0,1-.54-.18,1.76,1.76,0,0,1-.45-.57,1.94,1.94,0,0,0-.31-.47.37.37,0,0,0-.58.07,1.44,1.44,0,0,0-.09.6v3.28a1.86,1.86,0,0,0,.11.73.71.71,0,0,0,.39.35,1.18,1.18,0,0,1,.43.26.45.45,0,0,1,.12.33c0,.28-.19.49-.57.62a5.47,5.47,0,0,1-1.76.21,7.12,7.12,0,0,1-2.15-.24c-.4-.13-.6-.35-.6-.65a.42.42,0,0,1,.22-.37,2.63,2.63,0,0,1,.41-.14.47.47,0,0,0,.31-.25,2.49,2.49,0,0,0,.14-.69c0-.31.06-.8.08-1.48s0-1.28,0-1.78a2.21,2.21,0,0,0-.09-.75.27.27,0,0,0-.27-.22c-.15,0-.3.11-.44.33a3.31,3.31,0,0,1-.65.79,1,1,0,0,1-.58.23.66.66,0,0,1-.52-.24.93.93,0,0,1-.2-.61,2.31,2.31,0,0,1,.16-.8,3.46,3.46,0,0,1,.44-.8c.3-.4.59-.6.88-.6a.93.93,0,0,1,.27,0,4.8,4.8,0,0,0,.52.08A3.13,3.13,0,0,0,106.7,109.85Z" transform="translate(-61.95 -52.24)"/><path d="M118.41,115.42l-.7,1.58a3.08,3.08,0,0,1-.29.53.34.34,0,0,1-.25.14.31.31,0,0,1-.23-.11,5,5,0,0,1-.3-.52c-.15-.29-.28-.56-.38-.79l-.77-1.74c-.11-.24-.22-.36-.34-.36s-.19.1-.2.31c0,.46,0,.89,0,1.28a3.63,3.63,0,0,0,.06.82.38.38,0,0,0,.1.19,2.55,2.55,0,0,0,.37.21.36.36,0,0,1,.19.35c0,.43-.56.65-1.68.65-.94,0-1.42-.21-1.42-.64a.32.32,0,0,1,.08-.23,1.61,1.61,0,0,1,.38-.22.56.56,0,0,0,.26-.24,2.55,2.55,0,0,0,.11-.59c0-.32.07-.83.1-1.54s.05-1.33.05-1.83a3.73,3.73,0,0,0-.15-1.3.32.32,0,0,0-.12-.17A1.57,1.57,0,0,0,113,111q-.42-.2-.42-.51a.57.57,0,0,1,.15-.38,1,1,0,0,1,.42-.24,5.06,5.06,0,0,1,.69-.13,5.34,5.34,0,0,1,.73-.06,3.21,3.21,0,0,1,1.06.13.6.6,0,0,1,.24.16,2.05,2.05,0,0,1,.25.41l1.22,2.24a2.44,2.44,0,0,0,.27.45.25.25,0,0,0,.21.08.32.32,0,0,0,.21-.08,1.66,1.66,0,0,0,.22-.33l.82-1.61.2-.41a2,2,0,0,1,.57-.78,2.38,2.38,0,0,1,1.3-.25c1.11,0,1.66.25,1.66.76a.45.45,0,0,1-.07.27,1,1,0,0,1-.26.25.9.9,0,0,0-.34.59,12.31,12.31,0,0,0-.13,2,20.3,20.3,0,0,0,.14,2.62.93.93,0,0,0,.1.37,1.62,1.62,0,0,0,.38.3.44.44,0,0,1,.21.38c0,.27-.18.46-.54.58a2.94,2.94,0,0,1-.59.12q-.31,0-1,0a5.82,5.82,0,0,1-1.47-.14q-.54-.17-.54-.54a.35.35,0,0,1,.07-.23,2.13,2.13,0,0,1,.36-.33.8.8,0,0,0,.21-.48,10.34,10.34,0,0,0,0-1.19,2.73,2.73,0,0,0,0-.62.18.18,0,0,0-.19-.14.41.41,0,0,0-.31.22A6.79,6.79,0,0,0,118.41,115.42Z" transform="translate(-61.95 -52.24)"/><path d="M127,112.41v2.69a2.82,2.82,0,0,0,.16,1.17c.13.21.4.31.82.31a1.74,1.74,0,0,0,1-.29,1.56,1.56,0,0,0,.54-.92c.06-.25.19-.38.4-.38a.62.62,0,0,1,.51.28,1.25,1.25,0,0,1,.19.72,2.88,2.88,0,0,1-.54,1.56,1.48,1.48,0,0,1-.3.36.52.52,0,0,1-.31.09l-1.3-.15h-4.09a1.26,1.26,0,0,1-.57-.1.43.43,0,0,1-.24-.4.33.33,0,0,1,.08-.25,1.88,1.88,0,0,1,.38-.22.76.76,0,0,0,.43-.45,7.23,7.23,0,0,0,.07-1.4c0-.36,0-.87,0-1.55s0-1.14,0-1.46a1.92,1.92,0,0,0-.07-.65.46.46,0,0,0-.31-.24,2.17,2.17,0,0,1-.49-.22.42.42,0,0,1-.19-.34c0-.28.24-.5.71-.65a5.79,5.79,0,0,1,1.62-.19,8.93,8.93,0,0,1,1.7.12q.72.15.72.63a.4.4,0,0,1-.09.29,2.36,2.36,0,0,1-.48.25.48.48,0,0,0-.28.34A5.56,5.56,0,0,0,127,112.41Z" transform="translate(-61.95 -52.24)"/></svg>