<?xml version="1.0" encoding="utf-8"?>
<!-- Generator: Adobe Illustrator 25.2.0, SVG Export Plug-In . SVG Version: 6.00 Build 0)  -->
<svg version="1.1" id="Calque_1" xmlns="http://www.w3.org/2000/svg" xmlns:xlink="http://www.w3.org/1999/xlink" x="0px" y="0px"
	 viewBox="0 0 100.8 165.6" style="enable-background:new 0 0 100.8 165.6;" xml:space="preserve">
<style type="text/css">
	.st0{fill:#4ED3F2;stroke:#010101;stroke-miterlimit:10;}
	.st1{fill:none;}
</style>
<g id="Calque_4">
	<rect x="0.5" y="0.5" class="st0" width="99.8" height="164.6"/>
	<line class="st0" x1="4" y1="6" x2="4" y2="161.7"/>
</g>
<polygon class="st1" points="86.3,78.3 91,78.3 91,78.3 "/>
<g>
	<path d="M34.2,87.8c-0.9-0.2-1.6-0.6-2.3-1c-0.7-0.5-1.4-1.1-2-2c-0.6-0.8-1.1-1.8-1.4-2.8c-0.3-1-0.5-2-0.5-2.9
		c0-1.3,0.3-2.5,0.8-3.7c0.5-1.2,1.3-2.3,2.3-3.2c0.7-0.7,1.6-1.3,2.5-1.7c1.1-0.5,2.2-0.7,3.3-0.7c1,0,1.9,0.2,2.9,0.5
		c0.6,0.2,1.1,0.5,1.6,0.9s0.9,0.8,1.4,1.4l0.8,0.9c0.2,0.3,0.3,0.5,0.3,0.8c0,0.3-0.1,0.6-0.4,0.9s-0.6,0.4-0.9,0.4
		s-0.7-0.2-0.9-0.5l-0.9-1.1c-0.2-0.3-0.5-0.5-0.8-0.7c-0.3-0.2-0.6-0.4-1-0.6c-0.7-0.3-1.4-0.4-2.1-0.4c-1.5,0.1-2.8,0.7-3.8,1.7
		c-1.5,1.5-2.3,3.1-2.3,5.1c0,1,0.3,2.1,0.8,3.2c0.5,1.1,1.2,1.9,1.9,2.4c0.4,0.3,1,0.5,1.6,0.7c0.6,0.2,1.3,0.3,1.9,0.3
		c2,0,3.3-0.6,4-1.7c0.1-0.2,0.3-0.6,0.4-1.1l0.3-0.8c0.1-0.3,0.3-0.5,0.5-0.6c0.2-0.2,0.4-0.2,0.7-0.2c0.3,0,0.6,0.1,0.9,0.4
		s0.4,0.5,0.4,0.9c0,0.1,0,0.3-0.1,0.4l-0.2,0.5c-0.3,0.9-0.5,1.5-0.6,1.8c-0.5,0.9-1.2,1.6-2.2,2.1c-0.9,0.5-2,0.8-3.2,0.9
		c-0.2,0-0.4,0-0.7,0C36,88.2,35.1,88,34.2,87.8z"/>
	<path d="M48.8,87.5c-1-0.5-1.7-1.1-2.2-1.9c-0.5-0.8-0.8-1.7-0.8-2.8c0-0.4,0.1-0.7,0.4-1c0.3-0.2,0.6-0.4,0.9-0.4
		c0.3,0,0.5,0.1,0.7,0.3s0.4,0.4,0.4,0.8c0.2,2.1,1.6,3.2,4.1,3.2c1.2,0,2.2-0.3,2.9-0.8c0.7-0.5,1.1-1.2,1.1-2
		c0-0.5-0.2-0.9-0.7-1.3c-0.5-0.3-1.1-0.6-2-0.9l-0.8-0.3c-1.6-0.5-2.8-1-3.5-1.4c-1-0.5-1.8-1.1-2.3-1.8c-0.5-0.7-0.8-1.5-0.8-2.5
		c0-0.8,0.3-1.6,0.8-2.4s1.3-1.4,2.2-1.9c1-0.5,2-0.7,3.2-0.7c1.2,0,2.3,0.2,3.3,0.7c1,0.5,1.7,1.1,2.3,1.8s0.8,1.5,0.8,2.4
		c0,0.4-0.1,0.8-0.4,1c-0.2,0.2-0.5,0.4-0.9,0.4c-0.3,0-0.6-0.1-0.9-0.4s-0.3-0.6-0.3-1c0-0.4-0.2-0.8-0.5-1.2
		c-0.4-0.4-0.8-0.7-1.4-0.9c-0.6-0.2-1.3-0.4-2-0.4c-1.2,0-2.1,0.2-2.8,0.6c-0.6,0.4-0.9,1-0.9,1.8c0,0.4,0.1,0.8,0.4,1.1
		c0.3,0.3,0.7,0.6,1.3,0.9c0.5,0.3,1.1,0.5,1.7,0.8c0.6,0.2,1.4,0.5,2.4,0.9c1.3,0.5,2.4,1,3.2,1.8c0.8,0.7,1.2,1.7,1.2,2.8
		c0,1.1-0.3,2-1,2.8s-1.5,1.4-2.5,1.9s-2.1,0.7-3.3,0.7C50.8,88.2,49.7,88,48.8,87.5z"/>
	<path d="M63.9,87.5c-1-0.5-1.7-1.1-2.2-1.9c-0.5-0.8-0.8-1.7-0.8-2.8c0-0.4,0.1-0.7,0.4-1c0.3-0.2,0.6-0.4,0.9-0.4
		c0.3,0,0.5,0.1,0.7,0.3s0.4,0.4,0.4,0.8c0.2,2.1,1.6,3.2,4.1,3.2c1.2,0,2.2-0.3,2.9-0.8c0.7-0.5,1.1-1.2,1.1-2
		c0-0.5-0.2-0.9-0.7-1.3c-0.5-0.3-1.1-0.6-2-0.9l-0.8-0.3c-1.6-0.5-2.8-1-3.5-1.4c-1-0.5-1.8-1.1-2.3-1.8c-0.5-0.7-0.8-1.5-0.8-2.5
		c0-0.8,0.3-1.6,0.8-2.4s1.3-1.4,2.2-1.9c1-0.5,2-0.7,3.2-0.7c1.2,0,2.3,0.2,3.3,0.7c1,0.5,1.7,1.1,2.3,1.8s0.8,1.5,0.8,2.4
		c0,0.4-0.1,0.8-0.4,1c-0.2,0.2-0.5,0.4-0.9,0.4c-0.3,0-0.6-0.1-0.9-0.4s-0.3-0.6-0.3-1c0-0.4-0.2-0.8-0.5-1.2
		c-0.4-0.4-0.8-0.7-1.4-0.9c-0.6-0.2-1.3-0.4-2-0.4c-1.2,0-2.1,0.2-2.8,0.6c-0.6,0.4-0.9,1-0.9,1.8c0,0.4,0.1,0.8,0.4,1.1
		c0.3,0.3,0.7,0.6,1.3,0.9c0.5,0.3,1.1,0.5,1.7,0.8c0.6,0.2,1.4,0.5,2.4,0.9c1.3,0.5,2.4,1,3.2,1.8c0.8,0.7,1.2,1.7,1.2,2.8
		c0,1.1-0.3,2-1,2.8s-1.5,1.4-2.5,1.9s-2.1,0.7-3.3,0.7C65.9,88.2,64.8,88,63.9,87.5z"/>
</g>
</svg>
