<svg id="Calque_1" data-name="Calque 1" xmlns="http://www.w3.org/2000/svg" viewBox="0 0 100.77 165.64"><defs><style>.cls-1{fill:#cd88ba;stroke:#010101;stroke-miterlimit:10;}.cls-2{fill:#1d1d1b;}</style></defs><g id="Calque_4" data-name="Calque 4"><rect class="cls-1" x="0.5" y="0.5" width="99.77" height="164.64"/><line class="cls-1" x1="3.97" y1="5.99" x2="3.97" y2="161.71"/></g><path class="cls-2" d="M90.74,142.39a.58.58,0,0,1-.15-.44.55.55,0,0,1,.13-.34c0-.4,0-1,0-1.82s0-1.44,0-1.87c0-.14,0-.41,0-.8v-.85c0-.18,0-.41,0-.71s0-.55-.07-.78a.55.55,0,0,1,.1-.45.61.61,0,0,1,.75-.19l.13,0a13.48,13.48,0,0,1,2.11,0,3.8,3.8,0,0,1,2.2.74,2.14,2.14,0,0,1,.67,1,2.36,2.36,0,0,1,.06,1.18,2.44,2.44,0,0,1-.49,1.07,2.26,2.26,0,0,1,.4.25,2.19,2.19,0,0,1,.67,1,1.87,1.87,0,0,1,0,1.07,2.63,2.63,0,0,1-.45,1,2.36,2.36,0,0,1-.77.71,4.18,4.18,0,0,1-.8.33c-.3.08-.57.15-.82.19a7.17,7.17,0,0,1-.9.07h-.82l-.83,0-.7,0A.59.59,0,0,1,90.74,142.39Zm2.43-4.64c.49,0,.87,0,1.14,0h.07a1.47,1.47,0,0,0,.55-.2,1.07,1.07,0,0,0,.53-.87,1,1,0,0,0-.34-.94,2.84,2.84,0,0,0-1.53-.47,14.74,14.74,0,0,0-1.73,0q0,.6,0,2.37h0l.67.09Zm0,3.71a6.18,6.18,0,0,0,1.2-.09,3.46,3.46,0,0,0,1-.36,1.18,1.18,0,0,0,.64-.86.88.88,0,0,0-.31-.88,2.55,2.55,0,0,0-1.32-.3,5.57,5.57,0,0,1-.85.06L92.52,139l-.29,0a.65.65,0,0,1-.19,0l-.15,0c0,.16,0,.53,0,1.13s0,1.07,0,1.39Z" transform="translate(-58.87 -56.73)"/><path class="cls-2" d="M100.86,142.61a2.78,2.78,0,0,1-1-.12A2.5,2.5,0,0,1,99,142a2.38,2.38,0,0,1-.8-1.29,2.69,2.69,0,0,1,0-1.38,4.75,4.75,0,0,1,.51-1.19,4.56,4.56,0,0,1,.74-1,3.94,3.94,0,0,1,.93-.67,2.16,2.16,0,0,1,1.1-.27,2.9,2.9,0,0,1,1.22.31,1.72,1.72,0,0,1,.21.15l.19.17.16.15s.07.08.07.09a.58.58,0,0,1,.21.43,10.19,10.19,0,0,1,.2,1.51c0,.53,0,1,0,1.49s0,1,0,1.47a.56.56,0,0,1-.16.42.59.59,0,0,1-.85,0,.59.59,0,0,1-.19-.41v-.18a2.22,2.22,0,0,1-.76.54A2.94,2.94,0,0,1,100.86,142.61Zm.73-1.36.27-.15a2.14,2.14,0,0,0,.34-.24,1.45,1.45,0,0,0,.33-.36l.06-.05a12.94,12.94,0,0,0-.21-2.6l-.08-.09-.06-.07s0,0,0,0l-.07,0a1.29,1.29,0,0,0-1.21,0,2.62,2.62,0,0,0-1.12,1.1,2.78,2.78,0,0,0-.47,1.42,1.28,1.28,0,0,0,1.14,1.29,2,2,0,0,0,.83-.06Z" transform="translate(-58.87 -56.73)"/><path class="cls-2" d="M106.25,142.46a.58.58,0,0,1-.44.15.59.59,0,0,1-.42-.19.56.56,0,0,1-.15-.43c0-1.06.05-1.87.05-2.42s0-1.38,0-2.48,0-1.92,0-2.47a.57.57,0,0,1,.17-.42.58.58,0,0,1,.43-.18.62.62,0,0,1,.6.6c0,.55,0,1.34,0,2.35s0,1.94,0,2.77,0,1.59,0,2.3A.59.59,0,0,1,106.25,142.46Z" transform="translate(-58.87 -56.73)"/><path class="cls-2" d="M109.31,134.67a.72.72,0,0,1-.71.71.69.69,0,0,1-.51-.21.73.73,0,0,1,0-1,.69.69,0,0,1,.51-.21.58.58,0,0,1,.5.21A.66.66,0,0,1,109.31,134.67ZM108,139.28c0-1.24,0-2.05,0-2.44a.62.62,0,0,1,.6-.6.58.58,0,0,1,.43.18.57.57,0,0,1,.17.42c0,.39,0,1.19,0,2.43s0,2.14,0,2.74a.64.64,0,0,1-.17.44.54.54,0,0,1-.42.18.61.61,0,0,1-.43-.17A.54.54,0,0,1,108,142Q108,141.14,108,139.28Z" transform="translate(-58.87 -56.73)"/><path class="cls-2" d="M110.78,141.89a1.47,1.47,0,0,1-.27-.67l-.05-.26a1.24,1.24,0,0,0,0-.19.57.57,0,0,1,.41-.72.63.63,0,0,1,.45,0,.56.56,0,0,1,.29.35,2.21,2.21,0,0,1,.07.3.5.5,0,0,1,0,.12s0,.09,0,.18a.52.52,0,0,0,.17.27.81.81,0,0,0,.43.16,2.44,2.44,0,0,0,1,0,2.19,2.19,0,0,0,.84-.35.45.45,0,0,0,.18-.39.64.64,0,0,0-.42-.51,7.53,7.53,0,0,0-1.25-.29,3.81,3.81,0,0,1-1.48-.52,1.55,1.55,0,0,1-.51-1.76,1.56,1.56,0,0,1,.69-1,2.39,2.39,0,0,1,1.15-.35,3.49,3.49,0,0,1,1.1.13,3.23,3.23,0,0,1,1,.41,3.89,3.89,0,0,1,.55.52c.1.1.15.16.17.16a.59.59,0,0,1-.42,1,.61.61,0,0,1-.42-.17l-.24-.23-.17-.2-.17-.12a2.18,2.18,0,0,0-.59-.25,2.88,2.88,0,0,0-.71-.09c-.42,0-.66.18-.73.45s0,.47.07.56a2.82,2.82,0,0,0,1,.31,7.49,7.49,0,0,1,1.52.38,1.75,1.75,0,0,1,1.12,1.42,1.5,1.5,0,0,1-.6,1.4,3.14,3.14,0,0,1-1.37.61,3.51,3.51,0,0,1-1.51,0A1.86,1.86,0,0,1,110.78,141.89Z" transform="translate(-58.87 -56.73)"/><path class="cls-2" d="M118.14,142.31a2.6,2.6,0,0,1-1-.75,3.91,3.91,0,0,1-.5-.84,2.76,2.76,0,0,1-.2-.76,5,5,0,0,1,0-1,3.23,3.23,0,0,1,.35-1,3.14,3.14,0,0,1,1.81-1.48,3.23,3.23,0,0,1,1.36-.13,3.1,3.1,0,0,1,1.18.38,3,3,0,0,1,.84.75,2.33,2.33,0,0,1,.37.58q.06.19.12.36a3,3,0,0,1,.09.29c0,.08,0,.16.07.24a2.19,2.19,0,0,1,0,.3.76.76,0,0,1-.09.42.8.8,0,0,1-.28.3,1,1,0,0,1-.34.06l-2,0c-1.44,0-2.16,0-2.16,0h0a1.61,1.61,0,0,0,.66,1,2.67,2.67,0,0,0,1.36.41,3.06,3.06,0,0,0,.78-.05,2.79,2.79,0,0,0,.5-.17l.39-.21a.59.59,0,0,1,.76.36.56.56,0,0,1,0,.44.81.81,0,0,1-.32.34,2.87,2.87,0,0,1-.4.18,5.54,5.54,0,0,1-.6.19,4.5,4.5,0,0,1-1.17.09A4.42,4.42,0,0,1,118.14,142.31Zm3.24-3.43a2.1,2.1,0,0,0-.35-.68,1.83,1.83,0,0,0-1.19-.64,1.77,1.77,0,0,0-1.31.32,2,2,0,0,0-.76,1.07C118.23,138.93,119.43,138.91,121.38,138.88Z" transform="translate(-58.87 -56.73)"/><path class="cls-2" d="M123.84,141.89a1.59,1.59,0,0,1-.28-.67l0-.26a1.49,1.49,0,0,0,0-.19.55.55,0,0,1,.4-.72.66.66,0,0,1,.46,0,.59.59,0,0,1,.29.35c0,.09,0,.19.07.3s0,.08,0,.12a1.63,1.63,0,0,0,0,.18.46.46,0,0,0,.17.27.78.78,0,0,0,.43.16,2.4,2.4,0,0,0,1,0,2.19,2.19,0,0,0,.84-.35.4.4,0,0,0,.18-.39.6.6,0,0,0-.42-.51,7.26,7.26,0,0,0-1.25-.29,3.81,3.81,0,0,1-1.47-.52,1.76,1.76,0,0,1,.17-2.75,2.46,2.46,0,0,1,1.16-.35,3.49,3.49,0,0,1,1.1.13,3.06,3.06,0,0,1,1,.41,2.6,2.6,0,0,1,.28.23,3.9,3.9,0,0,1,.28.29,1,1,0,0,0,.16.16.58.58,0,0,1,.18.42.58.58,0,0,1-.59.58.61.61,0,0,1-.43-.17l-.24-.23-.17-.2-.16-.12a2.33,2.33,0,0,0-.59-.25,2.94,2.94,0,0,0-.71-.09c-.42,0-.67.18-.73.45s0,.47.07.56a2.75,2.75,0,0,0,1,.31,7.64,7.64,0,0,1,1.53.38,1.76,1.76,0,0,1,1.11,1.42,1.5,1.5,0,0,1-.6,1.4,3.09,3.09,0,0,1-1.37.61,3.51,3.51,0,0,1-1.51,0A1.84,1.84,0,0,1,123.84,141.89Z" transform="translate(-58.87 -56.73)"/></svg>