<svg id="Calque_1" data-name="Calque 1" xmlns="http://www.w3.org/2000/svg" viewBox="0 0 121.54 94.17"><defs><style>.cls-1{fill:#46a4dc;}.cls-2{fill:#fff;}.cls-3,.cls-4,.cls-5{fill:none;stroke:#010101;stroke-width:0.25px;}.cls-3{stroke-miterlimit:10;}.cls-4{stroke-miterlimit:6;}.cls-5{stroke-linejoin:round;}</style></defs><polygon class="cls-1" points="121.42 93.63 60.77 94.04 0.13 93.63 0.13 0.63 60.22 0.14 121.42 0.63 121.42 93.63"/><polygon class="cls-2" points="119.41 91.83 90.16 90.59 60.8 92.14 46 90.59 24.32 90.23 3.06 91.79 2.64 3.51 5.04 2.71 22.39 1.24 38.88 1.24 60.8 2.71 86.99 1.33 107.11 2.12 116.8 3.51 119.79 4.83 119.41 91.83"/><polyline class="cls-3" points="56.48 93.63 0.13 93.63 0.13 0.63 56.48 0.63"/><polyline class="cls-3" points="65.06 0.63 121.42 0.63 121.42 93.63 65.06 93.63"/><path class="cls-3" d="M83.16,92.58V91.25l.45-.1a19.71,19.71,0,0,1,8.41.11h-.54l0,1.71" transform="translate(-26.67 -90.62)"/><path class="cls-3" d="M91.59,184.25" transform="translate(-26.67 -90.62)"/><path class="cls-3" d="M83.26,184.25" transform="translate(-26.67 -90.62)"/><path class="cls-3" d="M83.16,182.67v1.58a22.51,22.51,0,0,0,8.58,0l-.15-1.58" transform="translate(-26.67 -90.62)"/><path class="cls-3" d="M87.47,93.33s33.76-3.6,56,.81v87.09s-29.14-5.56-56,1.53a128.47,128.47,0,0,0-55-1.53l-.77-87.9S53.7,89.65,87.47,93.33Z" transform="translate(-26.67 -90.62)"/><path class="cls-4" d="M87.59,93.25v89.42H83.16s-21.93-3.89-53.43-.25l2.87-1.28" transform="translate(-26.67 -90.62)"/><path class="cls-5" d="M87.59,182.67h4s18.71-3.13,54.49-.22l-2.49-1.31" transform="translate(-26.67 -90.62)"/><polyline class="cls-5" points="116.91 3.43 119.79 4.83 119.41 91.83"/><polyline class="cls-5" points="5.16 2.62 2.64 3.51 3.05 92.02"/><line class="cls-5" x1="3.9" y1="4.58" x2="3.9" y2="29.3"/><line class="cls-5" x1="3.64" y1="91.18" x2="3.64" y2="49.97"/><line class="cls-5" x1="4.61" y1="67.21" x2="4.61" y2="26"/><line class="cls-5" x1="117.68" y1="45.07" x2="117.68" y2="3.86"/><line class="cls-5" x1="118.35" y1="67.21" x2="118.35" y2="10.9"/><line class="cls-5" x1="117.68" y1="88.34" x2="117.68" y2="71.33"/><line class="cls-5" x1="4.61" y1="85.91" x2="4.61" y2="73.2"/></svg>