<?xml version="1.0" encoding="utf-8"?>
<!-- Generator: Adobe Illustrator 25.2.0, SVG Export Plug-In . SVG Version: 6.00 Build 0)  -->
<svg version="1.1" id="Calque_1" xmlns="http://www.w3.org/2000/svg" xmlns:xlink="http://www.w3.org/1999/xlink" x="0px" y="0px"
	 viewBox="0 0 100.8 165.6" style="enable-background:new 0 0 100.8 165.6;" xml:space="preserve">
<style type="text/css">
	.st0{fill:#F4DF4A;stroke:#010101;stroke-miterlimit:10;}
	.st1{fill:none;}
</style>
<g id="Calque_4">
	<rect x="0.5" y="0.5" class="st0" width="99.8" height="164.6"/>
	<line class="st0" x1="4" y1="6" x2="4" y2="161.7"/>
</g>
<polygon class="st1" points="86.3,78.3 91,78.3 91,78.3 "/>
<g>
	<path d="M19,74c-0.9-0.4-1.6-1.1-2.1-2.1c-0.1-0.2-0.2-0.5-0.3-0.8c-0.1-0.3-0.1-0.6-0.2-0.9c0-0.3-0.1-0.5-0.1-0.5
		c-0.1-0.3,0-0.7,0.2-1c0.2-0.3,0.4-0.5,0.8-0.6c0.4-0.1,0.7,0,1,0.2c0.3,0.2,0.5,0.5,0.6,0.8C19,69.5,19,69.7,19,70
		c0,0.2,0.1,0.4,0.1,0.5c0,0.1,0.1,0.2,0.1,0.4c0.2,0.4,0.5,0.7,0.9,0.9c0.4,0.2,0.9,0.2,1.4,0.2c0.5-0.1,1-0.3,1.4-0.6
		c0.4-0.3,0.7-0.6,0.8-1c0.3-0.9,0.6-2,0.7-3.5c0.1-1.4,0.1-2.7,0.1-3.9c0-1.2-0.1-2.7-0.2-4.4c-0.8,0-1.5,0.1-2.3,0.1
		c-0.4,0-0.7-0.1-1-0.3c-0.3-0.2-0.4-0.5-0.4-0.9c0-0.4,0.1-0.7,0.3-0.9s0.5-0.4,0.9-0.5c1.1-0.1,2.3-0.1,3.6-0.1l0.2,0
		c0.9,0,2,0,3.1,0c0.3,0,0.6,0.2,0.9,0.4c0.3,0.3,0.4,0.6,0.4,0.9c0,0.4-0.2,0.7-0.4,0.9c-0.3,0.3-0.6,0.4-0.9,0.4l-1.6,0
		c0.5,6.1,0.2,10.4-0.7,12.8c-0.4,0.9-0.9,1.6-1.8,2.2c-0.8,0.6-1.7,0.9-2.6,1C20.9,74.6,19.9,74.4,19,74z"/>
	<path d="M36.2,74.4c-0.8,0-1.5,0-2.2-0.3c-0.7-0.2-1.3-0.5-1.8-1c-0.9-0.7-1.5-1.7-1.8-2.8c-0.3-1.1-0.3-2.1,0-3
		c0.2-0.9,0.6-1.7,1.1-2.6c0.5-0.8,1-1.6,1.6-2.1c0.6-0.6,1.2-1.1,2-1.5c0.8-0.4,1.6-0.6,2.4-0.6c0.8,0,1.7,0.2,2.6,0.7
		c0.1,0.1,0.3,0.2,0.5,0.3c0.2,0.1,0.3,0.3,0.4,0.4l0.3,0.3c0.1,0.1,0.2,0.2,0.2,0.2c0.3,0.2,0.4,0.6,0.4,0.9c0.2,1,0.4,2.1,0.5,3.3
		c0.1,1.1,0.1,2.2,0.1,3.2c0,1,0,2.1,0.1,3.2c0,0.3-0.1,0.7-0.3,0.9c-0.2,0.3-0.5,0.4-0.9,0.4c-0.4,0-0.7-0.1-0.9-0.3
		c-0.3-0.2-0.4-0.5-0.4-0.9l0-0.4c-0.5,0.5-1.1,0.9-1.6,1.2C37.7,74.2,37,74.4,36.2,74.4z M37.8,71.4c0.2-0.1,0.3-0.2,0.6-0.3
		c0.2-0.1,0.5-0.3,0.7-0.5s0.5-0.5,0.7-0.8c0,0,0.1-0.1,0.1-0.1c0-2.3-0.2-4.2-0.5-5.6c-0.1-0.1-0.1-0.1-0.2-0.2
		c-0.1-0.1-0.1-0.1-0.1-0.1c0,0-0.1-0.1-0.1-0.1c0,0-0.1-0.1-0.1-0.1c-0.8-0.4-1.7-0.5-2.6,0c-0.9,0.4-1.7,1.2-2.4,2.4
		c-0.7,1.2-1,2.2-1,3.1s0.4,1.6,1,2.2c0.4,0.3,0.9,0.5,1.5,0.6c0.6,0.1,1.2,0,1.8-0.1C37.4,71.6,37.6,71.5,37.8,71.4z"/>
	<path d="M49.1,74.1c-0.1-0.1-0.2-0.1-0.2-0.2c-0.1-0.1-0.1-0.1-0.2-0.2l-0.2-0.4c-0.1-0.2-0.2-0.5-0.4-0.9l-0.5-1.2
		c-0.3-0.7-0.9-2.2-1.8-4.6c-0.9-2.4-1.5-3.8-1.7-4.3c-0.1-0.3-0.1-0.7,0-1c0.1-0.3,0.4-0.6,0.7-0.7c0.3-0.1,0.7-0.1,1,0
		s0.6,0.4,0.7,0.7c0.1,0.4,0.7,1.8,1.6,4.3s1.6,4,1.8,4.6l0.1,0.2c0.1-0.1,0.1-0.2,0.2-0.4c0.1-0.1,0.1-0.2,0.1-0.3
		c0-0.1,0.1-0.2,0.1-0.2l0.1-0.1c0.1-0.3,0.6-1.5,1.4-3.5c0.8-2.1,1.5-3.6,2-4.7c0.2-0.3,0.4-0.5,0.8-0.6c0.3-0.1,0.7-0.1,1,0.1
		s0.5,0.4,0.6,0.8c0.1,0.3,0.1,0.7-0.1,1c-0.5,1-1.2,2.5-1.9,4.3s-1.2,3.1-1.4,3.7l-0.7,1.6c-0.2,0.5-0.5,0.9-0.7,1.2
		c-0.2,0.2-0.3,0.4-0.5,0.5c-0.3,0.3-0.7,0.5-1,0.5C49.7,74.4,49.4,74.3,49.1,74.1z"/>
	<path d="M63.1,74.3c-0.8,0-1.5,0-2.2-0.3c-0.7-0.2-1.3-0.5-1.8-1c-0.9-0.7-1.5-1.7-1.8-2.8c-0.3-1.1-0.3-2.1,0-3
		c0.2-0.9,0.6-1.7,1.1-2.6c0.5-0.8,1-1.6,1.6-2.1s1.2-1.1,2-1.5c0.8-0.4,1.6-0.6,2.4-0.6c0.8,0,1.7,0.2,2.6,0.7
		c0.1,0.1,0.3,0.2,0.5,0.3c0.2,0.1,0.3,0.3,0.4,0.4l0.3,0.3c0.1,0.1,0.2,0.2,0.2,0.2c0.3,0.2,0.4,0.6,0.4,0.9c0.2,1,0.4,2.1,0.5,3.3
		c0.1,1.1,0.1,2.2,0.1,3.2c0,1,0,2.1,0.1,3.2c0,0.3-0.1,0.7-0.3,0.9s-0.5,0.4-0.9,0.4c-0.4,0-0.7-0.1-0.9-0.3
		c-0.3-0.2-0.4-0.5-0.4-0.9l0-0.4c-0.5,0.5-1.1,0.9-1.6,1.2C64.6,74.1,63.9,74.2,63.1,74.3z M64.7,71.3c0.2-0.1,0.3-0.2,0.6-0.3
		c0.2-0.1,0.5-0.3,0.7-0.5c0.3-0.2,0.5-0.5,0.7-0.8c0,0,0.1-0.1,0.1-0.1c0-2.3-0.2-4.2-0.5-5.6c-0.1-0.1-0.1-0.1-0.2-0.2
		c-0.1-0.1-0.1-0.1-0.1-0.1c0,0-0.1-0.1-0.1-0.1c0,0-0.1-0.1-0.1-0.1c-0.8-0.4-1.7-0.5-2.6,0c-0.9,0.4-1.7,1.2-2.4,2.4
		c-0.7,1.2-1,2.2-1,3.1c0,0.9,0.4,1.6,1,2.2c0.4,0.3,0.9,0.5,1.5,0.6c0.6,0.1,1.2,0,1.8-0.1C64.3,71.4,64.5,71.4,64.7,71.3z"/>
	<path d="M72.7,68c-0.2-0.2-0.4-0.5-0.4-0.8c0-0.4,0.1-0.7,0.3-0.9s0.5-0.4,0.8-0.4c0.6,0,1.4-0.1,2.4-0.1c1,0,1.7-0.1,2-0.1
		c0.3,0,0.6,0.1,0.9,0.3c0.3,0.2,0.4,0.5,0.4,0.9c0,0.4-0.1,0.7-0.3,0.9C78.6,67.9,78.3,68,78,68c-0.3,0-1,0-2,0.1
		c-1,0-1.8,0.1-2.4,0.1C73.3,68.3,73,68.2,72.7,68z"/>
	<path d="M20.5,105.2c-1-0.5-1.8-1.1-2.3-2c-0.6-0.8-0.9-1.8-0.9-2.9c0-0.4,0.1-0.8,0.4-1c0.3-0.3,0.6-0.4,0.9-0.4
		c0.3,0,0.5,0.1,0.8,0.3c0.2,0.2,0.4,0.4,0.4,0.8c0.3,2.2,1.7,3.3,4.3,3.3c1.3,0,2.3-0.3,3-0.8c0.7-0.6,1.1-1.3,1.1-2.1
		c0-0.5-0.3-1-0.8-1.3c-0.5-0.4-1.2-0.7-2.1-0.9l-0.8-0.3c-1.7-0.6-3-1-3.7-1.4c-1.1-0.5-1.9-1.2-2.4-1.9C18,93.9,17.7,93,17.7,92
		c0-0.9,0.3-1.7,0.8-2.5c0.5-0.8,1.3-1.5,2.3-2s2.1-0.8,3.3-0.8c1.3,0,2.4,0.2,3.4,0.7c1,0.5,1.8,1.1,2.3,1.9
		c0.6,0.8,0.8,1.6,0.8,2.5c0,0.5-0.1,0.8-0.4,1.1c-0.2,0.3-0.6,0.4-0.9,0.4c-0.3,0-0.6-0.1-0.9-0.4s-0.4-0.6-0.4-1
		c0-0.4-0.2-0.9-0.6-1.3s-0.9-0.7-1.5-1c-0.6-0.2-1.3-0.4-2.1-0.4c-1.3,0-2.2,0.2-2.9,0.7c-0.6,0.4-0.9,1.1-1,1.8
		c0,0.4,0.1,0.8,0.4,1.1c0.3,0.3,0.7,0.6,1.3,1c0.6,0.3,1.1,0.6,1.8,0.8c0.6,0.2,1.5,0.5,2.5,0.9c1.4,0.5,2.5,1.1,3.3,1.8
		c0.8,0.8,1.2,1.7,1.3,2.9c0,1.1-0.3,2.1-1,2.9c-0.7,0.9-1.5,1.5-2.6,2s-2.2,0.7-3.4,0.7C22.6,106,21.5,105.7,20.5,105.2z"/>
	<path d="M36.9,105.1c-0.9-0.4-1.7-0.9-2.3-1.6c-0.6-0.7-1-1.6-1.3-2.6c-0.2-1-0.2-2,0-2.9c0.2-0.9,0.5-1.8,0.9-2.7
		c0.3-0.6,0.8-1.2,1.2-1.7c0.5-0.5,1-0.9,1.7-1.3c0.6-0.4,1.3-0.6,2.1-0.6c0.7,0,1.5,0.1,2.4,0.5c0.5,0.2,0.9,0.5,1.4,1l0.8,0.8
		c0.3,0.2,0.4,0.5,0.5,0.9c0,0.4-0.1,0.7-0.3,1s-0.5,0.4-0.9,0.5c-0.4,0-0.7-0.1-0.9-0.3c-0.2-0.1-0.3-0.3-0.5-0.5l-0.4-0.4
		c-0.2-0.2-0.4-0.4-0.6-0.5c-0.8-0.3-1.5-0.3-2.2,0c-0.7,0.4-1.3,1-1.8,1.9c-0.5,1-0.8,1.9-0.8,2.9c0,1,0.3,1.7,0.8,2.3
		c0.3,0.4,0.8,0.7,1.4,0.9c0.6,0.2,1.2,0.3,1.9,0.3c1.3,0,2.2-0.5,2.6-1.4l0-0.1l0-0.8c0-0.4,0.2-0.7,0.4-0.9s0.6-0.3,0.9-0.3
		c0.4,0,0.7,0.2,0.9,0.4s0.3,0.6,0.3,0.9l0,0.6c0,0.4,0,0.8-0.2,1.1c-0.4,1-1,1.8-2,2.3c-0.9,0.5-1.9,0.8-3,0.8
		C38.8,105.7,37.8,105.5,36.9,105.1z"/>
	<path d="M48,105.2c-0.3-0.2-0.4-0.5-0.4-0.9L47.5,99c0-1.2,0-2.7,0-4.5l0-1.5c0-0.4,0.1-0.7,0.4-0.9c0.2-0.2,0.5-0.3,0.9-0.3
		c0.4,0,0.7,0.1,1,0.3c0.3,0.2,0.4,0.6,0.4,1l0,0.8c0.2-0.4,0.5-0.8,1.1-1.1c0.7-0.4,1.5-0.7,2.3-0.7c0.6,0,1.1,0.1,1.5,0.3
		s0.5,0.6,0.5,1.1c0,0.3-0.1,0.6-0.3,0.9c-0.2,0.2-0.5,0.4-0.9,0.4c-1.5,0-2.5,0.2-3,0.6c-0.3,0.2-0.6,0.5-0.8,0.8
		c-0.2,0.3-0.3,0.6-0.3,0.9l0.1,3.3l0,4.1c0,0.4-0.1,0.7-0.4,1c-0.3,0.2-0.6,0.4-0.9,0.4C48.6,105.5,48.3,105.4,48,105.2z"/>
	<path d="M59.7,88.3c0,0.4-0.1,0.8-0.4,1.1c-0.3,0.3-0.7,0.4-1.1,0.4c-0.4,0-0.8-0.1-1.1-0.4s-0.4-0.7-0.4-1.1
		c0-0.4,0.1-0.8,0.4-1.1c0.3-0.3,0.7-0.5,1.1-0.5c0.4,0,0.8,0.1,1.1,0.4C59.6,87.5,59.7,87.8,59.7,88.3z M56.9,98.3
		c0-2.7,0-4.4,0-5.3c0-0.4,0.1-0.7,0.4-0.9c0.3-0.3,0.6-0.4,0.9-0.4c0.4,0,0.7,0.1,0.9,0.4c0.3,0.3,0.4,0.6,0.4,0.9
		c0,0.8,0,2.6,0,5.3c0,2.7,0,4.7,0,6c0,0.4-0.1,0.7-0.4,0.9s-0.5,0.4-0.9,0.4s-0.7-0.1-0.9-0.4s-0.4-0.5-0.4-0.9
		C56.9,103,56.9,101,56.9,98.3z"/>
	<path d="M65.2,110.3c-0.3,0.2-0.6,0.4-0.9,0.4s-0.7-0.1-0.9-0.4c-0.2-0.3-0.4-0.6-0.4-0.9c0-3.4,0.1-8.9,0-16.4
		c0-0.4,0.1-0.7,0.4-0.9c0.3-0.3,0.6-0.4,0.9-0.4c0.3,0,0.5,0.1,0.7,0.3c0.2,0.2,0.4,0.5,0.5,0.9l0.4-0.2c1-0.6,2.1-1,3.1-1
		c1-0.1,1.9,0.2,2.8,0.7c0.8,0.4,1.4,1,1.9,1.8c0.5,0.8,0.9,1.6,1.2,2.5c0.2,0.7,0.3,1.4,0.3,2.1c0,0.7-0.1,1.4-0.3,2.1
		c-0.2,0.6-0.5,1.3-0.9,1.9c-0.4,0.6-1,1.2-1.7,1.6s-1.5,0.8-2.5,1c-1.6,0.3-3,0-4.2-0.8c0,1.6,0,3.2-0.1,4.8
		C65.6,109.7,65.5,110,65.2,110.3z M72.1,100.9c0.5-1,0.6-2.2,0.2-3.6c-0.4-1.4-1-2.3-1.9-2.8c-0.9-0.5-2-0.4-3.2,0.3
		c-0.6,0.3-0.9,0.6-1,0.7c-0.1,0.1-0.1,0.1-0.1,0.1c0,0-0.1,0.1-0.2,0.3l-0.3,0.5l0,4.3c0.1,0.1,0.2,0.2,0.2,0.3
		c0.5,0.8,1,1.3,1.5,1.6c0.5,0.3,1.2,0.4,2,0.2C70.7,102.6,71.6,101.9,72.1,100.9z"/>
	<path d="M81.4,105.1c-0.3-0.1-0.6-0.1-0.8-0.2c-0.2-0.1-0.5-0.2-0.8-0.4c-0.3-0.2-0.6-0.4-0.8-0.7c-0.2-0.3-0.5-0.6-0.6-1
		c-0.2-0.5-0.3-1.4-0.4-2.8c-0.1-1.1-0.1-2.4,0-4.1c0-0.3,0-0.8,0-1.6l-0.2,0c-0.4,0-0.7-0.1-1-0.3c-0.3-0.2-0.4-0.5-0.5-0.9
		c0-0.4,0-0.7,0.3-1c0.2-0.3,0.5-0.4,0.9-0.5l0.6-0.1c0-0.9,0-1.8,0.1-2.8c0-0.4,0.2-0.7,0.4-0.9c0.3-0.2,0.6-0.4,0.9-0.3
		c0.4,0,0.7,0.2,0.9,0.4c0.2,0.3,0.4,0.6,0.3,0.9l-0.1,2.5l0.9-0.1c0.4,0,0.7,0.1,1,0.3c0.3,0.2,0.4,0.5,0.4,0.9
		c0,0.4-0.1,0.7-0.3,1c-0.2,0.3-0.5,0.4-0.9,0.5l-1.1,0.1c0,0.8,0,1.4,0,1.8c0,1.6,0,3,0,4c0,1,0.1,1.6,0.2,1.8
		c0.1,0.2,0.1,0.3,0.2,0.3c0,0.1,0.1,0.1,0.2,0.2c0.1,0.1,0.2,0.1,0.3,0.1c0.1,0,0.3,0.1,0.6,0.1c0.3,0.1,0.6,0.2,0.9,0.3
		c0.3,0.1,0.6,0.3,0.7,0.6c0.2,0.3,0.2,0.6,0.1,1c-0.1,0.3-0.3,0.6-0.6,0.8s-0.7,0.2-1,0.1C82,105.3,81.8,105.2,81.4,105.1z"/>
</g>
</svg>
