<?xml version="1.0" encoding="utf-8"?>
<!-- Generator: Adobe Illustrator 25.2.0, SVG Export Plug-In . SVG Version: 6.00 Build 0)  -->
<svg version="1.1" id="Calque_1" xmlns="http://www.w3.org/2000/svg" xmlns:xlink="http://www.w3.org/1999/xlink" x="0px" y="0px"
	 viewBox="0 0 121.5 94.2" style="enable-background:new 0 0 121.5 94.2;" xml:space="preserve">
<style type="text/css">
	.st0{fill:#C1AAFF;}
	.st1{fill:#FFFFFF;}
	.st2{fill:none;stroke:#010101;stroke-width:0.25;stroke-miterlimit:10;}
	.st3{fill:none;stroke:#010101;stroke-width:0.25;stroke-miterlimit:6;}
	.st4{fill:none;stroke:#010101;stroke-width:0.25;stroke-linejoin:round;}
</style>
<polygon class="st0" points="121.4,93.6 60.8,94 0.1,93.6 0.1,0.6 60.2,0.1 121.4,0.6 "/>
<polygon class="st1" points="119.4,91.8 90.2,90.6 60.8,92.1 46,90.6 24.3,90.2 3.1,91.8 2.6,3.5 5,2.7 22.4,1.2 38.9,1.2 60.8,2.7 
	87,1.3 107.1,2.1 116.8,3.5 119.8,4.8 "/>
<polyline class="st2" points="56.5,93.6 0.1,93.6 0.1,0.6 56.5,0.6 "/>
<polyline class="st2" points="65.1,0.6 121.4,0.6 121.4,93.6 65.1,93.6 "/>
<path class="st2" d="M56.5,2V0.6l0.4-0.1C59.7,0,62.6,0,65.4,0.6h-0.5v1.7"/>
<path class="st2" d="M64.9,93.6"/>
<path class="st2" d="M56.6,93.6"/>
<path class="st2" d="M56.5,92v1.6c2.8,0.6,5.7,0.6,8.6,0L64.9,92"/>
<path class="st2" d="M60.8,2.7c0,0,33.8-3.6,56,0.8v87.1c0,0-29.1-5.6-56,1.5c-18-4.5-36.8-5-55-1.5L5,2.7C5,2.7,27-1,60.8,2.7z"/>
<path class="st3" d="M60.9,2.6V92h-4.4c0,0-21.9-3.9-53.4-0.3l2.9-1.3"/>
<path class="st4" d="M60.9,92h4c0,0,18.7-3.1,54.5-0.2l-2.5-1.3"/>
<polyline class="st4" points="116.9,3.4 119.8,4.8 119.4,91.8 "/>
<polyline class="st4" points="5.2,2.6 2.6,3.5 3,92 "/>
<line class="st4" x1="3.9" y1="4.6" x2="3.9" y2="29.3"/>
<line class="st4" x1="3.6" y1="91.2" x2="3.6" y2="50"/>
<line class="st4" x1="4.6" y1="67.2" x2="4.6" y2="26"/>
<line class="st4" x1="117.7" y1="45.1" x2="117.7" y2="3.9"/>
<line class="st4" x1="118.3" y1="67.2" x2="118.3" y2="10.9"/>
<line class="st4" x1="117.7" y1="88.3" x2="117.7" y2="71.3"/>
<line class="st4" x1="4.6" y1="85.9" x2="4.6" y2="73.2"/>
</svg>
