<svg id="Calque_1" data-name="Calque 1" xmlns="http://www.w3.org/2000/svg" viewBox="0 0 100.77 165.64"><defs><style>.cls-1{fill:#66b32e;stroke:#010101;stroke-miterlimit:10;}.cls-2{fill:#1d1d1b;}</style></defs><g id="Calque_4" data-name="Calque 4"><rect class="cls-1" x="0.5" y="0.5" width="99.77" height="164.64"/><line class="cls-1" x1="3.97" y1="5.99" x2="3.97" y2="161.71"/></g><path class="cls-2" d="M94.4,140.16h-.09l-.2,0h-.26a1,1,0,0,1-.25,0,1.17,1.17,0,0,1-1.13-.82.77.77,0,0,1,.06-.55,1.24,1.24,0,0,1,.16-.29,6.84,6.84,0,0,1,.43-.59c.22-.29.48-.61.77-.94l.81-.95,1-1.06.79-.92.84-.94.06-.08.11-.13.11-.15H95.79a12.8,12.8,0,0,0-2.35.16.58.58,0,0,1-.45-.09.61.61,0,0,1-.17-.84.61.61,0,0,1,.38-.25,14.37,14.37,0,0,1,2.59-.18h2.74l.08,0a.5.5,0,0,1,.27.17.91.91,0,0,1,.14.9,2.32,2.32,0,0,1-.29.56,2.7,2.7,0,0,1-.31.43l-.09.12-.08.09-2.64,2.94-.81.94-.74.9-.23.33.25,0,.27,0a46.06,46.06,0,0,1,4.82,0,.56.56,0,0,1,.41.2.58.58,0,0,1,.15.44.56.56,0,0,1-.2.41.58.58,0,0,1-.44.15A43.62,43.62,0,0,0,94.4,140.16Z" transform="translate(-60.75 -54.27)"/><path class="cls-2" d="M101.28,139.44a3.5,3.5,0,0,1-.94-2,3.45,3.45,0,0,1,.23-1.83,3.09,3.09,0,0,1,1.37-1.63,1.43,1.43,0,0,1,.48-.15l.16,0,.1,0a.64.64,0,0,1,.36,0h.47l.21,0,.25,0,.22.08.28.12.29.17a2.72,2.72,0,0,1,1.08,1.48,2.94,2.94,0,0,1,.15,1.55,4.32,4.32,0,0,1-.38,1.2,3.45,3.45,0,0,1-.76,1,2.58,2.58,0,0,1-1,.58A2.44,2.44,0,0,1,101.28,139.44Zm3-1.14a2.56,2.56,0,0,0,.48-1,2.16,2.16,0,0,0-.08-1.14,1.61,1.61,0,0,0-.64-.89l-.21-.14-.2-.07-.18,0h-.28l-.38,0h-.23l-.09,0a1.89,1.89,0,0,0-.81.92,2.23,2.23,0,0,0-.16,1.3,2.1,2.1,0,0,0,.59,1.23,1.49,1.49,0,0,0,1.31.34A1.37,1.37,0,0,0,104.32,138.3Z" transform="translate(-60.75 -54.27)"/><path class="cls-2" d="M107.58,140a.56.56,0,0,1-.18-.44c0-.63,0-1.17,0-1.63,0-1.36,0-2.54,0-3.54a.56.56,0,0,1,.17-.43.56.56,0,0,1,.41-.16.72.72,0,0,1,.44.16.58.58,0,0,1,.18.45v.38a2.36,2.36,0,0,1,2-1,1.9,1.9,0,0,1,1.6.74,3.15,3.15,0,0,1,.56,2c0,.92,0,1.52,0,1.8l-.06.81,0,.51a.56.56,0,0,1-.19.39.62.62,0,0,1-.81,0,.56.56,0,0,1-.18-.44c0-.13,0-.57.08-1.33,0-.52.06-.93.06-1.22a3,3,0,0,0-.29-1.51,1,1,0,0,0-.88-.49,1.79,1.79,0,0,0-.9.27,3.9,3.9,0,0,0-.87.67l0,1.7,0,1.91a.56.56,0,0,1-.18.44.63.63,0,0,1-.84,0Z" transform="translate(-60.75 -54.27)"/><path class="cls-2" d="M115.46,132.22a.69.69,0,0,1-.2.5.69.69,0,0,1-.51.21.72.72,0,0,1-.71-.71.69.69,0,0,1,.21-.51.74.74,0,0,1,.51-.21.66.66,0,0,1,.5.21A.73.73,0,0,1,115.46,132.22Zm-1.31,4.61c0-1.24,0-2.06,0-2.44a.57.57,0,0,1,.17-.43.61.61,0,0,1,.43-.17.59.59,0,0,1,.42.17.58.58,0,0,1,.18.43c0,.38,0,1.19,0,2.42s0,2.15,0,2.75a.61.61,0,0,1-.17.43.54.54,0,0,1-.42.18.6.6,0,0,1-.43-.16.58.58,0,0,1-.18-.42C114.12,139,114.13,138.07,114.15,136.83Z" transform="translate(-60.75 -54.27)"/><path class="cls-2" d="M117.15,140a.56.56,0,0,1-.18-.44c0-.63,0-1.17,0-1.63,0-1.36,0-2.54,0-3.54a.56.56,0,0,1,.57-.59.68.68,0,0,1,.44.16.55.55,0,0,1,.19.45v.38a2.34,2.34,0,0,1,2-1,1.91,1.91,0,0,1,1.61.74,3.15,3.15,0,0,1,.55,2q0,1.38,0,1.8l-.06.81,0,.51a.56.56,0,0,1-.19.39.61.61,0,0,1-.4.14.6.6,0,0,1-.42-.16.56.56,0,0,1-.18-.44c0-.13,0-.57.09-1.33,0-.52.06-.93.06-1.22a3.07,3.07,0,0,0-.29-1.51,1,1,0,0,0-.89-.49,1.76,1.76,0,0,0-.89.27,3.9,3.9,0,0,0-.87.67l0,1.7v1.91a.56.56,0,0,1-.18.44.63.63,0,0,1-.84,0Z" transform="translate(-60.75 -54.27)"/><path class="cls-2" d="M125.09,142.47a2.25,2.25,0,0,1-1.06-.76,1.68,1.68,0,0,1-.26-.5.64.64,0,0,1,0-.53.63.63,0,0,1,.35-.29.57.57,0,0,1,.46.05.56.56,0,0,1,.29.35,2.33,2.33,0,0,1,.06.25.56.56,0,0,0,.27.32,3,3,0,0,0,1.19.17,1.62,1.62,0,0,0,.89-.25.93.93,0,0,0,.4-.51,7.2,7.2,0,0,0,.19-1.29,2.1,2.1,0,0,1-1.38.57,3.24,3.24,0,0,1-1.42-.22,2.37,2.37,0,0,1-1-.74,3.2,3.2,0,0,1-.53-1.06,4.34,4.34,0,0,1-.12-1.42,2.94,2.94,0,0,1,1-2.12,3.06,3.06,0,0,1,2.52-.59,2.59,2.59,0,0,1,.85.43.56.56,0,0,1,.46-.59.62.62,0,0,1,.46.13.63.63,0,0,1,.21.4c.09,1,.14,2.17.16,3.58a19.16,19.16,0,0,1-.07,2,3.35,3.35,0,0,1-.57,1.79,2.16,2.16,0,0,1-.93.76,4.71,4.71,0,0,1-1.13.22A3.34,3.34,0,0,1,125.09,142.47Zm2-3.75a1.2,1.2,0,0,0,.81-1.14,5,5,0,0,0-.06-1.35,1.18,1.18,0,0,0-.49-.71,1.29,1.29,0,0,0-.62-.25,1.66,1.66,0,0,0-1.47.28,1.64,1.64,0,0,0-.57,1.17,2.19,2.19,0,0,0,.4,1.57,1.59,1.59,0,0,0,1.32.54A1.44,1.44,0,0,0,127.11,138.72Z" transform="translate(-60.75 -54.27)"/></svg>