<svg id="Calque_1" data-name="Calque 1" xmlns="http://www.w3.org/2000/svg" viewBox="0 0 100.77 165.64"><defs><style>.cls-1{fill:#44a4dc;stroke:#010101;stroke-miterlimit:10;}.cls-2{fill:#1d1d1b;}</style></defs><g id="Calque_4" data-name="Calque 4"><rect class="cls-1" x="0.5" y="0.5" width="99.77" height="164.64"/><line class="cls-1" x1="3.97" y1="5.99" x2="3.97" y2="161.71"/></g><path class="cls-2" d="M83.51,142.25l-.45-1.2-1-2.57-.83-2.38a.57.57,0,0,1,0-.46.61.61,0,0,1,.33-.32.59.59,0,0,1,.45,0,.63.63,0,0,1,.33.33l1,2.9c.52,1.37.94,2.44,1.26,3.2l.89-2.3c.6-1.61,1.1-2.88,1.5-3.8a.59.59,0,0,1,.33-.31.57.57,0,0,1,.46,0,.61.61,0,0,1,.32.33.59.59,0,0,1,0,.45c-.38.88-.88,2.12-1.48,3.74s-1.15,3-1.45,3.68a.56.56,0,0,1-.32.32.53.53,0,0,1-.46,0C84.19,143.8,83.89,143.25,83.51,142.25Z" transform="translate(-65.2 -65.22)"/><path class="cls-2" d="M90.48,136a.69.69,0,0,1-.2.51.7.7,0,0,1-.5.2.68.68,0,0,1-.71-.71.7.7,0,0,1,.2-.5.69.69,0,0,1,.51-.21.64.64,0,0,1,.5.21A.66.66,0,0,1,90.48,136Zm-1.31,4.61q0-1.86,0-2.43a.61.61,0,0,1,.17-.43.63.63,0,0,1,.86,0,.61.61,0,0,1,.17.43c0,.38,0,1.19,0,2.42s0,2.15,0,2.75a.6.6,0,0,1-.16.43.58.58,0,0,1-.42.18.64.64,0,0,1-.44-.17.54.54,0,0,1-.18-.42C89.15,142.73,89.15,141.81,89.17,140.57Z" transform="translate(-65.2 -65.22)"/><path class="cls-2" d="M92,143.19a1.65,1.65,0,0,1-.28-.67l0-.27c0-.08,0-.14,0-.19a.53.53,0,0,1,0-.44.54.54,0,0,1,.36-.28.63.63,0,0,1,.45,0,.54.54,0,0,1,.29.35c0,.08.05.18.07.3a.43.43,0,0,1,0,.11,1.3,1.3,0,0,0,0,.19.5.5,0,0,0,.17.26.81.81,0,0,0,.43.17,2.57,2.57,0,0,0,1,0,2.19,2.19,0,0,0,.84-.34.41.41,0,0,0,.18-.4.6.6,0,0,0-.42-.5,6.4,6.4,0,0,0-1.24-.29,3.79,3.79,0,0,1-1.48-.53,1.55,1.55,0,0,1-.52-1.75,1.58,1.58,0,0,1,.69-1,2.59,2.59,0,0,1,1.16-.36,3.8,3.8,0,0,1,1.1.13,3.32,3.32,0,0,1,1,.41l.28.23a3.83,3.83,0,0,1,.28.29l.16.17a.57.57,0,0,1,.18.41.54.54,0,0,1-.17.41.57.57,0,0,1-.42.17.62.62,0,0,1-.43-.16l-.24-.23-.16-.21-.17-.12a2.57,2.57,0,0,0-.59-.24,2.2,2.2,0,0,0-.71-.09c-.42,0-.67.17-.73.44s-.05.48.07.57a3.36,3.36,0,0,0,1,.31,7.63,7.63,0,0,1,1.53.37,1.75,1.75,0,0,1,1.11,1.43,1.45,1.45,0,0,1-.6,1.39,3,3,0,0,1-1.36.61,3.73,3.73,0,0,1-1.52,0A1.91,1.91,0,0,1,92,143.19Z" transform="translate(-65.2 -65.22)"/><path class="cls-2" d="M102,143.74a.79.79,0,0,1-.19-.53,2.7,2.7,0,0,1-1.14.63,1.77,1.77,0,0,1-1.53-.28A3.17,3.17,0,0,1,98,142a5.2,5.2,0,0,1-.2-.8,5,5,0,0,1-.07-.89c0-.32,0-.57,0-.77s0-.46.06-.8,0-.56.06-.64a.65.65,0,0,1,.21-.41.6.6,0,0,1,.43-.14.58.58,0,0,1,.41.2.59.59,0,0,1,.15.44c0,.12,0,.35-.07.69s0,.58-.06.75,0,.38,0,.64A3.94,3.94,0,0,0,99,141a5.62,5.62,0,0,0,.15.62,2,2,0,0,0,.67,1,1.08,1.08,0,0,0,.55.11,2.17,2.17,0,0,0,.84-.3,2.07,2.07,0,0,0,.59-1q0-1.59,0-3.24a.53.53,0,0,1,.16-.43.59.59,0,0,1,.42-.19.52.52,0,0,1,.42.16.62.62,0,0,1,.2.41c.06,1.89.06,3.63,0,5.22a.55.55,0,0,1-.19.41.59.59,0,0,1-.82,0Z" transform="translate(-65.2 -65.22)"/><path class="cls-2" d="M106.94,143.91a3,3,0,0,1-1-.13,2.33,2.33,0,0,1-.83-.46,2.27,2.27,0,0,1-.8-1.28,2.69,2.69,0,0,1,0-1.38,5.18,5.18,0,0,1,.5-1.2,4.86,4.86,0,0,1,.75-1,3.71,3.71,0,0,1,.93-.68,2.38,2.38,0,0,1,1.1-.27,2.78,2.78,0,0,1,1.22.32l.21.14.19.17.16.16c.05,0,.07.07.07.08a.59.59,0,0,1,.21.43,10.37,10.37,0,0,1,.2,1.51c0,.53,0,1,0,1.49s0,1,0,1.48a.6.6,0,0,1-.16.42.59.59,0,0,1-.42.19.6.6,0,0,1-.62-.56v-.18a2.66,2.66,0,0,1-.76.54A3.22,3.22,0,0,1,106.94,143.91Zm.73-1.37.27-.14.34-.24a1.59,1.59,0,0,0,.32-.36.18.18,0,0,1,.07-.05,13,13,0,0,0-.21-2.61l-.08-.09-.06-.06a.1.1,0,0,0,0,0l-.06,0a1.29,1.29,0,0,0-1.21,0,2.59,2.59,0,0,0-1.12,1.09,2.81,2.81,0,0,0-.47,1.43,1.27,1.27,0,0,0,.46,1,1.36,1.36,0,0,0,.68.29,2,2,0,0,0,.83-.06Z" transform="translate(-65.2 -65.22)"/><path class="cls-2" d="M112.32,143.75a.55.55,0,0,1-.43.16.59.59,0,0,1-.42-.19.58.58,0,0,1-.15-.44c0-1.06,0-1.87,0-2.42s0-1.38,0-2.47,0-1.92,0-2.47a.61.61,0,0,1,.17-.43.57.57,0,0,1,.43-.17.55.55,0,0,1,.42.17.58.58,0,0,1,.18.43c0,.55,0,1.33,0,2.35s0,1.94,0,2.76,0,1.6,0,2.3A.6.6,0,0,1,112.32,143.75Z" transform="translate(-65.2 -65.22)"/><path class="cls-2" d="M118.23,143.7a2.69,2.69,0,0,1-1.08-.91,2.34,2.34,0,0,1-.39-1.33.63.63,0,0,1,.63-.64.53.53,0,0,1,.54.48c.11,1,.77,1.55,2,1.55a2.28,2.28,0,0,0,1.38-.38,1.19,1.19,0,0,0,.5-1,.71.71,0,0,0-.34-.6,3.52,3.52,0,0,0-.95-.44l-.37-.13a16.22,16.22,0,0,1-1.71-.65,3.07,3.07,0,0,1-1.11-.88,2,2,0,0,1,0-2.34,2.87,2.87,0,0,1,1.07-.89,3.43,3.43,0,0,1,1.55-.34,3.78,3.78,0,0,1,1.58.32,2.77,2.77,0,0,1,1.08.87,1.91,1.91,0,0,1,.38,1.15.61.61,0,0,1-.17.48.58.58,0,0,1-.43.18.52.52,0,0,1-.4-.18.6.6,0,0,1-.17-.46.87.87,0,0,0-.26-.58,1.82,1.82,0,0,0-.7-.46,2.67,2.67,0,0,0-1-.17,2.26,2.26,0,0,0-1.32.31,1,1,0,0,0-.46.84.79.79,0,0,0,.18.51,2.45,2.45,0,0,0,.6.44,8.85,8.85,0,0,0,.82.38c.29.11.67.25,1.15.41a4.28,4.28,0,0,1,1.53.85,1.75,1.75,0,0,1,.57,1.35,2.15,2.15,0,0,1-.45,1.35,3,3,0,0,1-1.2.91,4,4,0,0,1-1.58.32A3.47,3.47,0,0,1,118.23,143.7Z" transform="translate(-65.2 -65.22)"/><path class="cls-2" d="M126,143.8a2.21,2.21,0,0,1-.38-.11l-.38-.17a1.36,1.36,0,0,1-.37-.31,1.75,1.75,0,0,1-.29-.48,4.15,4.15,0,0,1-.17-1.27c0-.49,0-1.12,0-1.88,0-.15,0-.39,0-.72h-.1a.64.64,0,0,1-.44-.13.6.6,0,0,1-.22-.41.55.55,0,0,1,.12-.43.61.61,0,0,1,.4-.23l.28,0c0-.42,0-.85,0-1.28a.59.59,0,0,1,.19-.42.63.63,0,0,1,.44-.16.64.64,0,0,1,.42.2.56.56,0,0,1,.15.43l0,1.14.39,0a.62.62,0,0,1,.44.15.62.62,0,0,1,.07.84.55.55,0,0,1-.41.21l-.53,0c0,.38,0,.66,0,.84,0,.75,0,1.36,0,1.83a4.52,4.52,0,0,0,.07.83l.07.15.09.09.14,0,.27.07.43.13a.59.59,0,0,1,.34.3.55.55,0,0,1,0,.45.62.62,0,0,1-.3.35.55.55,0,0,1-.47,0Z" transform="translate(-65.2 -65.22)"/><path class="cls-2" d="M131.87,143.74a.79.79,0,0,1-.19-.53,2.83,2.83,0,0,1-1.14.63,1.8,1.8,0,0,1-1.54-.28,3.16,3.16,0,0,1-1-1.58,5.22,5.22,0,0,1-.21-.8,5,5,0,0,1-.06-.89c0-.32,0-.57,0-.77a7.34,7.34,0,0,1,.06-.8c0-.34,0-.56.06-.64a.57.57,0,0,1,.21-.41.59.59,0,0,1,.43-.14.6.6,0,0,1,.41.2.69.69,0,0,1,.15.44c0,.12,0,.35-.07.69a6.78,6.78,0,0,0-.06.75c0,.16,0,.38,0,.64a3.21,3.21,0,0,0,.05.72,3.12,3.12,0,0,0,.15.62,1.91,1.91,0,0,0,.67,1,1.05,1.05,0,0,0,.55.11,2.18,2.18,0,0,0,.83-.3,2.07,2.07,0,0,0,.6-1c0-1.06,0-2.14,0-3.24a.56.56,0,0,1,.16-.43.63.63,0,0,1,.42-.19.53.53,0,0,1,.43.16.61.61,0,0,1,.19.41c.07,1.89.06,3.63,0,5.22a.56.56,0,0,1-.2.41.59.59,0,0,1-.44.16A.58.58,0,0,1,131.87,143.74Z" transform="translate(-65.2 -65.22)"/><path class="cls-2" d="M138.87,143.8a.6.6,0,0,1-.22-.41,2.61,2.61,0,0,1-1.08.48,2.74,2.74,0,0,1-1.43-.08,2.51,2.51,0,0,1-1.09-.76,3.47,3.47,0,0,1-.79-2.37,3.34,3.34,0,0,1,.84-2.24,2.65,2.65,0,0,1,2.62-.82,2.72,2.72,0,0,1,.84.25l0-1.92a.58.58,0,0,1,.18-.43.54.54,0,0,1,.42-.18.57.57,0,0,1,.42.17.55.55,0,0,1,.18.41q.09,5.47.09,7.41a.54.54,0,0,1-.18.42.56.56,0,0,1-.42.18A.61.61,0,0,1,138.87,143.8Zm-1-1.27a2.83,2.83,0,0,0,.35-.2,1.22,1.22,0,0,0,.16-.14l.12-.14a.66.66,0,0,0,.13-.24c0-1,0-1.83,0-2.43h0l-.51-.44a1.66,1.66,0,0,0-.55-.16,1.5,1.5,0,0,0-1.5.46,2,2,0,0,0-.54,1.43,2.36,2.36,0,0,0,.5,1.6,1.39,1.39,0,0,0,1.4.44A2.79,2.79,0,0,0,137.84,142.53Z" transform="translate(-65.2 -65.22)"/><path class="cls-2" d="M142.71,136a.69.69,0,0,1-.21.51.73.73,0,0,1-1,0,.69.69,0,0,1-.21-.51.67.67,0,0,1,.21-.5.66.66,0,0,1,.51-.21.62.62,0,0,1,.49.21A.67.67,0,0,1,142.71,136Zm-1.32,4.61q0-1.86,0-2.43a.58.58,0,0,1,.18-.43.55.55,0,0,1,.42-.17.58.58,0,0,1,.6.6c0,.38,0,1.19,0,2.42s0,2.15,0,2.75a.61.61,0,0,1-.17.43.54.54,0,0,1-.42.18.61.61,0,0,1-.43-.17.54.54,0,0,1-.18-.42Q141.36,142.43,141.39,140.57Z" transform="translate(-65.2 -65.22)"/><path class="cls-2" d="M144.92,143.19a3.5,3.5,0,0,1-.94-2,3.41,3.41,0,0,1,.23-1.82,3,3,0,0,1,1.37-1.63,1.35,1.35,0,0,1,.48-.16h.16l.1,0a.56.56,0,0,1,.36,0h.47l.21,0,.24,0,.23.08a1.39,1.39,0,0,1,.28.12l.29.17a2.69,2.69,0,0,1,1.08,1.48,3,3,0,0,1,.15,1.54,4.38,4.38,0,0,1-.38,1.21,3.45,3.45,0,0,1-.76,1,2.44,2.44,0,0,1-1,.57A2.42,2.42,0,0,1,144.92,143.19Zm3-1.15a2.49,2.49,0,0,0,.48-1,2.13,2.13,0,0,0-.09-1.13,1.55,1.55,0,0,0-.63-.89l-.21-.14-.2-.07-.18,0-.28,0-.39,0h-.22l-.09,0a1.93,1.93,0,0,0-.81.92,2.17,2.17,0,0,0-.16,1.3,2,2,0,0,0,.59,1.24,1.52,1.52,0,0,0,1.31.34A1.37,1.37,0,0,0,148,142Z" transform="translate(-65.2 -65.22)"/><path class="cls-2" d="M84.46,158.24a3.8,3.8,0,0,1-1.1-.47,3.46,3.46,0,0,1-1-1,5.23,5.23,0,0,1-.66-1.34,4.43,4.43,0,0,1-.24-1.4,4.15,4.15,0,0,1,.38-1.75A5.24,5.24,0,0,1,83,150.79a3.68,3.68,0,0,1,1.19-.82,4,4,0,0,1,1.57-.33,3.71,3.71,0,0,1,1.37.27,2.57,2.57,0,0,1,.75.42,7.22,7.22,0,0,1,.69.68l.36.45a.61.61,0,0,1,.14.37.55.55,0,0,1-.19.42.64.64,0,0,1-.44.18.59.59,0,0,1-.45-.23l-.44-.54a2.78,2.78,0,0,0-.4-.35,1.79,1.79,0,0,0-.45-.27,2.13,2.13,0,0,0-1-.18,2.93,2.93,0,0,0-1.83.8,3.28,3.28,0,0,0-1.09,2.42,3.54,3.54,0,0,0,.39,1.54,2.3,2.3,0,0,0,1.69,1.46,3.33,3.33,0,0,0,.94.13,2,2,0,0,0,1.9-.81,3.64,3.64,0,0,0,.2-.55l.12-.39a.64.64,0,0,1,.22-.29.5.5,0,0,1,.32-.11.64.64,0,0,1,.43.16.56.56,0,0,1,.19.44.76.76,0,0,1,0,.21l-.09.26a8,8,0,0,1-.31.85,2.48,2.48,0,0,1-1,1,3.94,3.94,0,0,1-1.54.42h-.33A5.14,5.14,0,0,1,84.46,158.24Z" transform="translate(-65.2 -65.22)"/><path class="cls-2" d="M91,157.59a3.57,3.57,0,0,1-.94-2,3.53,3.53,0,0,1,.23-1.82,3.09,3.09,0,0,1,1.37-1.63,1.5,1.5,0,0,1,.48-.16h.17l.09,0a.56.56,0,0,1,.36,0h.47l.21,0,.25.05.23.08.27.12.29.17a2.69,2.69,0,0,1,1.08,1.48,3,3,0,0,1,.16,1.54,4.4,4.4,0,0,1-.39,1.21,3.28,3.28,0,0,1-.76,1,2.39,2.39,0,0,1-1,.57A2.42,2.42,0,0,1,91,157.59Zm3-1.15a2.25,2.25,0,0,0,.48-1,2.12,2.12,0,0,0-.08-1.13,1.55,1.55,0,0,0-.63-.89,1.27,1.27,0,0,0-.22-.14.77.77,0,0,0-.2-.07l-.18,0-.28,0-.38,0h-.23l-.08,0a1.84,1.84,0,0,0-.81.92,2.19,2.19,0,0,0-.17,1.31,2.1,2.1,0,0,0,.59,1.23,1.5,1.5,0,0,0,1.31.34A1.35,1.35,0,0,0,94,156.44Z" transform="translate(-65.2 -65.22)"/><path class="cls-2" d="M101.45,158.2a.64.64,0,0,1-.21-.41,2.78,2.78,0,0,1-2.51.4,2.38,2.38,0,0,1-1.09-.76,3.47,3.47,0,0,1-.8-2.37,3.3,3.3,0,0,1,.84-2.23,2.64,2.64,0,0,1,2.62-.83,2.55,2.55,0,0,1,.84.25l0-1.92a.6.6,0,0,1,1-.44.55.55,0,0,1,.18.41q.08,5.47.08,7.41a.57.57,0,0,1-.17.42.58.58,0,0,1-.43.18A.63.63,0,0,1,101.45,158.2Zm-1-1.27a1.82,1.82,0,0,0,.35-.2,1.22,1.22,0,0,0,.16-.14l.13-.13a1.14,1.14,0,0,0,.13-.25c0-1,0-1.83,0-2.42l0,0-.5-.44a1.74,1.74,0,0,0-.56-.16,1.5,1.5,0,0,0-1.5.46,2,2,0,0,0-.54,1.43,2.37,2.37,0,0,0,.51,1.6,1.37,1.37,0,0,0,1.39.44A2.14,2.14,0,0,0,100.42,156.93Z" transform="translate(-65.2 -65.22)"/><path class="cls-2" d="M105.38,158a2.52,2.52,0,0,1-1-.76,3.93,3.93,0,0,1-.51-.84,3,3,0,0,1-.19-.76,5,5,0,0,1,0-1,2.94,2.94,0,0,1,.35-1,3.21,3.21,0,0,1,.72-.89,3.09,3.09,0,0,1,1.09-.59,2.91,2.91,0,0,1,1.35-.13,3,3,0,0,1,1.19.38,2.74,2.74,0,0,1,.84.75,2.45,2.45,0,0,1,.37.57q.06.19.12.36a2.57,2.57,0,0,0,.09.29,1.83,1.83,0,0,1,.06.25,1.92,1.92,0,0,1,0,.29.86.86,0,0,1-.09.42.65.65,0,0,1-.29.3.88.88,0,0,1-.33.06l-2,0c-1.44,0-2.16,0-2.16.05h0a1.65,1.65,0,0,0,.65,1,2.74,2.74,0,0,0,1.37.4,2.66,2.66,0,0,0,.78-.05,2.79,2.79,0,0,0,.5-.17l.39-.21a.55.55,0,0,1,.45,0,.59.59,0,0,1,.3.77.75.75,0,0,1-.32.34,2.93,2.93,0,0,1-.4.19l-.6.18a4.5,4.5,0,0,1-1.18.1A4.41,4.41,0,0,1,105.38,158Zm3.24-3.43a2.5,2.5,0,0,0-.35-.69,1.82,1.82,0,0,0-1.19-.63,1.71,1.71,0,0,0-1.31.32,2.08,2.08,0,0,0-.77,1.07C105.47,154.63,106.67,154.6,108.62,154.58Z" transform="translate(-65.2 -65.22)"/></svg>