<?xml version="1.0" encoding="utf-8"?>
<!-- Generator: Adobe Illustrator 25.2.0, SVG Export Plug-In . SVG Version: 6.00 Build 0)  -->
<svg version="1.1" id="Calque_1" xmlns="http://www.w3.org/2000/svg" xmlns:xlink="http://www.w3.org/1999/xlink" x="0px" y="0px"
	 viewBox="0 0 100.8 165.6" style="enable-background:new 0 0 100.8 165.6;" xml:space="preserve">
<style type="text/css">
	.st0{fill:#C1AAFF;stroke:#010101;stroke-miterlimit:10;}
	.st1{fill:none;}
</style>
<g id="Calque_4">
	<rect x="0.5" y="0.5" class="st0" width="99.8" height="164.6"/>
	<line class="st0" x1="4" y1="6" x2="4" y2="161.7"/>
</g>
<rect x="86.3" y="78.3" class="st1" width="4.7" height="0"/>
<g>
	<path d="M22.7,90.1c-0.3,0.2-0.5,0.4-0.9,0.4s-0.6-0.1-0.9-0.4s-0.4-0.5-0.4-0.9c0-1.5,0-4-0.1-7.4c-0.1-3.4-0.1-6.1,0-8
		c0-0.3,0.2-0.6,0.4-0.9c0.3-0.2,0.5-0.4,0.9-0.3c0.3,0,0.6,0.1,0.9,0.4s0.4,0.5,0.3,0.9c0,1.8,0,3.9,0,6.3c3.9-0.1,6.8-0.2,8.7-0.2
		c0-2.3,0-4.3,0.1-6.2c0-0.4,0.2-0.6,0.4-0.9c0.3-0.2,0.6-0.3,0.9-0.3c0.4,0,0.6,0.2,0.9,0.4c0.2,0.3,0.3,0.6,0.3,0.9
		c-0.1,2-0.1,3.6-0.2,5c0,1.6,0,3.5,0.1,5.6c0,2.1,0.1,3.6,0.1,4.7c0,0.3-0.1,0.6-0.4,0.9c-0.2,0.2-0.5,0.4-0.9,0.4
		c-0.3,0-0.6-0.1-0.9-0.4c-0.2-0.2-0.4-0.5-0.4-0.9c0-0.6,0-2.8-0.1-6.7c-1.8,0-4.7,0-8.6,0.2c0.1,2.8,0.1,5,0,6.5
		C23.1,89.6,23,89.9,22.7,90.1z"/>
	<path d="M44.7,90.1c-0.3,0.2-0.6,0.3-0.9,0.3c-0.3,0-0.6-0.1-0.9-0.4s-0.3-0.5-0.3-0.9c0-0.6,0-2.9,0-7.1c0-3,0-5.4,0.2-7
		c-1.8,0-3.4,0-4.6,0c-0.4,0-0.6-0.1-0.9-0.3c-0.3-0.2-0.4-0.5-0.4-0.9c0-0.3,0.1-0.6,0.3-0.9c0.2-0.3,0.5-0.4,0.9-0.4
		c1.4,0,3.4-0.1,6,0c2.5,0,4.5,0,6,0c0.3,0,0.6,0.1,0.9,0.4s0.4,0.5,0.4,0.9s-0.1,0.6-0.4,0.9c-0.2,0.3-0.5,0.4-0.9,0.4
		c-1.2,0-2.8,0-4.8,0C45.1,76.7,45,79,45,82c0,4.2,0,6.5,0,7.2C45.1,89.5,44.9,89.8,44.7,90.1z"/>
	<path d="M70.3,90.1c-0.3,0.2-0.5,0.3-0.9,0.3c-0.3,0-0.6-0.1-0.9-0.4s-0.3-0.5-0.3-0.9c0.1-0.5,0.1-2.5,0.1-6c0-3.5,0-5.5,0-6
		c-1.3,1.7-2.8,3.8-4.5,6.4c-0.2,0.3-0.4,0.5-0.8,0.6c-0.3,0.1-0.7,0-0.9-0.2c0,0,0,0-0.1,0c-0.1-0.1-0.3-0.2-0.4-0.4
		c-0.7-1-1.9-2.5-3.5-4.5l-1.6-2c0,1.3,0.1,2.7,0.1,4.3c0,0.8,0,2.1,0,3.8c0,1.7,0,3,0,3.9c0,0.4-0.1,0.6-0.4,0.9
		c-0.2,0.2-0.5,0.4-0.9,0.4c-0.3,0-0.6-0.1-0.9-0.4c-0.2-0.2-0.4-0.5-0.4-0.9c0-0.9,0-2.2,0-3.9c0-1.7,0-3,0-3.8
		c0-3.1-0.1-5.6-0.3-7.5c0-0.4,0.1-0.7,0.3-0.9s0.5-0.4,0.9-0.5c0.2,0,0.3,0,0.5,0c0.4,0,0.7,0.2,1,0.5l3.7,4.4
		c1.1,1.3,1.9,2.3,2.7,3.3c2.2-3.4,4.2-6,5.8-7.8c0.1-0.1,0.1-0.1,0.2-0.2c0.3-0.3,0.6-0.4,0.9-0.4c0.3,0,0.6,0.2,0.9,0.4
		s0.3,0.5,0.3,0.9c-0.1,1.8-0.1,4.3-0.1,7.8c0,3.4,0,6-0.1,7.7C70.7,89.6,70.6,89.9,70.3,90.1z"/>
	<path d="M76.8,90.5c-0.3,0-0.6-0.1-0.8-0.4c-0.2-0.2-0.4-0.5-0.4-0.8c0-0.1,0-0.2,0-0.2c0-1-0.1-3.2-0.1-6.7
		c-0.1-3.5-0.1-6.4-0.1-8.6c0-0.4,0.1-0.6,0.4-0.9c0.2-0.2,0.5-0.4,0.9-0.4s0.6,0.1,0.9,0.4c0.2,0.2,0.4,0.5,0.4,0.9
		c0,1.7,0,3.3,0,4.9c0,1.5,0.1,3.3,0.1,5.1c0,1.9,0.1,3.3,0.1,4.4c0.9,0,2.2,0,4,0c1.8,0,3.2,0,4.1,0c0.3,0,0.6,0.1,0.9,0.4
		c0.2,0.3,0.3,0.5,0.3,0.9c0,0.4-0.1,0.6-0.4,0.9c-0.3,0.2-0.5,0.4-0.9,0.4c-0.9,0-2.4,0-4.6,0C79.2,90.5,77.7,90.5,76.8,90.5z"/>
</g>
</svg>
