<svg id="Calque_1" data-name="Calque 1" xmlns="http://www.w3.org/2000/svg" viewBox="0 0 100.77 165.64"><defs><style>.cls-1{fill:#b05a2f;stroke:#010101;stroke-miterlimit:10;}.cls-2{fill:#1d1d1b;}</style></defs><g id="Calque_4" data-name="Calque 4"><rect class="cls-1" x="0.5" y="0.5" width="99.77" height="164.64"/><line class="cls-1" x1="3.97" y1="5.99" x2="3.97" y2="161.71"/></g><path class="cls-2" d="M83.54,147.21a3,3,0,0,1-.88-.6,4,4,0,0,1-.63-.82,3.1,3.1,0,0,1-.38-.95,6.91,6.91,0,0,1-.16-1,4.94,4.94,0,0,1,0-1,5.59,5.59,0,0,1,.28-1.21,4.86,4.86,0,0,1,.57-1.11,4.16,4.16,0,0,1,.83-.89,3.17,3.17,0,0,1,1.11-.53,5.66,5.66,0,0,1,1.28-.19,4.1,4.1,0,0,1,.6,0,5.13,5.13,0,0,1,.94.19,3.4,3.4,0,0,1,1.38.85,3.49,3.49,0,0,1,.78,1.26,4.43,4.43,0,0,1,.25,1.46,6.45,6.45,0,0,1-.18,1.52,5.48,5.48,0,0,1-.57,1.43,4,4,0,0,1-1,1.17,3.88,3.88,0,0,1-1.43.69,4.21,4.21,0,0,1-1.66.09A3.44,3.44,0,0,1,83.54,147.21Zm3.39-1.36a3.17,3.17,0,0,0,1.27-2,4.59,4.59,0,0,0,.09-1.55,2.69,2.69,0,0,0-.51-1.27,2.26,2.26,0,0,0-1-.77l-.44-.15a2.21,2.21,0,0,0-.39,0h-.39a3.32,3.32,0,0,0-.6,0,2.45,2.45,0,0,0-1.41.85,3.33,3.33,0,0,0-.85,2,4.69,4.69,0,0,0,.09,1.6,2.19,2.19,0,0,0,.73,1.2,2.78,2.78,0,0,0,1.32.6A2.63,2.63,0,0,0,86.93,145.85Z" transform="translate(-65.23 -61.62)"/><path class="cls-2" d="M91.07,147.35a.57.57,0,0,1-.18-.44l0-2.45c0-.55,0-1.24,0-2.06v-.71a.54.54,0,0,1,.16-.43.57.57,0,0,1,.41-.16.63.63,0,0,1,.44.16.59.59,0,0,1,.19.45v.36a1.1,1.1,0,0,1,.49-.49,2,2,0,0,1,1.08-.3,1.41,1.41,0,0,1,.68.14.56.56,0,0,1,.24.52.61.61,0,0,1-.14.4.54.54,0,0,1-.42.16,2.53,2.53,0,0,0-1.39.28,1.58,1.58,0,0,0-.38.35.62.62,0,0,0-.16.39l0,1.5v1.89a.57.57,0,0,1-.18.44.63.63,0,0,1-.84,0Z" transform="translate(-65.23 -61.62)"/><path class="cls-2" d="M96.33,149.81a2.21,2.21,0,0,1-1.06-.75,2,2,0,0,1-.26-.51.66.66,0,0,1,0-.52.61.61,0,0,1,.81-.25.61.61,0,0,1,.3.35,2.23,2.23,0,0,0,.06.26.57.57,0,0,0,.26.32,3.27,3.27,0,0,0,1.19.17,1.69,1.69,0,0,0,.9-.25.93.93,0,0,0,.39-.51,7,7,0,0,0,.2-1.3,2.15,2.15,0,0,1-1.38.58,3.44,3.44,0,0,1-1.43-.22,2.27,2.27,0,0,1-1-.74,3.27,3.27,0,0,1-.54-1.07,4.28,4.28,0,0,1-.12-1.41,3,3,0,0,1,1-2.13,3.08,3.08,0,0,1,2.52-.59,2.7,2.7,0,0,1,.85.44.56.56,0,0,1,.45-.59.6.6,0,0,1,.47.13.71.71,0,0,1,.21.4c.08,1,.14,2.16.15,3.57a16.92,16.92,0,0,1-.07,2,3.29,3.29,0,0,1-.56,1.79,2.23,2.23,0,0,1-.94.76,5.26,5.26,0,0,1-1.13.22A3.19,3.19,0,0,1,96.33,149.81Zm2-3.74a1.21,1.21,0,0,0,.8-1.14,5.1,5.1,0,0,0-.06-1.36,1.2,1.2,0,0,0-.49-.71,1.4,1.4,0,0,0-.61-.25,1.72,1.72,0,0,0-1.48.29,1.56,1.56,0,0,0-.56,1.16,2.25,2.25,0,0,0,.39,1.58,1.65,1.65,0,0,0,1.32.54A1.6,1.6,0,0,0,98.36,146.07Z" transform="translate(-65.23 -61.62)"/><path class="cls-2" d="M104.25,147.51a3,3,0,0,1-1-.13,2.46,2.46,0,0,1-1.63-1.74,2.69,2.69,0,0,1,0-1.38,4.81,4.81,0,0,1,.51-1.2,4.49,4.49,0,0,1,.74-1,3.71,3.71,0,0,1,.93-.68,2.38,2.38,0,0,1,1.1-.27,2.78,2.78,0,0,1,1.22.32l.21.14.19.17.16.16s.07.07.07.08a.59.59,0,0,1,.21.43,10.37,10.37,0,0,1,.2,1.51c0,.53,0,1,0,1.49s0,1,0,1.48a.56.56,0,0,1-.16.42.59.59,0,0,1-.42.19.53.53,0,0,1-.43-.16.56.56,0,0,1-.19-.4v-.18a2.53,2.53,0,0,1-.76.54A3.22,3.22,0,0,1,104.25,147.51Zm.73-1.37.27-.14.34-.24a1.91,1.91,0,0,0,.33-.36.1.1,0,0,1,.06-.05,13,13,0,0,0-.21-2.61l-.08-.09s0-.05-.06-.06a.08.08,0,0,0,0,0l-.07-.05a1.29,1.29,0,0,0-1.21,0,2.59,2.59,0,0,0-1.12,1.09,2.81,2.81,0,0,0-.47,1.43,1.3,1.3,0,0,0,.46,1,1.36,1.36,0,0,0,.68.29,2,2,0,0,0,.83-.06Z" transform="translate(-65.23 -61.62)"/><path class="cls-2" d="M108.9,147.35a.57.57,0,0,1-.18-.44c0-.63,0-1.18,0-1.63,0-1.36,0-2.54,0-3.54a.55.55,0,0,1,.17-.44.57.57,0,0,1,.4-.15.63.63,0,0,1,.44.16.55.55,0,0,1,.19.45v.37a2.33,2.33,0,0,1,2-1,1.91,1.91,0,0,1,1.61.73,3.2,3.2,0,0,1,.55,2q0,1.37,0,1.8l-.06.8,0,.52a.52.52,0,0,1-.19.38.57.57,0,0,1-.4.15.65.65,0,0,1-.42-.16.57.57,0,0,1-.18-.44c0-.13,0-.57.09-1.33q.06-.78.06-1.23a3,3,0,0,0-.29-1.5,1,1,0,0,0-.89-.49,1.84,1.84,0,0,0-.89.26,4,4,0,0,0-.87.68l0,1.7v1.91a.57.57,0,0,1-.18.44.63.63,0,0,1-.84,0Z" transform="translate(-65.23 -61.62)"/><path class="cls-2" d="M116.79,139.56a.69.69,0,0,1-.21.51.72.72,0,0,1-1,0,.69.69,0,0,1-.21-.51.67.67,0,0,1,.21-.5.66.66,0,0,1,.51-.21.62.62,0,0,1,.49.21A.67.67,0,0,1,116.79,139.56Zm-1.32,4.61q0-1.86,0-2.43a.58.58,0,0,1,.18-.43.55.55,0,0,1,.42-.17.58.58,0,0,1,.6.6c0,.38,0,1.19,0,2.42s0,2.15,0,2.75a.61.61,0,0,1-.17.43.54.54,0,0,1-.42.18.61.61,0,0,1-.43-.17.54.54,0,0,1-.18-.42Q115.44,146,115.47,144.17Z" transform="translate(-65.23 -61.62)"/><path class="cls-2" d="M118.26,146.79a1.65,1.65,0,0,1-.27-.67l0-.27a1.67,1.67,0,0,0,0-.19.53.53,0,0,1,0-.44.54.54,0,0,1,.36-.28.67.67,0,0,1,.46.05.52.52,0,0,1,.28.35,3.09,3.09,0,0,1,.08.3s0,.07,0,.11a1.86,1.86,0,0,0,.05.19.43.43,0,0,0,.16.26.81.81,0,0,0,.44.17,2.58,2.58,0,0,0,1,0,2.19,2.19,0,0,0,.84-.34.45.45,0,0,0,.18-.4.64.64,0,0,0-.42-.5,6.58,6.58,0,0,0-1.25-.29,3.79,3.79,0,0,1-1.48-.53,1.55,1.55,0,0,1-.51-1.75,1.51,1.51,0,0,1,.69-1,2.55,2.55,0,0,1,1.16-.36,3.74,3.74,0,0,1,1.09.13,3.39,3.39,0,0,1,1,.41,2.76,2.76,0,0,1,.27.23l.29.29a1.47,1.47,0,0,0,.16.17.57.57,0,0,1,.18.41.55.55,0,0,1-.18.41.54.54,0,0,1-.42.17.6.6,0,0,1-.42-.16l-.24-.23-.17-.21-.17-.12a2.57,2.57,0,0,0-.59-.24,2.14,2.14,0,0,0-.7-.09c-.43,0-.67.17-.74.44s0,.48.08.57a3.14,3.14,0,0,0,1,.31,7.67,7.67,0,0,1,1.52.37,1.76,1.76,0,0,1,1.12,1.43,1.49,1.49,0,0,1-.6,1.39,3,3,0,0,1-1.37.61,3.68,3.68,0,0,1-1.51,0A2,2,0,0,1,118.26,146.79Z" transform="translate(-65.23 -61.62)"/><path class="cls-2" d="M126.56,147.51a3,3,0,0,1-1-.13,2.33,2.33,0,0,1-.83-.46,2.27,2.27,0,0,1-.8-1.28,2.81,2.81,0,0,1,0-1.38,5.69,5.69,0,0,1,.51-1.2,4.86,4.86,0,0,1,.75-1,3.71,3.71,0,0,1,.93-.68,2.38,2.38,0,0,1,1.1-.27,2.7,2.7,0,0,1,1.21.32.85.85,0,0,1,.21.14l.2.17.16.16c.05,0,.07.07.07.08a.55.55,0,0,1,.2.43,9.16,9.16,0,0,1,.21,1.51c0,.53,0,1,0,1.49s0,1,0,1.48a.6.6,0,0,1-.16.42.59.59,0,0,1-.42.19.6.6,0,0,1-.62-.56v-.18a2.66,2.66,0,0,1-.76.54A3.22,3.22,0,0,1,126.56,147.51Zm.73-1.37.27-.14.34-.24a1.59,1.59,0,0,0,.32-.36l.06-.05a13.16,13.16,0,0,0-.2-2.61l-.08-.09-.06-.06a.1.1,0,0,0,0,0l-.06-.05a1.29,1.29,0,0,0-1.21,0,2.59,2.59,0,0,0-1.12,1.09A2.81,2.81,0,0,0,125,145a1.27,1.27,0,0,0,.46,1,1.36,1.36,0,0,0,.68.29,2,2,0,0,0,.83-.06Z" transform="translate(-65.23 -61.62)"/><path class="cls-2" d="M132.69,147.4a2.9,2.9,0,0,1-.38-.11,3.73,3.73,0,0,1-.37-.17,1.4,1.4,0,0,1-.38-.31,2,2,0,0,1-.29-.48,4.5,4.5,0,0,1-.17-1.27c0-.49,0-1.12,0-1.88,0-.15,0-.39,0-.72H131a.65.65,0,0,1-.45-.13.64.64,0,0,1-.22-.41.52.52,0,0,1,.13-.43.57.57,0,0,1,.39-.23l.28,0c0-.42,0-.85,0-1.28a.55.55,0,0,1,.19-.42.61.61,0,0,1,1,.47l0,1.14.4,0a.61.61,0,0,1,.43.15.54.54,0,0,1,.21.41.6.6,0,0,1-.14.43.54.54,0,0,1-.41.21l-.53,0c0,.38,0,.66,0,.84,0,.75,0,1.36,0,1.83a3.4,3.4,0,0,0,.08.83,1.13,1.13,0,0,0,.07.15.19.19,0,0,0,.09.09l.14,0,.27.07c.13,0,.27.08.42.13a.56.56,0,0,1,.34.3.59.59,0,0,1-.26.8.53.53,0,0,1-.46,0Z" transform="translate(-65.23 -61.62)"/><path class="cls-2" d="M136,139.56a.68.68,0,0,1-.71.71.7.7,0,0,1-.5-.2.69.69,0,0,1-.2-.51.66.66,0,0,1,.2-.5.69.69,0,0,1,.51-.21.66.66,0,0,1,.5.21A.7.7,0,0,1,136,139.56Zm-1.31,4.61q0-1.86,0-2.43a.61.61,0,0,1,.17-.43.57.57,0,0,1,.43-.17.54.54,0,0,1,.42.17.58.58,0,0,1,.18.43c0,.38,0,1.19,0,2.42s0,2.15,0,2.75a.61.61,0,0,1-.17.43.54.54,0,0,1-.42.18.63.63,0,0,1-.43-.17.54.54,0,0,1-.18-.42C134.67,146.33,134.68,145.41,134.7,144.17Z" transform="translate(-65.23 -61.62)"/><path class="cls-2" d="M138.22,146.79a3.65,3.65,0,0,1-.71-3.83,3,3,0,0,1,1.37-1.63,1.5,1.5,0,0,1,.48-.16h.17l.09,0a.56.56,0,0,1,.36,0h.47l.21,0,.25,0,.22.08a1.39,1.39,0,0,1,.28.12l.29.17a2.69,2.69,0,0,1,1.08,1.48,2.91,2.91,0,0,1,.15,1.54,4.07,4.07,0,0,1-.38,1.21,3.28,3.28,0,0,1-.76,1,2.63,2.63,0,0,1-3.57-.06Zm3-1.15a2.36,2.36,0,0,0,.48-1,2.12,2.12,0,0,0-.08-1.13,1.55,1.55,0,0,0-.63-.89,1.27,1.27,0,0,0-.22-.14l-.2-.07-.18,0-.28,0-.38,0h-.23l-.08,0a1.84,1.84,0,0,0-.81.92,2.17,2.17,0,0,0-.17,1.3,2.1,2.1,0,0,0,.59,1.24,1.52,1.52,0,0,0,1.31.34A1.35,1.35,0,0,0,141.26,145.64Z" transform="translate(-65.23 -61.62)"/><path class="cls-2" d="M144.52,147.35a.57.57,0,0,1-.18-.44c0-.63,0-1.18,0-1.63q0-2,0-3.54a.55.55,0,0,1,.58-.59.65.65,0,0,1,.44.16.58.58,0,0,1,.18.45v.37a2.35,2.35,0,0,1,2-1,1.88,1.88,0,0,1,1.6.73,3.2,3.2,0,0,1,.56,2c0,.91,0,1.51,0,1.8l-.06.8,0,.52a.56.56,0,0,1-.19.38.6.6,0,0,1-.4.15.65.65,0,0,1-.42-.16.57.57,0,0,1-.18-.44c0-.13,0-.57.08-1.33q.06-.78.06-1.23a3,3,0,0,0-.28-1.5,1,1,0,0,0-.89-.49,1.88,1.88,0,0,0-.9.26,4.47,4.47,0,0,0-.87.68l0,1.7v1.91a.57.57,0,0,1-.18.44.63.63,0,0,1-.84,0Z" transform="translate(-65.23 -61.62)"/></svg>