<svg id="Calque_1" data-name="Calque 1" xmlns="http://www.w3.org/2000/svg" viewBox="0 0 188.19 21.31"><defs><style>.cls-1{fill:#bb1159;}.cls-2{fill:#1d1d1b;}</style></defs><path class="cls-1" d="M333.38,306.5a6.76,6.76,0,0,1-3.51-.69,2.81,2.81,0,0,1-1.07-2.53v-3a2.51,2.51,0,0,0-.51-1.8,2.68,2.68,0,0,0-1.91-.51v-2.3a4.18,4.18,0,0,0,1.52-.23,1.3,1.3,0,0,0,.71-.69,3.63,3.63,0,0,0,.19-1.34V290.3a3.56,3.56,0,0,1,.28-1.52,2.15,2.15,0,0,1,.88-1,4.4,4.4,0,0,1,1.42-.49,11.25,11.25,0,0,1,2-.15v2.15a2.13,2.13,0,0,0-1.51.4,2.21,2.21,0,0,0-.36,1.47v2.89a2.6,2.6,0,0,1-.54,1.7,4.06,4.06,0,0,1-1.74,1.07,2.53,2.53,0,0,1,2.28,2.69v2.92a2.21,2.21,0,0,0,.36,1.47,2.13,2.13,0,0,0,1.51.4Z" transform="translate(-326.38 -287.08)"/><path class="cls-1" d="M341.82,306.5a6.69,6.69,0,0,1-3.5-.69,2.79,2.79,0,0,1-1.08-2.53v-3a2.52,2.52,0,0,0-.5-1.8,2.72,2.72,0,0,0-1.91-.51v-2.3a4.12,4.12,0,0,0,1.51-.23,1.3,1.3,0,0,0,.71-.69,3.63,3.63,0,0,0,.19-1.34V290.3a3.72,3.72,0,0,1,.28-1.52,2.15,2.15,0,0,1,.88-1,4.49,4.49,0,0,1,1.42-.49,11.33,11.33,0,0,1,2-.15v2.15a2.13,2.13,0,0,0-1.51.4,2.21,2.21,0,0,0-.36,1.47v2.89a2.6,2.6,0,0,1-.54,1.7,4.06,4.06,0,0,1-1.74,1.07,2.53,2.53,0,0,1,2.28,2.69v2.92a2.21,2.21,0,0,0,.36,1.47,2.13,2.13,0,0,0,1.51.4Z" transform="translate(-326.38 -287.08)"/><path class="cls-2" d="M355.12,303.64A5.52,5.52,0,0,1,350.9,302a6.53,6.53,0,0,1-1.51-4.61,6.12,6.12,0,0,1,1.59-4.5,5.58,5.58,0,0,1,4.17-1.6,6.52,6.52,0,0,1,3.5.89l-.66,2a5.92,5.92,0,0,0-2.72-.76,2.74,2.74,0,0,0-2.25,1,4.63,4.63,0,0,0-.82,3,4.8,4.8,0,0,0,.81,3,2.73,2.73,0,0,0,2.29,1,5.47,5.47,0,0,0,3-.91l.26,2.14a5.3,5.3,0,0,1-1.53.71A7.47,7.47,0,0,1,355.12,303.64Z" transform="translate(-326.38 -287.08)"/><path class="cls-2" d="M360.78,303.41V287.26l2.81-.18v3.4c0,.17,0,.62,0,1.37s0,1.13,0,1.15a4.68,4.68,0,0,1,3.78-1.68,4.08,4.08,0,0,1,3.07,1.13,4.91,4.91,0,0,1,1.09,3.49v7.47h-2.82v-7.16a3.83,3.83,0,0,0-.46-2.13,1.76,1.76,0,0,0-1.57-.67,3,3,0,0,0-2.77,1.7,10.62,10.62,0,0,0-.26,2.58v5.68Z" transform="translate(-326.38 -287.08)"/><path class="cls-2" d="M377.35,303.64a3.79,3.79,0,0,1-2.65-.91,3.3,3.3,0,0,1-1-2.61,3.18,3.18,0,0,1,1.2-2.73,7.45,7.45,0,0,1,3.63-1.12l.72-.08.87-.09c.33,0,.58-.05.77-.08v-.62a2.12,2.12,0,0,0-.5-1.56,2,2,0,0,0-1.5-.49,10.36,10.36,0,0,0-3.56.81s-.12-.35-.35-1-.35-.95-.36-1a11.46,11.46,0,0,1,4.52-.89,4.91,4.91,0,0,1,3.47,1,4.48,4.48,0,0,1,1.08,3.35v7.7h-2.08l-.24-.71c-.15-.46-.23-.7-.23-.72a6.6,6.6,0,0,1-1.72,1.26A4.68,4.68,0,0,1,377.35,303.64Zm.77-2a3.07,3.07,0,0,0,1.7-.46,2.81,2.81,0,0,0,1-1.14v-2.28l-.57.05-.57,0a6.07,6.07,0,0,0-2.51.64,1.73,1.73,0,0,0-.79,1.59,1.5,1.5,0,0,0,.44,1.16A1.78,1.78,0,0,0,378.12,301.64Z" transform="translate(-326.38 -287.08)"/><path class="cls-2" d="M386.52,303.41v-11.8h2.36l.37,1.8a3.73,3.73,0,0,1,3.36-1.85,5.11,5.11,0,0,1,.75,0l0,2.35a6.54,6.54,0,0,0-.89-.06,3,3,0,0,0-2.33.82,3.28,3.28,0,0,0-.77,2.3v6.4Z" transform="translate(-326.38 -287.08)"/><path class="cls-2" d="M399.21,303.58a6.06,6.06,0,0,1-2-.29,2.61,2.61,0,0,1-1.26-.91,3.84,3.84,0,0,1-.65-1.48,10.61,10.61,0,0,1-.18-2.14v-11.5l2.82-.18v11.63a4.23,4.23,0,0,0,.37,2.15,1.63,1.63,0,0,0,1.46.57,9.89,9.89,0,0,0,1.37-.12l.07,2-.26.05-.49.09-.58.08C399.63,303.56,399.41,303.58,399.21,303.58Z" transform="translate(-326.38 -287.08)"/><path class="cls-2" d="M402.66,289.89v-2.41h2.83v2.41Zm0,13.52v-11.8h2.82v11.8Z" transform="translate(-326.38 -287.08)"/><path class="cls-2" d="M408.41,303.41v-11.8h2.27l.31,1.49a5.57,5.57,0,0,1,4-1.78,3.86,3.86,0,0,1,3.09,1.19,5.09,5.09,0,0,1,1,3.44v7.46h-2.83v-7.12a4,4,0,0,0-.46-2.13,1.75,1.75,0,0,0-1.62-.71,3.11,3.11,0,0,0-1.67.46,2.88,2.88,0,0,0-1.1,1.18,11.56,11.56,0,0,0-.21,2.58v5.74Z" transform="translate(-326.38 -287.08)"/><path class="cls-2" d="M427.34,303.64a5.87,5.87,0,0,1-4.43-1.64,6.22,6.22,0,0,1-1.59-4.53,6.43,6.43,0,0,1,1.5-4.47,5.22,5.22,0,0,1,4.07-1.68,4.8,4.8,0,0,1,3.78,1.52,5.9,5.9,0,0,1,1.35,4.05v.6c0,.27,0,.47,0,.6h-7.85a3.71,3.71,0,0,0,.91,2.56,3.14,3.14,0,0,0,2.38.91,7.48,7.48,0,0,0,3.71-1l.4,2A7.78,7.78,0,0,1,427.34,303.64Zm-3.13-7.33h5.16a3.33,3.33,0,0,0-.66-2.21,2.25,2.25,0,0,0-1.81-.77,2.46,2.46,0,0,0-1.83.75A3.4,3.4,0,0,0,424.21,296.31Z" transform="translate(-326.38 -287.08)"/><path class="cls-2" d="M435.51,303.61a1.59,1.59,0,0,1-1.18-.49,1.56,1.56,0,0,1-.48-1.14,1.63,1.63,0,0,1,.48-1.18,1.59,1.59,0,0,1,1.18-.49,1.56,1.56,0,0,1,1.16.49,1.63,1.63,0,0,1,.48,1.18,1.56,1.56,0,0,1-.48,1.14A1.53,1.53,0,0,1,435.51,303.61Z" transform="translate(-326.38 -287.08)"/><path class="cls-2" d="M439.4,303.41v-11.8h2.36l.37,1.8a3.73,3.73,0,0,1,3.36-1.85,5.11,5.11,0,0,1,.75,0l0,2.35a6.44,6.44,0,0,0-.89-.06,3,3,0,0,0-2.33.82,3.27,3.27,0,0,0-.76,2.3v6.4Z" transform="translate(-326.38 -287.08)"/><path class="cls-2" d="M452.93,303.64a5.24,5.24,0,0,1-4.13-1.7,7.46,7.46,0,0,1,0-9,5.45,5.45,0,0,1,4.24-1.65,5.24,5.24,0,0,1,4.14,1.68,7.44,7.44,0,0,1,0,9A5.45,5.45,0,0,1,452.93,303.64Zm.07-2.14a2.43,2.43,0,0,0,2.15-1,6.57,6.57,0,0,0,0-6,2.78,2.78,0,0,0-4.32,0,5.19,5.19,0,0,0-.73,3,5.11,5.11,0,0,0,.73,3A2.47,2.47,0,0,0,453,301.5Z" transform="translate(-326.38 -287.08)"/><path class="cls-2" d="M461.55,308.39a12.69,12.69,0,0,1-1.46-.09l-.14-2.18a10.82,10.82,0,0,0,1.26.06,2.83,2.83,0,0,0,1.57-.39,2.79,2.79,0,0,0,1-1.38c0-.07.18-.47.43-1.21l-4.74-11.59h3l3.11,8.56q.34-1.28,1.54-4.75l1.32-3.81h3l-5,13.08a6.11,6.11,0,0,1-1.92,2.84A4.93,4.93,0,0,1,461.55,308.39Z" transform="translate(-326.38 -287.08)"/><path class="cls-2" d="M478.28,303.64a5.87,5.87,0,0,1-4.43-1.64,6.22,6.22,0,0,1-1.59-4.53,6.47,6.47,0,0,1,1.49-4.47,5.26,5.26,0,0,1,4.08-1.68,4.8,4.8,0,0,1,3.78,1.52,5.9,5.9,0,0,1,1.35,4.05v.6c0,.27,0,.47,0,.6H475.1a3.76,3.76,0,0,0,.9,2.56,3.16,3.16,0,0,0,2.38.91,7.49,7.49,0,0,0,3.72-1l.4,2A7.78,7.78,0,0,1,478.28,303.64Zm-3.13-7.33h5.16a3.33,3.33,0,0,0-.66-2.21,2.25,2.25,0,0,0-1.81-.77,2.5,2.5,0,0,0-1.84.75A3.45,3.45,0,0,0,475.15,296.31Z" transform="translate(-326.38 -287.08)"/><path class="cls-2" d="M485.26,303.41v-11.8h2.36l.37,1.8a3.73,3.73,0,0,1,3.36-1.85,5.11,5.11,0,0,1,.75,0l0,2.35a6.44,6.44,0,0,0-.89-.06,3,3,0,0,0-2.33.82,3.28,3.28,0,0,0-.77,2.3v6.4Z" transform="translate(-326.38 -287.08)"/><path class="cls-1" d="M499.12,306.5v-2.16a1.5,1.5,0,0,0,1.87-1.87v-2.92a2.52,2.52,0,0,1,.55-1.74,3.65,3.65,0,0,1,1.72-1,3.61,3.61,0,0,1-1.72-1,2.68,2.68,0,0,1-.55-1.75V291.2a2.21,2.21,0,0,0-.36-1.47,2.15,2.15,0,0,0-1.51-.4v-2.15a12.5,12.5,0,0,1,2,.14,4.2,4.2,0,0,1,1.41.5,2.09,2.09,0,0,1,.87,1,4.06,4.06,0,0,1,.27,1.59v3a2.47,2.47,0,0,0,.49,1.76,2.89,2.89,0,0,0,1.94.49V298a2.78,2.78,0,0,0-1.92.5,2.51,2.51,0,0,0-.51,1.81v3.07a2.69,2.69,0,0,1-1.07,2.46A7,7,0,0,1,499.12,306.5Z" transform="translate(-326.38 -287.08)"/><path class="cls-1" d="M507.57,306.5v-2.16a2.19,2.19,0,0,0,1.51-.39,2.23,2.23,0,0,0,.36-1.48v-2.92a2.52,2.52,0,0,1,.55-1.74,3.69,3.69,0,0,1,1.73-1,3.56,3.56,0,0,1-1.72-1,2.68,2.68,0,0,1-.56-1.75V291.2a2.21,2.21,0,0,0-.36-1.47,2.13,2.13,0,0,0-1.51-.4v-2.15a12.64,12.64,0,0,1,2,.14,4.07,4.07,0,0,1,1.4.5,2.09,2.09,0,0,1,.87,1,3.87,3.87,0,0,1,.28,1.59v3a2.42,2.42,0,0,0,.49,1.76,2.87,2.87,0,0,0,1.94.49V298a2.8,2.8,0,0,0-1.93.5,2.56,2.56,0,0,0-.5,1.81v3.07a2.67,2.67,0,0,1-1.08,2.46A6.93,6.93,0,0,1,507.57,306.5Z" transform="translate(-326.38 -287.08)"/></svg>