<svg id="Calque_1" data-name="Calque 1" xmlns="http://www.w3.org/2000/svg" viewBox="0 0 297.5 210.54"><defs><style>.cls-1,.cls-37{fill:#fff;}.cls-1,.cls-11,.cls-3,.cls-4{stroke:#1d1d1b;stroke-miterlimit:10;}.cls-1,.cls-3,.cls-4{stroke-width:0.5px;}.cls-2{fill:#474697;}.cls-3,.cls-34{fill:#f39334;}.cls-33,.cls-4{fill:#a6d4bb;}.cls-36,.cls-5{fill:#e54692;}.cls-6{font-size:12px;}.cls-14,.cls-17,.cls-6,.cls-9{fill:#1d1d1b;}.cls-14,.cls-17,.cls-6{font-family:MyriadPro-Regular, Myriad Pro;}.cls-7{letter-spacing:-0.01em;}.cls-8{fill:#9da3d2;}.cls-10,.cls-35{fill:#ffd24b;}.cls-11{fill:#f6f6f6;stroke-width:0.25px;}.cls-12,.cls-38{fill:#9fd3f4;}.cls-13,.cls-39{fill:#ed6d50;}.cls-14{font-size:11px;}.cls-15{letter-spacing:-0.01em;}.cls-16{letter-spacing:-0.01em;}.cls-17{font-size:6px;}.cls-18{letter-spacing:-0.01em;}.cls-19{letter-spacing:0em;}.cls-20{letter-spacing:-0.01em;}.cls-21{letter-spacing:0.01em;}.cls-22{letter-spacing:-0.01em;}.cls-23{letter-spacing:-0.03em;}.cls-24{letter-spacing:0em;}.cls-25{letter-spacing:0em;}.cls-26{letter-spacing:-0.01em;}.cls-27{letter-spacing:0em;}.cls-28{letter-spacing:-0.01em;}.cls-29{letter-spacing:0.01em;}.cls-30{letter-spacing:0em;}.cls-31{letter-spacing:-0.01em;}.cls-32{letter-spacing:0em;}.cls-35,.cls-36,.cls-38,.cls-39{font-size:7px;font-family:MVBoli, MV Boli;}</style></defs><rect class="cls-1" x="0.25" y="0.25" width="297" height="210.04"/><rect class="cls-2" x="10.41" y="180.89" width="262.45" height="13.48"/><rect class="cls-3" x="10.41" y="29.17" width="262.45" height="151.72"/><line class="cls-1" x1="10.41" y1="29.17" x2="272.86" y2="29.17"/><line class="cls-1" x1="10.41" y1="180.89" x2="272.86" y2="180.89"/><rect class="cls-4" x="10.41" y="9.84" width="262.45" height="19.33"/><rect class="cls-5" x="17.17" y="14.84" width="31.08" height="10.59"/><text class="cls-6" transform="translate(18.49 22.93)"><tspan class="cls-7">L</tspan><tspan x="5.5" y="0">ogo</tspan></text><rect class="cls-8" x="76.97" y="19.51" width="119.93" height="8.67"/><path class="cls-9" d="M79.84,25.21l-.63,1.91H78.4l2.06-6.07h1l2.07,6.07h-.84L82,25.21Zm2-.61-.59-1.75c-.14-.39-.23-.75-.32-1.1h0c-.09.36-.19.73-.3,1.1L80,24.6Z" transform="translate(0.25 0.29)"/><path class="cls-9" d="M87.34,27a2.92,2.92,0,0,1-1.25.25A2.07,2.07,0,0,1,83.92,25a2.22,2.22,0,0,1,2.34-2.32,2.62,2.62,0,0,1,1.1.23l-.18.61a1.83,1.83,0,0,0-.92-.21A1.51,1.51,0,0,0,84.72,25a1.49,1.49,0,0,0,1.51,1.63,2.37,2.37,0,0,0,1-.21Z" transform="translate(0.25 0.29)"/><path class="cls-9" d="M91.32,27a2.92,2.92,0,0,1-1.25.25A2.07,2.07,0,0,1,87.9,25a2.21,2.21,0,0,1,2.34-2.32,2.57,2.57,0,0,1,1.09.23l-.18.61a1.76,1.76,0,0,0-.91-.21A1.51,1.51,0,0,0,88.7,25a1.49,1.49,0,0,0,1.51,1.63,2.37,2.37,0,0,0,1-.21Z" transform="translate(0.25 0.29)"/><path class="cls-9" d="M95.89,25.93c0,.45,0,.85,0,1.19h-.71l0-.71h0a1.65,1.65,0,0,1-1.44.81c-.68,0-1.5-.38-1.5-1.91V22.76H93v2.42c0,.83.25,1.38,1,1.38a1.14,1.14,0,0,0,1-.72,1,1,0,0,0,.08-.4V22.76h.79Z" transform="translate(0.25 0.29)"/><path class="cls-9" d="M97.64,25.09a1.4,1.4,0,0,0,1.5,1.51,2.73,2.73,0,0,0,1.2-.23l.14.57a3.48,3.48,0,0,1-1.45.27A2,2,0,0,1,96.89,25a2.11,2.11,0,0,1,2-2.35,1.85,1.85,0,0,1,1.8,2,2.73,2.73,0,0,1,0,.37Zm2.33-.57a1.13,1.13,0,0,0-1.1-1.29,1.33,1.33,0,0,0-1.22,1.29Z" transform="translate(0.25 0.29)"/><path class="cls-9" d="M102.59,21.54a.47.47,0,0,1-.5.49.48.48,0,0,1-.48-.49.49.49,0,0,1,.5-.5A.47.47,0,0,1,102.59,21.54Zm-.88,5.58V22.76h.79v4.36Z" transform="translate(0.25 0.29)"/><path class="cls-9" d="M103.82,20.73h.79v6.39h-.79Z" transform="translate(0.25 0.29)"/><path class="cls-9" d="M124.41,25.21l-.63,1.91H123L125,21.05H126L128,27.12h-.83l-.65-1.91Zm2-.61-.6-1.75c-.13-.39-.22-.75-.31-1.1h0c-.09.36-.19.73-.31,1.1l-.59,1.75Z" transform="translate(0.25 0.29)"/><path class="cls-9" d="M129.77,21.51v1.25h1.14v.61h-1.14v2.35c0,.54.15.84.6.84a1.59,1.59,0,0,0,.45,0l0,.59a1.79,1.79,0,0,1-.7.11,1.13,1.13,0,0,1-.86-.33,1.66,1.66,0,0,1-.3-1.14V23.37h-.68v-.61H129v-1Z" transform="translate(0.25 0.29)"/><path class="cls-9" d="M132.68,21.54a.49.49,0,1,1-1,0,.48.48,0,0,1,.49-.5A.48.48,0,0,1,132.68,21.54Zm-.88,5.58V22.76h.79v4.36Z" transform="translate(0.25 0.29)"/><path class="cls-9" d="M137,27a2.92,2.92,0,0,1-1.25.25A2.07,2.07,0,0,1,133.59,25a2.21,2.21,0,0,1,2.34-2.32,2.62,2.62,0,0,1,1.1.23l-.18.61a1.83,1.83,0,0,0-.92-.21A1.51,1.51,0,0,0,134.39,25a1.49,1.49,0,0,0,1.51,1.63,2.37,2.37,0,0,0,1-.21Z" transform="translate(0.25 0.29)"/><path class="cls-9" d="M137.93,20.73h.8v6.39h-.8Z" transform="translate(0.25 0.29)"/><path class="cls-9" d="M140.5,25.09A1.39,1.39,0,0,0,142,26.6a2.81,2.81,0,0,0,1.21-.23l.13.57a3.39,3.39,0,0,1-1.44.27A2,2,0,0,1,139.74,25a2.12,2.12,0,0,1,2-2.35,1.85,1.85,0,0,1,1.8,2,2.73,2.73,0,0,1,0,.37Zm2.32-.57a1.13,1.13,0,0,0-1.1-1.29,1.31,1.31,0,0,0-1.21,1.29Z" transform="translate(0.25 0.29)"/><path class="cls-9" d="M144.46,26.31a2.1,2.1,0,0,0,1,.32c.58,0,.85-.29.85-.65s-.23-.59-.81-.8c-.78-.28-1.15-.71-1.15-1.24a1.33,1.33,0,0,1,1.5-1.27,2.1,2.1,0,0,1,1.07.27l-.2.57a1.66,1.66,0,0,0-.89-.25c-.47,0-.73.27-.73.59s.26.53.83.74c.76.29,1.14.67,1.14,1.32s-.59,1.3-1.62,1.3a2.51,2.51,0,0,1-1.23-.3Z" transform="translate(0.25 0.29)"/><path class="cls-9" d="M168.92,27.06a4,4,0,0,1-1.6.28,2.84,2.84,0,0,1-3-3.07,3,3,0,0,1,3.17-3.18,3.18,3.18,0,0,1,1.44.27l-.19.64a2.73,2.73,0,0,0-1.22-.26,2.26,2.26,0,0,0-2.37,2.51,2.21,2.21,0,0,0,2.33,2.44,3,3,0,0,0,1.28-.26Z" transform="translate(0.25 0.29)"/><path class="cls-9" d="M173.72,25a2.13,2.13,0,0,1-2.17,2.31,2.07,2.07,0,0,1-2.09-2.24,2.13,2.13,0,0,1,2.16-2.31A2.07,2.07,0,0,1,173.72,25Zm-3.46,0c0,1,.55,1.68,1.33,1.68s1.32-.71,1.32-1.69c0-.74-.37-1.68-1.31-1.68S170.26,24.26,170.26,25.08Z" transform="translate(0.25 0.29)"/><path class="cls-9" d="M174.72,24.08c0-.45,0-.82,0-1.18h.7l.05.72h0a1.58,1.58,0,0,1,1.44-.82c.6,0,1.54.36,1.54,1.85v2.6h-.8V24.74c0-.7-.26-1.29-1-1.29a1.13,1.13,0,0,0-1.07.81,1.38,1.38,0,0,0-.05.37v2.62h-.79Z" transform="translate(0.25 0.29)"/><path class="cls-9" d="M180.63,21.64V22.9h1.14v.6h-1.14v2.35c0,.54.15.85.6.85a1.51,1.51,0,0,0,.45-.06l0,.6a2,2,0,0,1-.7.1,1.09,1.09,0,0,1-.86-.33,1.63,1.63,0,0,1-.3-1.13V23.5h-.68v-.6h.68v-1Z" transform="translate(0.25 0.29)"/><path class="cls-9" d="M185.07,27.25,185,26.7h0a1.6,1.6,0,0,1-1.33.65,1.24,1.24,0,0,1-1.34-1.25c0-1.05.94-1.63,2.62-1.62v-.09a.9.9,0,0,0-1-1,2.17,2.17,0,0,0-1.13.33l-.18-.53a2.73,2.73,0,0,1,1.43-.38c1.33,0,1.66.91,1.66,1.78v1.63a6.46,6.46,0,0,0,.07,1ZM185,25c-.86,0-1.84.14-1.84,1a.7.7,0,0,0,.74.76,1,1,0,0,0,1.1-1Z" transform="translate(0.25 0.29)"/><path class="cls-9" d="M190.1,27.09a2.92,2.92,0,0,1-1.25.25,2.07,2.07,0,0,1-2.17-2.22A2.21,2.21,0,0,1,189,22.81a2.64,2.64,0,0,1,1.1.22l-.18.61a2,2,0,0,0-.92-.2,1.5,1.5,0,0,0-1.54,1.64A1.49,1.49,0,0,0,189,26.71a2.22,2.22,0,0,0,1-.21Z" transform="translate(0.25 0.29)"/><path class="cls-9" d="M192.1,21.64V22.9h1.13v.6H192.1v2.35c0,.54.15.85.59.85a1.59,1.59,0,0,0,.46-.06l0,.6a2.1,2.1,0,0,1-.71.1,1.09,1.09,0,0,1-.85-.33,1.58,1.58,0,0,1-.31-1.13V23.5h-.67v-.6h.67v-1Z" transform="translate(0.25 0.29)"/><path class="cls-8" d="M201.06,19.75a.69.69,0,0,0-.21.15,1.29,1.29,0,0,0-.2.25c-.06.1-.13.2-.19.32a3.78,3.78,0,0,0-.17.35l-.09.16-.09.13a.83.83,0,0,0,0,.23c0,.09,0,.19,0,.3l0,.32c0,.11,0,.21.05.3l0,.14,0,.15a.75.75,0,0,1,0,.16l0,.2a.24.24,0,0,1,0,.12l0,.09-.06.05-.06,0a.32.32,0,0,1-.21,0c-.07,0-.13-.07-.17-.18a.3.3,0,0,1,0-.1l0-.11q-.06-.33-.09-.6c0-.18-.05-.34-.07-.5l0-.44c0-.14,0-.28,0-.42s0-.29,0-.44,0-.33,0-.51a.19.19,0,0,1,.06-.13.33.33,0,0,1,.15-.11.3.3,0,0,1,.22,0,.18.18,0,0,1,.15.12v0a.15.15,0,0,1,0,.07v.38l.19-.32a2.2,2.2,0,0,1,.21-.32,3.07,3.07,0,0,1,.25-.26.91.91,0,0,1,.27-.18.69.69,0,0,1,.54,0,.73.73,0,0,1,.39.43A1.47,1.47,0,0,1,202,20a5.07,5.07,0,0,1,.06.6c0,.22,0,.45,0,.69s0,.49,0,.73a1.21,1.21,0,0,1,0,.18l0,.12a.39.39,0,0,1-.08.1l-.12.07a.37.37,0,0,1-.19,0,.21.21,0,0,1-.11-.13.9.9,0,0,1-.07-.23,2.36,2.36,0,0,1,0-.31c0-.11,0-.24,0-.37s0-.27,0-.41,0-.23,0-.34,0-.22,0-.33a2.54,2.54,0,0,0,0-.29,1,1,0,0,0-.07-.23.5.5,0,0,0-.11-.16A.2.2,0,0,0,201.06,19.75Z" transform="translate(0.25 0.29)"/><path class="cls-8" d="M205,21a2.19,2.19,0,0,1-.07-.23,2,2,0,0,0-.11-.32q-.08.12-.15.27l-.18.31a2,2,0,0,1-.2.28.65.65,0,0,1-.22.17.77.77,0,0,1-.19.05.5.5,0,0,1-.18,0,1,1,0,0,1-.36-.16.71.71,0,0,1-.2-.27l-.06-.17c0-.06,0-.13,0-.22a3.07,3.07,0,0,1,0-1.09,3,3,0,0,1,.41-1,1,1,0,0,1,.27-.29,2,2,0,0,1,.32-.18l.16-.06.17-.05.11-.07.09-.05a.68.68,0,0,1,.17,0l.13,0A.32.32,0,0,1,205,18a.32.32,0,0,1,0,.16c0,.06,0,.12,0,.17l.29,1.84c0,.09.06.18.09.25s0,.16.05.23a.25.25,0,0,0,0,.08.34.34,0,0,1,0,.1.31.31,0,0,1-.05.1.23.23,0,0,1-.11.08l-.16.06a.2.2,0,0,1-.11,0,.09.09,0,0,1-.06,0A.18.18,0,0,1,205,21Zm-1.45-.5a1.3,1.3,0,0,1,0,.13.49.49,0,0,0,.06.17.28.28,0,0,0,.09.14.12.12,0,0,0,.14,0,.72.72,0,0,0,.22-.17,1.14,1.14,0,0,0,.15-.23,2.56,2.56,0,0,0,.17-.37,2.7,2.7,0,0,0,.14-.4,2.88,2.88,0,0,0,.09-.4,1.55,1.55,0,0,0,0-.37c0-.07,0-.15-.05-.23a1.77,1.77,0,0,0-.08-.22.22.22,0,0,0,0-.08.07.07,0,0,0-.09,0,.73.73,0,0,0-.28.19,1.37,1.37,0,0,0-.24.29,2.85,2.85,0,0,0-.17.35,2.62,2.62,0,0,0-.11.4,2.57,2.57,0,0,0,0,.4C203.49,20.23,203.5,20.35,203.51,20.47Z" transform="translate(0.25 0.29)"/><path class="cls-8" d="M207.68,20.11l0,0h0a.21.21,0,0,1-.13,0,.27.27,0,0,1-.12,0,.31.31,0,0,1-.09-.07.16.16,0,0,1-.06-.08l-.12-.17-.19-.25q-.1-.14-.21-.3l-.24-.32-.21-.32-.19-.29-.12-.17c0-.06-.07-.11-.1-.16l-.1-.14a1,1,0,0,1-.07-.15.64.64,0,0,1-.06-.18.49.49,0,0,1,0-.17.5.5,0,0,1,0-.13.28.28,0,0,1,.1-.09.38.38,0,0,1,.23,0,.49.49,0,0,1,.18.11,1.16,1.16,0,0,1,.16.21l.15.27c.06.12.13.25.21.38l.24.4.25.37.21.32a5,5,0,0,0,.15-.57c0-.14.06-.28.08-.39s0-.24.08-.35,0-.22.05-.33a3.11,3.11,0,0,0,0-.32c0-.11,0-.23,0-.35a2.67,2.67,0,0,0,0-.4s0-.07,0-.1a.36.36,0,0,1,0-.11l.08-.1a.41.41,0,0,1,.11-.07c.1,0,.17-.05.23,0a.31.31,0,0,1,.13.16,1,1,0,0,1,.07.31,1.3,1.3,0,0,1,0,.37l-.58,2.71a1,1,0,0,1,0,.19.72.72,0,0,1,0,.14l-.06.1Z" transform="translate(0.25 0.29)"/><rect class="cls-10" x="36.59" y="44.65" width="212.16" height="121.28" rx="5.74"/><rect class="cls-11" x="58.16" y="49.67" width="171.96" height="52.43"/><rect class="cls-11" x="57.69" y="107.1" width="171.96" height="56.6"/><rect class="cls-5" x="59.9" y="61.97" width="39.53" height="34.8"/><rect class="cls-5" x="59.9" y="116.7" width="39.53" height="34.8"/><rect class="cls-12" x="150.39" y="52.04" width="28.04" height="12.5"/><rect class="cls-12" x="150.05" y="112.48" width="28.04" height="12.39"/><rect class="cls-13" x="103.52" y="66.35" width="115.65" height="32.98" rx="5.44"/><rect class="cls-13" x="102.58" y="128.35" width="116.59" height="32.98" rx="5.69"/><rect class="cls-13" x="107.43" y="182.78" width="82.19" height="9.46"/><text class="cls-14" transform="translate(153.06 61.86)"><tspan class="cls-15">T</tspan><tspan x="5.33" y="0">it</tspan><tspan class="cls-16" x="11.55" y="0">r</tspan><tspan x="15.04" y="0">e</tspan></text><text class="cls-17" transform="translate(105 73.82)"><tspan class="cls-7">L</tspan><tspan x="2.75" y="0">o</tspan><tspan class="cls-18" x="6.04" y="0">r</tspan><tspan x="7.94" y="0">em ipsum dolor sit ame</tspan><tspan class="cls-19" x="66.56" y="0">t</tspan><tspan x="68.53" y="0">, </tspan><tspan class="cls-20" x="71.05" y="0">c</tspan><tspan x="73.7" y="0">onse</tspan><tspan class="cls-21" x="85.7" y="0">c</tspan><tspan class="cls-22" x="88.47" y="0">t</tspan><tspan x="90.42" y="0">etur </tspan><tspan x="0" y="7.2">adipiscing eli</tspan><tspan class="cls-19" x="32.75" y="7.2">t</tspan><tspan x="34.72" y="7.2">. </tspan><tspan class="cls-23" x="37.23" y="7.2">P</tspan><tspan x="40.27" y="7.2">elle</tspan><tspan class="cls-24" x="49.11" y="7.2">n</tspan><tspan class="cls-22" x="52.42" y="7.2">t</tspan><tspan class="cls-25" x="54.37" y="7.2">esque </tspan><tspan class="cls-26" x="70.71" y="7.2">v</tspan><tspan x="73.54" y="7.2">olutp</tspan><tspan class="cls-24" x="86.96" y="7.2">a</tspan><tspan class="cls-27" x="89.82" y="7.2">t lao</tspan><tspan class="cls-18" x="0" y="14.4">r</tspan><tspan x="1.9" y="14.4">eet molli</tspan><tspan class="cls-28" x="23.71" y="14.4">s</tspan><tspan class="cls-27" x="26.02" y="14.4">. </tspan><tspan class="cls-29" x="28.53" y="14.4">M</tspan><tspan x="33.39" y="14.4">o</tspan><tspan class="cls-30" x="36.68" y="14.4">r</tspan><tspan x="38.67" y="14.4">bi sollicitudin </tspan><tspan class="cls-26" x="73.44" y="14.4">v</tspan><tspan x="76.27" y="14.4">elit </tspan><tspan class="cls-26" x="85.35" y="14.4">v</tspan><tspan x="88.17" y="14.4">el posue</tspan><tspan class="cls-26" x="109.26" y="14.4">r</tspan><tspan x="111.17" y="14.4">e </tspan><tspan x="0" y="21.6">maximu</tspan><tspan class="cls-31" x="20.39" y="21.6">s</tspan><tspan x="22.7" y="21.6">. </tspan><tspan class="cls-30" x="25.21" y="21.6">D</tspan><tspan x="29.23" y="21.6">onec pelle</tspan><tspan class="cls-32" x="55.08" y="21.6">n</tspan><tspan class="cls-20" x="58.39" y="21.6">t</tspan><tspan x="60.34" y="21.6" xml:space="preserve">esque ipsum sit amet  </tspan></text><path class="cls-9" d="M155.26,115.49H153v-.81h5.49v.81h-2.27v6.6h-1Z" transform="translate(0.25 0.29)"/><path class="cls-9" d="M160.24,115.27a.6.6,0,1,1-1.2,0,.58.58,0,0,1,.6-.6A.57.57,0,0,1,160.24,115.27Zm-1.08,6.82v-5.32h1v5.32Z" transform="translate(0.25 0.29)"/><path class="cls-9" d="M162.9,115.24v1.53h1.39v.73H162.9v2.88c0,.66.19,1,.73,1a1.86,1.86,0,0,0,.56-.07l0,.73a2.31,2.31,0,0,1-.86.13,1.31,1.31,0,0,1-1-.41,1.92,1.92,0,0,1-.38-1.38V117.5h-.82v-.73H162v-1.28Z" transform="translate(0.25 0.29)"/><path class="cls-9" d="M165.37,118.43c0-.63,0-1.17,0-1.66h.85l0,1h0a1.61,1.61,0,0,1,1.48-1.16,1.06,1.06,0,0,1,.27,0v.91a1.61,1.61,0,0,0-.33,0,1.35,1.35,0,0,0-1.29,1.24,2.06,2.06,0,0,0,0,.45v2.84h-1Z" transform="translate(0.25 0.29)"/><path class="cls-9" d="M169.4,119.61a1.7,1.7,0,0,0,1.83,1.84,3.56,3.56,0,0,0,1.47-.27l.17.69a4.29,4.29,0,0,1-1.78.33,2.47,2.47,0,0,1-2.61-2.68,2.58,2.58,0,0,1,2.49-2.87,2.25,2.25,0,0,1,2.2,2.5,4.19,4.19,0,0,1,0,.46Zm2.84-.7a1.38,1.38,0,0,0-1.34-1.57,1.61,1.61,0,0,0-1.49,1.57Z" transform="translate(0.25 0.29)"/><path class="cls-9" d="M105.42,130h.52v3.61h1.73v.43h-2.25Z" transform="translate(0.25 0.29)"/><path class="cls-9" d="M110.78,132.58a1.42,1.42,0,0,1-1.45,1.54,1.38,1.38,0,0,1-1.39-1.49,1.42,1.42,0,0,1,1.44-1.54A1.37,1.37,0,0,1,110.78,132.58Zm-2.31,0c0,.64.37,1.11.88,1.11s.89-.47.89-1.12c0-.49-.25-1.12-.87-1.12S108.47,132.06,108.47,132.61Z" transform="translate(0.25 0.29)"/><path class="cls-9" d="M111.44,132.06c0-.34,0-.64,0-.91h.46l0,.57h0a.87.87,0,0,1,.81-.63h.15v.5l-.18,0a.75.75,0,0,0-.71.68,1.81,1.81,0,0,0,0,.25v1.54h-.53Z" transform="translate(0.25 0.29)"/><path class="cls-9" d="M113.64,132.7a.93.93,0,0,0,1,1,2,2,0,0,0,.81-.15l.09.37a2.3,2.3,0,0,1-1,.18,1.34,1.34,0,0,1-1.42-1.46,1.4,1.4,0,0,1,1.36-1.56,1.23,1.23,0,0,1,1.2,1.36c0,.11,0,.2,0,.25Zm1.55-.38a.76.76,0,0,0-.73-.86.87.87,0,0,0-.81.86Z" transform="translate(0.25 0.29)"/><path class="cls-9" d="M116.35,131.94c0-.3,0-.55,0-.79h.46l0,.47h0a1,1,0,0,1,.91-.53.85.85,0,0,1,.82.58h0a1.22,1.22,0,0,1,.32-.38,1,1,0,0,1,.64-.2c.39,0,.95.25.95,1.26v1.7H120v-1.64c0-.56-.2-.89-.63-.89a.68.68,0,0,0-.62.48.71.71,0,0,0,0,.26v1.79h-.51v-1.73c0-.47-.21-.8-.61-.8a.71.71,0,0,0-.65.53.66.66,0,0,0,0,.25v1.75h-.52Z" transform="translate(0.25 0.29)"/><path class="cls-9" d="M123.22,130.34a.32.32,0,0,1-.34.32.31.31,0,0,1-.32-.32.32.32,0,0,1,.33-.33A.31.31,0,0,1,123.22,130.34Zm-.59,3.71v-2.9h.53v2.9Z" transform="translate(0.25 0.29)"/><path class="cls-9" d="M124,132.1c0-.37,0-.67,0-.95h.47l0,.5h0a1.13,1.13,0,0,1,1-.56,1.31,1.31,0,0,1,1.23,1.47,1.38,1.38,0,0,1-1.32,1.56,1,1,0,0,1-.9-.45h0v1.57H124Zm.52.77a.78.78,0,0,0,0,.22.8.8,0,0,0,.79.62c.56,0,.88-.46.88-1.13s-.31-1.07-.86-1.07a.83.83,0,0,0-.8.65.78.78,0,0,0,0,.21Z" transform="translate(0.25 0.29)"/><path class="cls-9" d="M127.37,133.51a1.35,1.35,0,0,0,.7.21c.38,0,.56-.19.56-.43s-.15-.39-.54-.53-.77-.47-.77-.82a.9.9,0,0,1,1-.85,1.4,1.4,0,0,1,.71.18l-.13.38a1.19,1.19,0,0,0-.6-.17c-.31,0-.48.18-.48.4s.17.35.55.49.76.44.76.88-.39.86-1.08.86a1.66,1.66,0,0,1-.82-.19Z" transform="translate(0.25 0.29)"/><path class="cls-9" d="M132.25,133.26c0,.3,0,.57,0,.79h-.46l0-.47h0a1.08,1.08,0,0,1-1,.54c-.45,0-1-.25-1-1.27v-1.7h.53v1.61c0,.55.17.92.65.92a.74.74,0,0,0,.69-.48.76.76,0,0,0,.05-.27v-1.78h.53Z" transform="translate(0.25 0.29)"/><path class="cls-9" d="M133.13,131.94c0-.3,0-.55,0-.79h.47l0,.47h0a1,1,0,0,1,.91-.53.87.87,0,0,1,.82.58h0a1.24,1.24,0,0,1,.33-.38,1,1,0,0,1,.64-.2c.38,0,1,.25,1,1.26v1.7h-.51v-1.64c0-.56-.21-.89-.63-.89a.69.69,0,0,0-.63.48,1,1,0,0,0,0,.26v1.79h-.52v-1.73c0-.47-.2-.8-.6-.8a.71.71,0,0,0-.65.53.66.66,0,0,0-.05.25v1.75h-.51Z" transform="translate(0.25 0.29)"/><path class="cls-9" d="M141.91,129.8v3.5c0,.26,0,.56,0,.75h-.47l0-.5h0a1.07,1.07,0,0,1-1,.57,1.32,1.32,0,0,1-1.24-1.47,1.39,1.39,0,0,1,1.3-1.56,1,1,0,0,1,.88.44h0V129.8Zm-.53,2.53a.86.86,0,0,0,0-.22.79.79,0,0,0-.76-.61c-.55,0-.87.48-.87,1.12s.29,1.07.85,1.07a.8.8,0,0,0,.78-.62.9.9,0,0,0,0-.23Z" transform="translate(0.25 0.29)"/><path class="cls-9" d="M145.41,132.58a1.42,1.42,0,0,1-1.44,1.54,1.38,1.38,0,0,1-1.39-1.49,1.41,1.41,0,0,1,1.44-1.54A1.37,1.37,0,0,1,145.41,132.58Zm-2.3,0c0,.64.37,1.11.88,1.11s.88-.47.88-1.12c0-.49-.24-1.12-.87-1.12S143.11,132.06,143.11,132.61Z" transform="translate(0.25 0.29)"/><path class="cls-9" d="M146.08,129.8h.53v4.25h-.53Z" transform="translate(0.25 0.29)"/><path class="cls-9" d="M150.12,132.58a1.42,1.42,0,0,1-1.44,1.54,1.38,1.38,0,0,1-1.39-1.49,1.41,1.41,0,0,1,1.44-1.54A1.37,1.37,0,0,1,150.12,132.58Zm-2.3,0c0,.64.37,1.11.88,1.11s.88-.47.88-1.12c0-.49-.24-1.12-.87-1.12S147.82,132.06,147.82,132.61Z" transform="translate(0.25 0.29)"/><path class="cls-9" d="M150.79,132.06c0-.34,0-.64,0-.91h.46l0,.57h0a.86.86,0,0,1,.8-.63h.15v.5l-.18,0a.74.74,0,0,0-.7.68,1.71,1.71,0,0,0,0,.25v1.54h-.52Z" transform="translate(0.25 0.29)"/><path class="cls-9" d="M154,133.51a1.35,1.35,0,0,0,.7.21c.38,0,.56-.19.56-.43s-.15-.39-.54-.53-.76-.47-.76-.82a.89.89,0,0,1,1-.85,1.4,1.4,0,0,1,.71.18l-.13.38a1.12,1.12,0,0,0-.59-.17c-.32,0-.49.18-.49.4s.17.35.55.49.76.44.76.88-.39.86-1.08.86a1.68,1.68,0,0,1-.82-.19Z" transform="translate(0.25 0.29)"/><path class="cls-9" d="M157,130.34a.33.33,0,0,1-.65,0,.33.33,0,1,1,.65,0Zm-.59,3.71v-2.9h.53v2.9Z" transform="translate(0.25 0.29)"/><path class="cls-9" d="M158.44,130.32v.83h.76v.4h-.76v1.57c0,.36.1.56.4.56a1.1,1.1,0,0,0,.3,0l0,.39a1.41,1.41,0,0,1-.47.07.7.7,0,0,1-.57-.22,1.05,1.05,0,0,1-.21-.75v-1.59h-.44v-.4h.44v-.69Z" transform="translate(0.25 0.29)"/><path class="cls-9" d="M162.67,134.05l0-.36h0a1.07,1.07,0,0,1-.89.43.82.82,0,0,1-.88-.83c0-.71.62-1.09,1.74-1.08v-.06a.6.6,0,0,0-.66-.67,1.43,1.43,0,0,0-.75.21l-.12-.35a1.83,1.83,0,0,1,.95-.25c.89,0,1.1.6,1.1,1.18v1.09a3.6,3.6,0,0,0,.05.69Zm-.08-1.48c-.57,0-1.23.09-1.23.66a.47.47,0,0,0,.5.5.72.72,0,0,0,.7-.48.55.55,0,0,0,0-.17Z" transform="translate(0.25 0.29)"/><path class="cls-9" d="M164,131.94c0-.3,0-.55,0-.79h.46l0,.47h0a1,1,0,0,1,.91-.53.87.87,0,0,1,.82.58h0a1.22,1.22,0,0,1,.32-.38,1,1,0,0,1,.65-.2c.38,0,.95.25.95,1.26v1.7h-.52v-1.64c0-.56-.2-.89-.63-.89a.68.68,0,0,0-.62.48,1,1,0,0,0,0,.26v1.79h-.52v-1.73c0-.47-.2-.8-.6-.8a.73.73,0,0,0-.66.53.66.66,0,0,0,0,.25v1.75H164Z" transform="translate(0.25 0.29)"/><path class="cls-9" d="M169.25,132.7a.94.94,0,0,0,1,1,2,2,0,0,0,.8-.15l.09.37a2.21,2.21,0,0,1-1,.18,1.34,1.34,0,0,1-1.43-1.46,1.4,1.4,0,0,1,1.36-1.56,1.22,1.22,0,0,1,1.2,1.36,1.38,1.38,0,0,1,0,.25Zm1.55-.38a.75.75,0,0,0-.73-.86.88.88,0,0,0-.81.86Z" transform="translate(0.25 0.29)"/><path class="cls-9" d="M172.6,130.32v.83h.76v.4h-.76v1.57c0,.36.1.56.4.56a1.1,1.1,0,0,0,.3,0l0,.39a1.41,1.41,0,0,1-.47.07.71.71,0,0,1-.57-.22,1.05,1.05,0,0,1-.21-.75v-1.59h-.44v-.4h.44v-.69Z" transform="translate(0.25 0.29)"/><path class="cls-9" d="M173.59,134.79a9,9,0,0,0,.36-1.43l.59-.06a7.54,7.54,0,0,1-.57,1.46Z" transform="translate(0.25 0.29)"/><path class="cls-9" d="M178.52,134a2,2,0,0,1-.84.16,1.38,1.38,0,0,1-1.44-1.48,1.48,1.48,0,0,1,1.56-1.54,1.82,1.82,0,0,1,.73.15l-.12.41a1.27,1.27,0,0,0-.61-.14,1,1,0,0,0-1,1.1,1,1,0,0,0,1,1.08,1.46,1.46,0,0,0,.65-.14Z" transform="translate(0.25 0.29)"/><path class="cls-9" d="M181.73,132.58a1.42,1.42,0,0,1-1.45,1.54,1.38,1.38,0,0,1-1.39-1.49,1.41,1.41,0,0,1,1.44-1.54A1.37,1.37,0,0,1,181.73,132.58Zm-2.31,0c0,.64.37,1.11.88,1.11s.89-.47.89-1.12c0-.49-.25-1.12-.87-1.12S179.42,132.06,179.42,132.61Z" transform="translate(0.25 0.29)"/><path class="cls-9" d="M182.39,131.94c0-.3,0-.55,0-.79h.47l0,.48h0a1.07,1.07,0,0,1,1-.54c.4,0,1,.24,1,1.23v1.73h-.52v-1.67c0-.47-.18-.86-.68-.86a.75.75,0,0,0-.7.54.66.66,0,0,0,0,.25v1.74h-.53Z" transform="translate(0.25 0.29)"/><path class="cls-9" d="M185.65,133.51a1.32,1.32,0,0,0,.7.21c.38,0,.56-.19.56-.43s-.15-.39-.54-.53-.77-.47-.77-.82a.89.89,0,0,1,1-.85,1.41,1.41,0,0,1,.72.18l-.13.38a1.19,1.19,0,0,0-.6-.17c-.31,0-.48.18-.48.4s.17.35.55.49.76.44.76.88-.4.86-1.09.86a1.64,1.64,0,0,1-.81-.19Z" transform="translate(0.25 0.29)"/><path class="cls-9" d="M188.39,132.7a.94.94,0,0,0,1,1,2,2,0,0,0,.8-.15l.09.37a2.21,2.21,0,0,1-1,.18,1.34,1.34,0,0,1-1.43-1.46,1.4,1.4,0,0,1,1.36-1.56,1.22,1.22,0,0,1,1.2,1.36,1.38,1.38,0,0,1,0,.25Zm1.55-.38a.75.75,0,0,0-.73-.86.87.87,0,0,0-.81.86Z" transform="translate(0.25 0.29)"/><path class="cls-9" d="M193.17,134a2,2,0,0,1-.83.16,1.38,1.38,0,0,1-1.45-1.48,1.48,1.48,0,0,1,1.56-1.54,1.83,1.83,0,0,1,.74.15l-.12.41a1.29,1.29,0,0,0-.62-.14,1,1,0,0,0-1,1.1,1,1,0,0,0,1,1.08,1.41,1.41,0,0,0,.64-.14Z" transform="translate(0.25 0.29)"/><path class="cls-9" d="M194.51,130.32v.83h.75v.4h-.75v1.57c0,.36.1.56.39.56a1.19,1.19,0,0,0,.31,0l0,.39a1.33,1.33,0,0,1-.47.07.69.69,0,0,1-.56-.22,1,1,0,0,1-.21-.75v-1.59h-.45v-.4H194v-.69Z" transform="translate(0.25 0.29)"/><path class="cls-9" d="M196.11,132.7a.94.94,0,0,0,1,1,1.92,1.92,0,0,0,.8-.15l.09.37a2.21,2.21,0,0,1-1,.18,1.34,1.34,0,0,1-1.43-1.46,1.41,1.41,0,0,1,1.36-1.56,1.22,1.22,0,0,1,1.2,1.36,1.38,1.38,0,0,1,0,.25Zm1.55-.38a.75.75,0,0,0-.73-.86.88.88,0,0,0-.81.86Z" transform="translate(0.25 0.29)"/><path class="cls-9" d="M199.46,130.32v.83h.76v.4h-.76v1.57c0,.36.1.56.4.56a1.05,1.05,0,0,0,.3,0l0,.39a1.37,1.37,0,0,1-.47.07.71.71,0,0,1-.57-.22,1.05,1.05,0,0,1-.2-.75v-1.59h-.45v-.4H199v-.69Z" transform="translate(0.25 0.29)"/><path class="cls-9" d="M203.24,133.26c0,.3,0,.57,0,.79h-.47l0-.47h0a1.11,1.11,0,0,1-1,.54c-.46,0-1-.25-1-1.27v-1.7h.53v1.61c0,.55.17.92.65.92a.72.72,0,0,0,.74-.75v-1.78h.53Z" transform="translate(0.25 0.29)"/><path class="cls-9" d="M204.12,132.06c0-.34,0-.64,0-.91h.47v.57h0a.86.86,0,0,1,.8-.63h.15v.5l-.18,0a.76.76,0,0,0-.71.68,1.81,1.81,0,0,0,0,.25v1.54h-.52Z" transform="translate(0.25 0.29)"/><path class="cls-9" d="M107,141.25l0-.36h0a1.07,1.07,0,0,1-.89.43.83.83,0,0,1-.89-.83c0-.7.63-1.09,1.75-1.08v-.06a.6.6,0,0,0-.66-.67,1.49,1.49,0,0,0-.76.21l-.12-.35a1.87,1.87,0,0,1,1-.25c.88,0,1.1.6,1.1,1.18v1.09a3.6,3.6,0,0,0,0,.69Zm-.08-1.48c-.58,0-1.23.09-1.23.66a.47.47,0,0,0,.5.5.72.72,0,0,0,.7-.48.55.55,0,0,0,0-.17Z" transform="translate(0.25 0.29)"/><path class="cls-9" d="M110.8,137v3.5c0,.26,0,.56,0,.75h-.47l0-.5h0a1.05,1.05,0,0,1-1,.57,1.32,1.32,0,0,1-1.25-1.47,1.39,1.39,0,0,1,1.31-1.56,1,1,0,0,1,.87.44h0V137Zm-.53,2.53a.86.86,0,0,0,0-.22.79.79,0,0,0-.76-.61c-.55,0-.87.48-.87,1.12s.29,1.07.86,1.07a.79.79,0,0,0,.77-.62.9.9,0,0,0,0-.23Z" transform="translate(0.25 0.29)"/><path class="cls-9" d="M112.27,137.54a.32.32,0,0,1-.34.32.31.31,0,0,1-.32-.32.32.32,0,0,1,.33-.33A.31.31,0,0,1,112.27,137.54Zm-.59,3.71v-2.9h.53v2.9Z" transform="translate(0.25 0.29)"/><path class="cls-9" d="M113.08,139.3c0-.37,0-.67,0-1h.47l0,.5h0a1.13,1.13,0,0,1,1-.56,1.31,1.31,0,0,1,1.23,1.47,1.38,1.38,0,0,1-1.32,1.56,1,1,0,0,1-.89-.45h0v1.57h-.52Zm.52.77a1.46,1.46,0,0,0,0,.22.8.8,0,0,0,.79.62c.56,0,.88-.46.88-1.12s-.31-1.08-.86-1.08a.83.83,0,0,0-.8.65.78.78,0,0,0,0,.22Z" transform="translate(0.25 0.29)"/><path class="cls-9" d="M117.08,137.54a.3.3,0,0,1-.33.32.31.31,0,0,1-.32-.32.32.32,0,0,1,.33-.33A.31.31,0,0,1,117.08,137.54Zm-.58,3.71v-2.9H117v2.9Z" transform="translate(0.25 0.29)"/><path class="cls-9" d="M117.83,140.71a1.28,1.28,0,0,0,.69.21c.39,0,.57-.19.57-.43s-.15-.39-.54-.53-.77-.47-.77-.82a.89.89,0,0,1,1-.85,1.4,1.4,0,0,1,.71.18l-.13.38a1.12,1.12,0,0,0-.59-.17c-.31,0-.49.18-.49.4s.18.35.55.49.77.44.77.88-.4.86-1.09.86a1.62,1.62,0,0,1-.81-.19Z" transform="translate(0.25 0.29)"/><path class="cls-9" d="M122.34,141.15a2,2,0,0,1-.83.16,1.38,1.38,0,0,1-1.45-1.48,1.48,1.48,0,0,1,1.56-1.54,1.83,1.83,0,0,1,.74.15l-.12.41a1.29,1.29,0,0,0-.62-.14,1,1,0,0,0-1,1.1,1,1,0,0,0,1,1.08,1.41,1.41,0,0,0,.64-.14Z" transform="translate(0.25 0.29)"/><path class="cls-9" d="M123.55,137.54a.3.3,0,0,1-.33.32.31.31,0,0,1-.32-.32.32.32,0,0,1,.33-.33A.31.31,0,0,1,123.55,137.54Zm-.59,3.71v-2.9h.53v2.9Z" transform="translate(0.25 0.29)"/><path class="cls-9" d="M124.37,139.14c0-.3,0-.55,0-.79h.47l0,.48h0a1.08,1.08,0,0,1,1-.54c.4,0,1,.24,1,1.23v1.73h-.53v-1.67c0-.47-.17-.86-.67-.86a.76.76,0,0,0-.71.54,1,1,0,0,0,0,.25v1.74h-.53Z" transform="translate(0.25 0.29)"/><path class="cls-9" d="M130.2,138.35c0,.21,0,.45,0,.8v1.68a1.68,1.68,0,0,1-.41,1.33,1.56,1.56,0,0,1-1.06.35,1.92,1.92,0,0,1-1-.24l.13-.4a1.63,1.63,0,0,0,.85.22c.54,0,.94-.28.94-1v-.32h0a1.05,1.05,0,0,1-.93.48,1.29,1.29,0,0,1-1.23-1.41,1.39,1.39,0,0,1,1.3-1.54,1,1,0,0,1,.91.5h0l0-.44Zm-.55,1.15a.61.61,0,0,0,0-.24.75.75,0,0,0-.74-.56c-.5,0-.86.43-.86,1.1s.29,1,.86,1a.76.76,0,0,0,.73-.54.9.9,0,0,0,0-.28Z" transform="translate(0.25 0.29)"/><path class="cls-9" d="M132.62,139.9a.93.93,0,0,0,1,1,2,2,0,0,0,.81-.15l.09.37a2.3,2.3,0,0,1-1,.18,1.35,1.35,0,0,1-1.43-1.46,1.41,1.41,0,0,1,1.36-1.56,1.22,1.22,0,0,1,1.2,1.36c0,.11,0,.2,0,.25Zm1.54-.38a.75.75,0,0,0-.73-.86.88.88,0,0,0-.81.86Z" transform="translate(0.25 0.29)"/><path class="cls-9" d="M135.33,137h.53v4.25h-.53Z" transform="translate(0.25 0.29)"/><path class="cls-9" d="M137.33,137.54a.3.3,0,0,1-.33.32.31.31,0,0,1-.32-.32.32.32,0,0,1,.33-.33A.31.31,0,0,1,137.33,137.54Zm-.59,3.71v-2.9h.53v2.9Z" transform="translate(0.25 0.29)"/><path class="cls-9" d="M138.78,137.52v.83h.76v.4h-.76v1.57c0,.36.11.56.4.56a1.19,1.19,0,0,0,.31,0l0,.39a1.33,1.33,0,0,1-.47.07.72.72,0,0,1-.57-.22,1.05,1.05,0,0,1-.2-.75v-1.59h-.45v-.4h.45v-.69Z" transform="translate(0.25 0.29)"/><path class="cls-9" d="M140,140.94a.35.35,0,0,1,.36-.37.38.38,0,0,1,0,.75A.36.36,0,0,1,140,140.94Z" transform="translate(0.25 0.29)"/><path class="cls-9" d="M142.65,137.26a6.19,6.19,0,0,1,1-.08,1.62,1.62,0,0,1,1.13.34,1,1,0,0,1,.36.84,1.21,1.21,0,0,1-.31.87,1.71,1.71,0,0,1-1.24.44,1.8,1.8,0,0,1-.42,0v1.61h-.52Zm.52,2a1.74,1.74,0,0,0,.43,0c.63,0,1-.3,1-.86s-.38-.79-1-.79a1.87,1.87,0,0,0-.49,0Z" transform="translate(0.25 0.29)"/><path class="cls-9" d="M146,139.9a.93.93,0,0,0,1,1,2,2,0,0,0,.81-.15l.08.37a2.21,2.21,0,0,1-1,.18,1.35,1.35,0,0,1-1.43-1.46,1.41,1.41,0,0,1,1.36-1.56,1.22,1.22,0,0,1,1.2,1.36c0,.11,0,.2,0,.25Zm1.54-.38a.75.75,0,0,0-.73-.86.88.88,0,0,0-.81.86Z" transform="translate(0.25 0.29)"/><path class="cls-9" d="M148.68,137h.53v4.25h-.53Z" transform="translate(0.25 0.29)"/><path class="cls-9" d="M150.09,137h.53v4.25h-.53Z" transform="translate(0.25 0.29)"/><path class="cls-9" d="M151.8,139.9a.94.94,0,0,0,1,1,1.92,1.92,0,0,0,.8-.15l.09.37a2.21,2.21,0,0,1-1,.18,1.34,1.34,0,0,1-1.43-1.46,1.41,1.41,0,0,1,1.36-1.56,1.22,1.22,0,0,1,1.2,1.36,1.38,1.38,0,0,1,0,.25Zm1.55-.38a.75.75,0,0,0-.73-.86.88.88,0,0,0-.81.86Z" transform="translate(0.25 0.29)"/><path class="cls-9" d="M154.52,139.14c0-.3,0-.55,0-.79H155l0,.48h0a1.08,1.08,0,0,1,1-.54c.4,0,1,.24,1,1.23v1.73h-.53v-1.67c0-.47-.17-.86-.67-.86a.76.76,0,0,0-.71.54.93.93,0,0,0,0,.25v1.74h-.52Z" transform="translate(0.25 0.29)"/><path class="cls-9" d="M158.46,137.52v.83h.75v.4h-.75v1.57c0,.36.1.56.39.56a1.19,1.19,0,0,0,.31,0l0,.39a1.3,1.3,0,0,1-.46.07.7.7,0,0,1-.57-.22,1.05,1.05,0,0,1-.21-.75v-1.59h-.45v-.4h.45v-.69Z" transform="translate(0.25 0.29)"/><path class="cls-9" d="M160.07,139.9a.93.93,0,0,0,1,1,2,2,0,0,0,.81-.15l.09.37a2.3,2.3,0,0,1-1,.18,1.35,1.35,0,0,1-1.43-1.46,1.41,1.41,0,0,1,1.36-1.56,1.22,1.22,0,0,1,1.2,1.36c0,.11,0,.2,0,.25Zm1.54-.38a.75.75,0,0,0-.73-.86.88.88,0,0,0-.81.86Z" transform="translate(0.25 0.29)"/><path class="cls-9" d="M162.71,140.71a1.28,1.28,0,0,0,.69.21c.39,0,.57-.19.57-.43s-.15-.39-.54-.53-.77-.47-.77-.82a.89.89,0,0,1,1-.85,1.44,1.44,0,0,1,.72.18l-.14.38a1.12,1.12,0,0,0-.59-.17c-.31,0-.49.18-.49.4s.18.35.55.49.77.44.77.88-.4.86-1.09.86a1.62,1.62,0,0,1-.81-.19Z" transform="translate(0.25 0.29)"/><path class="cls-9" d="M167.13,140.8h0a1,1,0,0,1-1,.52,1.32,1.32,0,0,1-1.22-1.47,1.39,1.39,0,0,1,1.31-1.56.94.94,0,0,1,.89.5h0l0-.44h.5c0,.25,0,.5,0,.8v3.29h-.53Zm0-1.27a.78.78,0,0,0,0-.22.77.77,0,0,0-.76-.6c-.54,0-.87.46-.87,1.11s.27,1.08.86,1.08a.82.82,0,0,0,.79-.83Z" transform="translate(0.25 0.29)"/><path class="cls-9" d="M171,140.46c0,.3,0,.57,0,.79h-.47l0-.47h0a1.11,1.11,0,0,1-1,.54c-.46,0-1-.25-1-1.27v-1.7H169V140c0,.55.17.92.65.92a.77.77,0,0,0,.7-.48.73.73,0,0,0,0-.27v-1.78H171Z" transform="translate(0.25 0.29)"/><path class="cls-9" d="M172.13,139.9a.94.94,0,0,0,1,1,2,2,0,0,0,.8-.15l.09.37a2.21,2.21,0,0,1-1,.18,1.34,1.34,0,0,1-1.43-1.46,1.4,1.4,0,0,1,1.36-1.56,1.22,1.22,0,0,1,1.2,1.36,1.38,1.38,0,0,1,0,.25Zm1.55-.38a.75.75,0,0,0-.73-.86.88.88,0,0,0-.81.86Z" transform="translate(0.25 0.29)"/><path class="cls-9" d="M176.32,138.35l.57,1.63a7,7,0,0,1,.23.75h0c.07-.24.15-.48.25-.75l.56-1.63h.55l-1.14,2.9h-.5l-1.1-2.9Z" transform="translate(0.25 0.29)"/><path class="cls-9" d="M181.57,139.78a1.42,1.42,0,0,1-1.45,1.54,1.38,1.38,0,0,1-1.39-1.49,1.42,1.42,0,0,1,1.44-1.54A1.37,1.37,0,0,1,181.57,139.78Zm-2.3,0c0,.64.36,1.11.88,1.11s.88-.47.88-1.12c0-.49-.25-1.12-.87-1.12S179.27,139.26,179.27,139.81Z" transform="translate(0.25 0.29)"/><path class="cls-9" d="M182.24,137h.52v4.25h-.52Z" transform="translate(0.25 0.29)"/><path class="cls-9" d="M186.08,140.46c0,.3,0,.57,0,.79h-.47l0-.47h0a1.11,1.11,0,0,1-1,.54c-.46,0-1-.25-1-1.27v-1.7h.53V140c0,.55.17.92.65.92a.77.77,0,0,0,.7-.48.73.73,0,0,0,0-.27v-1.78h.53Z" transform="translate(0.25 0.29)"/><path class="cls-9" d="M187.59,137.52v.83h.76v.4h-.76v1.57c0,.36.11.56.4.56a1.19,1.19,0,0,0,.31,0l0,.39a1.33,1.33,0,0,1-.47.07.72.72,0,0,1-.57-.22,1.05,1.05,0,0,1-.2-.75v-1.59h-.45v-.4h.45v-.69Z" transform="translate(0.25 0.29)"/><path class="cls-9" d="M188.94,139.3c0-.37,0-.67,0-1h.47l0,.5h0a1.15,1.15,0,0,1,1-.56,1.31,1.31,0,0,1,1.23,1.47,1.37,1.37,0,0,1-1.32,1.56,1,1,0,0,1-.89-.45h0v1.57h-.53Zm.53.77a1.5,1.5,0,0,0,0,.22.81.81,0,0,0,.79.62c.56,0,.88-.46.88-1.12s-.3-1.08-.86-1.08a.83.83,0,0,0-.8.65.78.78,0,0,0,0,.22Z" transform="translate(0.25 0.29)"/><path class="cls-9" d="M194,141.25l-.05-.36h0a1.1,1.1,0,0,1-.89.43.83.83,0,0,1-.89-.83c0-.7.62-1.09,1.75-1.08v-.06a.6.6,0,0,0-.66-.67,1.47,1.47,0,0,0-.76.21l-.12-.35a1.86,1.86,0,0,1,.95-.25c.89,0,1.11.6,1.11,1.18v1.09a3.6,3.6,0,0,0,0,.69Zm-.08-1.48c-.58,0-1.23.09-1.23.66a.47.47,0,0,0,.5.5.74.74,0,0,0,.7-.48.55.55,0,0,0,0-.17Z" transform="translate(0.25 0.29)"/><path class="cls-9" d="M195.86,137.52v.83h.76v.4h-.76v1.57c0,.36.1.56.4.56a1.05,1.05,0,0,0,.3,0l0,.39a1.37,1.37,0,0,1-.47.07.71.71,0,0,1-.57-.22,1.05,1.05,0,0,1-.2-.75v-1.59h-.45v-.4h.45v-.69Z" transform="translate(0.25 0.29)"/><path class="cls-9" d="M198.48,137H199v4.25h-.53Z" transform="translate(0.25 0.29)"/><path class="cls-9" d="M201.51,141.25l0-.36h0a1.08,1.08,0,0,1-.89.43.83.83,0,0,1-.89-.83c0-.7.63-1.09,1.75-1.08v-.06a.6.6,0,0,0-.66-.67,1.49,1.49,0,0,0-.76.21l-.12-.35a1.87,1.87,0,0,1,1-.25c.88,0,1.1.6,1.1,1.18v1.09a3.6,3.6,0,0,0,.05.69Zm-.08-1.48c-.58,0-1.23.09-1.23.66a.47.47,0,0,0,.5.5.72.72,0,0,0,.7-.48.55.55,0,0,0,0-.17Z" transform="translate(0.25 0.29)"/><path class="cls-9" d="M205.42,139.78a1.42,1.42,0,0,1-1.45,1.54,1.38,1.38,0,0,1-1.39-1.49,1.42,1.42,0,0,1,1.44-1.54A1.37,1.37,0,0,1,205.42,139.78Zm-2.3,0c0,.64.36,1.11.88,1.11s.88-.47.88-1.12c0-.49-.25-1.12-.87-1.12S203.12,139.26,203.12,139.81Z" transform="translate(0.25 0.29)"/><path class="cls-9" d="M105.4,146.46c0-.34,0-.64,0-.91h.46l0,.57h0a.86.86,0,0,1,.81-.63h.14v.5l-.18,0a.74.74,0,0,0-.7.68,1.71,1.71,0,0,0,0,.25v1.54h-.52Z" transform="translate(0.25 0.29)"/><path class="cls-9" d="M107.6,147.1a.93.93,0,0,0,1,1,2,2,0,0,0,.81-.15l.09.37a2.3,2.3,0,0,1-1,.18,1.35,1.35,0,0,1-1.43-1.46,1.41,1.41,0,0,1,1.37-1.56,1.22,1.22,0,0,1,1.19,1.36c0,.11,0,.19,0,.25Zm1.54-.38a.75.75,0,0,0-.73-.86c-.53,0-.76.5-.81.86Z" transform="translate(0.25 0.29)"/><path class="cls-9" d="M110.6,147.1a.94.94,0,0,0,1,1,2,2,0,0,0,.8-.15l.09.37a2.21,2.21,0,0,1-1,.18,1.34,1.34,0,0,1-1.43-1.46,1.41,1.41,0,0,1,1.36-1.56,1.22,1.22,0,0,1,1.2,1.36,1.47,1.47,0,0,1,0,.25Zm1.55-.38a.75.75,0,0,0-.73-.86.88.88,0,0,0-.81.86Z" transform="translate(0.25 0.29)"/><path class="cls-9" d="M114,144.72v.83h.76v.4H114v1.57c0,.36.1.56.4.56a1.74,1.74,0,0,0,.3,0l0,.39a1.37,1.37,0,0,1-.47.07.71.71,0,0,1-.57-.22,1.05,1.05,0,0,1-.2-.75V146H113v-.4h.45v-.69Z" transform="translate(0.25 0.29)"/><path class="cls-9" d="M116.57,146.34c0-.3,0-.55,0-.79H117l0,.47h0a1,1,0,0,1,.91-.53.87.87,0,0,1,.83.58h0a1.22,1.22,0,0,1,.32-.38,1,1,0,0,1,.64-.2c.39,0,1,.25,1,1.26v1.7h-.52v-1.64c0-.56-.2-.89-.63-.89a.68.68,0,0,0-.62.48.71.71,0,0,0,0,.26v1.79h-.52v-1.74c0-.46-.2-.79-.61-.79a.73.73,0,0,0-.65.53.66.66,0,0,0,0,.25v1.75h-.52Z" transform="translate(0.25 0.29)"/><path class="cls-9" d="M124.2,147a1.42,1.42,0,0,1-1.44,1.54,1.38,1.38,0,0,1-1.39-1.49,1.41,1.41,0,0,1,1.44-1.54A1.37,1.37,0,0,1,124.2,147Zm-2.3,0c0,.63.37,1.11.88,1.11s.88-.47.88-1.12c0-.49-.24-1.12-.86-1.12S121.9,146.46,121.9,147Z" transform="translate(0.25 0.29)"/><path class="cls-9" d="M124.87,144.2h.53v4.25h-.53Z" transform="translate(0.25 0.29)"/><path class="cls-9" d="M126.29,144.2h.52v4.25h-.52Z" transform="translate(0.25 0.29)"/><path class="cls-9" d="M128.29,144.74a.33.33,0,0,1-.65,0,.33.33,0,1,1,.65,0Zm-.59,3.71v-2.9h.53v2.9Z" transform="translate(0.25 0.29)"/><path class="cls-9" d="M129,147.92a1.37,1.37,0,0,0,.69.2c.38,0,.56-.19.56-.43s-.14-.39-.54-.53-.76-.47-.76-.82a.89.89,0,0,1,1-.85,1.4,1.4,0,0,1,.71.18l-.13.38a1.12,1.12,0,0,0-.59-.17c-.32,0-.49.18-.49.4s.17.34.55.49.76.44.76.87-.39.87-1.08.87a1.68,1.68,0,0,1-.82-.19Z" transform="translate(0.25 0.29)"/><path class="cls-9" d="M131.29,148.14a.36.36,0,1,1,.72,0,.35.35,0,0,1-.36.38A.36.36,0,0,1,131.29,148.14Z" transform="translate(0.25 0.29)"/><path class="cls-9" d="M137.36,146.68c0-.56-.07-1.24-.06-1.75h0c-.14.48-.31,1-.51,1.54l-.72,2h-.39l-.66-1.92c-.19-.57-.35-1.1-.46-1.58h0c0,.51,0,1.19-.07,1.79l-.11,1.73h-.5l.28-4h.67l.69,2c.17.5.3.94.41,1.36h0c.11-.41.25-.85.43-1.36l.72-2h.67l.25,4h-.51Z" transform="translate(0.25 0.29)"/><path class="cls-9" d="M141.42,147a1.42,1.42,0,0,1-1.45,1.54,1.38,1.38,0,0,1-1.39-1.49,1.42,1.42,0,0,1,1.44-1.54A1.37,1.37,0,0,1,141.42,147Zm-2.31,0c0,.63.37,1.11.89,1.11s.88-.47.88-1.12c0-.49-.25-1.12-.87-1.12S139.11,146.46,139.11,147Z" transform="translate(0.25 0.29)"/><path class="cls-9" d="M142.08,146.46c0-.34,0-.64,0-.91h.46l0,.57h0a.87.87,0,0,1,.81-.63h.15v.5l-.18,0a.75.75,0,0,0-.71.68,1.81,1.81,0,0,0,0,.25v1.54h-.53Z" transform="translate(0.25 0.29)"/><path class="cls-9" d="M144.05,148.45c0-.19,0-.49,0-.74V144.2h.52V146h0a1.1,1.1,0,0,1,1-.53,1.31,1.31,0,0,1,1.23,1.48,1.38,1.38,0,0,1-1.3,1.55,1,1,0,0,1-1-.55h0l0,.48Zm.54-1.16a.58.58,0,0,0,0,.19.8.8,0,0,0,.79.62c.55,0,.88-.45.88-1.11s-.3-1.08-.86-1.08a.84.84,0,0,0-.81.64,1.3,1.3,0,0,0,0,.22Z" transform="translate(0.25 0.29)"/><path class="cls-9" d="M148.07,144.74a.3.3,0,0,1-.33.32.31.31,0,0,1-.32-.32.32.32,0,0,1,.33-.33A.31.31,0,0,1,148.07,144.74Zm-.59,3.71v-2.9H148v2.9Z" transform="translate(0.25 0.29)"/><path class="cls-9" d="M150.09,147.92a1.41,1.41,0,0,0,.7.2c.38,0,.56-.19.56-.43s-.15-.39-.54-.53-.77-.47-.77-.82a.89.89,0,0,1,1-.85,1.44,1.44,0,0,1,.72.18l-.13.38a1.19,1.19,0,0,0-.6-.17c-.31,0-.49.18-.49.4s.18.34.56.49.76.44.76.87-.4.87-1.09.87a1.64,1.64,0,0,1-.81-.19Z" transform="translate(0.25 0.29)"/><path class="cls-9" d="M155.16,147a1.42,1.42,0,0,1-1.44,1.54,1.38,1.38,0,0,1-1.39-1.49,1.41,1.41,0,0,1,1.44-1.54A1.37,1.37,0,0,1,155.16,147Zm-2.3,0c0,.63.37,1.11.88,1.11s.88-.47.88-1.12c0-.49-.24-1.12-.87-1.12S152.86,146.46,152.86,147Z" transform="translate(0.25 0.29)"/><path class="cls-9" d="M155.83,144.2h.53v4.25h-.53Z" transform="translate(0.25 0.29)"/><path class="cls-9" d="M157.25,144.2h.53v4.25h-.53Z" transform="translate(0.25 0.29)"/><path class="cls-9" d="M159.25,144.74a.3.3,0,0,1-.33.32.31.31,0,0,1-.32-.32.32.32,0,0,1,.33-.33A.31.31,0,0,1,159.25,144.74Zm-.59,3.71v-2.9h.53v2.9Z" transform="translate(0.25 0.29)"/><path class="cls-9" d="M162.14,148.35a2,2,0,0,1-.84.16,1.38,1.38,0,0,1-1.44-1.48,1.48,1.48,0,0,1,1.56-1.54,1.82,1.82,0,0,1,.73.15l-.12.41a1.27,1.27,0,0,0-.61-.14,1,1,0,0,0-1,1.1,1,1,0,0,0,1,1.08,1.46,1.46,0,0,0,.65-.14Z" transform="translate(0.25 0.29)"/><path class="cls-9" d="M163.34,144.74a.3.3,0,0,1-.33.32.31.31,0,0,1-.32-.32.32.32,0,0,1,.33-.33A.31.31,0,0,1,163.34,144.74Zm-.59,3.71v-2.9h.53v2.9Z" transform="translate(0.25 0.29)"/><path class="cls-9" d="M164.79,144.72v.83h.76v.4h-.76v1.57c0,.36.11.56.4.56a1.89,1.89,0,0,0,.31,0l0,.39a1.33,1.33,0,0,1-.47.07.72.72,0,0,1-.57-.22,1.05,1.05,0,0,1-.2-.75V146h-.45v-.4h.45v-.69Z" transform="translate(0.25 0.29)"/><path class="cls-9" d="M168.57,147.66c0,.3,0,.57,0,.79h-.47l0-.47h0a1.11,1.11,0,0,1-1,.54c-.46,0-1-.25-1-1.27v-1.7h.52v1.61c0,.55.17.92.65.92a.75.75,0,0,0,.75-.75v-1.78h.52Z" transform="translate(0.25 0.29)"/><path class="cls-9" d="M172,144.2v3.51c0,.25,0,.55,0,.74h-.47l0-.5h0a1.07,1.07,0,0,1-1,.57,1.32,1.32,0,0,1-1.24-1.48,1.38,1.38,0,0,1,1.3-1.55,1,1,0,0,1,.88.44h0V144.2Zm-.53,2.53a1.8,1.8,0,0,0,0-.22.79.79,0,0,0-.77-.61c-.54,0-.86.48-.86,1.12s.28,1.07.85,1.07a.79.79,0,0,0,.78-.63,1.5,1.5,0,0,0,0-.22Z" transform="translate(0.25 0.29)"/><path class="cls-9" d="M173.42,144.74a.3.3,0,0,1-.33.32.31.31,0,0,1-.32-.32.32.32,0,0,1,.33-.33A.31.31,0,0,1,173.42,144.74Zm-.59,3.71v-2.9h.53v2.9Z" transform="translate(0.25 0.29)"/><path class="cls-9" d="M174.24,146.34c0-.3,0-.55,0-.79h.47l0,.48h0a1.08,1.08,0,0,1,1-.54c.41,0,1,.24,1,1.23v1.73h-.53v-1.67c0-.47-.17-.86-.67-.86a.76.76,0,0,0-.71.54,1,1,0,0,0,0,.25v1.74h-.53Z" transform="translate(0.25 0.29)"/><path class="cls-9" d="M179,145.55l.57,1.63a7.13,7.13,0,0,1,.24.75h0c.06-.24.15-.48.24-.75l.57-1.63h.55l-1.14,2.9h-.51l-1.1-2.9Z" transform="translate(0.25 0.29)"/><path class="cls-9" d="M182,147.1a.94.94,0,0,0,1,1,2,2,0,0,0,.8-.15l.09.37a2.26,2.26,0,0,1-1,.18,1.34,1.34,0,0,1-1.42-1.46,1.4,1.4,0,0,1,1.36-1.56,1.22,1.22,0,0,1,1.2,1.36,1.47,1.47,0,0,1,0,.25Zm1.55-.38a.76.76,0,0,0-.73-.86.87.87,0,0,0-.81.86Z" transform="translate(0.25 0.29)"/><path class="cls-9" d="M184.67,144.2h.53v4.25h-.53Z" transform="translate(0.25 0.29)"/><path class="cls-9" d="M186.68,144.74a.33.33,0,0,1-.66,0,.32.32,0,0,1,.33-.33A.31.31,0,0,1,186.68,144.74Zm-.59,3.71v-2.9h.53v2.9Z" transform="translate(0.25 0.29)"/><path class="cls-9" d="M188.13,144.72v.83h.75v.4h-.75v1.57c0,.36.1.56.39.56a1.89,1.89,0,0,0,.31,0l0,.39a1.3,1.3,0,0,1-.46.07.7.7,0,0,1-.57-.22,1.05,1.05,0,0,1-.21-.75V146h-.45v-.4h.45v-.69Z" transform="translate(0.25 0.29)"/><path class="cls-9" d="M191,145.55l.57,1.63a7.13,7.13,0,0,1,.24.75h0c.06-.24.15-.48.24-.75l.56-1.63h.56l-1.14,2.9h-.51l-1.1-2.9Z" transform="translate(0.25 0.29)"/><path class="cls-9" d="M193.87,147.1a.94.94,0,0,0,1,1,2,2,0,0,0,.8-.15l.09.37a2.26,2.26,0,0,1-1,.18,1.34,1.34,0,0,1-1.42-1.46,1.4,1.4,0,0,1,1.36-1.56,1.23,1.23,0,0,1,1.2,1.36,1.47,1.47,0,0,1,0,.25Zm1.55-.38a.76.76,0,0,0-.73-.86.87.87,0,0,0-.81.86Z" transform="translate(0.25 0.29)"/><path class="cls-9" d="M196.58,144.2h.53v4.25h-.53Z" transform="translate(0.25 0.29)"/><path class="cls-9" d="M199.27,146.5c0-.37,0-.67,0-.95h.47l0,.5h0a1.13,1.13,0,0,1,1-.56A1.31,1.31,0,0,1,202,147a1.38,1.38,0,0,1-1.32,1.56,1,1,0,0,1-.9-.46h0v1.58h-.52Zm.52.77a.78.78,0,0,0,0,.22.81.81,0,0,0,.79.62c.56,0,.88-.46.88-1.12s-.31-1.08-.86-1.08a.83.83,0,0,0-.8.65.72.72,0,0,0,0,.22Z" transform="translate(0.25 0.29)"/><path class="cls-9" d="M205.31,147a1.42,1.42,0,0,1-1.44,1.54,1.39,1.39,0,0,1-1.4-1.49,1.42,1.42,0,0,1,1.44-1.54A1.37,1.37,0,0,1,205.31,147Zm-2.3,0c0,.63.36,1.11.88,1.11s.88-.47.88-1.12c0-.49-.25-1.12-.87-1.12S203,146.46,203,147Z" transform="translate(0.25 0.29)"/><path class="cls-9" d="M205.91,147.92a1.37,1.37,0,0,0,.69.2c.39,0,.57-.19.57-.43s-.15-.39-.54-.53-.77-.47-.77-.82a.89.89,0,0,1,1-.85,1.4,1.4,0,0,1,.71.18l-.13.38a1.12,1.12,0,0,0-.59-.17c-.31,0-.49.18-.49.4s.18.34.55.49.77.44.77.87-.4.87-1.09.87a1.68,1.68,0,0,1-.82-.19Z" transform="translate(0.25 0.29)"/><path class="cls-9" d="M210.78,147.66c0,.3,0,.57,0,.79h-.47l0-.47h0a1.11,1.11,0,0,1-1,.54c-.46,0-1-.25-1-1.27v-1.7h.52v1.61c0,.55.17.92.65.92a.76.76,0,0,0,.7-.48.77.77,0,0,0,0-.27v-1.78h.53Z" transform="translate(0.25 0.29)"/><path class="cls-9" d="M212,147.1a.94.94,0,0,0,1,1,1.92,1.92,0,0,0,.8-.15l.09.37a2.21,2.21,0,0,1-1,.18,1.34,1.34,0,0,1-1.43-1.46,1.41,1.41,0,0,1,1.36-1.56,1.22,1.22,0,0,1,1.2,1.36,1.47,1.47,0,0,1,0,.25Zm1.55-.38a.75.75,0,0,0-.73-.86.88.88,0,0,0-.81.86Z" transform="translate(0.25 0.29)"/><path class="cls-9" d="M214.67,146.46c0-.34,0-.64,0-.91h.46l0,.57h0a.86.86,0,0,1,.8-.63h.15v.5l-.18,0a.75.75,0,0,0-.71.68,1.81,1.81,0,0,0,0,.25v1.54h-.52Z" transform="translate(0.25 0.29)"/><path class="cls-9" d="M216.86,147.1a.94.94,0,0,0,1,1,2,2,0,0,0,.8-.15l.09.37a2.21,2.21,0,0,1-1,.18,1.34,1.34,0,0,1-1.43-1.46,1.4,1.4,0,0,1,1.36-1.56,1.22,1.22,0,0,1,1.2,1.36,1.47,1.47,0,0,1,0,.25Zm1.55-.38a.75.75,0,0,0-.73-.86.87.87,0,0,0-.81.86Z" transform="translate(0.25 0.29)"/><path class="cls-9" d="M105.4,153.54c0-.3,0-.55,0-.79h.46l0,.47h0a1,1,0,0,1,.91-.53.85.85,0,0,1,.82.58h0a1.22,1.22,0,0,1,.32-.38,1,1,0,0,1,.64-.2c.39,0,1,.25,1,1.26v1.7H109V154c0-.56-.2-.89-.63-.89a.68.68,0,0,0-.62.48.71.71,0,0,0,0,.26v1.79h-.51v-1.73c0-.47-.21-.8-.61-.8a.71.71,0,0,0-.65.53.66.66,0,0,0,0,.25v1.75h-.52Z" transform="translate(0.25 0.29)"/><path class="cls-9" d="M112,155.65l0-.36h0a1.07,1.07,0,0,1-.89.43.82.82,0,0,1-.88-.83c0-.7.62-1.09,1.74-1.08v-.06a.59.59,0,0,0-.66-.67,1.43,1.43,0,0,0-.75.21l-.12-.35a1.86,1.86,0,0,1,1-.25c.89,0,1.1.6,1.1,1.18V155a4.65,4.65,0,0,0,0,.69Zm-.08-1.48c-.57,0-1.22.09-1.22.66a.46.46,0,0,0,.49.5.71.71,0,0,0,.7-.49.45.45,0,0,0,0-.16Z" transform="translate(0.25 0.29)"/><path class="cls-9" d="M113.54,152.75l.42.63c.11.16.2.31.29.47h0l.29-.48.4-.62h.57l-1,1.41,1,1.49H115l-.42-.65c-.12-.17-.21-.33-.31-.5h0l-.31.5-.42.65h-.58l1-1.48-1-1.42Z" transform="translate(0.25 0.29)"/><path class="cls-9" d="M116.66,151.94a.3.3,0,0,1-.33.32.31.31,0,0,1-.32-.32.32.32,0,0,1,.33-.33A.31.31,0,0,1,116.66,151.94Zm-.58,3.71v-2.9h.52v2.9Z" transform="translate(0.25 0.29)"/><path class="cls-9" d="M117.48,153.54c0-.3,0-.55,0-.79h.46l0,.47h0a1,1,0,0,1,.91-.53.85.85,0,0,1,.82.58h0a1.24,1.24,0,0,1,.33-.38,1,1,0,0,1,.64-.2c.38,0,1,.25,1,1.26v1.7h-.51V154c0-.56-.21-.89-.63-.89a.69.69,0,0,0-.63.48,1,1,0,0,0,0,.26v1.79h-.51v-1.73c0-.47-.21-.8-.61-.8a.71.71,0,0,0-.65.53.66.66,0,0,0,0,.25v1.75h-.52Z" transform="translate(0.25 0.29)"/><path class="cls-9" d="M124.91,154.86c0,.3,0,.57,0,.79h-.47l0-.47h0a1.09,1.09,0,0,1-1,.54c-.46,0-1-.25-1-1.27v-1.7H123v1.61c0,.55.17.92.65.92a.72.72,0,0,0,.74-.75v-1.78h.53Z" transform="translate(0.25 0.29)"/><path class="cls-9" d="M125.72,155.12a1.37,1.37,0,0,0,.69.21c.39,0,.57-.2.57-.44s-.15-.39-.54-.53-.77-.47-.77-.82a.89.89,0,0,1,1-.85,1.44,1.44,0,0,1,.72.18l-.14.38a1.12,1.12,0,0,0-.59-.17c-.31,0-.49.18-.49.4s.18.35.56.49.76.44.76.87-.4.87-1.09.87a1.62,1.62,0,0,1-.81-.19Z" transform="translate(0.25 0.29)"/><path class="cls-9" d="M128,155.34a.36.36,0,1,1,.72,0,.35.35,0,0,1-.36.38A.36.36,0,0,1,128,155.34Z" transform="translate(0.25 0.29)"/><path class="cls-9" d="M130.63,151.67a7.23,7.23,0,0,1,1.11-.09,2.33,2.33,0,0,1,1.64.51,1.85,1.85,0,0,1,.57,1.45,2.16,2.16,0,0,1-.58,1.57,2.5,2.5,0,0,1-1.79.58,8.52,8.52,0,0,1-1-.05Zm.52,3.57a3.89,3.89,0,0,0,.53,0,1.55,1.55,0,0,0,1.72-1.71,1.44,1.44,0,0,0-1.64-1.56,3,3,0,0,0-.61.05Z" transform="translate(0.25 0.29)"/><path class="cls-9" d="M137.26,154.18a1.42,1.42,0,0,1-1.45,1.54,1.38,1.38,0,0,1-1.39-1.49,1.42,1.42,0,0,1,1.44-1.54A1.37,1.37,0,0,1,137.26,154.18Zm-2.3,0c0,.63.36,1.12.88,1.12s.88-.48.88-1.13c0-.49-.25-1.12-.87-1.12S135,153.66,135,154.21Z" transform="translate(0.25 0.29)"/><path class="cls-9" d="M137.93,153.54c0-.3,0-.55,0-.79h.47l0,.48h0a1.08,1.08,0,0,1,1-.54c.4,0,1,.24,1,1.23v1.73h-.53V154c0-.47-.17-.86-.67-.86a.76.76,0,0,0-.71.54,1,1,0,0,0,0,.25v1.74h-.53Z" transform="translate(0.25 0.29)"/><path class="cls-9" d="M141.55,154.3a.94.94,0,0,0,1,1,2,2,0,0,0,.8-.15l.09.37a2.24,2.24,0,0,1-1,.18,1.34,1.34,0,0,1-1.43-1.46,1.4,1.4,0,0,1,1.36-1.56,1.22,1.22,0,0,1,1.2,1.36,1.38,1.38,0,0,1,0,.25Zm1.55-.38a.76.76,0,0,0-.73-.86.87.87,0,0,0-.81.86Z" transform="translate(0.25 0.29)"/><path class="cls-9" d="M146.33,155.55a2,2,0,0,1-.83.16,1.38,1.38,0,0,1-1.45-1.48,1.48,1.48,0,0,1,1.56-1.54,1.78,1.78,0,0,1,.73.15l-.12.41a1.21,1.21,0,0,0-.61-.14,1,1,0,0,0-1,1.1,1,1,0,0,0,1,1.08,1.43,1.43,0,0,0,.65-.14Z" transform="translate(0.25 0.29)"/><path class="cls-9" d="M148.22,153.7c0-.37,0-.67,0-.95h.47l0,.5h0a1.15,1.15,0,0,1,1-.56,1.31,1.31,0,0,1,1.23,1.47,1.37,1.37,0,0,1-1.32,1.56,1,1,0,0,1-.89-.46h0v1.58h-.53Zm.53.77a1.5,1.5,0,0,0,0,.22.81.81,0,0,0,.79.62c.56,0,.88-.46.88-1.12s-.3-1.08-.86-1.08a.83.83,0,0,0-.8.65.78.78,0,0,0,0,.22Z" transform="translate(0.25 0.29)"/><path class="cls-9" d="M151.93,154.3a.94.94,0,0,0,1,1,2,2,0,0,0,.8-.15l.09.37a2.24,2.24,0,0,1-1,.18,1.34,1.34,0,0,1-1.43-1.46,1.4,1.4,0,0,1,1.36-1.56,1.22,1.22,0,0,1,1.2,1.36,1.38,1.38,0,0,1,0,.25Zm1.55-.38a.75.75,0,0,0-.73-.86.87.87,0,0,0-.81.86Z" transform="translate(0.25 0.29)"/><path class="cls-9" d="M154.64,151.4h.53v4.25h-.53Z" transform="translate(0.25 0.29)"/><path class="cls-9" d="M156.06,151.4h.53v4.25h-.53Z" transform="translate(0.25 0.29)"/><path class="cls-9" d="M157.77,154.3a.94.94,0,0,0,1,1,2,2,0,0,0,.8-.15l.09.37a2.26,2.26,0,0,1-1,.18,1.34,1.34,0,0,1-1.42-1.46,1.4,1.4,0,0,1,1.36-1.56,1.23,1.23,0,0,1,1.2,1.36c0,.11,0,.2,0,.25Zm1.55-.38a.76.76,0,0,0-.74-.86.87.87,0,0,0-.8.86Z" transform="translate(0.25 0.29)"/><path class="cls-9" d="M160.48,153.54c0-.3,0-.55,0-.79h.47l0,.48h0a1.07,1.07,0,0,1,1-.54c.4,0,1,.24,1,1.23v1.73h-.53V154c0-.47-.17-.86-.67-.86a.78.78,0,0,0-.71.54,1,1,0,0,0,0,.25v1.74h-.53Z" transform="translate(0.25 0.29)"/><path class="cls-9" d="M164.42,151.92v.83h.76v.4h-.76v1.57c0,.36.11.56.4.56a1.89,1.89,0,0,0,.31,0l0,.39a1.37,1.37,0,0,1-.47.07.71.71,0,0,1-.57-.22,1.05,1.05,0,0,1-.2-.75v-1.59h-.45v-.4h.45v-.69Z" transform="translate(0.25 0.29)"/><path class="cls-9" d="M166,154.3a.94.94,0,0,0,1,1,2,2,0,0,0,.8-.15l.09.37a2.24,2.24,0,0,1-1,.18,1.34,1.34,0,0,1-1.43-1.46,1.4,1.4,0,0,1,1.36-1.56,1.22,1.22,0,0,1,1.2,1.36,1.38,1.38,0,0,1,0,.25Zm1.55-.38a.76.76,0,0,0-.73-.86.87.87,0,0,0-.81.86Z" transform="translate(0.25 0.29)"/><path class="cls-9" d="M168.67,155.12a1.41,1.41,0,0,0,.7.21c.38,0,.56-.2.56-.44s-.15-.39-.54-.53-.77-.47-.77-.82a.9.9,0,0,1,1-.85,1.4,1.4,0,0,1,.71.18l-.13.38a1.19,1.19,0,0,0-.6-.17c-.31,0-.48.18-.48.4s.17.35.55.49.76.44.76.87-.4.87-1.08.87a1.66,1.66,0,0,1-.82-.19Z" transform="translate(0.25 0.29)"/><path class="cls-9" d="M173.1,155.21h0a1.05,1.05,0,0,1-1,.51,1.32,1.32,0,0,1-1.23-1.47,1.39,1.39,0,0,1,1.31-1.56,1,1,0,0,1,.9.5h0l0-.44h.49c0,.25,0,.5,0,.8v3.29h-.53Zm0-1.28a.78.78,0,0,0,0-.22.76.76,0,0,0-.75-.6c-.55,0-.88.46-.88,1.11s.28,1.08.86,1.08a.79.79,0,0,0,.76-.58,1,1,0,0,0,0-.25Z" transform="translate(0.25 0.29)"/><path class="cls-9" d="M176.93,154.86c0,.3,0,.57,0,.79h-.47l0-.47h0a1.08,1.08,0,0,1-1,.54c-.45,0-1-.25-1-1.27v-1.7H175v1.61c0,.55.16.92.64.92a.75.75,0,0,0,.75-.75v-1.78h.53Z" transform="translate(0.25 0.29)"/><path class="cls-9" d="M178.1,154.3a.93.93,0,0,0,1,1,2,2,0,0,0,.81-.15l.09.37a2.3,2.3,0,0,1-1,.18,1.35,1.35,0,0,1-1.43-1.46,1.41,1.41,0,0,1,1.36-1.56,1.22,1.22,0,0,1,1.2,1.36c0,.11,0,.2,0,.25Zm1.54-.38a.75.75,0,0,0-.73-.86.88.88,0,0,0-.81.86Z" transform="translate(0.25 0.29)"/><path class="cls-9" d="M182.67,151.94a.32.32,0,0,1-.34.32.31.31,0,0,1-.31-.32.33.33,0,1,1,.65,0Zm-.59,3.71v-2.9h.53v2.9Z" transform="translate(0.25 0.29)"/><path class="cls-9" d="M183.48,153.7c0-.37,0-.67,0-.95h.47l0,.5h0a1.15,1.15,0,0,1,1-.56,1.31,1.31,0,0,1,1.23,1.47c0,1.05-.63,1.56-1.32,1.56a1,1,0,0,1-.89-.46h0v1.58h-.53Zm.53.77a1.5,1.5,0,0,0,0,.22.82.82,0,0,0,.79.62c.56,0,.88-.46.88-1.12s-.3-1.08-.86-1.08a.83.83,0,0,0-.8.65.78.78,0,0,0,0,.22Z" transform="translate(0.25 0.29)"/><path class="cls-9" d="M186.83,155.12a1.37,1.37,0,0,0,.69.21c.39,0,.57-.2.57-.44s-.15-.39-.54-.53-.77-.47-.77-.82a.89.89,0,0,1,1-.85,1.4,1.4,0,0,1,.71.18l-.13.38a1.12,1.12,0,0,0-.59-.17c-.31,0-.49.18-.49.4s.18.35.55.49.77.44.77.87-.4.87-1.09.87a1.68,1.68,0,0,1-.82-.19Z" transform="translate(0.25 0.29)"/><path class="cls-9" d="M191.7,154.86c0,.3,0,.57,0,.79h-.47l0-.47h0a1.09,1.09,0,0,1-1,.54c-.46,0-1-.25-1-1.27v-1.7h.52v1.61c0,.55.17.92.65.92a.75.75,0,0,0,.75-.75v-1.78h.52Z" transform="translate(0.25 0.29)"/><path class="cls-9" d="M192.58,153.54c0-.3,0-.55,0-.79H193l0,.47h0a1,1,0,0,1,.91-.53.85.85,0,0,1,.82.58h0a1.39,1.39,0,0,1,.33-.38,1,1,0,0,1,.64-.2c.38,0,.95.25.95,1.26v1.7h-.51V154c0-.56-.21-.89-.63-.89a.67.67,0,0,0-.62.48.71.71,0,0,0-.05.26v1.79h-.51v-1.73c0-.47-.21-.8-.61-.8a.71.71,0,0,0-.65.53.66.66,0,0,0,0,.25v1.75h-.52Z" transform="translate(0.25 0.29)"/><path class="cls-9" d="M198.79,155.12a1.37,1.37,0,0,0,.69.21c.38,0,.56-.2.56-.44s-.15-.39-.54-.53-.76-.47-.76-.82a.89.89,0,0,1,1-.85,1.4,1.4,0,0,1,.71.18l-.13.38a1.12,1.12,0,0,0-.59-.17c-.32,0-.49.18-.49.4s.17.35.55.49.76.44.76.87-.39.87-1.08.87a1.68,1.68,0,0,1-.82-.19Z" transform="translate(0.25 0.29)"/><path class="cls-9" d="M201.82,151.94a.33.33,0,0,1-.65,0,.33.33,0,1,1,.65,0Zm-.59,3.71v-2.9h.53v2.9Z" transform="translate(0.25 0.29)"/><path class="cls-9" d="M203.27,151.92v.83H204v.4h-.76v1.57c0,.36.11.56.4.56a1.63,1.63,0,0,0,.3,0l0,.39a1.37,1.37,0,0,1-.47.07.71.71,0,0,1-.57-.22,1.05,1.05,0,0,1-.2-.75v-1.59h-.45v-.4h.45v-.69Z" transform="translate(0.25 0.29)"/><path class="cls-9" d="M207.5,155.65l0-.36h0a1.07,1.07,0,0,1-.89.43.82.82,0,0,1-.88-.83c0-.7.62-1.09,1.74-1.08v-.06a.59.59,0,0,0-.66-.67,1.43,1.43,0,0,0-.75.21l-.12-.35a1.83,1.83,0,0,1,1-.25c.89,0,1.1.6,1.1,1.18V155a4.65,4.65,0,0,0,0,.69Zm-.08-1.48c-.57,0-1.23.09-1.23.66a.47.47,0,0,0,.5.5.71.71,0,0,0,.7-.49.45.45,0,0,0,0-.16Z" transform="translate(0.25 0.29)"/><path class="cls-9" d="M208.79,153.54c0-.3,0-.55,0-.79h.46l0,.47h0a1,1,0,0,1,.91-.53.87.87,0,0,1,.82.58h0a1.22,1.22,0,0,1,.32-.38,1,1,0,0,1,.65-.2c.38,0,1,.25,1,1.26v1.7h-.52V154c0-.56-.2-.89-.62-.89a.69.69,0,0,0-.63.48,1,1,0,0,0,0,.26v1.79h-.52v-1.73c0-.47-.2-.8-.6-.8a.73.73,0,0,0-.66.53.66.66,0,0,0,0,.25v1.75h-.51Z" transform="translate(0.25 0.29)"/><path class="cls-9" d="M214.08,154.3a.94.94,0,0,0,1,1,1.92,1.92,0,0,0,.8-.15l.09.37a2.21,2.21,0,0,1-1,.18,1.34,1.34,0,0,1-1.43-1.46,1.41,1.41,0,0,1,1.36-1.56,1.22,1.22,0,0,1,1.2,1.36,1.38,1.38,0,0,1,0,.25Zm1.55-.38a.75.75,0,0,0-.73-.86.88.88,0,0,0-.81.86Z" transform="translate(0.25 0.29)"/><path class="cls-9" d="M217.43,151.92v.83h.76v.4h-.76v1.57c0,.36.1.56.4.56a1.63,1.63,0,0,0,.3,0l0,.39a1.37,1.37,0,0,1-.47.07.71.71,0,0,1-.57-.22,1.05,1.05,0,0,1-.2-.75v-1.59h-.45v-.4h.45v-.69Z" transform="translate(0.25 0.29)"/><path class="cls-9" d="M114,186.52a2.12,2.12,0,1,1-2.11-2.16A2.13,2.13,0,0,1,114,186.52Zm-3.89,0a1.77,1.77,0,1,0,1.78-1.89A1.8,1.8,0,0,0,110.14,186.54Zm2.64-.82a1.54,1.54,0,0,0-.68-.16.9.9,0,0,0-1,1,.93.93,0,0,0,1,1,1.33,1.33,0,0,0,.71-.19l.09.27a1.64,1.64,0,0,1-.87.22,1.21,1.21,0,0,1-1.28-1.27,1.29,1.29,0,0,1,1.34-1.3,1.34,1.34,0,0,1,.77.19Z" transform="translate(0.25 0.29)"/><path class="cls-9" d="M120.27,186.83c0-.66-.07-1.45-.07-2h0c-.16.55-.36,1.14-.59,1.79l-.84,2.29h-.46l-.76-2.25a18.14,18.14,0,0,1-.55-1.83h0c0,.59,0,1.38-.09,2.08l-.13,2h-.58l.33-4.72h.78l.8,2.28c.2.58.36,1.1.48,1.59h0c.12-.47.29-1,.5-1.59l.84-2.28h.77l.3,4.72h-.6Z" transform="translate(0.25 0.29)"/><path class="cls-9" d="M125,187.18a1.66,1.66,0,0,1-1.69,1.8,1.62,1.62,0,0,1-1.62-1.75,1.66,1.66,0,0,1,1.68-1.8A1.61,1.61,0,0,1,125,187.18Zm-2.69,0c0,.74.43,1.3,1,1.3s1-.55,1-1.31c0-.58-.29-1.31-1-1.31S122.32,186.57,122.32,187.21Z" transform="translate(0.25 0.29)"/><path class="cls-9" d="M125.79,186.43c0-.35,0-.64,0-.92h.55l0,.56h0a1.26,1.26,0,0,1,1.13-.64c.46,0,1.19.28,1.19,1.44v2h-.61v-2c0-.55-.21-1-.79-1a.93.93,0,0,0-.87.92v2h-.61Z" transform="translate(0.25 0.29)"/><path class="cls-9" d="M131.16,186.62c0-.44,0-.79,0-1.11h.55l0,.58h0a1.35,1.35,0,0,1,1.21-.66,1.54,1.54,0,0,1,1.43,1.73,1.61,1.61,0,0,1-1.54,1.82,1.17,1.17,0,0,1-1-.54h0v1.85h-.61Zm.61.9a2,2,0,0,0,0,.25,1,1,0,0,0,.93.72c.65,0,1-.53,1-1.31s-.36-1.26-1-1.26a1,1,0,0,0-.93.77.93.93,0,0,0,0,.25Z" transform="translate(0.25 0.29)"/><path class="cls-9" d="M135.14,186.57c0-.4,0-.74,0-1.06h.54l0,.66h0a1,1,0,0,1,.94-.74l.17,0V186a.62.62,0,0,0-.21,0,.86.86,0,0,0-.82.8,1.2,1.2,0,0,0,0,.28v1.81h-.61Z" transform="translate(0.25 0.29)"/><path class="cls-9" d="M137.7,187.32a1.09,1.09,0,0,0,1.16,1.17,2.18,2.18,0,0,0,.94-.17l.11.44a2.74,2.74,0,0,1-1.13.21,1.58,1.58,0,0,1-1.67-1.71,1.65,1.65,0,0,1,1.59-1.83,1.44,1.44,0,0,1,1.4,1.6,2,2,0,0,1,0,.29Zm1.81-.45a.88.88,0,0,0-.86-1,1,1,0,0,0-.94,1Z" transform="translate(0.25 0.29)"/><path class="cls-9" d="M140.86,186.43c0-.35,0-.64,0-.92h.54l0,.55h0a1.14,1.14,0,0,1,1.06-.63,1,1,0,0,1,1,.68h0a1.51,1.51,0,0,1,.38-.44,1.18,1.18,0,0,1,.75-.24c.45,0,1.11.3,1.11,1.47v2h-.6V187c0-.65-.24-1-.73-1a.8.8,0,0,0-.73.56.91.91,0,0,0,0,.31v2.09H143v-2c0-.54-.24-.93-.71-.93a.83.83,0,0,0-.76.61.76.76,0,0,0-.05.3v2.05h-.61Z" transform="translate(0.25 0.29)"/><path class="cls-9" d="M147.39,184.56a.38.38,0,1,1-.76,0,.38.38,0,0,1,.38-.39A.37.37,0,0,1,147.39,184.56Zm-.69,4.34v-3.39h.62v3.39Z" transform="translate(0.25 0.29)"/><path class="cls-9" d="M148.68,187.32a1.09,1.09,0,0,0,1.17,1.17,2.25,2.25,0,0,0,.94-.17l.1.44a2.74,2.74,0,0,1-1.13.21,1.57,1.57,0,0,1-1.66-1.71,1.65,1.65,0,0,1,1.59-1.83,1.44,1.44,0,0,1,1.4,1.6c0,.13,0,.22,0,.29Zm1.81-.45a.87.87,0,0,0-.85-1,1,1,0,0,0-.95,1Z" transform="translate(0.25 0.29)"/><path class="cls-9" d="M151.85,186.57c0-.4,0-.74,0-1.06h.54l0,.66h0a1,1,0,0,1,.94-.74l.17,0V186a.62.62,0,0,0-.21,0,.88.88,0,0,0-.83.8,2.3,2.3,0,0,0,0,.28v1.81h-.61Z" transform="translate(0.25 0.29)"/><path class="cls-9" d="M155.54,188.27a1.58,1.58,0,0,0,.81.24c.45,0,.66-.22.66-.5s-.18-.46-.63-.62c-.61-.22-.9-.56-.9-1a1,1,0,0,1,1.17-1,1.71,1.71,0,0,1,.83.21l-.15.45a1.35,1.35,0,0,0-.69-.2c-.37,0-.57.21-.57.47s.2.4.64.57c.59.23.89.52.89,1s-.46,1-1.27,1a1.93,1.93,0,0,1-1-.23Z" transform="translate(0.25 0.29)"/><path class="cls-9" d="M159.08,184.56a.38.38,0,1,1-.76,0,.38.38,0,0,1,.38-.39A.37.37,0,0,1,159.08,184.56Zm-.69,4.34v-3.39H159v3.39Z" transform="translate(0.25 0.29)"/><path class="cls-9" d="M160.77,184.54v1h.89V186h-.89v1.83c0,.42.12.65.47.65a1.33,1.33,0,0,0,.35,0l0,.47a1.78,1.78,0,0,1-.55.08.85.85,0,0,1-.66-.26,1.22,1.22,0,0,1-.24-.88V186h-.52v-.47h.52v-.81Z" transform="translate(0.25 0.29)"/><path class="cls-9" d="M162.65,187.32a1.08,1.08,0,0,0,1.16,1.17,2.22,2.22,0,0,0,.94-.17l.1.44a2.64,2.64,0,0,1-1.12.21,1.58,1.58,0,0,1-1.67-1.71,1.65,1.65,0,0,1,1.59-1.83,1.44,1.44,0,0,1,1.4,1.6,2,2,0,0,1,0,.29Zm1.81-.45a.89.89,0,0,0-.86-1,1,1,0,0,0-.94,1Z" transform="translate(0.25 0.29)"/><path class="cls-9" d="M168.73,186.78v.45H167v-.45Z" transform="translate(0.25 0.29)"/><path class="cls-9" d="M170.73,188.9v-.38l.49-.47c1.16-1.1,1.68-1.69,1.69-2.38a.81.81,0,0,0-.9-.89,1.52,1.52,0,0,0-1,.39l-.2-.44a2.06,2.06,0,0,1,1.29-.46,1.28,1.28,0,0,1,1.4,1.32c0,.84-.61,1.52-1.57,2.45l-.37.33v0h2v.51Z" transform="translate(0.25 0.29)"/><path class="cls-9" d="M177.35,186.57c0,1.55-.57,2.41-1.58,2.41s-1.49-.84-1.51-2.34.66-2.37,1.58-2.37S177.35,185.12,177.35,186.57Zm-2.47.07c0,1.19.36,1.86.92,1.86s.93-.74.93-1.9-.28-1.85-.92-1.85S174.88,185.4,174.88,186.64Z" transform="translate(0.25 0.29)"/><path class="cls-9" d="M177.92,188.9v-.38l.48-.47c1.16-1.1,1.69-1.69,1.69-2.38a.81.81,0,0,0-.9-.89,1.54,1.54,0,0,0-1,.39l-.19-.44a2,2,0,0,1,1.29-.46,1.28,1.28,0,0,1,1.39,1.32c0,.84-.61,1.52-1.57,2.45l-.36.33v0h2v.51Z" transform="translate(0.25 0.29)"/><path class="cls-9" d="M182.84,184.92h0l-.79.43-.12-.47,1-.53h.53v4.55h-.6Z" transform="translate(0.25 0.29)"/><path class="cls-33" d="M277.71,25.34a.34.34,0,0,1-.29-.1.37.37,0,0,1-.08-.25,1.1,1.1,0,0,1,0-.18,1.55,1.55,0,0,1,0-.21c0-.12.07-.24.11-.36l.12-.36.12-.37c0-.12.07-.24.1-.36v0a.12.12,0,0,0,0-.07.1.1,0,0,0-.08,0l-.16,0a.46.46,0,0,0-.14.07,3.64,3.64,0,0,0-.41.3,3.11,3.11,0,0,0-.31.32,2.33,2.33,0,0,0-.27.35,4.86,4.86,0,0,0-.27.41,3,3,0,0,0-.18.37,1.22,1.22,0,0,1-.11.25.33.33,0,0,1-.11.14.3.3,0,0,1-.18.05.21.21,0,0,1-.19-.08.35.35,0,0,1-.06-.21,1,1,0,0,1,0-.22l1.13-4.52a.32.32,0,0,1,0-.09l.07-.09.09-.06a.28.28,0,0,1,.13,0H277l.11,0,.08,0a.16.16,0,0,1,0,.09v.06s0,.06,0,.1c-.13.49-.26,1-.4,1.54l-.42,1.62a4.79,4.79,0,0,1,.43-.47,3.61,3.61,0,0,1,.46-.36,1.77,1.77,0,0,1,.5-.24,1.54,1.54,0,0,1,.52-.09.34.34,0,0,1,.27.11.39.39,0,0,1,.1.28.88.88,0,0,1,0,.16l-.09.3c0,.11-.07.21-.11.31s-.07.21-.11.31a2,2,0,0,0-.09.33,2.12,2.12,0,0,0-.08.41c0,.13,0,.23,0,.31a.63.63,0,0,1,0,.19.46.46,0,0,1-.07.16.29.29,0,0,1-.11.11A.34.34,0,0,1,277.71,25.34Z" transform="translate(0.25 0.29)"/><path class="cls-33" d="M279.15,23.82a.41.41,0,0,1,.08-.25.33.33,0,0,1,.21-.13,1.28,1.28,0,0,1,.12-.21,2.79,2.79,0,0,1,.19-.28,3.65,3.65,0,0,1,.27-.3,1.69,1.69,0,0,1,.32-.27,1.47,1.47,0,0,1,.39-.21,1.27,1.27,0,0,1,.44-.08,1.11,1.11,0,0,1,.34.05.84.84,0,0,1,.25.13.6.6,0,0,1,.14.21.7.7,0,0,1,.05.25.78.78,0,0,1,0,.22.75.75,0,0,1-.18.34,1.26,1.26,0,0,1-.31.25,1.91,1.91,0,0,1-.38.18,3.17,3.17,0,0,1-.41.12,3.06,3.06,0,0,1-.4.07l-.33,0a1.38,1.38,0,0,0-.06.16,1.1,1.1,0,0,0,0,.18.35.35,0,0,0,.16.31.76.76,0,0,0,.43.11,1.06,1.06,0,0,0,.31,0,1.31,1.31,0,0,0,.28-.09l.25-.12.21-.13a1.18,1.18,0,0,1,.23-.14.45.45,0,0,1,.2-.06c.06,0,.09,0,.11,0a.15.15,0,0,1,0,.09v.1a.67.67,0,0,1-.07.18.64.64,0,0,1-.13.15,2.3,2.3,0,0,1-.73.4,2.63,2.63,0,0,1-.8.12h-.19l-.23,0-.24-.09a1,1,0,0,1-.21-.15,1,1,0,0,1-.14-.24.86.86,0,0,1-.06-.34,1.81,1.81,0,0,1,0-.36.18.18,0,0,1-.09,0A.21.21,0,0,1,279.15,23.82Zm2.14-.94v-.07a.14.14,0,0,0-.07-.13.3.3,0,0,0-.16-.05.67.67,0,0,0-.3.08,1.31,1.31,0,0,0-.27.19,1.86,1.86,0,0,0-.23.26,1.14,1.14,0,0,0-.15.24,3.06,3.06,0,0,0,.45-.06,1.6,1.6,0,0,0,.35-.12.83.83,0,0,0,.25-.16A.47.47,0,0,0,281.29,22.88Z" transform="translate(0.25 0.29)"/><path class="cls-33" d="M284.32,25a2.32,2.32,0,0,1,0-.24,1.69,1.69,0,0,0,0-.35l-.25.2a3.06,3.06,0,0,1-.29.21,1.75,1.75,0,0,1-.29.18.68.68,0,0,1-.27.07.58.58,0,0,1-.19,0,.35.35,0,0,1-.16-.09,1,1,0,0,1-.26-.28.63.63,0,0,1-.08-.34,1.15,1.15,0,0,1,0-.18c0-.06,0-.13.05-.21a3.09,3.09,0,0,1,.44-1,3.25,3.25,0,0,1,.79-.78.82.82,0,0,1,.36-.16,1.47,1.47,0,0,1,.36,0h.18l.17,0,.13,0h.1a.48.48,0,0,1,.18,0,.41.41,0,0,1,.11.07.37.37,0,0,1,.05.11.25.25,0,0,1,0,.12.88.88,0,0,1,0,.17l-.06.16-.45,1.8c0,.1,0,.19,0,.27a1.37,1.37,0,0,1,0,.23l0,.08a.41.41,0,0,1-.05.09.22.22,0,0,1-.09.07.23.23,0,0,1-.13,0h-.17a.19.19,0,0,1-.09,0,.13.13,0,0,1-.05-.06A.19.19,0,0,1,284.32,25Zm-1.13-1a1.06,1.06,0,0,0,0,.14,1.1,1.1,0,0,0,0,.18.41.41,0,0,0,0,.16.12.12,0,0,0,.12.08.54.54,0,0,0,.27-.07,1.14,1.14,0,0,0,.23-.15,3.65,3.65,0,0,0,.3-.27c.1-.1.2-.2.29-.31a2.62,2.62,0,0,0,.24-.34,1.26,1.26,0,0,0,.15-.34,1.37,1.37,0,0,0,0-.23,1,1,0,0,0,0-.23.15.15,0,0,0,0-.09s0,0-.08,0a1,1,0,0,0-.33.06,2.11,2.11,0,0,0-.33.18,2.32,2.32,0,0,0-.3.26,3.88,3.88,0,0,0-.26.31c-.07.12-.14.23-.2.35A1.82,1.82,0,0,0,283.19,24Z" transform="translate(0.25 0.29)"/><path class="cls-33" d="M286,24a2.17,2.17,0,0,1,.3-.74,2.63,2.63,0,0,1,.26-.35,2.81,2.81,0,0,1,.35-.33l.29-.21a1.82,1.82,0,0,1,.31-.16,2,2,0,0,1,.31-.12,1.17,1.17,0,0,1,.32,0,.65.65,0,0,1,.2,0l.16.05c0-.08.09-.29.18-.64s.22-.84.37-1.46a.4.4,0,0,1,.1-.15.25.25,0,0,1,.17-.06h.13a.31.31,0,0,1,.12.05.24.24,0,0,1,.08.09.38.38,0,0,1,0,.16L289,22.84a1.82,1.82,0,0,0-.05.31l-.06.42,0,.43c0,.14,0,.26,0,.37a1.69,1.69,0,0,1,0,.38c0,.05,0,.1,0,.13l-.06.1-.1.05h-.14a.3.3,0,0,1-.15,0,.19.19,0,0,1-.09-.05l0-.09v-.1a.34.34,0,0,1,0-.1l0-.11-.11.07-.15.09-.14.09-.09.05-.18.1-.21.09-.24.07-.25,0a.73.73,0,0,1-.3-.06.61.61,0,0,1-.26-.15.77.77,0,0,1-.19-.27,1.12,1.12,0,0,1-.06-.38v-.16A1.36,1.36,0,0,1,286,24Zm.59,0a.75.75,0,0,0,0,.2,1.11,1.11,0,0,0,0,.19.34.34,0,0,0,.06.15.29.29,0,0,0,.12.1.4.4,0,0,0,.2,0l.15,0,.16-.06.14-.08.11-.07.25-.16.2-.18a1.7,1.7,0,0,0,.15-.22,1.16,1.16,0,0,0,.11-.27l.06-.25a1.7,1.7,0,0,0,0-.22,1.43,1.43,0,0,0,0-.22c0-.07,0-.16,0-.25l-.05,0-.09,0a1.17,1.17,0,0,0-.3.05,2.26,2.26,0,0,0-.33.13,2.39,2.39,0,0,0-.34.21,1.64,1.64,0,0,0-.31.28,1.59,1.59,0,0,0-.25.33A1.37,1.37,0,0,0,286.61,23.94Z" transform="translate(0.25 0.29)"/><path class="cls-33" d="M289.83,23.82a.36.36,0,0,1,.08-.25.34.34,0,0,1,.2-.13l.12-.21.19-.28a3.65,3.65,0,0,1,.27-.3,2.16,2.16,0,0,1,.33-.27,1.58,1.58,0,0,1,.38-.21,1.32,1.32,0,0,1,.44-.08,1.23,1.23,0,0,1,.35.05.68.68,0,0,1,.24.13.6.6,0,0,1,.14.21.53.53,0,0,1,.05.25.78.78,0,0,1,0,.22.75.75,0,0,1-.18.34,1.21,1.21,0,0,1-.3.25,2.32,2.32,0,0,1-.39.18,2.77,2.77,0,0,1-.41.12,3.06,3.06,0,0,1-.4.07l-.33,0a.6.6,0,0,0-.05.16.55.55,0,0,0,0,.18.36.36,0,0,0,.15.31.79.79,0,0,0,.44.11,1.06,1.06,0,0,0,.31,0,1.22,1.22,0,0,0,.27-.09l.25-.12.21-.13a1.23,1.23,0,0,1,.24-.14.41.41,0,0,1,.19-.06c.06,0,.1,0,.11,0a.16.16,0,0,1,0,.09v.1a.45.45,0,0,1-.07.18.47.47,0,0,1-.13.15,2.2,2.2,0,0,1-.73.4,2.58,2.58,0,0,1-.8.12h-.19l-.23,0a.92.92,0,0,1-.23-.09.8.8,0,0,1-.21-.15,1,1,0,0,1-.15-.24.87.87,0,0,1,0-.34,1.71,1.71,0,0,1,0-.36.12.12,0,0,1-.08,0A.16.16,0,0,1,289.83,23.82Zm2.14-.94v-.07a.14.14,0,0,0-.07-.13.28.28,0,0,0-.16-.05.67.67,0,0,0-.3.08,2.22,2.22,0,0,0-.27.19,2.85,2.85,0,0,0-.23.26l-.15.24a3.06,3.06,0,0,0,.45-.06,1.52,1.52,0,0,0,.36-.12.91.91,0,0,0,.24-.16A.41.41,0,0,0,292,22.88Z" transform="translate(0.25 0.29)"/><path class="cls-33" d="M293.4,24.79c0-.16.06-.33.1-.53l.12-.58c.05-.19.08-.39.12-.58s.08-.36.1-.51v-.12a1.48,1.48,0,0,1,0-.21,1.18,1.18,0,0,1,0-.2.54.54,0,0,1,.08-.17.21.21,0,0,1,.15-.05.25.25,0,0,1,.16,0,.47.47,0,0,1,.1.1.83.83,0,0,1,0,.15,1.09,1.09,0,0,1,0,.18v.1a.34.34,0,0,0,0,.09l.21-.2a1.45,1.45,0,0,1,.23-.19,2,2,0,0,1,.25-.14.92.92,0,0,1,.28,0h.12l.11,0,.14,0,.15.08a1,1,0,0,1,.19.22.48.48,0,0,1,.07.26.23.23,0,0,1,0,.11.37.37,0,0,1,0,.11l-.09.08a.17.17,0,0,1-.1,0l-.15,0a.4.4,0,0,1-.13-.07l-.05-.06a.35.35,0,0,1-.05-.08l0-.07,0,0h-.08a.68.68,0,0,0-.33.09,1.48,1.48,0,0,0-.29.22,3.08,3.08,0,0,0-.25.27l-.2.26-.15.59c-.06.21-.12.43-.17.66v.08a1.48,1.48,0,0,1,0,.21.53.53,0,0,1,0,.19s-.06.06-.11.09a.38.38,0,0,1-.16,0,.25.25,0,0,1-.21-.09.35.35,0,0,1-.08-.22A.5.5,0,0,1,293.4,24.79Z" transform="translate(0.25 0.29)"/><path class="cls-5" d="M49.94,16.6a1,1,0,0,1-.07-.17.39.39,0,0,1,0-.24l.06-.14L50,16a.09.09,0,0,1,.07,0h.18a.1.1,0,0,1,.12,0,.38.38,0,0,1,.11.08l.06.08,0,.06a.4.4,0,0,1,0,.15.47.47,0,0,1,0,.17.69.69,0,0,1-.07.15.62.62,0,0,1-.09.12l-.11.06a.48.48,0,0,1-.16,0s-.07,0-.08,0l0,0,0-.05Zm1.71,3.22c-.07-.12-.14-.26-.22-.42l-.26-.52c-.09-.18-.19-.36-.28-.55l-.29-.55a.43.43,0,0,1,0-.05.14.14,0,0,1,0-.09.19.19,0,0,1,0-.1.31.31,0,0,1,.09-.11.22.22,0,0,1,.09-.07l.09,0a.17.17,0,0,1,.1,0l.08.05v0s0,0,0,0l.18.33.57,1.13L52.42,20l0,.06a.15.15,0,0,1,0,.07s0,.05,0,.07a.18.18,0,0,1-.05.07.34.34,0,0,1-.14.08.38.38,0,0,1-.15,0,.28.28,0,0,1-.13,0,.26.26,0,0,1-.1-.07l0,0,0,0Z" transform="translate(0.25 0.29)"/><path class="cls-5" d="M53.24,18.93c-.13-.25-.25-.48-.35-.69l-.31-.62c-.1-.19-.19-.38-.28-.57s-.19-.37-.28-.56a.91.91,0,0,0-.13-.19,1,1,0,0,1-.13-.2.11.11,0,0,1,0-.08.3.3,0,0,1,0-.1.36.36,0,0,1,0-.09l.06-.07a.33.33,0,0,1,.14-.09l.11,0a.17.17,0,0,1,.1,0l.09.08a.53.53,0,0,1,.13.2c0,.07.07.16.11.25,0-.13.05-.26.08-.4a2.84,2.84,0,0,1,.13-.38,1.83,1.83,0,0,1,.18-.34,1.42,1.42,0,0,1,.25-.3.91.91,0,0,1,.16-.11.58.58,0,0,1,.18,0,.48.48,0,0,1,.2,0,.51.51,0,0,1,.21.14l.09-.35a2.06,2.06,0,0,1,.12-.35,1.87,1.87,0,0,1,.15-.32,1,1,0,0,1,.2-.24.8.8,0,0,1,.32-.21.57.57,0,0,1,.53.05,1,1,0,0,1,.22.19,1.89,1.89,0,0,1,.2.27,3.09,3.09,0,0,1,.17.29c.13.24.24.48.34.71s.19.46.28.71l.07.18a.67.67,0,0,1,0,.19.33.33,0,0,1,0,.17.28.28,0,0,1-.08.15.43.43,0,0,1-.25.13.26.26,0,0,1-.19-.09l-.05-.06a.2.2,0,0,1,0-.08A.57.57,0,0,1,56,16L56,15.78l-.07-.25a1.38,1.38,0,0,0-.08-.2L55.66,15c0-.13-.11-.25-.17-.37l-.18-.34a1.24,1.24,0,0,0-.17-.23L55.07,14A.18.18,0,0,0,55,14a.14.14,0,0,0-.09,0,.3.3,0,0,0-.11.06.7.7,0,0,0-.14.21,1.83,1.83,0,0,0-.12.31,3.59,3.59,0,0,0-.08.35c0,.12,0,.24,0,.34a1.09,1.09,0,0,1,0,.19.66.66,0,0,1,0,.15.41.41,0,0,1,0,.09l.07.18c0,.07.07.14.1.22s.07.16.1.23l.08.17,0,.08.1.17.11.16.11.17a1,1,0,0,1,.1.17.43.43,0,0,1,0,.19.32.32,0,0,1-.12.18.24.24,0,0,1-.11.06h-.13a.29.29,0,0,1-.13-.05l-.11-.08c-.1-.19-.19-.36-.26-.51s-.14-.31-.21-.45-.12-.29-.19-.44l-.23-.46a.41.41,0,0,0-.07-.11l-.06-.1a.25.25,0,0,0-.12-.07.14.14,0,0,0-.13,0,.79.79,0,0,0-.16.23,1.28,1.28,0,0,0-.11.33c0,.13,0,.28-.06.46s0,.39,0,.63a.93.93,0,0,0,.07.19l.14.29.13.27.08.16.13.22.1.14a.88.88,0,0,0,.07.12.56.56,0,0,1,.09.17.48.48,0,0,1,0,.2.18.18,0,0,1-.08.16.35.35,0,0,1-.24.11.23.23,0,0,1-.22-.09l0,0S53.24,18.94,53.24,18.93Z" transform="translate(0.25 0.29)"/><path class="cls-5" d="M59.05,16.11a.13.13,0,0,1-.06,0h-.07l-.08,0a.25.25,0,0,1-.08-.05.43.43,0,0,1,0-.07.85.85,0,0,1-.08-.17.26.26,0,0,1,0-.15.4.4,0,0,1,.06-.16c0-.06.08-.14.15-.23l.11-.16A.51.51,0,0,0,59,15a1.55,1.55,0,0,0,0-.43,1.59,1.59,0,0,0-.07-.39,2.24,2.24,0,0,0-.14-.36,3.78,3.78,0,0,0-.17-.35l-.06-.13s0-.09-.08-.14c0,.11,0,.23,0,.35s-.05.23-.08.34a1.66,1.66,0,0,1-.12.31.88.88,0,0,1-.19.24.38.38,0,0,1-.18.09.75.75,0,0,1-.26,0,1.17,1.17,0,0,1-.26,0,.55.55,0,0,1-.22-.14,1,1,0,0,1-.1-.15L57,14.09a2,2,0,0,1-.17-.43,3.55,3.55,0,0,1-.09-.47,3.65,3.65,0,0,1,0-.47,3.57,3.57,0,0,1,0-.47,1.47,1.47,0,0,1,.16-.5,1.2,1.2,0,0,1,.3-.38l.16-.13a.51.51,0,0,1,.16-.09.41.41,0,0,1,.19,0l.21,0s0,0,.05,0l0,0,.08.11.14.23.2.3.21.35.2.34.18.3a5,5,0,0,1,.27.52,5.25,5.25,0,0,1,.22.55,4,4,0,0,1,.13.58,2.25,2.25,0,0,1,0,.58,1.87,1.87,0,0,1-.18.55A1.66,1.66,0,0,1,59.05,16.11ZM57.4,13.79l.05.07a.18.18,0,0,0,0,.07.25.25,0,0,0,.1.08.11.11,0,0,0,.11,0,.55.55,0,0,0,.15-.24,1.62,1.62,0,0,0,.09-.35A2.56,2.56,0,0,0,58,13a1.89,1.89,0,0,0,0-.35s0-.1,0-.17,0-.15-.05-.23a1.55,1.55,0,0,0-.08-.23.38.38,0,0,0-.09-.18.22.22,0,0,0-.09-.07l-.12-.07,0,0a.41.41,0,0,0-.11.16,1.82,1.82,0,0,0-.07.25,2.87,2.87,0,0,0,0,.31c0,.1,0,.21,0,.31V13c0,.09,0,.17,0,.23l.06.25A1.81,1.81,0,0,0,57.4,13.79Z" transform="translate(0.25 0.29)"/><path class="cls-34" d="M274.89,116.9l.19-.74c.07-.23.13-.45.19-.67l.18-.61c.05-.2.11-.4.16-.6a2,2,0,0,0,0-.24,1,1,0,0,1,0-.23l.05-.07.08-.06.09,0,.1,0a.41.41,0,0,1,.16,0l.1,0a.19.19,0,0,1,.05.1.36.36,0,0,1,0,.11.67.67,0,0,1,0,.24,2,2,0,0,1-.09.26l.33-.24a2.43,2.43,0,0,1,.35-.2,2.67,2.67,0,0,1,.36-.14,1.74,1.74,0,0,1,.39,0,.58.58,0,0,1,.19,0,.42.42,0,0,1,.16.09.53.53,0,0,1,.13.16.6.6,0,0,1,.05.24l.31-.2.32-.18a2.15,2.15,0,0,1,.32-.13,1.25,1.25,0,0,1,.32,0,1,1,0,0,1,.38.06.67.67,0,0,1,.23.16.7.7,0,0,1,.13.24,1.27,1.27,0,0,1,0,.28,2,2,0,0,1,0,.34,2.72,2.72,0,0,1-.07.33c-.06.26-.14.51-.22.75s-.17.48-.27.72l-.07.18a.56.56,0,0,1-.09.17.53.53,0,0,1-.11.14.3.3,0,0,1-.16,0,.38.38,0,0,1-.27-.07.24.24,0,0,1-.08-.19v-.08s0-.06,0-.09l.06-.15.11-.21a2.26,2.26,0,0,1,.11-.22l.08-.2.1-.34.12-.39c0-.13.07-.26.09-.38a1.67,1.67,0,0,0,0-.28.34.34,0,0,0,0-.1.12.12,0,0,0,0-.09.13.13,0,0,0-.07-.06.21.21,0,0,0-.12,0,.6.6,0,0,0-.24.06l-.3.15-.29.21a1.93,1.93,0,0,0-.25.24.83.83,0,0,1-.14.13.35.35,0,0,1-.13.08.42.42,0,0,1,0,.09l-.07.19c0,.07-.05.14-.08.23s-.05.16-.07.23a.94.94,0,0,0-.06.18l0,.08c0,.07,0,.13,0,.2l0,.19a1.23,1.23,0,0,0,0,.2,1.05,1.05,0,0,1-.05.19.42.42,0,0,1-.11.15.33.33,0,0,1-.21.06.27.27,0,0,1-.12,0L277,117a.34.34,0,0,1-.06-.12.35.35,0,0,1,0-.14c.05-.2.1-.39.15-.55l.15-.47.15-.45c0-.16.09-.32.14-.51a.5.5,0,0,0,0-.12.49.49,0,0,0,0-.11.29.29,0,0,0,0-.14.14.14,0,0,0-.12,0,.92.92,0,0,0-.28,0,1.69,1.69,0,0,0-.3.18l-.35.3c-.14.13-.29.27-.46.45a.87.87,0,0,0-.07.19l-.09.29c0,.11-.06.21-.08.3s0,.15-.05.18a1.29,1.29,0,0,0,0,.24l0,.17s0,.07,0,.14a.77.77,0,0,1-.05.19.42.42,0,0,1-.1.17.21.21,0,0,1-.17.07.45.45,0,0,1-.26-.08.3.3,0,0,1-.1-.22s0,0,0,0A.09.09,0,0,1,274.89,116.9Z" transform="translate(0.25 0.29)"/><path class="cls-34" d="M282.56,117a1.06,1.06,0,0,1,0-.24,1.67,1.67,0,0,0,0-.34l-.25.19-.28.22a2.19,2.19,0,0,1-.29.17.6.6,0,0,1-.27.07.64.64,0,0,1-.2,0,.53.53,0,0,1-.15-.08,1,1,0,0,1-.27-.29.7.7,0,0,1-.08-.33,1.1,1.1,0,0,1,0-.18,1,1,0,0,1,.05-.21,2.81,2.81,0,0,1,.44-1,3,3,0,0,1,.79-.79,1,1,0,0,1,.36-.16,2.2,2.2,0,0,1,.36,0H283l.18,0,.13,0h.1a.4.4,0,0,1,.17,0,.26.26,0,0,1,.17.18.51.51,0,0,1,0,.13.45.45,0,0,1,0,.16l-.05.17-.45,1.8q0,.15,0,.27a.85.85,0,0,1,0,.23.25.25,0,0,1,0,.07.41.41,0,0,1,0,.09.34.34,0,0,1-.09.08.25.25,0,0,1-.13,0l-.17,0a.23.23,0,0,1-.1,0,.07.07,0,0,1,0-.06A.19.19,0,0,1,282.56,117Zm-1.14-1a.86.86,0,0,0,0,.13,1.09,1.09,0,0,0,0,.18.47.47,0,0,0,0,.17s0,.07.11.07a.6.6,0,0,0,.27-.06,1.94,1.94,0,0,0,.24-.15c.1-.08.19-.17.3-.27s.19-.21.28-.32a3.43,3.43,0,0,0,.24-.33A1.32,1.32,0,0,0,283,115a1.14,1.14,0,0,0,.05-.23,2,2,0,0,0,0-.23.19.19,0,0,0,0-.08.08.08,0,0,0-.08,0,.86.86,0,0,0-.34.07,1.41,1.41,0,0,0-.32.17,1.87,1.87,0,0,0-.3.26,2,2,0,0,0-.26.32,2.43,2.43,0,0,0-.2.35A1.66,1.66,0,0,0,281.42,116Z" transform="translate(0.25 0.29)"/><path class="cls-34" d="M284.28,116.5c0-.13.08-.29.13-.46s.09-.36.15-.56.11-.39.16-.6.11-.4.15-.6l0,0a.13.13,0,0,1,.06-.07.19.19,0,0,1,.09,0,.32.32,0,0,1,.14,0h.11l.1,0,.07.06a.29.29,0,0,1,0,.09v0l-.1.36c-.1.41-.21.81-.32,1.22l-.33,1.23,0,0,0,.06-.06,0-.09,0a.26.26,0,0,1-.15,0,.36.36,0,0,1-.12-.08.54.54,0,0,1-.07-.13.25.25,0,0,1,0-.12v-.06Zm.89-3.54.07-.17a.53.53,0,0,1,.15-.19.46.46,0,0,1,.14,0l.11,0a.11.11,0,0,1,.07,0l.06,0,.07.07a.17.17,0,0,1,.11.06.27.27,0,0,1,0,.13.31.31,0,0,1,0,.1s0,.06,0,.08a.46.46,0,0,1-.08.13.5.5,0,0,1-.14.1l-.15.07-.15,0a.21.21,0,0,1-.12,0,.37.37,0,0,1-.1-.11l0-.08V113Z" transform="translate(0.25 0.29)"/><path class="cls-34" d="M288.49,114.32a.65.65,0,0,0-.26.06,1,1,0,0,0-.28.15,2.86,2.86,0,0,0-.3.22l-.3.25-.15.11a.51.51,0,0,1-.13.09,1.23,1.23,0,0,0-.1.2c0,.09-.07.18-.11.28l-.09.31a2.26,2.26,0,0,0-.08.3l0,.14s0,.09,0,.14a1.36,1.36,0,0,1,0,.17,1.77,1.77,0,0,1,0,.2.17.17,0,0,1-.06.1.16.16,0,0,1-.08.06s-.05,0-.07,0h-.06a.33.33,0,0,1-.21-.06c-.06,0-.08-.12-.08-.24v-.1a.74.74,0,0,1,0-.12l.14-.58q.07-.25.15-.48a4.13,4.13,0,0,1,.14-.42l.15-.4c0-.13.11-.27.16-.41s.12-.3.18-.48a.21.21,0,0,1,.11-.09.41.41,0,0,1,.19,0,.37.37,0,0,1,.21.06.18.18,0,0,1,.08.16v0l0,.06-.15.35.3-.22a2.8,2.8,0,0,1,.32-.2,2.41,2.41,0,0,1,.33-.15,1,1,0,0,1,.33-.06.69.69,0,0,1,.51.18.7.7,0,0,1,.19.54,1.85,1.85,0,0,1-.08.49c0,.18-.11.37-.18.58s-.15.42-.24.64-.16.46-.24.7l-.06.16a.27.27,0,0,1-.08.1.21.21,0,0,1-.1.06h-.15a.26.26,0,0,1-.18,0,.21.21,0,0,1,0-.16,1.12,1.12,0,0,1,0-.24,2.26,2.26,0,0,1,.08-.3,3.79,3.79,0,0,1,.12-.36l.15-.38c0-.1.09-.21.13-.31s.08-.21.11-.31a1.72,1.72,0,0,0,.08-.28,1.2,1.2,0,0,0,0-.24.38.38,0,0,0,0-.19A.19.19,0,0,0,288.49,114.32Z" transform="translate(0.25 0.29)"/><text class="cls-35" transform="translate(213.44 44.65) rotate(-14.87)">Section</text><text class="cls-36" transform="translate(81.88 61.86) rotate(-17.26)">img</text><path class="cls-5" d="M101.42,117.14a.87.87,0,0,1,0-.18.35.35,0,0,1,.06-.23.5.5,0,0,1,.1-.11l.09-.07h.07l.08,0,.09,0a.12.12,0,0,1,.13,0,.44.44,0,0,1,.08.1l0,.1s0,0,0,.07a.26.26,0,0,1,0,.15,1.09,1.09,0,0,1-.08.15.69.69,0,0,1-.11.13.62.62,0,0,1-.12.08l-.12,0a.42.42,0,0,1-.15-.06l-.07,0,0,0a.14.14,0,0,1,0-.06Zm.71,3.58c0-.13-.06-.29-.09-.47s-.06-.36-.1-.56-.07-.41-.11-.62-.08-.41-.12-.6a.18.18,0,0,1,0-.06.31.31,0,0,1,0-.08.47.47,0,0,1,.06-.09.36.36,0,0,1,.12-.08l.1,0h.11l.09,0,.06.07v0l.07.37c.08.41.15.83.23,1.24s.15.84.23,1.25v.06a.2.2,0,0,1,0,.07.11.11,0,0,1,0,.07.1.1,0,0,1-.06,0,.34.34,0,0,1-.16,0,.32.32,0,0,1-.14,0,.36.36,0,0,1-.12-.08.3.3,0,0,1-.07-.1l0,0v0Z" transform="translate(0.25 0.29)"/><path class="cls-5" d="M103.91,120.33c0-.27-.1-.53-.14-.76s-.08-.46-.12-.68-.07-.43-.1-.63-.07-.41-.11-.62a.79.79,0,0,0-.06-.22,1.42,1.42,0,0,1-.07-.22.28.28,0,0,1,0-.09.41.41,0,0,1,.05-.09.46.46,0,0,1,.07-.07l.08,0a.37.37,0,0,1,.15-.05h.12a.18.18,0,0,1,.09.06l.06.1a.62.62,0,0,1,.07.23l0,.27a3.13,3.13,0,0,1,.19-.36l.23-.33.28-.28a1.55,1.55,0,0,1,.33-.21l.18,0a.55.55,0,0,1,.18,0,.51.51,0,0,1,.18.09.67.67,0,0,1,.16.2c.06-.1.12-.21.19-.31a2.28,2.28,0,0,1,.21-.3,3.08,3.08,0,0,1,.24-.26,1.51,1.51,0,0,1,.26-.18,1,1,0,0,1,.37-.1.61.61,0,0,1,.28,0,.65.65,0,0,1,.21.16,1.43,1.43,0,0,1,.16.24,3,3,0,0,1,.11.32c0,.11.06.22.08.33a5.56,5.56,0,0,1,.12.77c0,.25,0,.5.07.76a1.34,1.34,0,0,0,0,.2,1.34,1.34,0,0,1,0,.2.42.42,0,0,1,0,.16.28.28,0,0,1-.12.12.41.41,0,0,1-.28.06.22.22,0,0,1-.15-.15l0-.07a.29.29,0,0,1,0-.09.62.62,0,0,1,0-.16v-.23c0-.08,0-.17,0-.25s0-.16,0-.22a2.94,2.94,0,0,1,0-.35c0-.14,0-.27-.07-.4s0-.26-.07-.38a1.39,1.39,0,0,0-.09-.27l-.06-.09a.13.13,0,0,0-.07-.06.12.12,0,0,0-.09,0l-.12,0a.77.77,0,0,0-.19.15,1.89,1.89,0,0,0-.2.27,1.65,1.65,0,0,0-.18.32,2.45,2.45,0,0,0-.12.31.75.75,0,0,1-.07.18.57.57,0,0,1-.08.13v.09a1.12,1.12,0,0,1,0,.2l0,.24q0,.14,0,.24c0,.08,0,.14,0,.2a.38.38,0,0,0,0,.08c0,.06,0,.13,0,.19l.06.19.06.19a1.42,1.42,0,0,1,0,.2.39.39,0,0,1,0,.18.32.32,0,0,1-.16.14.19.19,0,0,1-.13,0,.43.43,0,0,1-.23-.12.44.44,0,0,1-.08-.11c0-.21-.08-.4-.1-.56s-.05-.34-.07-.5,0-.31-.06-.47,0-.32-.08-.51a.65.65,0,0,0,0-.13l0-.1a.35.35,0,0,0-.09-.11.15.15,0,0,0-.13,0,.76.76,0,0,0-.23.17,1.82,1.82,0,0,0-.2.29c-.06.12-.12.26-.19.43s-.14.36-.22.59a.87.87,0,0,0,0,.2c0,.1,0,.2,0,.31s0,.21,0,.3a1.05,1.05,0,0,1,0,.18,2.08,2.08,0,0,0,.06.24c0,.07,0,.12,0,.17l0,.13a1.18,1.18,0,0,1,0,.2.62.62,0,0,1,0,.19.2.2,0,0,1-.13.14.31.31,0,0,1-.26,0,.26.26,0,0,1-.19-.15v0A.06.06,0,0,1,103.91,120.33Z" transform="translate(0.25 0.29)"/><path class="cls-5" d="M110.28,119.32h-.13l-.07,0a.16.16,0,0,1-.06-.08.19.19,0,0,1,0-.07.81.81,0,0,1,0-.19.37.37,0,0,1,0-.15.6.6,0,0,1,.11-.14l.2-.17.16-.12a1.1,1.1,0,0,0,.11-.12,2.51,2.51,0,0,0,.13-.42,1.72,1.72,0,0,0,0-.39,2.56,2.56,0,0,0,0-.39l-.06-.39,0-.13,0-.16a3,3,0,0,1-.15.32,2.91,2.91,0,0,1-.17.3,1.33,1.33,0,0,1-.21.26.72.72,0,0,1-.25.18.4.4,0,0,1-.2,0l-.25,0a.9.9,0,0,1-.24-.12.51.51,0,0,1-.17-.19l-.06-.17c0-.07,0-.12,0-.18a2.32,2.32,0,0,1,0-.46,3.75,3.75,0,0,1,.05-.47,2.64,2.64,0,0,1,.13-.46c0-.15.11-.3.17-.44a1.81,1.81,0,0,1,.3-.43,1.15,1.15,0,0,1,.4-.28l.19-.08.18,0a.65.65,0,0,1,.19,0,.82.82,0,0,1,.19.09l0,0,0,0a1.11,1.11,0,0,1,0,.13c0,.07.05.15.08.26s.06.22.1.35.06.25.1.39.06.26.1.38.06.25.08.35.08.37.11.56,0,.4,0,.6a2.88,2.88,0,0,1,0,.59,2,2,0,0,1-.17.55,1.58,1.58,0,0,1-.33.48A1.73,1.73,0,0,1,110.28,119.32Zm-.9-2.71a.29.29,0,0,1,0,.09l0,.08a.27.27,0,0,0,.08.1.09.09,0,0,0,.11,0,.6.6,0,0,0,.21-.19,1.82,1.82,0,0,0,.19-.31c0-.12.1-.24.14-.36a1.81,1.81,0,0,0,.08-.34s0-.1,0-.18,0-.15,0-.23V115a1,1,0,0,0,0-.2.16.16,0,0,0-.06-.08l-.1-.11h0a.44.44,0,0,0-.15.13c0,.06-.09.13-.14.22s-.09.18-.13.28a2.49,2.49,0,0,0-.11.29l-.09.28c0,.08,0,.16,0,.22a2.46,2.46,0,0,0,0,.26A1.37,1.37,0,0,0,109.38,116.61Z" transform="translate(0.25 0.29)"/><path class="cls-37" d="M45.45,65.34a.91.91,0,0,1,.16-.31l.23-.26-1.55-3.2-.06,0-.11.08-.14.07-.12,0-.07,0-.1,0-.09,0-.07-.06a.17.17,0,0,1,0-.15.51.51,0,0,1,.08-.17,1,1,0,0,1,.13-.17l.15-.14c.22-.18.43-.35.63-.49a3.73,3.73,0,0,1,.6-.35,2.25,2.25,0,0,1,.62-.2,2.18,2.18,0,0,1,.68,0l.28,0a1.72,1.72,0,0,1,.29.11,1.61,1.61,0,0,1,.28.17,2,2,0,0,1,.26.24l.12.17.1.16a2.77,2.77,0,0,1,.24.72,3.21,3.21,0,0,1,0,.69,2.9,2.9,0,0,1-.14.65,3.61,3.61,0,0,1-.26.61,6.32,6.32,0,0,1-.33.56c-.12.19-.24.36-.36.53h0a1.77,1.77,0,0,1-.17.24l-.21.24-.22.23-.21.19a1.72,1.72,0,0,1-.21.15l-.16.07a.24.24,0,0,1-.12,0l-.08,0a.45.45,0,0,1-.06-.14A.64.64,0,0,1,45.45,65.34ZM46,63.63c.06.1.11.21.17.33l.16.33,0-.06.13-.17.17-.25.19-.32A3.54,3.54,0,0,0,47,63.1a3.2,3.2,0,0,0,.17-.43,4.05,4.05,0,0,0,.12-.47,1.71,1.71,0,0,0,0-.45,1.42,1.42,0,0,0-.06-.42.87.87,0,0,0-.18-.36,1,1,0,0,0-.32-.25,1.63,1.63,0,0,0-.39-.13,2,2,0,0,0-.43,0,2.17,2.17,0,0,0-.43.08,2.26,2.26,0,0,0-.39.15,1.55,1.55,0,0,0-.33.21,12.53,12.53,0,0,0,.53,1.32C45.56,62.77,45.77,63.2,46,63.63Z" transform="translate(0.25 0.29)"/><path class="cls-37" d="M47.67,58.76a1.25,1.25,0,0,1-.06-.18.49.49,0,0,1,0-.24l.07-.13.07-.09.07,0h.08l.1,0a.11.11,0,0,1,.12,0,.26.26,0,0,1,.11.08l.05.08,0,.07a.37.37,0,0,1,0,.15.75.75,0,0,1,0,.16.8.8,0,0,1-.08.16l-.09.11A.21.21,0,0,1,48,59a.33.33,0,0,1-.16,0l-.09,0,0,0,0,0Zm1.58,3.29-.2-.43-.24-.53-.26-.57c-.09-.19-.18-.38-.27-.55a.18.18,0,0,0,0-.06.25.25,0,0,1,0-.08.23.23,0,0,1,0-.11.41.41,0,0,1,.09-.1l.1-.07a.29.29,0,0,1,.1,0,.27.27,0,0,1,.09,0,.16.16,0,0,1,.08.06h0v0L49,60c.18.38.35.77.53,1.15s.35.77.53,1.15c0,0,0,0,0,0a.22.22,0,0,1,0,.08.17.17,0,0,1,0,.07.18.18,0,0,1-.05.07.31.31,0,0,1-.14.07.38.38,0,0,1-.15,0l-.13-.05a.27.27,0,0,1-.1-.08l0,0a0,0,0,0,1,0,0Z" transform="translate(0.25 0.29)"/><path class="cls-37" d="M51.94,60.8a0,0,0,0,1,0,0s0,0,0,0l-.12.06h-.12l-.11,0-.08-.06-.17-.13-.25-.19-.29-.22L50.46,60l-.3-.24-.26-.22-.16-.14-.15-.12-.13-.11-.12-.12a1.3,1.3,0,0,1-.1-.15.58.58,0,0,1-.05-.16.26.26,0,0,1,0-.15.19.19,0,0,1,.07-.11.34.34,0,0,1,.2-.08.54.54,0,0,1,.21.05,1.34,1.34,0,0,1,.22.16l.21.22.31.3.35.31.34.29.3.25a3.62,3.62,0,0,0,0-.59c0-.15,0-.28,0-.41s0-.24,0-.35,0-.22,0-.33,0-.21,0-.32-.05-.22-.08-.34a3.3,3.3,0,0,0-.12-.38s0-.07,0-.11a.41.41,0,0,1,0-.11.36.36,0,0,1,0-.11.31.31,0,0,1,.09-.11.23.23,0,0,1,.22-.07.3.3,0,0,1,.17.11.76.76,0,0,1,.15.28,1.21,1.21,0,0,1,.07.36L52,60.28a1.81,1.81,0,0,1,0,.19.66.66,0,0,1,0,.15l0,.11Z" transform="translate(0.25 0.29)"/><path class="cls-37" d="M45.46,140.48a.79.79,0,0,1,.15-.32l.23-.25-1.55-3.21s0,0-.06.05l-.11.08-.14.08a.18.18,0,0,1-.12,0l-.07,0-.1,0-.09,0-.07-.06a.14.14,0,0,1,0-.15.47.47,0,0,1,.07-.17.91.91,0,0,1,.13-.16l.15-.15.63-.49a3.73,3.73,0,0,1,.6-.35,2.64,2.64,0,0,1,.62-.2,2.53,2.53,0,0,1,.68,0l.28.06a1.34,1.34,0,0,1,.57.28,1.16,1.16,0,0,1,.26.24,1.25,1.25,0,0,1,.12.17.7.7,0,0,1,.1.16,2.54,2.54,0,0,1,.24.72,3.11,3.11,0,0,1,0,.68,2.44,2.44,0,0,1-.14.65,4.6,4.6,0,0,1-.25.61,5.36,5.36,0,0,1-.34.57l-.36.52h0c-.06.08-.11.16-.18.24a2.29,2.29,0,0,1-.21.23,2.39,2.39,0,0,1-.22.23l-.21.2-.21.14a.43.43,0,0,1-.16.07.24.24,0,0,1-.12,0l-.08,0-.06-.13A.43.43,0,0,1,45.46,140.48Zm.53-1.72c0,.11.1.22.16.33s.11.23.16.34l0-.07a.92.92,0,0,0,.13-.17c0-.07.11-.15.17-.25a3.37,3.37,0,0,0,.19-.32c.07-.12.13-.25.19-.38a3.34,3.34,0,0,0,.17-.44,3.9,3.9,0,0,0,.12-.46,2.49,2.49,0,0,0,.05-.46,2.65,2.65,0,0,0-.06-.42,1,1,0,0,0-.19-.36,1.11,1.11,0,0,0-.32-.25,1.27,1.27,0,0,0-.39-.12,2,2,0,0,0-.42,0,3.11,3.11,0,0,0-.44.08,1.88,1.88,0,0,0-.39.16,1.85,1.85,0,0,0-.33.21c.16.45.33.88.53,1.31S45.77,138.33,46,138.76Z" transform="translate(0.25 0.29)"/><path class="cls-37" d="M47.67,133.89a1.07,1.07,0,0,1-.06-.17.49.49,0,0,1,0-.24.83.83,0,0,1,.07-.13.25.25,0,0,1,.07-.09.09.09,0,0,1,.07,0H48s.09,0,.12,0l.11.08a.41.41,0,0,1,.05.09l0,.06a.4.4,0,0,1,0,.15,1,1,0,0,1,0,.17,1.09,1.09,0,0,1-.08.15.53.53,0,0,1-.09.11l-.11.06-.16,0-.08,0,0,0,0-.06Zm1.58,3.29c-.06-.12-.13-.26-.2-.43s-.16-.34-.24-.53-.17-.37-.26-.56-.18-.38-.27-.56a.11.11,0,0,0,0,0,.28.28,0,0,1,0-.09.38.38,0,0,1,0-.1.26.26,0,0,1,.1-.11l.09-.06.1,0h.09l.08.05v0s0,0,0,0l.16.34c.18.38.35.76.53,1.15l.53,1.14a.14.14,0,0,1,0,.06.15.15,0,0,1,0,.07.22.22,0,0,1,0,.08l-.05.06a.34.34,0,0,1-.14.08.38.38,0,0,1-.15,0l-.13,0a.44.44,0,0,1-.1-.08l0,0s0,0,0,0Z" transform="translate(0.25 0.29)"/><path class="cls-37" d="M52,135.93s0,0,0,0h0a.23.23,0,0,1-.12.06h-.12a.21.21,0,0,1-.11,0,.24.24,0,0,1-.08-.06l-.17-.13-.24-.18-.3-.23-.31-.24-.3-.25-.26-.22-.16-.14-.15-.11-.13-.12a.68.68,0,0,1-.12-.12l-.1-.15a1,1,0,0,1-.05-.16.22.22,0,0,1,0-.14.16.16,0,0,1,.07-.11.32.32,0,0,1,.21-.09.45.45,0,0,1,.21.06,1.19,1.19,0,0,1,.21.15l.22.22.3.3.35.31.34.3.3.24a3.65,3.65,0,0,0,0-.59c0-.15,0-.28,0-.4s0-.24,0-.35,0-.23,0-.33,0-.22,0-.33-.05-.22-.08-.34-.07-.24-.12-.38,0-.06,0-.1a.45.45,0,0,1,0-.23.44.44,0,0,1,.09-.11.26.26,0,0,1,.22-.07.27.27,0,0,1,.17.12.72.72,0,0,1,.15.27,1.28,1.28,0,0,1,.07.37l.22,2.76a2,2,0,0,1,0,.2.76.76,0,0,1,0,.15l0,.1Z" transform="translate(0.25 0.29)"/><text class="cls-38" transform="translate(180.26 59.97)">h2</text><path class="cls-12" d="M183.71,119.4a.35.35,0,0,1-.29-.1.37.37,0,0,1-.07-.25,1.15,1.15,0,0,1,0-.18,1.6,1.6,0,0,1,0-.21c0-.12.06-.24.1-.36l.12-.36.12-.37c0-.12.07-.24.1-.36v0s0-.06,0-.07a.08.08,0,0,0-.07,0l-.16,0a.52.52,0,0,0-.15.07,4.63,4.63,0,0,0-.4.3,3.22,3.22,0,0,0-.32.32c-.09.11-.18.22-.27.35l-.27.41a1.91,1.91,0,0,0-.17.37c0,.11-.08.19-.11.26a.36.36,0,0,1-.11.13.33.33,0,0,1-.19,0,.23.23,0,0,1-.19-.08.35.35,0,0,1-.06-.21,1,1,0,0,1,0-.22l1.13-4.52a.36.36,0,0,1,0-.09.24.24,0,0,1,.06-.09.33.33,0,0,1,.1-.06.28.28,0,0,1,.13,0H183l.11,0a.26.26,0,0,1,.09.05.16.16,0,0,1,0,.09.18.18,0,0,1,0,.06.44.44,0,0,1,0,.1c-.12.49-.25,1-.39,1.54s-.29,1.08-.43,1.62c.14-.17.28-.32.43-.47a3.09,3.09,0,0,1,.47-.36,1.71,1.71,0,0,1,.49-.24,1.6,1.6,0,0,1,.53-.09.37.37,0,0,1,.27.11.43.43,0,0,1,.09.28.44.44,0,0,1,0,.16,1.71,1.71,0,0,1-.09.3c0,.11-.07.21-.1.31s-.08.21-.11.31-.07.22-.1.33a2.07,2.07,0,0,0-.07.41,2.11,2.11,0,0,0,0,.31l0,.19a.59.59,0,0,1-.07.16.25.25,0,0,1-.12.11A.31.31,0,0,1,183.71,119.4Z" transform="translate(0.25 0.29)"/><path class="cls-12" d="M185.9,118.44h.32c.2,0,.51,0,1,.06s.79.07,1,.11a1.72,1.72,0,0,1,.43.11.34.34,0,0,1,.14.15.41.41,0,0,1,.05.19c0,.06,0,.11-.13.17a.36.36,0,0,1-.24.1,2.23,2.23,0,0,1-.4-.07,7.25,7.25,0,0,0-1.11-.17q-.64-.06-1.2-.06a1.92,1.92,0,0,0-.51.08,1,1,0,0,1-.28.05.25.25,0,0,1-.15-.05.16.16,0,0,1-.07-.14,1.25,1.25,0,0,1,.49-.77,6.24,6.24,0,0,1,1.37-.9,5.71,5.71,0,0,0,1.44-.93,1.13,1.13,0,0,0,.34-.74.77.77,0,0,0-.25-.58.93.93,0,0,0-.65-.24,1.71,1.71,0,0,0-.65.12,1.65,1.65,0,0,0-.59.44.35.35,0,0,1-.21.13.33.33,0,0,1-.23-.09.28.28,0,0,1-.1-.2c0-.23.19-.45.56-.67a2.54,2.54,0,0,1,1.29-.32,1.53,1.53,0,0,1,1.07.39,1.27,1.27,0,0,1,.43,1,1.67,1.67,0,0,1-.47,1.12,6,6,0,0,1-1.74,1.12A3.79,3.79,0,0,0,185.9,118.44Z" transform="translate(0.25 0.29)"/><path class="cls-13" d="M221.4,146.82q.07-.28.12-.51c0-.16.07-.3.1-.44l.09-.39c0-.13,0-.25.07-.38l.09-.4c0-.14.06-.29.09-.46l.16-.79a3.22,3.22,0,0,0,.06-.35,2.65,2.65,0,0,0,0-.27v-.23a.85.85,0,0,1,0-.17.18.18,0,0,1,.09-.1.29.29,0,0,1,.17,0,.55.55,0,0,1,.24,0,.43.43,0,0,1,.12.11.3.3,0,0,1,0,.16,1.15,1.15,0,0,1,0,.19,1.17,1.17,0,0,1,.27-.15,2,2,0,0,1,.32-.11l.34-.07.32,0a1,1,0,0,1,.44.09.86.86,0,0,1,.3.23.92.92,0,0,1,.19.33,1.34,1.34,0,0,1,.06.4,1.32,1.32,0,0,1-.08.44,1.44,1.44,0,0,1-.2.39,3.17,3.17,0,0,1-.3.34,2.66,2.66,0,0,1-.38.28,3.38,3.38,0,0,1-.41.24,3.89,3.89,0,0,1-.42.19l-.27.09-.22,0-.27,0a1.17,1.17,0,0,1-.26-.1c0,.15-.08.3-.11.44a3.48,3.48,0,0,0-.07.38c0,.06,0,.14,0,.21s0,.15,0,.22a1.6,1.6,0,0,0-.05.21c0,.06,0,.11,0,.16s0,.05-.05.07a.19.19,0,0,1-.09,0,.23.23,0,0,1-.11,0h-.1c-.17,0-.25-.07-.25-.2A.41.41,0,0,1,221.4,146.82Zm1.06-2,.11,0,.11,0,.1,0h.05l.15,0,.16,0,.15-.06.14-.07a2.57,2.57,0,0,0,.35-.2,2.48,2.48,0,0,0,.36-.28,1.77,1.77,0,0,0,.26-.35.92.92,0,0,0,.11-.43.9.9,0,0,0,0-.18.44.44,0,0,0-.08-.15.27.27,0,0,0-.12-.09.34.34,0,0,0-.18,0l-.22,0a.65.65,0,0,0-.2.05l-.2.08-.21.13a1.1,1.1,0,0,1-.21.14,1.12,1.12,0,0,1-.26.08Z" transform="translate(0.25 0.29)"/><text class="cls-39" transform="translate(220.35 81.68)">p</text><text class="cls-39" transform="translate(194.35 188.68)">p</text><path class="cls-2" d="M274.67,189.7a.33.33,0,0,1-.15,0,.53.53,0,0,1-.11-.09.57.57,0,0,1-.08-.13.78.78,0,0,1,0-.16.53.53,0,0,1,0-.12,1.36,1.36,0,0,1,0-.17,1.06,1.06,0,0,0,0-.14,1,1,0,0,0,0-.2c0-.07,0-.15.05-.24s0-.16,0-.24,0-.16,0-.22,0-.13,0-.18,0,0,0-.05,0-.06-.07-.07l-.14,0a.39.39,0,0,1-.14-.08.19.19,0,0,1-.07-.16.34.34,0,0,1,.05-.17.22.22,0,0,1,.11-.12.47.47,0,0,1,.17,0l.2,0a.1.1,0,0,0,.07-.07.49.49,0,0,0,0-.11c0-.1.06-.22.09-.34s.07-.25.11-.37.09-.25.14-.37a3.59,3.59,0,0,1,.17-.34q.17-.21.33-.39a2.72,2.72,0,0,1,.38-.31,2.1,2.1,0,0,1,.42-.22,1.51,1.51,0,0,1,.48-.07,1,1,0,0,1,.49.1.79.79,0,0,1,.32.31.29.29,0,0,1,0,.1.31.31,0,0,1,0,.1.47.47,0,0,1,0,.17.61.61,0,0,1-.07.14.31.31,0,0,1-.11.09.19.19,0,0,1-.12,0,.26.26,0,0,1-.14,0l-.09-.09a.61.61,0,0,1-.05-.12c0-.05,0-.09,0-.13L277,185a.18.18,0,0,0-.11,0l-.15,0a.58.58,0,0,0-.17.06,2,2,0,0,0-.38.24,1.59,1.59,0,0,0-.33.35,2.05,2.05,0,0,0-.28.51,4,4,0,0,0-.24.74v0h0l.19,0,.19,0,.18,0h.35l.12,0a.27.27,0,0,1,.08.07.16.16,0,0,1,0,.11s0,.06,0,.1,0,.08,0,.11a.36.36,0,0,1-.07.1.18.18,0,0,1-.09.06l-.22,0-.24,0-.28,0-.35.09a2.36,2.36,0,0,0-.1.46l-.06.45c0,.15,0,.3-.05.45s0,.31-.08.46a.36.36,0,0,1,0,.09l-.06.08-.08.06Z" transform="translate(0.25 0.29)"/><path class="cls-2" d="M276.83,188.07a4.06,4.06,0,0,1,.16-.44,3.53,3.53,0,0,1,.29-.47,2.94,2.94,0,0,1,.41-.47,5.3,5.3,0,0,1,.57-.43l.16-.06a.79.79,0,0,1,.22,0A.46.46,0,0,1,279,186a.66.66,0,0,1,.44.14,1,1,0,0,1,.31.36l.07.15a.88.88,0,0,1,.05.15,1,1,0,0,1,0,.17,1.48,1.48,0,0,1,0,.21,2.09,2.09,0,0,1-.08.55,2.46,2.46,0,0,1-.25.55,2.6,2.6,0,0,1-.38.51,3,3,0,0,1-.5.44,1.39,1.39,0,0,1-.4.21,1.59,1.59,0,0,1-.5.07,1.27,1.27,0,0,1-.46-.07.8.8,0,0,1-.32-.2.77.77,0,0,1-.19-.31,1.05,1.05,0,0,1-.07-.4A2,2,0,0,1,276.83,188.07Zm.57.05,0,.15v.13a.68.68,0,0,0,0,.21.37.37,0,0,0,.1.17.38.38,0,0,0,.16.11.55.55,0,0,0,.24,0,1,1,0,0,0,.48-.13,1.8,1.8,0,0,0,.4-.33,2.32,2.32,0,0,0,.29-.43,1.76,1.76,0,0,0,.17-.42,2.25,2.25,0,0,0,0-.22,1.5,1.5,0,0,0,0-.2.41.41,0,0,0,0-.16l-.08-.18a.67.67,0,0,1-.06-.12.67.67,0,0,1-.06-.12l-.06.08a.22.22,0,0,1-.09.07l-.17,0-.27,0a.72.72,0,0,0-.23.12,1.3,1.3,0,0,0-.23.18l-.21.23a2,2,0,0,0-.18.25,2.18,2.18,0,0,0-.14.25A1.78,1.78,0,0,0,277.4,188.12Z" transform="translate(0.25 0.29)"/><path class="cls-2" d="M280.54,188.07a2,2,0,0,1,.16-.44,2.64,2.64,0,0,1,.28-.47,2.58,2.58,0,0,1,.42-.47,4.33,4.33,0,0,1,.56-.43l.16-.06a.79.79,0,0,1,.22,0,.49.49,0,0,1,.36-.14.71.71,0,0,1,.45.14,1.07,1.07,0,0,1,.3.36l.07.15a.88.88,0,0,1,.05.15,1,1,0,0,1,0,.17,1.48,1.48,0,0,1,0,.21,2.09,2.09,0,0,1-.08.55,2.46,2.46,0,0,1-.25.55,2.6,2.6,0,0,1-.38.51,3.42,3.42,0,0,1-.49.44,1.45,1.45,0,0,1-.91.28,1.27,1.27,0,0,1-.46-.07.8.8,0,0,1-.32-.2.77.77,0,0,1-.19-.31,1.29,1.29,0,0,1-.07-.4A2.06,2.06,0,0,1,280.54,188.07Zm.56.05,0,.15v.13a1.25,1.25,0,0,0,0,.21.48.48,0,0,0,.1.17.46.46,0,0,0,.16.11.61.61,0,0,0,.24,0,1,1,0,0,0,.48-.13,1.8,1.8,0,0,0,.4-.33,2.32,2.32,0,0,0,.29-.43,1.76,1.76,0,0,0,.17-.42,2.25,2.25,0,0,0,.05-.22.71.71,0,0,0,0-.2.41.41,0,0,0,0-.16l-.08-.18-.06-.12-.06-.12-.06.08a.22.22,0,0,1-.09.07l-.17,0-.27,0a.85.85,0,0,0-.23.12,1.3,1.3,0,0,0-.23.18l-.21.23a2,2,0,0,0-.18.25,2.18,2.18,0,0,0-.14.25A1.78,1.78,0,0,0,281.1,188.12Z" transform="translate(0.25 0.29)"/><path class="cls-2" d="M284.69,188.32a2.58,2.58,0,0,1,.07-.6c0-.2.09-.4.13-.59a.57.57,0,0,1-.18,0,.49.49,0,0,1-.17-.06.58.58,0,0,1-.12-.1.24.24,0,0,1-.05-.14.31.31,0,0,1,0-.08.36.36,0,0,1,0-.09.24.24,0,0,1,.06-.08.17.17,0,0,1,.1,0H285a.08.08,0,0,0,.09-.06.76.76,0,0,0,0-.11c0-.13.06-.25.08-.35s.05-.17.07-.24,0-.12,0-.17a.44.44,0,0,0,0-.1v-.08a.37.37,0,0,1,0-.11v0a.2.2,0,0,1,0-.07.45.45,0,0,1,0-.13.37.37,0,0,1,.07-.12.24.24,0,0,1,.17-.06.24.24,0,0,1,.15,0,.27.27,0,0,1,.11.1.35.35,0,0,1,.06.14.78.78,0,0,1,0,.16.39.39,0,0,1,0,.15l-.25,1,.33-.06.29-.06.27-.05.2,0,.14,0h.2a.17.17,0,0,1,.1,0,.18.18,0,0,1,.07,0,.17.17,0,0,1,0,.1.37.37,0,0,1,0,.15.48.48,0,0,1-.09.11.41.41,0,0,1-.11.07.38.38,0,0,1-.13,0l-.15,0-.19,0-.21.05-.22.06L286,187l-.19.05-.13,0h-.08c0,.13-.08.26-.11.39s-.06.24-.08.35a1.6,1.6,0,0,0-.05.29,1.91,1.91,0,0,0,0,.2.88.88,0,0,0,0,.17.34.34,0,0,0,.06.15.36.36,0,0,0,.11.1.45.45,0,0,0,.18,0,.67.67,0,0,0,.35-.1,1.31,1.31,0,0,0,.33-.25,3.26,3.26,0,0,0,.31-.33l.26-.35a.11.11,0,0,1,.1-.06h.05l.06,0,.05.05s0,0,0,.06v0a2.13,2.13,0,0,1-.17.43l-.23.43a.76.76,0,0,1-.11.14.67.67,0,0,1-.15.14l-.16.13-.16.11a1,1,0,0,1-.28.11l-.3,0a1,1,0,0,1-.4-.08.89.89,0,0,1-.29-.22.92.92,0,0,1-.18-.32A1.34,1.34,0,0,1,284.69,188.32Z" transform="translate(0.25 0.29)"/><path class="cls-2" d="M287.85,188.06a.44.44,0,0,1,.08-.25.38.38,0,0,1,.21-.13,2.28,2.28,0,0,1,.11-.21l.2-.27.26-.31a2.16,2.16,0,0,1,.33-.27,1.83,1.83,0,0,1,.39-.21,1.27,1.27,0,0,1,.44-.08,1.16,1.16,0,0,1,.34,0,.68.68,0,0,1,.25.14.48.48,0,0,1,.14.2.7.7,0,0,1,0,.25.91.91,0,0,1,0,.23,1,1,0,0,1-.18.33,1.26,1.26,0,0,1-.31.25,2.22,2.22,0,0,1-.38.18l-.41.12-.4.08-.33,0-.06.16a1.1,1.1,0,0,0,0,.18.34.34,0,0,0,.16.31.76.76,0,0,0,.43.11,1.06,1.06,0,0,0,.31,0,1.31,1.31,0,0,0,.28-.09l.25-.12.21-.13a2,2,0,0,1,.23-.14.45.45,0,0,1,.2-.06.12.12,0,0,1,.11,0,.19.19,0,0,1,0,.08v.06s0,0,0,0a.5.5,0,0,1-.19.33,2.3,2.3,0,0,1-.73.4,2.63,2.63,0,0,1-.8.12h-.19l-.23,0-.24-.09a.8.8,0,0,1-.21-.15.63.63,0,0,1-.14-.24.83.83,0,0,1-.06-.34,1.71,1.71,0,0,1,0-.36.1.1,0,0,1-.08,0A.16.16,0,0,1,287.85,188.06Zm2.14-.94a0,0,0,0,0,0,0v0a.16.16,0,0,0-.07-.14.31.31,0,0,0-.17,0,.63.63,0,0,0-.29.08,1.05,1.05,0,0,0-.27.2,1.34,1.34,0,0,0-.23.25,2,2,0,0,0-.16.24,3,3,0,0,0,.46-.06,1.6,1.6,0,0,0,.35-.12,1,1,0,0,0,.25-.16A.41.41,0,0,0,290,187.12Z" transform="translate(0.25 0.29)"/><path class="cls-2" d="M291.43,189c0-.16.06-.33.1-.53l.12-.58.12-.57c0-.19.07-.37.1-.52a.18.18,0,0,1,0-.06v-.06a1.49,1.49,0,0,1,0-.21l0-.2a.52.52,0,0,1,.09-.17.21.21,0,0,1,.15,0,.27.27,0,0,1,.16,0,.24.24,0,0,1,.09.11.33.33,0,0,1,0,.14,1.1,1.1,0,0,1,0,.18s0,.06,0,.1v.1l.2-.21a2.11,2.11,0,0,1,.23-.19l.26-.14a.87.87,0,0,1,.28-.05h.11l.12,0,.14,0,.14.08a.67.67,0,0,1,.19.22.5.5,0,0,1,.08.26.52.52,0,0,1,0,.11l-.06.11a.3.3,0,0,1-.08.08.23.23,0,0,1-.11,0l-.14,0a.47.47,0,0,1-.14-.08l0-.06-.05-.07,0-.07a.11.11,0,0,0,0-.05h-.07a.73.73,0,0,0-.33.08,1.66,1.66,0,0,0-.3.22,3.33,3.33,0,0,0-.25.28l-.2.26c0,.18-.09.38-.15.59s-.11.42-.17.65v.29a.78.78,0,0,1,0,.19.24.24,0,0,1-.11.09.42.42,0,0,1-.16,0,.27.27,0,0,1-.22-.1.32.32,0,0,1-.07-.22A.25.25,0,0,1,291.43,189Z" transform="translate(0.25 0.29)"/></svg>