<svg id="Calque_1" data-name="Calque 1" xmlns="http://www.w3.org/2000/svg" viewBox="0 0 294.08 206.92"><defs><style>.cls-1{fill:#fff;stroke:#1d1d1b;stroke-miterlimit:10;stroke-width:0.5px;}.cls-2{fill:#1d1d1b;}</style></defs><rect class="cls-1" x="0.25" y="0.25" width="293.58" height="206.42"/><line class="cls-1" x1="0.25" y1="27.25" x2="293.83" y2="27.25"/><line class="cls-1" x1="0.25" y1="178.97" x2="293.83" y2="180.32"/><path class="cls-2" d="M10.15,9.55h1v7.21h3.45v.88h-4.5Z" transform="translate(-1.52 -1.63)"/><path class="cls-2" d="M20.87,14.69A2.84,2.84,0,0,1,18,17.77a2.77,2.77,0,0,1-2.79-3,2.84,2.84,0,0,1,2.88-3.08A2.75,2.75,0,0,1,20.87,14.69Zm-4.61.05C16.26,16,17,17,18,17s1.76-.95,1.76-2.26c0-1-.49-2.23-1.74-2.23S16.26,13.64,16.26,14.74Z" transform="translate(-1.52 -1.63)"/><path class="cls-2" d="M27.2,11.83c0,.42,0,.89,0,1.6V16.8a3.36,3.36,0,0,1-.83,2.65,3.12,3.12,0,0,1-2.11.69,3.73,3.73,0,0,1-1.93-.48l.26-.8a3.25,3.25,0,0,0,1.7.45c1.08,0,1.87-.56,1.87-2v-.65h0a2.07,2.07,0,0,1-1.85,1,2.59,2.59,0,0,1-2.47-2.83A2.79,2.79,0,0,1,24.4,11.7a1.94,1.94,0,0,1,1.81,1h0l.05-.88Zm-1.09,2.29a1.47,1.47,0,0,0-.06-.48,1.52,1.52,0,0,0-1.47-1.11c-1,0-1.73.85-1.73,2.19,0,1.14.58,2.09,1.72,2.09A1.55,1.55,0,0,0,26,15.73a1.87,1.87,0,0,0,.08-.57Z" transform="translate(-1.52 -1.63)"/><path class="cls-2" d="M34.16,14.69a2.84,2.84,0,0,1-2.89,3.08,2.76,2.76,0,0,1-2.78-3,2.83,2.83,0,0,1,2.88-3.08A2.74,2.74,0,0,1,34.16,14.69Zm-4.6.05c0,1.28.73,2.24,1.76,2.24s1.76-.95,1.76-2.26c0-1-.49-2.23-1.73-2.23S29.56,13.64,29.56,14.74Z" transform="translate(-1.52 -1.63)"/><path class="cls-2" d="M79.84,26.21l-.63,1.91H78.4l2.06-6.07h1l2.07,6.07h-.84L82,26.21Zm2-.61-.59-1.75c-.14-.39-.23-.75-.32-1.1h0c-.09.36-.19.73-.3,1.1L80,25.6Z" transform="translate(-1.52 -1.63)"/><path class="cls-2" d="M87.34,28a2.92,2.92,0,0,1-1.25.25A2.07,2.07,0,0,1,83.92,26a2.22,2.22,0,0,1,2.34-2.32,2.62,2.62,0,0,1,1.1.23l-.18.61a1.83,1.83,0,0,0-.92-.21A1.51,1.51,0,0,0,84.72,26a1.49,1.49,0,0,0,1.51,1.63,2.37,2.37,0,0,0,1-.21Z" transform="translate(-1.52 -1.63)"/><path class="cls-2" d="M91.32,28a2.92,2.92,0,0,1-1.25.25A2.07,2.07,0,0,1,87.9,26a2.21,2.21,0,0,1,2.34-2.32,2.57,2.57,0,0,1,1.09.23l-.18.61a1.76,1.76,0,0,0-.91-.21A1.51,1.51,0,0,0,88.7,26a1.49,1.49,0,0,0,1.51,1.63,2.37,2.37,0,0,0,1-.21Z" transform="translate(-1.52 -1.63)"/><path class="cls-2" d="M95.89,26.93c0,.45,0,.85,0,1.19h-.71l0-.71h0a1.65,1.65,0,0,1-1.44.81c-.68,0-1.5-.38-1.5-1.91V23.76H93v2.42c0,.83.25,1.38,1,1.38a1.14,1.14,0,0,0,1-.72,1,1,0,0,0,.08-.4V23.76h.79Z" transform="translate(-1.52 -1.63)"/><path class="cls-2" d="M97.64,26.09a1.4,1.4,0,0,0,1.5,1.51,2.73,2.73,0,0,0,1.2-.23l.14.57a3.48,3.48,0,0,1-1.45.27A2,2,0,0,1,96.89,26a2.11,2.11,0,0,1,2-2.35,1.85,1.85,0,0,1,1.8,2,2.73,2.73,0,0,1,0,.37Zm2.33-.57a1.13,1.13,0,0,0-1.1-1.29,1.33,1.33,0,0,0-1.22,1.29Z" transform="translate(-1.52 -1.63)"/><path class="cls-2" d="M102.59,22.54a.47.47,0,0,1-.5.49.48.48,0,0,1-.48-.49.49.49,0,0,1,.5-.5A.47.47,0,0,1,102.59,22.54Zm-.88,5.58V23.76h.79v4.36Z" transform="translate(-1.52 -1.63)"/><path class="cls-2" d="M103.82,21.73h.79v6.39h-.79Z" transform="translate(-1.52 -1.63)"/><path class="cls-2" d="M124.41,26.21l-.63,1.91H123L125,22.05H126L128,28.12h-.83l-.65-1.91Zm2-.61-.6-1.75c-.13-.39-.22-.75-.31-1.1h0c-.09.36-.19.73-.31,1.1l-.59,1.75Z" transform="translate(-1.52 -1.63)"/><path class="cls-2" d="M129.77,22.51v1.25h1.14v.61h-1.14v2.35c0,.54.15.84.6.84a1.59,1.59,0,0,0,.45,0l0,.59a1.79,1.79,0,0,1-.7.11,1.13,1.13,0,0,1-.86-.33,1.66,1.66,0,0,1-.3-1.14V24.37h-.68v-.61H129v-1Z" transform="translate(-1.52 -1.63)"/><path class="cls-2" d="M132.68,22.54a.49.49,0,1,1-1,0,.48.48,0,0,1,.49-.5A.48.48,0,0,1,132.68,22.54Zm-.88,5.58V23.76h.79v4.36Z" transform="translate(-1.52 -1.63)"/><path class="cls-2" d="M137,28a2.92,2.92,0,0,1-1.25.25A2.07,2.07,0,0,1,133.59,26a2.21,2.21,0,0,1,2.34-2.32,2.62,2.62,0,0,1,1.1.23l-.18.61a1.83,1.83,0,0,0-.92-.21A1.51,1.51,0,0,0,134.39,26a1.49,1.49,0,0,0,1.51,1.63,2.37,2.37,0,0,0,1-.21Z" transform="translate(-1.52 -1.63)"/><path class="cls-2" d="M137.93,21.73h.8v6.39h-.8Z" transform="translate(-1.52 -1.63)"/><path class="cls-2" d="M140.5,26.09A1.39,1.39,0,0,0,142,27.6a2.81,2.81,0,0,0,1.21-.23l.13.57a3.39,3.39,0,0,1-1.44.27A2,2,0,0,1,139.74,26a2.12,2.12,0,0,1,2-2.35,1.85,1.85,0,0,1,1.8,2,2.73,2.73,0,0,1,0,.37Zm2.32-.57a1.13,1.13,0,0,0-1.1-1.29,1.31,1.31,0,0,0-1.21,1.29Z" transform="translate(-1.52 -1.63)"/><path class="cls-2" d="M144.46,27.31a2.1,2.1,0,0,0,1,.32c.58,0,.85-.29.85-.65s-.23-.59-.81-.8c-.78-.28-1.15-.71-1.15-1.24a1.33,1.33,0,0,1,1.5-1.27,2.1,2.1,0,0,1,1.07.27l-.2.57a1.66,1.66,0,0,0-.89-.25c-.47,0-.73.27-.73.59s.26.53.83.74c.76.29,1.14.67,1.14,1.32s-.59,1.3-1.62,1.3a2.51,2.51,0,0,1-1.23-.3Z" transform="translate(-1.52 -1.63)"/><path class="cls-2" d="M168.92,28.06a4,4,0,0,1-1.6.28,2.84,2.84,0,0,1-3-3.07,3,3,0,0,1,3.17-3.18,3.18,3.18,0,0,1,1.44.27l-.19.64a2.73,2.73,0,0,0-1.22-.26,2.26,2.26,0,0,0-2.37,2.51,2.21,2.21,0,0,0,2.33,2.44,3,3,0,0,0,1.28-.26Z" transform="translate(-1.52 -1.63)"/><path class="cls-2" d="M173.72,26a2.13,2.13,0,0,1-2.17,2.31,2.07,2.07,0,0,1-2.09-2.24,2.13,2.13,0,0,1,2.16-2.31A2.07,2.07,0,0,1,173.72,26Zm-3.46,0c0,1,.55,1.68,1.33,1.68s1.32-.71,1.32-1.69c0-.74-.37-1.68-1.31-1.68S170.26,25.26,170.26,26.08Z" transform="translate(-1.52 -1.63)"/><path class="cls-2" d="M174.72,25.08c0-.45,0-.82,0-1.18h.7l.05.72h0a1.58,1.58,0,0,1,1.44-.82c.6,0,1.54.36,1.54,1.85v2.6h-.8V25.74c0-.7-.26-1.29-1-1.29a1.13,1.13,0,0,0-1.07.81,1.38,1.38,0,0,0-.05.37v2.62h-.79Z" transform="translate(-1.52 -1.63)"/><path class="cls-2" d="M180.63,22.64V23.9h1.14v.6h-1.14v2.35c0,.54.15.85.6.85a1.51,1.51,0,0,0,.45-.06l0,.6a2,2,0,0,1-.7.1,1.09,1.09,0,0,1-.86-.33,1.63,1.63,0,0,1-.3-1.13V24.5h-.68v-.6h.68v-1Z" transform="translate(-1.52 -1.63)"/><path class="cls-2" d="M185.07,28.25,185,27.7h0a1.6,1.6,0,0,1-1.33.65,1.24,1.24,0,0,1-1.34-1.25c0-1.05.94-1.63,2.62-1.62v-.09a.9.9,0,0,0-1-1,2.17,2.17,0,0,0-1.13.33l-.18-.53a2.73,2.73,0,0,1,1.43-.38c1.33,0,1.66.91,1.66,1.78v1.63a6.46,6.46,0,0,0,.07,1ZM185,26c-.86,0-1.84.14-1.84,1a.7.7,0,0,0,.74.76,1,1,0,0,0,1.1-1Z" transform="translate(-1.52 -1.63)"/><path class="cls-2" d="M190.1,28.09a2.92,2.92,0,0,1-1.25.25,2.07,2.07,0,0,1-2.17-2.22A2.21,2.21,0,0,1,189,23.81a2.64,2.64,0,0,1,1.1.22l-.18.61a2,2,0,0,0-.92-.2,1.5,1.5,0,0,0-1.54,1.64A1.49,1.49,0,0,0,189,27.71a2.22,2.22,0,0,0,1-.21Z" transform="translate(-1.52 -1.63)"/><path class="cls-2" d="M192.1,22.64V23.9h1.13v.6H192.1v2.35c0,.54.15.85.59.85a1.59,1.59,0,0,0,.46-.06l0,.6a2.1,2.1,0,0,1-.71.1,1.09,1.09,0,0,1-.85-.33,1.58,1.58,0,0,1-.31-1.13V24.5h-.67v-.6h.67v-1Z" transform="translate(-1.52 -1.63)"/><rect class="cls-1" x="42.82" y="42.73" width="212.16" height="121.28" rx="5.74"/><rect class="cls-1" x="66.13" y="60.05" width="39.53" height="34.8"/><rect class="cls-1" x="66.13" y="114.78" width="39.53" height="34.8"/><path class="cls-2" d="M163.05,57H160.8v-.81h5.49V57H164v6.6h-1Z" transform="translate(-1.52 -1.63)"/><path class="cls-2" d="M168,56.74a.6.6,0,1,1-1.2,0,.58.58,0,0,1,.6-.6A.57.57,0,0,1,168,56.74ZM167,63.56V58.24h1v5.32Z" transform="translate(-1.52 -1.63)"/><path class="cls-2" d="M170.69,56.71v1.53h1.39V59h-1.39v2.87c0,.66.19,1,.73,1a2.36,2.36,0,0,0,.56-.06l0,.72a2.31,2.31,0,0,1-.86.13,1.34,1.34,0,0,1-1-.4,2,2,0,0,1-.38-1.39V59h-.82v-.74h.82V57Z" transform="translate(-1.52 -1.63)"/><path class="cls-2" d="M173.16,59.9c0-.63,0-1.17,0-1.66H174l0,1h0a1.61,1.61,0,0,1,1.48-1.16,1.06,1.06,0,0,1,.27,0v.91a1.61,1.61,0,0,0-.33,0,1.35,1.35,0,0,0-1.29,1.24,2.16,2.16,0,0,0,0,.46v2.83h-1Z" transform="translate(-1.52 -1.63)"/><path class="cls-2" d="M177.19,61.08A1.71,1.71,0,0,0,179,62.93a3.38,3.38,0,0,0,1.47-.28l.17.69a4.29,4.29,0,0,1-1.78.33A2.47,2.47,0,0,1,176.27,61a2.58,2.58,0,0,1,2.49-2.87,2.26,2.26,0,0,1,2.2,2.51,4,4,0,0,1,0,.45Zm2.84-.7a1.38,1.38,0,0,0-1.34-1.57,1.61,1.61,0,0,0-1.49,1.57Z" transform="translate(-1.52 -1.63)"/><path class="cls-2" d="M120.21,67.48h.52v3.61h1.73v.44h-2.25Z" transform="translate(-1.52 -1.63)"/><path class="cls-2" d="M125.57,70.05a1.42,1.42,0,0,1-1.45,1.54,1.37,1.37,0,0,1-1.39-1.49,1.42,1.42,0,0,1,1.44-1.54A1.37,1.37,0,0,1,125.57,70.05Zm-2.31,0c0,.64.37,1.12.88,1.12s.89-.48.89-1.13c0-.49-.25-1.12-.87-1.12S123.26,69.53,123.26,70.08Z" transform="translate(-1.52 -1.63)"/><path class="cls-2" d="M126.23,69.53c0-.34,0-.64,0-.91h.46l0,.57h0a.86.86,0,0,1,.81-.63.36.36,0,0,1,.15,0v.49h-.18a.73.73,0,0,0-.71.67,1.9,1.9,0,0,0,0,.25v1.55h-.52Z" transform="translate(-1.52 -1.63)"/><path class="cls-2" d="M128.43,70.17a.93.93,0,0,0,1,1,2,2,0,0,0,.81-.15l.09.38a2.47,2.47,0,0,1-1,.18,1.35,1.35,0,0,1-1.42-1.47,1.4,1.4,0,0,1,1.36-1.56,1.23,1.23,0,0,1,1.2,1.37c0,.1,0,.19,0,.24Zm1.55-.38a.75.75,0,0,0-.74-.85.86.86,0,0,0-.8.85Z" transform="translate(-1.52 -1.63)"/><path class="cls-2" d="M131.14,69.41c0-.3,0-.55,0-.79h.46l0,.47h0a1,1,0,0,1,.91-.53.85.85,0,0,1,.82.58h0a1.22,1.22,0,0,1,.32-.38,1,1,0,0,1,.64-.2c.38,0,.95.25.95,1.26v1.71h-.51V69.88c0-.55-.2-.89-.63-.89a.68.68,0,0,0-.62.48.71.71,0,0,0-.05.26v1.8H133V69.79c0-.46-.21-.8-.61-.8a.71.71,0,0,0-.65.53.75.75,0,0,0,0,.26v1.75h-.52Z" transform="translate(-1.52 -1.63)"/><path class="cls-2" d="M138,67.81a.3.3,0,0,1-.33.32.31.31,0,0,1-.32-.32.32.32,0,0,1,.33-.33A.31.31,0,0,1,138,67.81Zm-.58,3.72V68.62H138v2.91Z" transform="translate(-1.52 -1.63)"/><path class="cls-2" d="M138.82,69.57c0-.37,0-.67,0-.95h.47l0,.5h0a1.13,1.13,0,0,1,1-.56A1.31,1.31,0,0,1,141.57,70a1.37,1.37,0,0,1-1.32,1.56,1,1,0,0,1-.9-.45h0v1.57h-.52Zm.52.78a.71.71,0,0,0,0,.21.8.8,0,0,0,.79.62c.56,0,.88-.46.88-1.12s-.31-1.08-.86-1.08a.93.93,0,0,0-.84.87Z" transform="translate(-1.52 -1.63)"/><path class="cls-2" d="M142.16,71a1.41,1.41,0,0,0,.7.21c.38,0,.56-.19.56-.43s-.15-.39-.54-.54-.77-.47-.77-.82a.9.9,0,0,1,1-.85,1.4,1.4,0,0,1,.71.18l-.13.38a1.19,1.19,0,0,0-.6-.17c-.31,0-.48.18-.48.4s.17.35.55.49.76.45.76.88-.39.87-1.08.87a1.65,1.65,0,0,1-.82-.2Z" transform="translate(-1.52 -1.63)"/><path class="cls-2" d="M147,70.74c0,.3,0,.56,0,.79h-.46l0-.48h0a1.07,1.07,0,0,1-1,.54c-.45,0-1-.25-1-1.27v-1.7h.53v1.61c0,.55.17.93.65.93a.76.76,0,0,0,.69-.48.81.81,0,0,0,0-.27V68.62H147Z" transform="translate(-1.52 -1.63)"/><path class="cls-2" d="M147.92,69.41c0-.3,0-.55,0-.79h.47l0,.47h0a1,1,0,0,1,.91-.53.87.87,0,0,1,.82.58h0a1.24,1.24,0,0,1,.33-.38,1,1,0,0,1,.64-.2c.38,0,.95.25.95,1.26v1.71h-.52V69.88c0-.55-.2-.89-.62-.89a.69.69,0,0,0-.63.48,1,1,0,0,0,0,.26v1.8h-.52V69.79c0-.46-.2-.8-.6-.8a.73.73,0,0,0-.66.53,1.09,1.09,0,0,0,0,.26v1.75h-.51Z" transform="translate(-1.52 -1.63)"/><path class="cls-2" d="M156.7,67.27v3.51c0,.26,0,.55,0,.75h-.47l0-.51h0a1.06,1.06,0,0,1-1,.57A1.32,1.32,0,0,1,154,70.12a1.39,1.39,0,0,1,1.3-1.56,1,1,0,0,1,.88.44h0V67.27Zm-.53,2.54a.9.9,0,0,0,0-.23.79.79,0,0,0-.76-.61c-.55,0-.87.48-.87,1.12s.28,1.08.85,1.08a.8.8,0,0,0,.78-.63.86.86,0,0,0,0-.23Z" transform="translate(-1.52 -1.63)"/><path class="cls-2" d="M160.2,70.05a1.42,1.42,0,0,1-1.44,1.54,1.37,1.37,0,0,1-1.39-1.49,1.41,1.41,0,0,1,1.44-1.54A1.37,1.37,0,0,1,160.2,70.05Zm-2.3,0c0,.64.37,1.12.88,1.12s.88-.48.88-1.13c0-.49-.24-1.12-.87-1.12S157.9,69.53,157.9,70.08Z" transform="translate(-1.52 -1.63)"/><path class="cls-2" d="M160.87,67.27h.53v4.26h-.53Z" transform="translate(-1.52 -1.63)"/><path class="cls-2" d="M164.91,70.05a1.42,1.42,0,0,1-1.44,1.54,1.37,1.37,0,0,1-1.39-1.49,1.41,1.41,0,0,1,1.44-1.54A1.37,1.37,0,0,1,164.91,70.05Zm-2.3,0c0,.64.37,1.12.88,1.12s.88-.48.88-1.13c0-.49-.24-1.12-.87-1.12S162.61,69.53,162.61,70.08Z" transform="translate(-1.52 -1.63)"/><path class="cls-2" d="M165.58,69.53c0-.34,0-.64,0-.91H166l0,.57h0a.86.86,0,0,1,.8-.63.34.34,0,0,1,.15,0v.49h-.18a.73.73,0,0,0-.7.67,1,1,0,0,0,0,.25v1.55h-.52Z" transform="translate(-1.52 -1.63)"/><path class="cls-2" d="M168.74,71a1.41,1.41,0,0,0,.7.21c.38,0,.56-.19.56-.43s-.15-.39-.54-.54-.77-.47-.77-.82a.9.9,0,0,1,1-.85,1.4,1.4,0,0,1,.71.18l-.13.38a1.19,1.19,0,0,0-.6-.17c-.31,0-.48.18-.48.4s.17.35.55.49.76.45.76.88-.39.87-1.08.87a1.65,1.65,0,0,1-.82-.2Z" transform="translate(-1.52 -1.63)"/><path class="cls-2" d="M171.78,67.81a.32.32,0,0,1-.34.32.31.31,0,0,1-.31-.32.33.33,0,1,1,.65,0Zm-.59,3.72V68.62h.53v2.91Z" transform="translate(-1.52 -1.63)"/><path class="cls-2" d="M173.23,67.79v.83H174V69h-.76v1.56c0,.36.1.57.4.57a1,1,0,0,0,.3,0l0,.39a1.17,1.17,0,0,1-.47.08.7.7,0,0,1-.57-.23,1.05,1.05,0,0,1-.21-.75V69h-.45v-.41h.45v-.69Z" transform="translate(-1.52 -1.63)"/><path class="cls-2" d="M177.46,71.53l0-.37h0a1.07,1.07,0,0,1-.89.43.82.82,0,0,1-.88-.83c0-.7.62-1.09,1.74-1.08v-.06a.6.6,0,0,0-.66-.67,1.43,1.43,0,0,0-.75.21l-.13-.34a1.78,1.78,0,0,1,1-.26c.89,0,1.1.6,1.1,1.19v1.08a3.78,3.78,0,0,0,.05.7Zm-.08-1.48c-.57,0-1.23.09-1.23.65a.47.47,0,0,0,.5.5.72.72,0,0,0,.7-.48.55.55,0,0,0,0-.17Z" transform="translate(-1.52 -1.63)"/><path class="cls-2" d="M178.74,69.41c0-.3,0-.55,0-.79h.46l0,.47h0a1,1,0,0,1,.92-.53.87.87,0,0,1,.82.58h0a1.22,1.22,0,0,1,.32-.38,1,1,0,0,1,.64-.2c.39,0,1,.25,1,1.26v1.71h-.52V69.88c0-.55-.2-.89-.63-.89a.68.68,0,0,0-.62.48.71.71,0,0,0,0,.26v1.8h-.52V69.79c0-.46-.2-.8-.6-.8a.73.73,0,0,0-.66.53.75.75,0,0,0,0,.26v1.75h-.52Z" transform="translate(-1.52 -1.63)"/><path class="cls-2" d="M184,70.17a.93.93,0,0,0,1,1,2,2,0,0,0,.8-.15l.09.38a2.37,2.37,0,0,1-1,.18,1.35,1.35,0,0,1-1.43-1.47,1.4,1.4,0,0,1,1.36-1.56,1.23,1.23,0,0,1,1.2,1.37,1.34,1.34,0,0,1,0,.24Zm1.55-.38a.75.75,0,0,0-.73-.85.87.87,0,0,0-.81.85Z" transform="translate(-1.52 -1.63)"/><path class="cls-2" d="M187.39,67.79v.83h.76V69h-.76v1.56c0,.36.1.57.4.57a1,1,0,0,0,.3,0l0,.39a1.17,1.17,0,0,1-.47.08.7.7,0,0,1-.57-.23,1.05,1.05,0,0,1-.21-.75V69h-.45v-.41h.45v-.69Z" transform="translate(-1.52 -1.63)"/><path class="cls-2" d="M188.38,72.26a9,9,0,0,0,.36-1.43l.59-.06a7.29,7.29,0,0,1-.57,1.46Z" transform="translate(-1.52 -1.63)"/><path class="cls-2" d="M193.31,71.42a2,2,0,0,1-.84.17A1.38,1.38,0,0,1,191,70.11a1.48,1.48,0,0,1,1.56-1.55,1.82,1.82,0,0,1,.73.15l-.12.41a1.27,1.27,0,0,0-.61-.14,1,1,0,0,0-1,1.1,1,1,0,0,0,1,1.09,1.44,1.44,0,0,0,.65-.15Z" transform="translate(-1.52 -1.63)"/><path class="cls-2" d="M196.51,70.05a1.42,1.42,0,0,1-1.44,1.54,1.37,1.37,0,0,1-1.39-1.49,1.41,1.41,0,0,1,1.44-1.54A1.37,1.37,0,0,1,196.51,70.05Zm-2.3,0c0,.64.37,1.12.88,1.12s.88-.48.88-1.13c0-.49-.24-1.12-.86-1.12S194.21,69.53,194.21,70.08Z" transform="translate(-1.52 -1.63)"/><path class="cls-2" d="M197.18,69.41c0-.3,0-.55,0-.79h.47l0,.48h0a1.07,1.07,0,0,1,1-.54c.4,0,1,.24,1,1.23v1.74h-.52V69.85c0-.46-.18-.85-.68-.85a.74.74,0,0,0-.7.54.57.57,0,0,0,0,.24v1.75h-.53Z" transform="translate(-1.52 -1.63)"/><path class="cls-2" d="M200.44,71a1.41,1.41,0,0,0,.7.21c.38,0,.56-.19.56-.43s-.15-.39-.54-.54-.77-.47-.77-.82a.89.89,0,0,1,1-.85,1.41,1.41,0,0,1,.72.18l-.13.38a1.19,1.19,0,0,0-.6-.17c-.31,0-.48.18-.48.4s.17.35.55.49.76.45.76.88-.4.87-1.09.87a1.64,1.64,0,0,1-.81-.2Z" transform="translate(-1.52 -1.63)"/><path class="cls-2" d="M203.18,70.17a.93.93,0,0,0,1,1A2,2,0,0,0,205,71l.09.38a2.41,2.41,0,0,1-1,.18,1.35,1.35,0,0,1-1.43-1.47A1.4,1.4,0,0,1,204,68.56a1.23,1.23,0,0,1,1.2,1.37,1.34,1.34,0,0,1,0,.24Zm1.55-.38a.75.75,0,0,0-.73-.85.87.87,0,0,0-.81.85Z" transform="translate(-1.52 -1.63)"/><path class="cls-2" d="M208,71.42a1.92,1.92,0,0,1-.83.17,1.38,1.38,0,0,1-1.45-1.48,1.48,1.48,0,0,1,1.56-1.55,1.78,1.78,0,0,1,.73.15l-.12.41a1.21,1.21,0,0,0-.61-.14,1,1,0,0,0-1,1.1,1,1,0,0,0,1,1.09,1.41,1.41,0,0,0,.65-.15Z" transform="translate(-1.52 -1.63)"/><path class="cls-2" d="M209.3,67.79v.83h.75V69h-.75v1.56c0,.36.1.57.39.57a1.11,1.11,0,0,0,.31,0l0,.39a1.1,1.1,0,0,1-.47.08.73.73,0,0,1-.57-.23,1.05,1.05,0,0,1-.2-.75V69h-.45v-.41h.45v-.69Z" transform="translate(-1.52 -1.63)"/><path class="cls-2" d="M210.9,70.17a.93.93,0,0,0,1,1,2,2,0,0,0,.8-.15l.09.38a2.37,2.37,0,0,1-1,.18,1.35,1.35,0,0,1-1.43-1.47,1.41,1.41,0,0,1,1.36-1.56,1.23,1.23,0,0,1,1.2,1.37,1.34,1.34,0,0,1,0,.24Zm1.55-.38a.75.75,0,0,0-.73-.85.87.87,0,0,0-.81.85Z" transform="translate(-1.52 -1.63)"/><path class="cls-2" d="M214.25,67.79v.83H215V69h-.76v1.56c0,.36.1.57.4.57a1,1,0,0,0,.3,0l0,.39a1.14,1.14,0,0,1-.47.08.72.72,0,0,1-.57-.23,1.05,1.05,0,0,1-.2-.75V69h-.45v-.41h.45v-.69Z" transform="translate(-1.52 -1.63)"/><path class="cls-2" d="M218,70.74c0,.3,0,.56,0,.79h-.46l0-.48h0a1.07,1.07,0,0,1-1,.54c-.45,0-1-.25-1-1.27v-1.7h.53v1.61c0,.55.17.93.65.93a.78.78,0,0,0,.7-.48,1.17,1.17,0,0,0,0-.27V68.62H218Z" transform="translate(-1.52 -1.63)"/><path class="cls-2" d="M218.91,69.53c0-.34,0-.64,0-.91h.47v.57h0a.86.86,0,0,1,.8-.63.36.36,0,0,1,.15,0v.49h-.18a.75.75,0,0,0-.71.67,2,2,0,0,0,0,.25v1.55h-.52Z" transform="translate(-1.52 -1.63)"/><path class="cls-2" d="M121.8,78.73l0-.37h0a1.08,1.08,0,0,1-.89.43A.83.83,0,0,1,120,78c0-.7.63-1.09,1.75-1.08v-.06a.6.6,0,0,0-.66-.67,1.49,1.49,0,0,0-.76.21l-.12-.34a1.78,1.78,0,0,1,1-.26c.88,0,1.1.6,1.1,1.19V78a3.78,3.78,0,0,0,0,.7Zm-.08-1.48c-.58,0-1.23.09-1.23.65a.47.47,0,0,0,.5.5.72.72,0,0,0,.7-.48.55.55,0,0,0,0-.17Z" transform="translate(-1.52 -1.63)"/><path class="cls-2" d="M125.59,74.47V78c0,.26,0,.55,0,.75h-.47l0-.51h0a1.06,1.06,0,0,1-1,.57,1.32,1.32,0,0,1-1.24-1.47,1.39,1.39,0,0,1,1.3-1.56,1,1,0,0,1,.88.44h0V74.47ZM125.06,77a.9.9,0,0,0,0-.23.79.79,0,0,0-.76-.61c-.55,0-.87.48-.87,1.12s.28,1.08.85,1.08a.8.8,0,0,0,.78-.63.86.86,0,0,0,0-.23Z" transform="translate(-1.52 -1.63)"/><path class="cls-2" d="M127.05,75a.3.3,0,0,1-.33.32.31.31,0,0,1-.32-.32.32.32,0,0,1,.33-.33A.31.31,0,0,1,127.05,75Zm-.58,3.72V75.82H127v2.91Z" transform="translate(-1.52 -1.63)"/><path class="cls-2" d="M127.87,76.77c0-.37,0-.67,0-1h.47l0,.5h0a1.13,1.13,0,0,1,1-.56,1.31,1.31,0,0,1,1.23,1.47,1.37,1.37,0,0,1-1.32,1.56,1,1,0,0,1-.9-.45h0v1.57h-.52Zm.52.78a.71.71,0,0,0,0,.21.8.8,0,0,0,.79.62c.56,0,.88-.46.88-1.12s-.31-1.08-.86-1.08a.93.93,0,0,0-.84.87Z" transform="translate(-1.52 -1.63)"/><path class="cls-2" d="M131.87,75a.3.3,0,0,1-.33.32.31.31,0,0,1-.32-.32.32.32,0,0,1,.33-.33A.31.31,0,0,1,131.87,75Zm-.58,3.72V75.82h.52v2.91Z" transform="translate(-1.52 -1.63)"/><path class="cls-2" d="M132.62,78.19a1.37,1.37,0,0,0,.69.21c.39,0,.57-.19.57-.43s-.15-.39-.54-.54-.77-.47-.77-.82a.89.89,0,0,1,1-.85,1.4,1.4,0,0,1,.71.18l-.13.38a1.12,1.12,0,0,0-.59-.17c-.31,0-.49.18-.49.4s.18.35.55.49.77.45.77.88-.4.87-1.09.87a1.68,1.68,0,0,1-.82-.2Z" transform="translate(-1.52 -1.63)"/><path class="cls-2" d="M137.13,78.62a1.92,1.92,0,0,1-.83.17,1.38,1.38,0,0,1-1.45-1.48,1.48,1.48,0,0,1,1.56-1.55,1.83,1.83,0,0,1,.74.15l-.12.41a1.29,1.29,0,0,0-.62-.14,1.1,1.1,0,0,0,0,2.19,1.4,1.4,0,0,0,.64-.15Z" transform="translate(-1.52 -1.63)"/><path class="cls-2" d="M138.34,75a.33.33,0,0,1-.65,0,.32.32,0,0,1,.33-.33A.31.31,0,0,1,138.34,75Zm-.59,3.72V75.82h.53v2.91Z" transform="translate(-1.52 -1.63)"/><path class="cls-2" d="M139.16,76.61c0-.3,0-.55,0-.79h.47l0,.48h0a1.08,1.08,0,0,1,1-.54c.4,0,1,.24,1,1.23v1.74h-.53V77.05c0-.46-.17-.85-.67-.85a.74.74,0,0,0-.71.54.8.8,0,0,0,0,.24v1.75h-.52Z" transform="translate(-1.52 -1.63)"/><path class="cls-2" d="M145,75.82c0,.21,0,.45,0,.8v1.69a1.67,1.67,0,0,1-.41,1.32,1.51,1.51,0,0,1-1.06.35,1.82,1.82,0,0,1-1-.24l.13-.4a1.62,1.62,0,0,0,.85.23c.54,0,.94-.29.94-1v-.32h0a1.05,1.05,0,0,1-.93.48,1.29,1.29,0,0,1-1.23-1.41,1.39,1.39,0,0,1,1.3-1.54,1,1,0,0,1,.91.5h0l0-.44ZM144.44,77a.61.61,0,0,0,0-.24.75.75,0,0,0-.74-.56c-.5,0-.86.43-.86,1.1s.29,1,.86,1a.76.76,0,0,0,.73-.54.9.9,0,0,0,0-.28Z" transform="translate(-1.52 -1.63)"/><path class="cls-2" d="M147.41,77.37a.92.92,0,0,0,1,1,2,2,0,0,0,.81-.15l.08.38a2.37,2.37,0,0,1-1,.18,1.35,1.35,0,0,1-1.43-1.47,1.41,1.41,0,0,1,1.36-1.56,1.23,1.23,0,0,1,1.2,1.37c0,.1,0,.19,0,.24ZM149,77a.74.74,0,0,0-.73-.85.87.87,0,0,0-.81.85Z" transform="translate(-1.52 -1.63)"/><path class="cls-2" d="M150.12,74.47h.53v4.26h-.53Z" transform="translate(-1.52 -1.63)"/><path class="cls-2" d="M152.12,75a.3.3,0,0,1-.33.32.31.31,0,0,1-.32-.32.32.32,0,0,1,.33-.33A.31.31,0,0,1,152.12,75Zm-.59,3.72V75.82h.53v2.91Z" transform="translate(-1.52 -1.63)"/><path class="cls-2" d="M153.57,75v.83h.76v.41h-.76v1.56c0,.36.11.57.4.57a1.11,1.11,0,0,0,.31,0l0,.39a1.1,1.1,0,0,1-.47.08.73.73,0,0,1-.57-.23,1.05,1.05,0,0,1-.2-.75V76.23h-.45v-.41h.45v-.69Z" transform="translate(-1.52 -1.63)"/><path class="cls-2" d="M154.78,78.42a.35.35,0,0,1,.36-.38.38.38,0,1,1-.36.38Z" transform="translate(-1.52 -1.63)"/><path class="cls-2" d="M157.44,74.73a6.38,6.38,0,0,1,1-.07,1.67,1.67,0,0,1,1.13.33,1.1,1.1,0,0,1,.36.85,1.21,1.21,0,0,1-.31.86,1.71,1.71,0,0,1-1.24.44,1.8,1.8,0,0,1-.42,0v1.62h-.52Zm.52,2a1.74,1.74,0,0,0,.43,0c.63,0,1-.3,1-.86s-.38-.79-1-.79a2.46,2.46,0,0,0-.49,0Z" transform="translate(-1.52 -1.63)"/><path class="cls-2" d="M160.76,77.37a.92.92,0,0,0,1,1,1.92,1.92,0,0,0,.8-.15l.09.38a2.37,2.37,0,0,1-1,.18,1.35,1.35,0,0,1-1.43-1.47,1.41,1.41,0,0,1,1.36-1.56,1.23,1.23,0,0,1,1.2,1.37,1.34,1.34,0,0,1,0,.24ZM162.3,77a.74.74,0,0,0-.73-.85.87.87,0,0,0-.81.85Z" transform="translate(-1.52 -1.63)"/><path class="cls-2" d="M163.47,74.47H164v4.26h-.53Z" transform="translate(-1.52 -1.63)"/><path class="cls-2" d="M164.88,74.47h.53v4.26h-.53Z" transform="translate(-1.52 -1.63)"/><path class="cls-2" d="M166.59,77.37a.93.93,0,0,0,1,1,1.92,1.92,0,0,0,.8-.15l.09.38a2.37,2.37,0,0,1-1,.18,1.35,1.35,0,0,1-1.43-1.47,1.41,1.41,0,0,1,1.36-1.56,1.23,1.23,0,0,1,1.2,1.37,1.34,1.34,0,0,1,0,.24Zm1.55-.38a.75.75,0,0,0-.73-.85.87.87,0,0,0-.81.85Z" transform="translate(-1.52 -1.63)"/><path class="cls-2" d="M169.31,76.61c0-.3,0-.55,0-.79h.47l0,.48h0a1.08,1.08,0,0,1,1-.54c.4,0,1,.24,1,1.23v1.74h-.53V77.05c0-.46-.17-.85-.67-.85a.74.74,0,0,0-.71.54.8.8,0,0,0,0,.24v1.75h-.52Z" transform="translate(-1.52 -1.63)"/><path class="cls-2" d="M173.25,75v.83H174v.41h-.75v1.56c0,.36.1.57.39.57a1.11,1.11,0,0,0,.31,0l0,.39a1.08,1.08,0,0,1-.46.08.7.7,0,0,1-.57-.23,1.05,1.05,0,0,1-.21-.75V76.23h-.45v-.41h.45v-.69Z" transform="translate(-1.52 -1.63)"/><path class="cls-2" d="M174.86,77.37a.92.92,0,0,0,1,1,1.92,1.92,0,0,0,.8-.15l.09.38a2.37,2.37,0,0,1-1,.18,1.35,1.35,0,0,1-1.43-1.47,1.41,1.41,0,0,1,1.36-1.56,1.23,1.23,0,0,1,1.2,1.37,1.34,1.34,0,0,1,0,.24ZM176.4,77a.75.75,0,0,0-.73-.85.87.87,0,0,0-.81.85Z" transform="translate(-1.52 -1.63)"/><path class="cls-2" d="M177.5,78.19a1.37,1.37,0,0,0,.69.21c.39,0,.57-.19.57-.43s-.15-.39-.54-.54-.77-.47-.77-.82a.89.89,0,0,1,1-.85,1.4,1.4,0,0,1,.71.18l-.13.38a1.12,1.12,0,0,0-.59-.17c-.31,0-.49.18-.49.4s.18.35.55.49.77.45.77.88-.4.87-1.09.87a1.68,1.68,0,0,1-.82-.2Z" transform="translate(-1.52 -1.63)"/><path class="cls-2" d="M181.92,78.28h0a1,1,0,0,1-.95.51,1.32,1.32,0,0,1-1.23-1.47,1.39,1.39,0,0,1,1.32-1.56.94.94,0,0,1,.89.5h0l0-.44h.5c0,.25,0,.5,0,.8v3.29h-.53Zm0-1.28a.78.78,0,0,0,0-.22.77.77,0,0,0-.76-.6c-.54,0-.87.46-.87,1.11s.27,1.08.86,1.08a.78.78,0,0,0,.75-.57.73.73,0,0,0,0-.25Z" transform="translate(-1.52 -1.63)"/><path class="cls-2" d="M185.75,77.94c0,.3,0,.56,0,.79h-.47l0-.48h0a1.09,1.09,0,0,1-1,.54c-.46,0-1-.25-1-1.27v-1.7h.53v1.61c0,.55.17.93.65.93a.78.78,0,0,0,.7-.48.8.8,0,0,0,0-.27V75.82h.53Z" transform="translate(-1.52 -1.63)"/><path class="cls-2" d="M186.92,77.37a.93.93,0,0,0,1,1,2,2,0,0,0,.8-.15l.09.38a2.37,2.37,0,0,1-1,.18,1.35,1.35,0,0,1-1.43-1.47,1.4,1.4,0,0,1,1.36-1.56,1.23,1.23,0,0,1,1.2,1.37,1.34,1.34,0,0,1,0,.24Zm1.55-.38a.75.75,0,0,0-.73-.85.87.87,0,0,0-.81.85Z" transform="translate(-1.52 -1.63)"/><path class="cls-2" d="M191.11,75.82l.57,1.64a6.21,6.21,0,0,1,.23.74h0c.07-.24.15-.48.25-.74l.56-1.64h.55l-1.14,2.91h-.5l-1.1-2.91Z" transform="translate(-1.52 -1.63)"/><path class="cls-2" d="M196.36,77.25a1.42,1.42,0,0,1-1.45,1.54,1.38,1.38,0,0,1-1.39-1.49A1.42,1.42,0,0,1,195,75.76,1.37,1.37,0,0,1,196.36,77.25Zm-2.3,0c0,.64.36,1.12.88,1.12s.88-.48.88-1.13c0-.49-.25-1.12-.87-1.12S194.06,76.73,194.06,77.28Z" transform="translate(-1.52 -1.63)"/><path class="cls-2" d="M197,74.47h.52v4.26H197Z" transform="translate(-1.52 -1.63)"/><path class="cls-2" d="M200.87,77.94c0,.3,0,.56,0,.79h-.46l0-.48h0a1.07,1.07,0,0,1-1,.54c-.45,0-1-.25-1-1.27v-1.7H199v1.61c0,.55.17.93.65.93a.76.76,0,0,0,.69-.48.81.81,0,0,0,.05-.27V75.82h.53Z" transform="translate(-1.52 -1.63)"/><path class="cls-2" d="M202.38,75v.83h.76v.41h-.76v1.56c0,.36.11.57.4.57a1.11,1.11,0,0,0,.31,0l0,.39a1.1,1.1,0,0,1-.47.08.73.73,0,0,1-.57-.23,1.05,1.05,0,0,1-.2-.75V76.23h-.45v-.41h.45v-.69Z" transform="translate(-1.52 -1.63)"/><path class="cls-2" d="M203.73,76.77c0-.37,0-.67,0-1h.47l0,.5h0a1.15,1.15,0,0,1,1-.56,1.31,1.31,0,0,1,1.23,1.47,1.37,1.37,0,0,1-1.32,1.56,1,1,0,0,1-.89-.45h0v1.57h-.53Zm.53.78a1.36,1.36,0,0,0,0,.21.81.81,0,0,0,.79.62c.56,0,.88-.46.88-1.12s-.3-1.08-.86-1.08a.85.85,0,0,0-.8.65.83.83,0,0,0,0,.22Z" transform="translate(-1.52 -1.63)"/><path class="cls-2" d="M208.75,78.73l0-.37h0a1.1,1.1,0,0,1-.89.43.83.83,0,0,1-.89-.83c0-.7.62-1.09,1.75-1.08v-.06a.6.6,0,0,0-.67-.67,1.46,1.46,0,0,0-.75.21l-.12-.34a1.77,1.77,0,0,1,1-.26c.89,0,1.11.6,1.11,1.19V78a5,5,0,0,0,0,.7Zm-.07-1.48c-.58,0-1.23.09-1.23.65a.47.47,0,0,0,.5.5.74.74,0,0,0,.7-.48.55.55,0,0,0,0-.17Z" transform="translate(-1.52 -1.63)"/><path class="cls-2" d="M210.65,75v.83h.76v.41h-.76v1.56c0,.36.1.57.4.57a1,1,0,0,0,.3,0l0,.39a1.14,1.14,0,0,1-.47.08.72.72,0,0,1-.57-.23,1.05,1.05,0,0,1-.2-.75V76.23h-.45v-.41h.45v-.69Z" transform="translate(-1.52 -1.63)"/><path class="cls-2" d="M213.27,74.47h.53v4.26h-.53Z" transform="translate(-1.52 -1.63)"/><path class="cls-2" d="M216.3,78.73l-.05-.37h0a1.08,1.08,0,0,1-.89.43.83.83,0,0,1-.89-.83c0-.7.63-1.09,1.75-1.08v-.06a.6.6,0,0,0-.66-.67,1.49,1.49,0,0,0-.76.21l-.12-.34a1.78,1.78,0,0,1,1-.26c.88,0,1.1.6,1.1,1.19V78a3.78,3.78,0,0,0,.05.7Zm-.08-1.48c-.58,0-1.23.09-1.23.65a.47.47,0,0,0,.5.5.73.73,0,0,0,.7-.48.55.55,0,0,0,0-.17Z" transform="translate(-1.52 -1.63)"/><path class="cls-2" d="M220.21,77.25a1.42,1.42,0,0,1-1.45,1.54,1.38,1.38,0,0,1-1.39-1.49,1.42,1.42,0,0,1,1.44-1.54A1.37,1.37,0,0,1,220.21,77.25Zm-2.3,0c0,.64.36,1.12.88,1.12s.88-.48.88-1.13c0-.49-.25-1.12-.87-1.12S217.91,76.73,217.91,77.28Z" transform="translate(-1.52 -1.63)"/><path class="cls-2" d="M120.19,83.93c0-.34,0-.64,0-.91h.46l0,.57h0a.86.86,0,0,1,.8-.63.34.34,0,0,1,.15,0v.49h-.18a.73.73,0,0,0-.7.67,1.9,1.9,0,0,0,0,.25v1.55h-.52Z" transform="translate(-1.52 -1.63)"/><path class="cls-2" d="M122.39,84.57a.92.92,0,0,0,1,1,2,2,0,0,0,.81-.15l.09.38a2.47,2.47,0,0,1-1,.18,1.35,1.35,0,0,1-1.43-1.47A1.41,1.41,0,0,1,123.24,83a1.23,1.23,0,0,1,1.2,1.37c0,.1,0,.19,0,.24Zm1.54-.38a.74.74,0,0,0-.73-.85.88.88,0,0,0-.81.85Z" transform="translate(-1.52 -1.63)"/><path class="cls-2" d="M125.39,84.57a.93.93,0,0,0,1,1,2,2,0,0,0,.8-.15l.09.38a2.37,2.37,0,0,1-1,.18,1.35,1.35,0,0,1-1.43-1.47A1.4,1.4,0,0,1,126.25,83a1.23,1.23,0,0,1,1.2,1.37,1.34,1.34,0,0,1,0,.24Zm1.55-.38a.75.75,0,0,0-.73-.85.87.87,0,0,0-.81.85Z" transform="translate(-1.52 -1.63)"/><path class="cls-2" d="M128.74,82.19V83h.76v.41h-.76V85c0,.36.1.57.4.57a1,1,0,0,0,.3,0l0,.39A1.17,1.17,0,0,1,129,86a.72.72,0,0,1-.57-.23,1.05,1.05,0,0,1-.2-.75V83.43h-.45V83h.45v-.69Z" transform="translate(-1.52 -1.63)"/><path class="cls-2" d="M131.36,83.81c0-.3,0-.55,0-.79h.46l0,.47h0a1,1,0,0,1,.91-.53.87.87,0,0,1,.83.58h0a1.22,1.22,0,0,1,.32-.38,1,1,0,0,1,.64-.2c.39,0,1,.25,1,1.26v1.71H135V84.28c0-.55-.2-.89-.63-.89a.68.68,0,0,0-.62.48.71.71,0,0,0,0,.26v1.8h-.52V84.19c0-.46-.2-.8-.61-.8a.71.71,0,0,0-.65.53.75.75,0,0,0,0,.26v1.75h-.52Z" transform="translate(-1.52 -1.63)"/><path class="cls-2" d="M139,84.45A1.42,1.42,0,0,1,137.55,86a1.37,1.37,0,0,1-1.39-1.49A1.41,1.41,0,0,1,137.6,83,1.37,1.37,0,0,1,139,84.45Zm-2.3,0c0,.64.37,1.12.88,1.12s.88-.48.88-1.13c0-.49-.24-1.12-.87-1.12S136.69,83.93,136.69,84.48Z" transform="translate(-1.52 -1.63)"/><path class="cls-2" d="M139.66,81.67h.53v4.26h-.53Z" transform="translate(-1.52 -1.63)"/><path class="cls-2" d="M141.08,81.67h.52v4.26h-.52Z" transform="translate(-1.52 -1.63)"/><path class="cls-2" d="M143.08,82.21a.33.33,0,0,1-.65,0,.33.33,0,1,1,.65,0Zm-.59,3.72V83H143v2.91Z" transform="translate(-1.52 -1.63)"/><path class="cls-2" d="M143.83,85.39a1.37,1.37,0,0,0,.69.21c.38,0,.56-.19.56-.43s-.15-.39-.54-.54-.76-.47-.76-.82a.89.89,0,0,1,1-.85,1.4,1.4,0,0,1,.71.18l-.13.38a1.12,1.12,0,0,0-.59-.17c-.32,0-.49.18-.49.4s.17.35.55.49.76.45.76.88-.39.87-1.08.87a1.68,1.68,0,0,1-.82-.2Z" transform="translate(-1.52 -1.63)"/><path class="cls-2" d="M146.08,85.61a.35.35,0,0,1,.36-.37.38.38,0,0,1,0,.75A.36.36,0,0,1,146.08,85.61Z" transform="translate(-1.52 -1.63)"/><path class="cls-2" d="M152.15,84.15c0-.56-.07-1.24-.07-1.74h0c-.14.47-.31,1-.51,1.53l-.72,2h-.39L149.79,84c-.19-.57-.35-1.09-.46-1.57h0c0,.5,0,1.18-.07,1.78l-.11,1.74h-.5l.28-4.05h.67l.69,2c.17.5.3.94.41,1.36h0c.11-.41.25-.85.43-1.36l.72-2h.66l.26,4.05h-.51Z" transform="translate(-1.52 -1.63)"/><path class="cls-2" d="M156.21,84.45A1.42,1.42,0,0,1,154.76,86a1.38,1.38,0,0,1-1.39-1.49A1.42,1.42,0,0,1,154.81,83,1.37,1.37,0,0,1,156.21,84.45Zm-2.31,0c0,.64.37,1.12.89,1.12s.88-.48.88-1.13c0-.49-.25-1.12-.87-1.12S153.9,83.93,153.9,84.48Z" transform="translate(-1.52 -1.63)"/><path class="cls-2" d="M156.87,83.93c0-.34,0-.64,0-.91h.46l0,.57h0a.87.87,0,0,1,.81-.63.36.36,0,0,1,.15,0v.49h-.18a.74.74,0,0,0-.71.67,2,2,0,0,0,0,.25v1.55h-.53Z" transform="translate(-1.52 -1.63)"/><path class="cls-2" d="M158.84,85.93c0-.2,0-.49,0-.75V81.67h.52v1.82h0a1.1,1.1,0,0,1,1-.53,1.31,1.31,0,0,1,1.23,1.48,1.38,1.38,0,0,1-1.3,1.55,1.05,1.05,0,0,1-1-.54h0l0,.48Zm.54-1.17a.64.64,0,0,0,0,.2.81.81,0,0,0,.79.61c.55,0,.88-.45.88-1.11s-.3-1.08-.86-1.08a.84.84,0,0,0-.81.65,1.18,1.18,0,0,0,0,.21Z" transform="translate(-1.52 -1.63)"/><path class="cls-2" d="M162.86,82.21a.3.3,0,0,1-.33.32.31.31,0,0,1-.32-.32.32.32,0,0,1,.33-.33A.31.31,0,0,1,162.86,82.21Zm-.59,3.72V83h.53v2.91Z" transform="translate(-1.52 -1.63)"/><path class="cls-2" d="M164.88,85.39a1.37,1.37,0,0,0,.69.21c.39,0,.57-.19.57-.43s-.15-.39-.54-.54-.77-.47-.77-.82a.89.89,0,0,1,1-.85,1.44,1.44,0,0,1,.72.18l-.14.38a1.12,1.12,0,0,0-.59-.17c-.31,0-.49.18-.49.4s.18.35.56.49.76.45.76.88-.4.87-1.09.87a1.61,1.61,0,0,1-.81-.2Z" transform="translate(-1.52 -1.63)"/><path class="cls-2" d="M170,84.45A1.42,1.42,0,0,1,168.51,86a1.37,1.37,0,0,1-1.39-1.49A1.41,1.41,0,0,1,168.56,83,1.37,1.37,0,0,1,170,84.45Zm-2.3,0c0,.64.37,1.12.88,1.12s.88-.48.88-1.13c0-.49-.24-1.12-.87-1.12S167.65,83.93,167.65,84.48Z" transform="translate(-1.52 -1.63)"/><path class="cls-2" d="M170.62,81.67h.53v4.26h-.53Z" transform="translate(-1.52 -1.63)"/><path class="cls-2" d="M172,81.67h.52v4.26H172Z" transform="translate(-1.52 -1.63)"/><path class="cls-2" d="M174,82.21a.33.33,0,0,1-.65,0,.33.33,0,1,1,.65,0Zm-.59,3.72V83H174v2.91Z" transform="translate(-1.52 -1.63)"/><path class="cls-2" d="M176.92,85.82a1.92,1.92,0,0,1-.83.17,1.38,1.38,0,0,1-1.44-1.48A1.48,1.48,0,0,1,176.21,83a1.82,1.82,0,0,1,.73.15l-.12.41a1.27,1.27,0,0,0-.61-.14,1,1,0,0,0-1,1.1,1,1,0,0,0,1,1.09,1.4,1.4,0,0,0,.64-.15Z" transform="translate(-1.52 -1.63)"/><path class="cls-2" d="M178.13,82.21a.3.3,0,0,1-.33.32.31.31,0,0,1-.32-.32.32.32,0,0,1,.33-.33A.31.31,0,0,1,178.13,82.21Zm-.59,3.72V83h.53v2.91Z" transform="translate(-1.52 -1.63)"/><path class="cls-2" d="M179.58,82.19V83h.76v.41h-.76V85c0,.36.11.57.4.57a1.11,1.11,0,0,0,.31,0l0,.39a1.1,1.1,0,0,1-.47.08.73.73,0,0,1-.57-.23,1.05,1.05,0,0,1-.2-.75V83.43h-.45V83h.45v-.69Z" transform="translate(-1.52 -1.63)"/><path class="cls-2" d="M183.36,85.14c0,.3,0,.56,0,.79h-.47l0-.48h0a1.09,1.09,0,0,1-1,.54c-.46,0-1-.25-1-1.27V83h.52v1.61c0,.55.17.93.65.93a.77.77,0,0,0,.7-.48.8.8,0,0,0,0-.27V83h.53Z" transform="translate(-1.52 -1.63)"/><path class="cls-2" d="M186.75,81.67v3.51c0,.26,0,.55,0,.75h-.47l0-.51h0a1.06,1.06,0,0,1-1,.57A1.32,1.32,0,0,1,184,84.52a1.38,1.38,0,0,1,1.3-1.56,1,1,0,0,1,.88.44h0V81.67Zm-.53,2.54a1.79,1.79,0,0,0,0-.23.79.79,0,0,0-.77-.61c-.54,0-.87.48-.87,1.12s.29,1.08.86,1.08a.8.8,0,0,0,.78-.63,1.64,1.64,0,0,0,0-.23Z" transform="translate(-1.52 -1.63)"/><path class="cls-2" d="M188.21,82.21a.3.3,0,0,1-.33.32.31.31,0,0,1-.32-.32.32.32,0,0,1,.33-.33A.31.31,0,0,1,188.21,82.21Zm-.59,3.72V83h.53v2.91Z" transform="translate(-1.52 -1.63)"/><path class="cls-2" d="M189,83.81c0-.3,0-.55,0-.79h.47l0,.48h0a1.08,1.08,0,0,1,1-.54c.41,0,1,.24,1,1.23v1.74H191V84.25c0-.46-.17-.85-.67-.85a.74.74,0,0,0-.71.54.83.83,0,0,0,0,.24v1.75H189Z" transform="translate(-1.52 -1.63)"/><path class="cls-2" d="M193.83,83l.57,1.64a6.33,6.33,0,0,1,.24.74h0c.06-.24.15-.48.24-.74l.56-1.64H196l-1.14,2.91h-.51L193.27,83Z" transform="translate(-1.52 -1.63)"/><path class="cls-2" d="M196.75,84.57a.93.93,0,0,0,1,1,2,2,0,0,0,.8-.15l.09.38a2.43,2.43,0,0,1-1,.18,1.35,1.35,0,0,1-1.42-1.47A1.4,1.4,0,0,1,197.61,83a1.23,1.23,0,0,1,1.2,1.37c0,.1,0,.19,0,.24Zm1.55-.38a.75.75,0,0,0-.73-.85.87.87,0,0,0-.81.85Z" transform="translate(-1.52 -1.63)"/><path class="cls-2" d="M199.46,81.67H200v4.26h-.53Z" transform="translate(-1.52 -1.63)"/><path class="cls-2" d="M201.47,82.21a.32.32,0,0,1-.34.32.31.31,0,0,1-.32-.32.32.32,0,0,1,.33-.33A.31.31,0,0,1,201.47,82.21Zm-.59,3.72V83h.53v2.91Z" transform="translate(-1.52 -1.63)"/><path class="cls-2" d="M202.92,82.19V83h.75v.41h-.75V85c0,.36.1.57.39.57a1.11,1.11,0,0,0,.31,0l0,.39a1.1,1.1,0,0,1-.47.08.69.69,0,0,1-.56-.23,1.05,1.05,0,0,1-.21-.75V83.43H202V83h.45v-.69Z" transform="translate(-1.52 -1.63)"/><path class="cls-2" d="M205.74,83l.57,1.64a6.33,6.33,0,0,1,.24.74h0c.07-.24.15-.48.25-.74l.56-1.64h.56l-1.14,2.91h-.51L205.18,83Z" transform="translate(-1.52 -1.63)"/><path class="cls-2" d="M208.66,84.57a.93.93,0,0,0,1,1,2,2,0,0,0,.81-.15l.09.38a2.47,2.47,0,0,1-1,.18,1.35,1.35,0,0,1-1.42-1.47A1.4,1.4,0,0,1,209.52,83a1.23,1.23,0,0,1,1.2,1.37c0,.1,0,.19,0,.24Zm1.55-.38a.75.75,0,0,0-.74-.85.86.86,0,0,0-.8.85Z" transform="translate(-1.52 -1.63)"/><path class="cls-2" d="M211.37,81.67h.53v4.26h-.53Z" transform="translate(-1.52 -1.63)"/><path class="cls-2" d="M214.06,84c0-.37,0-.67,0-1h.47l0,.5h0a1.13,1.13,0,0,1,1-.56,1.31,1.31,0,0,1,1.23,1.47A1.37,1.37,0,0,1,215.49,86a1,1,0,0,1-.9-.45h0v1.57h-.52Zm.52.78a.71.71,0,0,0,0,.21.8.8,0,0,0,.79.62c.56,0,.88-.46.88-1.12s-.31-1.08-.86-1.08a.93.93,0,0,0-.84.87Z" transform="translate(-1.52 -1.63)"/><path class="cls-2" d="M220.1,84.45A1.42,1.42,0,0,1,218.65,86a1.38,1.38,0,0,1-1.39-1.49A1.42,1.42,0,0,1,218.7,83,1.37,1.37,0,0,1,220.1,84.45Zm-2.3,0c0,.64.36,1.12.88,1.12s.88-.48.88-1.13c0-.49-.25-1.12-.87-1.12S217.8,83.93,217.8,84.48Z" transform="translate(-1.52 -1.63)"/><path class="cls-2" d="M220.7,85.39a1.37,1.37,0,0,0,.69.21c.39,0,.57-.19.57-.43s-.15-.39-.54-.54-.77-.47-.77-.82a.89.89,0,0,1,1-.85,1.4,1.4,0,0,1,.71.18l-.13.38a1.12,1.12,0,0,0-.59-.17c-.31,0-.49.18-.49.4s.18.35.55.49.76.45.76.88-.39.87-1.08.87a1.68,1.68,0,0,1-.82-.2Z" transform="translate(-1.52 -1.63)"/><path class="cls-2" d="M225.57,85.14c0,.3,0,.56,0,.79h-.47l0-.48h0a1.09,1.09,0,0,1-1,.54c-.46,0-1-.25-1-1.27V83h.52v1.61c0,.55.17.93.65.93a.78.78,0,0,0,.7-.48.8.8,0,0,0,0-.27V83h.53Z" transform="translate(-1.52 -1.63)"/><path class="cls-2" d="M226.74,84.57a.93.93,0,0,0,1,1,2,2,0,0,0,.8-.15l.09.38a2.37,2.37,0,0,1-1,.18,1.35,1.35,0,0,1-1.43-1.47A1.4,1.4,0,0,1,227.6,83a1.23,1.23,0,0,1,1.2,1.37,1.34,1.34,0,0,1,0,.24Zm1.55-.38a.75.75,0,0,0-.73-.85.87.87,0,0,0-.81.85Z" transform="translate(-1.52 -1.63)"/><path class="cls-2" d="M229.46,83.93c0-.34,0-.64,0-.91h.46l0,.57h0a.85.85,0,0,1,.8-.63.36.36,0,0,1,.15,0v.49h-.18a.74.74,0,0,0-.71.67,2,2,0,0,0,0,.25v1.55h-.52Z" transform="translate(-1.52 -1.63)"/><path class="cls-2" d="M231.65,84.57a.93.93,0,0,0,1,1,2,2,0,0,0,.8-.15l.09.38a2.41,2.41,0,0,1-1,.18,1.35,1.35,0,0,1-1.43-1.47A1.4,1.4,0,0,1,232.51,83a1.23,1.23,0,0,1,1.2,1.37,1.34,1.34,0,0,1,0,.24Zm1.55-.38a.75.75,0,0,0-.73-.85.87.87,0,0,0-.81.85Z" transform="translate(-1.52 -1.63)"/><path class="cls-2" d="M120.19,91c0-.3,0-.55,0-.79h.46l0,.47h0a1,1,0,0,1,.91-.53.85.85,0,0,1,.82.58h0a1.22,1.22,0,0,1,.32-.38,1,1,0,0,1,.64-.2c.39,0,1,.25,1,1.26v1.71h-.51V91.48c0-.55-.2-.89-.63-.89a.68.68,0,0,0-.62.48.71.71,0,0,0,0,.26v1.8H122V91.39c0-.46-.21-.8-.61-.8a.71.71,0,0,0-.65.53.75.75,0,0,0,0,.26v1.75h-.52Z" transform="translate(-1.52 -1.63)"/><path class="cls-2" d="M126.8,93.13l0-.37h0a1.07,1.07,0,0,1-.89.43.82.82,0,0,1-.88-.83c0-.7.62-1.09,1.74-1.08v-.06a.59.59,0,0,0-.66-.67,1.43,1.43,0,0,0-.75.21l-.12-.34a1.74,1.74,0,0,1,.95-.26c.89,0,1.1.6,1.1,1.19v1.08a4.9,4.9,0,0,0,0,.7Zm-.08-1.48c-.57,0-1.22.09-1.22.65a.46.46,0,0,0,.49.5.72.72,0,0,0,.7-.48.55.55,0,0,0,0-.17Z" transform="translate(-1.52 -1.63)"/><path class="cls-2" d="M128.33,90.22l.42.63.29.47h0c.09-.17.19-.32.29-.48l.4-.62h.57l-1,1.41,1,1.5h-.6l-.42-.66A5.19,5.19,0,0,1,129,92h0c-.09.17-.19.33-.3.5l-.42.66h-.58l1-1.48-1-1.43Z" transform="translate(-1.52 -1.63)"/><path class="cls-2" d="M131.45,89.41a.3.3,0,0,1-.33.32.31.31,0,0,1-.32-.32.32.32,0,0,1,.33-.33A.31.31,0,0,1,131.45,89.41Zm-.58,3.72V90.22h.52v2.91Z" transform="translate(-1.52 -1.63)"/><path class="cls-2" d="M132.27,91c0-.3,0-.55,0-.79h.46l0,.47h0a1,1,0,0,1,.91-.53.85.85,0,0,1,.82.58h0a1.24,1.24,0,0,1,.33-.38,1,1,0,0,1,.64-.2c.38,0,.95.25.95,1.26v1.71h-.51V91.48c0-.55-.21-.89-.63-.89a.69.69,0,0,0-.63.48,1,1,0,0,0,0,.26v1.8h-.51V91.39c0-.46-.21-.8-.61-.8a.71.71,0,0,0-.65.53.75.75,0,0,0,0,.26v1.75h-.52Z" transform="translate(-1.52 -1.63)"/><path class="cls-2" d="M139.7,92.34c0,.3,0,.56,0,.79h-.47l0-.48h0a1.09,1.09,0,0,1-1,.54c-.46,0-1-.25-1-1.27v-1.7h.53v1.61c0,.55.17.93.65.93a.78.78,0,0,0,.7-.48.8.8,0,0,0,0-.27V90.22h.53Z" transform="translate(-1.52 -1.63)"/><path class="cls-2" d="M140.51,92.59a1.37,1.37,0,0,0,.69.21c.39,0,.57-.19.57-.43s-.15-.39-.54-.54-.77-.47-.77-.82a.89.89,0,0,1,1-.85,1.4,1.4,0,0,1,.71.18l-.13.38a1.12,1.12,0,0,0-.59-.17c-.31,0-.49.18-.49.4s.18.35.55.49.77.45.77.88-.4.87-1.09.87a1.61,1.61,0,0,1-.81-.2Z" transform="translate(-1.52 -1.63)"/><path class="cls-2" d="M142.76,92.81a.36.36,0,1,1,.36.38A.36.36,0,0,1,142.76,92.81Z" transform="translate(-1.52 -1.63)"/><path class="cls-2" d="M145.42,89.14a7.31,7.31,0,0,1,1.11-.08,2.33,2.33,0,0,1,1.64.5,1.86,1.86,0,0,1,.57,1.45,2.16,2.16,0,0,1-.58,1.57,2.5,2.5,0,0,1-1.79.58,6.56,6.56,0,0,1-1,0Zm.52,3.57a2.75,2.75,0,0,0,.53,0A1.55,1.55,0,0,0,148.19,91a1.44,1.44,0,0,0-1.64-1.56,3,3,0,0,0-.61,0Z" transform="translate(-1.52 -1.63)"/><path class="cls-2" d="M152.05,91.65a1.41,1.41,0,0,1-1.45,1.54,1.38,1.38,0,0,1-1.39-1.49,1.42,1.42,0,0,1,1.44-1.54A1.37,1.37,0,0,1,152.05,91.65Zm-2.3,0c0,.64.36,1.12.88,1.12s.88-.48.88-1.13c0-.49-.25-1.12-.87-1.12S149.75,91.13,149.75,91.68Z" transform="translate(-1.52 -1.63)"/><path class="cls-2" d="M152.72,91c0-.3,0-.55,0-.79h.47l0,.48h0a1.08,1.08,0,0,1,1-.54c.4,0,1,.24,1,1.23v1.74h-.53V91.45c0-.46-.17-.85-.67-.85a.74.74,0,0,0-.71.54.83.83,0,0,0,0,.24v1.75h-.53Z" transform="translate(-1.52 -1.63)"/><path class="cls-2" d="M156.34,91.77a.93.93,0,0,0,1,1,2,2,0,0,0,.8-.15l.09.38a2.43,2.43,0,0,1-1,.18,1.35,1.35,0,0,1-1.42-1.47,1.4,1.4,0,0,1,1.36-1.56,1.23,1.23,0,0,1,1.2,1.37,1.34,1.34,0,0,1,0,.24Zm1.55-.38a.75.75,0,0,0-.73-.85.87.87,0,0,0-.81.85Z" transform="translate(-1.52 -1.63)"/><path class="cls-2" d="M161.12,93a2,2,0,0,1-.83.17,1.38,1.38,0,0,1-1.45-1.48,1.48,1.48,0,0,1,1.56-1.55,1.78,1.78,0,0,1,.73.15l-.12.41a1.21,1.21,0,0,0-.61-.14,1,1,0,0,0-1,1.1,1,1,0,0,0,1,1.09,1.44,1.44,0,0,0,.65-.15Z" transform="translate(-1.52 -1.63)"/><path class="cls-2" d="M163,91.17c0-.37,0-.67,0-1h.47l0,.5h0a1.14,1.14,0,0,1,1-.56,1.31,1.31,0,0,1,1.23,1.47,1.37,1.37,0,0,1-1.32,1.56,1,1,0,0,1-.89-.45h0v1.57H163Zm.53.78a1.36,1.36,0,0,0,0,.21.8.8,0,0,0,.79.62c.56,0,.88-.46.88-1.12s-.3-1.08-.86-1.08a.85.85,0,0,0-.8.65.83.83,0,0,0,0,.22Z" transform="translate(-1.52 -1.63)"/><path class="cls-2" d="M166.72,91.77a.93.93,0,0,0,1,1,2,2,0,0,0,.8-.15l.09.38a2.43,2.43,0,0,1-1,.18,1.35,1.35,0,0,1-1.42-1.47,1.4,1.4,0,0,1,1.36-1.56,1.23,1.23,0,0,1,1.2,1.37,1.34,1.34,0,0,1,0,.24Zm1.55-.38a.75.75,0,0,0-.73-.85.87.87,0,0,0-.81.85Z" transform="translate(-1.52 -1.63)"/><path class="cls-2" d="M169.43,88.87H170v4.26h-.53Z" transform="translate(-1.52 -1.63)"/><path class="cls-2" d="M170.85,88.87h.53v4.26h-.53Z" transform="translate(-1.52 -1.63)"/><path class="cls-2" d="M172.56,91.77a.93.93,0,0,0,1,1,2,2,0,0,0,.81-.15l.09.38a2.47,2.47,0,0,1-1,.18,1.35,1.35,0,0,1-1.43-1.47,1.41,1.41,0,0,1,1.37-1.56,1.23,1.23,0,0,1,1.2,1.37c0,.1,0,.19,0,.24Zm1.55-.38a.75.75,0,0,0-.74-.85.88.88,0,0,0-.81.85Z" transform="translate(-1.52 -1.63)"/><path class="cls-2" d="M175.27,91c0-.3,0-.55,0-.79h.46l0,.48h0a1.07,1.07,0,0,1,1-.54c.4,0,1,.24,1,1.23v1.74h-.53V91.45c0-.46-.17-.85-.67-.85a.74.74,0,0,0-.71.54.83.83,0,0,0,0,.24v1.75h-.53Z" transform="translate(-1.52 -1.63)"/><path class="cls-2" d="M179.21,89.39v.83H180v.41h-.76v1.56c0,.36.1.57.4.57a1,1,0,0,0,.3,0l0,.39a1.14,1.14,0,0,1-.47.08.72.72,0,0,1-.57-.23,1.05,1.05,0,0,1-.2-.75V90.63h-.45v-.41h.45v-.69Z" transform="translate(-1.52 -1.63)"/><path class="cls-2" d="M180.82,91.77a.93.93,0,0,0,1,1,2,2,0,0,0,.8-.15l.09.38a2.43,2.43,0,0,1-1,.18,1.35,1.35,0,0,1-1.42-1.47,1.4,1.4,0,0,1,1.36-1.56,1.23,1.23,0,0,1,1.2,1.37,1.34,1.34,0,0,1,0,.24Zm1.55-.38a.75.75,0,0,0-.73-.85.87.87,0,0,0-.81.85Z" transform="translate(-1.52 -1.63)"/><path class="cls-2" d="M183.46,92.59a1.41,1.41,0,0,0,.7.21c.38,0,.56-.19.56-.43s-.15-.39-.54-.54-.77-.47-.77-.82a.89.89,0,0,1,1-.85,1.41,1.41,0,0,1,.72.18l-.13.38a1.19,1.19,0,0,0-.6-.17c-.31,0-.48.18-.48.4s.17.35.55.49.76.45.76.88-.4.87-1.09.87a1.64,1.64,0,0,1-.81-.2Z" transform="translate(-1.52 -1.63)"/><path class="cls-2" d="M187.89,92.68h0a1.05,1.05,0,0,1-.95.51,1.32,1.32,0,0,1-1.23-1.47A1.39,1.39,0,0,1,187,90.16a1,1,0,0,1,.9.5h0l0-.44h.49c0,.25,0,.5,0,.8v3.29h-.53Zm0-1.28a.78.78,0,0,0,0-.22.76.76,0,0,0-.75-.6c-.55,0-.88.46-.88,1.11s.28,1.08.86,1.08a.79.79,0,0,0,.76-.57,1.09,1.09,0,0,0,0-.25Z" transform="translate(-1.52 -1.63)"/><path class="cls-2" d="M191.71,92.34c0,.3,0,.56,0,.79h-.47l0-.48h0a1.08,1.08,0,0,1-1,.54c-.46,0-1-.25-1-1.27v-1.7h.53v1.61c0,.55.16.93.64.93a.77.77,0,0,0,.7-.48.81.81,0,0,0,.05-.27V90.22h.52Z" transform="translate(-1.52 -1.63)"/><path class="cls-2" d="M192.89,91.77a.92.92,0,0,0,1,1,1.92,1.92,0,0,0,.8-.15l.09.38a2.37,2.37,0,0,1-1,.18,1.35,1.35,0,0,1-1.43-1.47,1.41,1.41,0,0,1,1.36-1.56,1.23,1.23,0,0,1,1.2,1.37,1.34,1.34,0,0,1,0,.24Zm1.54-.38a.75.75,0,0,0-.73-.85.87.87,0,0,0-.81.85Z" transform="translate(-1.52 -1.63)"/><path class="cls-2" d="M197.46,89.41a.33.33,0,0,1-.66,0,.32.32,0,0,1,.33-.33A.31.31,0,0,1,197.46,89.41Zm-.59,3.72V90.22h.53v2.91Z" transform="translate(-1.52 -1.63)"/><path class="cls-2" d="M198.27,91.17c0-.37,0-.67,0-1h.47l0,.5h0a1.15,1.15,0,0,1,1-.56A1.31,1.31,0,0,1,201,91.63a1.37,1.37,0,0,1-1.32,1.56,1,1,0,0,1-.89-.45h0v1.57h-.52Zm.52.78a1.33,1.33,0,0,0,0,.21.81.81,0,0,0,.79.62c.56,0,.88-.46.88-1.12s-.3-1.08-.86-1.08a.93.93,0,0,0-.84.87Z" transform="translate(-1.52 -1.63)"/><path class="cls-2" d="M201.62,92.59a1.37,1.37,0,0,0,.69.21c.39,0,.57-.19.57-.43s-.15-.39-.55-.54-.76-.47-.76-.82a.89.89,0,0,1,1-.85,1.4,1.4,0,0,1,.71.18l-.13.38a1.12,1.12,0,0,0-.59-.17c-.31,0-.49.18-.49.4s.18.35.55.49.76.45.76.88-.39.87-1.08.87a1.68,1.68,0,0,1-.82-.2Z" transform="translate(-1.52 -1.63)"/><path class="cls-2" d="M206.49,92.34c0,.3,0,.56,0,.79h-.47l0-.48h0a1.09,1.09,0,0,1-1,.54c-.46,0-1-.25-1-1.27v-1.7h.52v1.61c0,.55.17.93.65.93a.77.77,0,0,0,.7-.48.8.8,0,0,0,0-.27V90.22h.53Z" transform="translate(-1.52 -1.63)"/><path class="cls-2" d="M207.37,91c0-.3,0-.55,0-.79h.46l0,.47h0a1,1,0,0,1,.91-.53.85.85,0,0,1,.82.58h0a1.24,1.24,0,0,1,.33-.38,1,1,0,0,1,.64-.2c.38,0,.95.25.95,1.26v1.71H211V91.48c0-.55-.21-.89-.63-.89a.69.69,0,0,0-.63.48,1,1,0,0,0,0,.26v1.8h-.51V91.39c0-.46-.21-.8-.61-.8a.71.71,0,0,0-.65.53.75.75,0,0,0-.05.26v1.75h-.51Z" transform="translate(-1.52 -1.63)"/><path class="cls-2" d="M213.57,92.59a1.45,1.45,0,0,0,.7.21c.38,0,.56-.19.56-.43s-.15-.39-.54-.54-.76-.47-.76-.82a.89.89,0,0,1,1-.85,1.4,1.4,0,0,1,.71.18l-.13.38a1.12,1.12,0,0,0-.59-.17c-.32,0-.49.18-.49.4s.17.35.55.49.76.45.76.88-.39.87-1.08.87a1.68,1.68,0,0,1-.82-.2Z" transform="translate(-1.52 -1.63)"/><path class="cls-2" d="M216.61,89.41a.33.33,0,0,1-.65,0,.33.33,0,1,1,.65,0ZM216,93.13V90.22h.53v2.91Z" transform="translate(-1.52 -1.63)"/><path class="cls-2" d="M218.06,89.39v.83h.76v.41h-.76v1.56c0,.36.1.57.4.57a1,1,0,0,0,.3,0l0,.39a1.14,1.14,0,0,1-.47.08.72.72,0,0,1-.57-.23,1.05,1.05,0,0,1-.2-.75V90.63h-.45v-.41h.45v-.69Z" transform="translate(-1.52 -1.63)"/><path class="cls-2" d="M222.29,93.13l0-.37h0a1.07,1.07,0,0,1-.89.43.82.82,0,0,1-.88-.83c0-.7.62-1.09,1.74-1.08v-.06a.6.6,0,0,0-.66-.67,1.43,1.43,0,0,0-.75.21l-.12-.34a1.74,1.74,0,0,1,1-.26c.89,0,1.1.6,1.1,1.19v1.08a3.78,3.78,0,0,0,.05.7Zm-.08-1.48c-.57,0-1.23.09-1.23.65a.47.47,0,0,0,.5.5.72.72,0,0,0,.7-.48.55.55,0,0,0,0-.17Z" transform="translate(-1.52 -1.63)"/><path class="cls-2" d="M223.58,91c0-.3,0-.55,0-.79H224l0,.47h0a1,1,0,0,1,.91-.53.87.87,0,0,1,.82.58h0a1.22,1.22,0,0,1,.32-.38,1,1,0,0,1,.65-.2c.38,0,.95.25.95,1.26v1.71h-.52V91.48c0-.55-.2-.89-.63-.89a.68.68,0,0,0-.62.48,1,1,0,0,0,0,.26v1.8h-.52V91.39c0-.46-.2-.8-.6-.8a.73.73,0,0,0-.66.53.75.75,0,0,0,0,.26v1.75h-.51Z" transform="translate(-1.52 -1.63)"/><path class="cls-2" d="M228.87,91.77a.93.93,0,0,0,1,1,2,2,0,0,0,.8-.15l.09.38a2.37,2.37,0,0,1-1,.18,1.35,1.35,0,0,1-1.43-1.47,1.4,1.4,0,0,1,1.36-1.56,1.23,1.23,0,0,1,1.2,1.37,1.34,1.34,0,0,1,0,.24Zm1.55-.38a.75.75,0,0,0-.73-.85.87.87,0,0,0-.81.85Z" transform="translate(-1.52 -1.63)"/><path class="cls-2" d="M232.22,89.39v.83H233v.41h-.76v1.56c0,.36.1.57.4.57a1,1,0,0,0,.3,0l0,.39a1.17,1.17,0,0,1-.47.08.72.72,0,0,1-.57-.23,1.05,1.05,0,0,1-.2-.75V90.63h-.45v-.41h.45v-.69Z" transform="translate(-1.52 -1.63)"/><path class="cls-2" d="M163.26,112.49H161v-.81h5.49v.81h-2.27v6.6h-1Z" transform="translate(-1.52 -1.63)"/><path class="cls-2" d="M168.24,112.27a.6.6,0,1,1-1.2,0,.58.58,0,0,1,.6-.6A.57.57,0,0,1,168.24,112.27Zm-1.08,6.82v-5.32h1v5.32Z" transform="translate(-1.52 -1.63)"/><path class="cls-2" d="M170.9,112.24v1.53h1.39v.73H170.9v2.88c0,.66.19,1,.73,1a1.86,1.86,0,0,0,.56-.07l0,.73a2.31,2.31,0,0,1-.86.13,1.31,1.31,0,0,1-1-.41,1.92,1.92,0,0,1-.38-1.38V114.5h-.82v-.73H170v-1.28Z" transform="translate(-1.52 -1.63)"/><path class="cls-2" d="M173.37,115.43c0-.63,0-1.17,0-1.66h.85l0,1h0a1.61,1.61,0,0,1,1.48-1.16,1.06,1.06,0,0,1,.27,0v.91a1.61,1.61,0,0,0-.33,0,1.35,1.35,0,0,0-1.29,1.24,2.06,2.06,0,0,0,0,.45v2.84h-1Z" transform="translate(-1.52 -1.63)"/><path class="cls-2" d="M177.4,116.61a1.7,1.7,0,0,0,1.83,1.84,3.56,3.56,0,0,0,1.47-.27l.17.69a4.29,4.29,0,0,1-1.78.33,2.47,2.47,0,0,1-2.61-2.68,2.58,2.58,0,0,1,2.49-2.87,2.25,2.25,0,0,1,2.2,2.5,4.19,4.19,0,0,1,0,.46Zm2.84-.7a1.38,1.38,0,0,0-1.34-1.57,1.61,1.61,0,0,0-1.49,1.57Z" transform="translate(-1.52 -1.63)"/><path class="cls-2" d="M120.42,123h.52v3.61h1.73v.43h-2.25Z" transform="translate(-1.52 -1.63)"/><path class="cls-2" d="M125.78,125.58a1.42,1.42,0,0,1-1.45,1.54,1.38,1.38,0,0,1-1.39-1.49,1.42,1.42,0,0,1,1.44-1.54A1.37,1.37,0,0,1,125.78,125.58Zm-2.31,0c0,.64.37,1.11.88,1.11s.89-.47.89-1.12c0-.49-.25-1.12-.87-1.12S123.47,125.06,123.47,125.61Z" transform="translate(-1.52 -1.63)"/><path class="cls-2" d="M126.44,125.06c0-.34,0-.64,0-.91h.46l0,.57h0a.87.87,0,0,1,.81-.63h.15v.5l-.18,0a.75.75,0,0,0-.71.68,1.81,1.81,0,0,0,0,.25v1.54h-.53Z" transform="translate(-1.52 -1.63)"/><path class="cls-2" d="M128.64,125.7a.93.93,0,0,0,1,1,2,2,0,0,0,.81-.15l.09.37a2.3,2.3,0,0,1-1,.18,1.34,1.34,0,0,1-1.42-1.46,1.4,1.4,0,0,1,1.36-1.56,1.23,1.23,0,0,1,1.2,1.36c0,.11,0,.2,0,.25Zm1.55-.38a.76.76,0,0,0-.73-.86.87.87,0,0,0-.81.86Z" transform="translate(-1.52 -1.63)"/><path class="cls-2" d="M131.35,124.94c0-.3,0-.55,0-.79h.46l0,.47h0a1,1,0,0,1,.91-.53.85.85,0,0,1,.82.58h0a1.22,1.22,0,0,1,.32-.38,1,1,0,0,1,.64-.2c.39,0,1,.25,1,1.26v1.7H135v-1.64c0-.56-.2-.89-.63-.89a.68.68,0,0,0-.62.48.71.71,0,0,0,0,.26v1.79h-.51v-1.73c0-.47-.21-.8-.61-.8a.71.71,0,0,0-.65.53.66.66,0,0,0,0,.25v1.75h-.52Z" transform="translate(-1.52 -1.63)"/><path class="cls-2" d="M138.22,123.34a.32.32,0,0,1-.34.32.31.31,0,0,1-.32-.32.32.32,0,0,1,.33-.33A.31.31,0,0,1,138.22,123.34Zm-.59,3.71v-2.9h.53v2.9Z" transform="translate(-1.52 -1.63)"/><path class="cls-2" d="M139,125.1c0-.37,0-.67,0-.95h.47l0,.5h0a1.13,1.13,0,0,1,1-.56,1.31,1.31,0,0,1,1.23,1.47,1.38,1.38,0,0,1-1.32,1.56,1,1,0,0,1-.9-.45h0v1.57H139Zm.52.77a.78.78,0,0,0,0,.22.8.8,0,0,0,.79.62c.56,0,.88-.46.88-1.13s-.31-1.07-.86-1.07a.83.83,0,0,0-.8.65.78.78,0,0,0,0,.21Z" transform="translate(-1.52 -1.63)"/><path class="cls-2" d="M142.37,126.51a1.35,1.35,0,0,0,.7.21c.38,0,.56-.19.56-.43s-.15-.39-.54-.53-.77-.47-.77-.82a.9.9,0,0,1,1-.85,1.4,1.4,0,0,1,.71.18l-.13.38a1.19,1.19,0,0,0-.6-.17c-.31,0-.48.18-.48.4s.17.35.55.49.76.44.76.88-.39.86-1.08.86a1.66,1.66,0,0,1-.82-.19Z" transform="translate(-1.52 -1.63)"/><path class="cls-2" d="M147.25,126.26c0,.3,0,.57,0,.79h-.46l0-.47h0a1.08,1.08,0,0,1-1,.54c-.45,0-1-.25-1-1.27v-1.7h.53v1.61c0,.55.17.92.65.92a.74.74,0,0,0,.69-.48.76.76,0,0,0,.05-.27v-1.78h.53Z" transform="translate(-1.52 -1.63)"/><path class="cls-2" d="M148.13,124.94c0-.3,0-.55,0-.79h.47l0,.47h0a1,1,0,0,1,.91-.53.86.86,0,0,1,.82.58h0a1.24,1.24,0,0,1,.33-.38,1,1,0,0,1,.64-.2c.38,0,1,.25,1,1.26v1.7h-.51v-1.64c0-.56-.21-.89-.63-.89a.69.69,0,0,0-.63.48,1,1,0,0,0,0,.26v1.79H150v-1.73c0-.47-.21-.8-.61-.8a.71.71,0,0,0-.65.53.66.66,0,0,0-.05.25v1.75h-.51Z" transform="translate(-1.52 -1.63)"/><path class="cls-2" d="M156.91,122.8v3.5c0,.26,0,.56,0,.75h-.47l0-.5h0a1.07,1.07,0,0,1-1,.57,1.32,1.32,0,0,1-1.24-1.47,1.39,1.39,0,0,1,1.31-1.56,1,1,0,0,1,.87.44h0V122.8Zm-.53,2.53a.86.86,0,0,0,0-.22.79.79,0,0,0-.76-.61c-.55,0-.87.48-.87,1.12s.29,1.07.85,1.07a.8.8,0,0,0,.78-.62.9.9,0,0,0,0-.23Z" transform="translate(-1.52 -1.63)"/><path class="cls-2" d="M160.41,125.58a1.42,1.42,0,0,1-1.44,1.54,1.38,1.38,0,0,1-1.39-1.49,1.41,1.41,0,0,1,1.44-1.54A1.37,1.37,0,0,1,160.41,125.58Zm-2.3,0c0,.64.37,1.11.88,1.11s.88-.47.88-1.12c0-.49-.24-1.12-.87-1.12S158.11,125.06,158.11,125.61Z" transform="translate(-1.52 -1.63)"/><path class="cls-2" d="M161.08,122.8h.53v4.25h-.53Z" transform="translate(-1.52 -1.63)"/><path class="cls-2" d="M165.12,125.58a1.42,1.42,0,0,1-1.44,1.54,1.38,1.38,0,0,1-1.39-1.49,1.41,1.41,0,0,1,1.44-1.54A1.37,1.37,0,0,1,165.12,125.58Zm-2.3,0c0,.64.37,1.11.88,1.11s.88-.47.88-1.12c0-.49-.24-1.12-.87-1.12S162.82,125.06,162.82,125.61Z" transform="translate(-1.52 -1.63)"/><path class="cls-2" d="M165.79,125.06c0-.34,0-.64,0-.91h.46l0,.57h0a.86.86,0,0,1,.8-.63h.15v.5l-.18,0a.74.74,0,0,0-.7.68,1.71,1.71,0,0,0,0,.25v1.54h-.52Z" transform="translate(-1.52 -1.63)"/><path class="cls-2" d="M169,126.51a1.35,1.35,0,0,0,.7.21c.38,0,.56-.19.56-.43s-.15-.39-.54-.53-.76-.47-.76-.82a.89.89,0,0,1,1-.85,1.4,1.4,0,0,1,.71.18l-.13.38a1.12,1.12,0,0,0-.59-.17c-.32,0-.49.18-.49.4s.17.35.55.49.76.44.76.88-.39.86-1.08.86a1.68,1.68,0,0,1-.82-.19Z" transform="translate(-1.52 -1.63)"/><path class="cls-2" d="M172,123.34a.33.33,0,0,1-.65,0,.33.33,0,1,1,.65,0Zm-.59,3.71v-2.9h.53v2.9Z" transform="translate(-1.52 -1.63)"/><path class="cls-2" d="M173.44,123.32v.83h.76v.4h-.76v1.57c0,.36.1.56.4.56a1.1,1.1,0,0,0,.3,0l0,.39a1.41,1.41,0,0,1-.47.07.7.7,0,0,1-.57-.22,1.05,1.05,0,0,1-.21-.75v-1.59h-.44v-.4h.44v-.69Z" transform="translate(-1.52 -1.63)"/><path class="cls-2" d="M177.67,127.05l0-.36h0a1.07,1.07,0,0,1-.89.43.82.82,0,0,1-.88-.83c0-.71.62-1.09,1.74-1.08v-.06a.6.6,0,0,0-.66-.67,1.43,1.43,0,0,0-.75.21l-.12-.35a1.83,1.83,0,0,1,.95-.25c.89,0,1.1.6,1.1,1.18v1.09a3.6,3.6,0,0,0,.05.69Zm-.08-1.48c-.57,0-1.23.09-1.23.66a.47.47,0,0,0,.5.5.72.72,0,0,0,.7-.48.55.55,0,0,0,0-.17Z" transform="translate(-1.52 -1.63)"/><path class="cls-2" d="M179,124.94c0-.3,0-.55,0-.79h.46l0,.47h0a1,1,0,0,1,.91-.53.87.87,0,0,1,.82.58h0a1.22,1.22,0,0,1,.32-.38,1,1,0,0,1,.65-.2c.38,0,.95.25.95,1.26v1.7h-.52v-1.64c0-.56-.2-.89-.63-.89a.68.68,0,0,0-.62.48,1,1,0,0,0,0,.26v1.79h-.52v-1.73c0-.47-.2-.8-.6-.8a.73.73,0,0,0-.66.53.66.66,0,0,0,0,.25v1.75H179Z" transform="translate(-1.52 -1.63)"/><path class="cls-2" d="M184.25,125.7a.94.94,0,0,0,1,1,2,2,0,0,0,.8-.15l.09.37a2.21,2.21,0,0,1-1,.18,1.34,1.34,0,0,1-1.43-1.46,1.4,1.4,0,0,1,1.36-1.56,1.22,1.22,0,0,1,1.2,1.36,1.38,1.38,0,0,1,0,.25Zm1.55-.38a.75.75,0,0,0-.73-.86.88.88,0,0,0-.81.86Z" transform="translate(-1.52 -1.63)"/><path class="cls-2" d="M187.6,123.32v.83h.76v.4h-.76v1.57c0,.36.1.56.4.56a1.1,1.1,0,0,0,.3,0l0,.39a1.41,1.41,0,0,1-.47.07.71.71,0,0,1-.57-.22,1.05,1.05,0,0,1-.21-.75v-1.59h-.44v-.4h.44v-.69Z" transform="translate(-1.52 -1.63)"/><path class="cls-2" d="M188.59,127.79a9,9,0,0,0,.36-1.43l.59-.06a7.54,7.54,0,0,1-.57,1.46Z" transform="translate(-1.52 -1.63)"/><path class="cls-2" d="M193.52,127a2,2,0,0,1-.84.16,1.38,1.38,0,0,1-1.44-1.48,1.48,1.48,0,0,1,1.56-1.54,1.82,1.82,0,0,1,.73.15l-.12.41a1.27,1.27,0,0,0-.61-.14,1,1,0,0,0-1,1.1,1,1,0,0,0,1,1.08,1.46,1.46,0,0,0,.65-.14Z" transform="translate(-1.52 -1.63)"/><path class="cls-2" d="M196.73,125.58a1.42,1.42,0,0,1-1.45,1.54,1.38,1.38,0,0,1-1.39-1.49,1.41,1.41,0,0,1,1.44-1.54A1.37,1.37,0,0,1,196.73,125.58Zm-2.31,0c0,.64.37,1.11.88,1.11s.89-.47.89-1.12c0-.49-.25-1.12-.87-1.12S194.42,125.06,194.42,125.61Z" transform="translate(-1.52 -1.63)"/><path class="cls-2" d="M197.39,124.94c0-.3,0-.55,0-.79h.47l0,.48h0a1.07,1.07,0,0,1,1-.54c.4,0,1,.24,1,1.23v1.73h-.52v-1.67c0-.47-.18-.86-.68-.86a.75.75,0,0,0-.7.54.66.66,0,0,0,0,.25v1.74h-.53Z" transform="translate(-1.52 -1.63)"/><path class="cls-2" d="M200.65,126.51a1.32,1.32,0,0,0,.7.21c.38,0,.56-.19.56-.43s-.15-.39-.54-.53-.77-.47-.77-.82a.89.89,0,0,1,1-.85,1.41,1.41,0,0,1,.72.18l-.13.38a1.19,1.19,0,0,0-.6-.17c-.31,0-.48.18-.48.4s.17.35.55.49.76.44.76.88-.4.86-1.09.86a1.64,1.64,0,0,1-.81-.19Z" transform="translate(-1.52 -1.63)"/><path class="cls-2" d="M203.39,125.7a.94.94,0,0,0,1,1,2,2,0,0,0,.8-.15l.09.37a2.21,2.21,0,0,1-1,.18,1.34,1.34,0,0,1-1.43-1.46,1.4,1.4,0,0,1,1.36-1.56,1.22,1.22,0,0,1,1.2,1.36,1.38,1.38,0,0,1,0,.25Zm1.55-.38a.75.75,0,0,0-.73-.86.87.87,0,0,0-.81.86Z" transform="translate(-1.52 -1.63)"/><path class="cls-2" d="M208.17,127a2,2,0,0,1-.83.16,1.38,1.38,0,0,1-1.45-1.48,1.48,1.48,0,0,1,1.56-1.54,1.83,1.83,0,0,1,.74.15l-.12.41a1.29,1.29,0,0,0-.62-.14,1,1,0,0,0-1,1.1,1,1,0,0,0,1,1.08,1.41,1.41,0,0,0,.64-.14Z" transform="translate(-1.52 -1.63)"/><path class="cls-2" d="M209.51,123.32v.83h.75v.4h-.75v1.57c0,.36.1.56.39.56a1.19,1.19,0,0,0,.31,0l0,.39a1.33,1.33,0,0,1-.47.07.69.69,0,0,1-.56-.22,1,1,0,0,1-.21-.75v-1.59h-.45v-.4H209v-.69Z" transform="translate(-1.52 -1.63)"/><path class="cls-2" d="M211.11,125.7a.94.94,0,0,0,1,1,1.92,1.92,0,0,0,.8-.15l.09.37a2.21,2.21,0,0,1-1,.18,1.34,1.34,0,0,1-1.43-1.46,1.41,1.41,0,0,1,1.36-1.56,1.22,1.22,0,0,1,1.2,1.36,1.38,1.38,0,0,1,0,.25Zm1.55-.38a.75.75,0,0,0-.73-.86.88.88,0,0,0-.81.86Z" transform="translate(-1.52 -1.63)"/><path class="cls-2" d="M214.46,123.32v.83h.76v.4h-.76v1.57c0,.36.1.56.4.56a1.05,1.05,0,0,0,.3,0l0,.39a1.37,1.37,0,0,1-.47.07.71.71,0,0,1-.57-.22,1.05,1.05,0,0,1-.2-.75v-1.59h-.45v-.4H214v-.69Z" transform="translate(-1.52 -1.63)"/><path class="cls-2" d="M218.24,126.26c0,.3,0,.57,0,.79h-.47l0-.47h0a1.11,1.11,0,0,1-1,.54c-.46,0-1-.25-1-1.27v-1.7h.53v1.61c0,.55.17.92.65.92a.72.72,0,0,0,.74-.75v-1.78h.53Z" transform="translate(-1.52 -1.63)"/><path class="cls-2" d="M219.12,125.06c0-.34,0-.64,0-.91h.47v.57h0a.86.86,0,0,1,.8-.63h.15v.5l-.18,0a.76.76,0,0,0-.71.68,1.81,1.81,0,0,0,0,.25v1.54h-.52Z" transform="translate(-1.52 -1.63)"/><path class="cls-2" d="M122,134.25l0-.36h0a1.07,1.07,0,0,1-.89.43.83.83,0,0,1-.89-.83c0-.7.63-1.09,1.75-1.08v-.06a.6.6,0,0,0-.66-.67,1.49,1.49,0,0,0-.76.21l-.12-.35a1.87,1.87,0,0,1,1-.25c.88,0,1.1.6,1.1,1.18v1.09a3.6,3.6,0,0,0,0,.69Zm-.08-1.48c-.58,0-1.23.09-1.23.66a.47.47,0,0,0,.5.5.72.72,0,0,0,.7-.48.55.55,0,0,0,0-.17Z" transform="translate(-1.52 -1.63)"/><path class="cls-2" d="M125.8,130v3.5c0,.26,0,.56,0,.75h-.47l0-.5h0a1.05,1.05,0,0,1-1,.57,1.32,1.32,0,0,1-1.25-1.47,1.39,1.39,0,0,1,1.31-1.56,1,1,0,0,1,.87.44h0V130Zm-.53,2.53a.86.86,0,0,0,0-.22.79.79,0,0,0-.76-.61c-.55,0-.87.48-.87,1.12s.29,1.07.86,1.07a.79.79,0,0,0,.77-.62.9.9,0,0,0,0-.23Z" transform="translate(-1.52 -1.63)"/><path class="cls-2" d="M127.27,130.54a.32.32,0,0,1-.34.32.31.31,0,0,1-.32-.32.32.32,0,0,1,.33-.33A.31.31,0,0,1,127.27,130.54Zm-.59,3.71v-2.9h.53v2.9Z" transform="translate(-1.52 -1.63)"/><path class="cls-2" d="M128.08,132.3c0-.37,0-.67,0-1h.47l0,.5h0a1.13,1.13,0,0,1,1-.56,1.31,1.31,0,0,1,1.23,1.47,1.38,1.38,0,0,1-1.32,1.56,1,1,0,0,1-.89-.45h0v1.57h-.52Zm.52.77a1.46,1.46,0,0,0,0,.22.8.8,0,0,0,.79.62c.56,0,.88-.46.88-1.12s-.31-1.08-.86-1.08a.83.83,0,0,0-.8.65.78.78,0,0,0,0,.22Z" transform="translate(-1.52 -1.63)"/><path class="cls-2" d="M132.08,130.54a.3.3,0,0,1-.33.32.31.31,0,0,1-.32-.32.32.32,0,0,1,.33-.33A.31.31,0,0,1,132.08,130.54Zm-.58,3.71v-2.9H132v2.9Z" transform="translate(-1.52 -1.63)"/><path class="cls-2" d="M132.83,133.71a1.28,1.28,0,0,0,.69.21c.39,0,.57-.19.57-.43s-.15-.39-.54-.53-.77-.47-.77-.82a.89.89,0,0,1,1-.85,1.4,1.4,0,0,1,.71.18l-.13.38a1.12,1.12,0,0,0-.59-.17c-.31,0-.49.18-.49.4s.18.35.55.49.77.44.77.88-.4.86-1.09.86a1.62,1.62,0,0,1-.81-.19Z" transform="translate(-1.52 -1.63)"/><path class="cls-2" d="M137.34,134.15a2,2,0,0,1-.83.16,1.38,1.38,0,0,1-1.45-1.48,1.48,1.48,0,0,1,1.56-1.54,1.83,1.83,0,0,1,.74.15l-.12.41a1.29,1.29,0,0,0-.62-.14,1,1,0,0,0-1,1.1,1,1,0,0,0,1,1.08,1.41,1.41,0,0,0,.64-.14Z" transform="translate(-1.52 -1.63)"/><path class="cls-2" d="M138.55,130.54a.3.3,0,0,1-.33.32.31.31,0,0,1-.32-.32.32.32,0,0,1,.33-.33A.31.31,0,0,1,138.55,130.54Zm-.59,3.71v-2.9h.53v2.9Z" transform="translate(-1.52 -1.63)"/><path class="cls-2" d="M139.37,132.14c0-.3,0-.55,0-.79h.47l0,.48h0a1.08,1.08,0,0,1,1-.54c.4,0,1,.24,1,1.23v1.73h-.53v-1.67c0-.47-.17-.86-.67-.86a.76.76,0,0,0-.71.54,1,1,0,0,0,0,.25v1.74h-.53Z" transform="translate(-1.52 -1.63)"/><path class="cls-2" d="M145.2,131.35c0,.21,0,.45,0,.8v1.68a1.68,1.68,0,0,1-.41,1.33,1.56,1.56,0,0,1-1.06.35,1.92,1.92,0,0,1-1-.24l.13-.4a1.63,1.63,0,0,0,.85.22c.54,0,.94-.28.94-1v-.32h0a1.05,1.05,0,0,1-.93.48,1.29,1.29,0,0,1-1.23-1.41,1.39,1.39,0,0,1,1.3-1.54,1,1,0,0,1,.91.5h0l0-.44Zm-.55,1.15a.61.61,0,0,0,0-.24.75.75,0,0,0-.74-.56c-.5,0-.86.43-.86,1.1s.29,1,.86,1a.76.76,0,0,0,.73-.54.9.9,0,0,0,0-.28Z" transform="translate(-1.52 -1.63)"/><path class="cls-2" d="M147.62,132.9a.93.93,0,0,0,1,1,2,2,0,0,0,.81-.15l.09.37a2.3,2.3,0,0,1-1,.18,1.35,1.35,0,0,1-1.43-1.46,1.41,1.41,0,0,1,1.36-1.56,1.22,1.22,0,0,1,1.2,1.36c0,.11,0,.2,0,.25Zm1.54-.38a.75.75,0,0,0-.73-.86.88.88,0,0,0-.81.86Z" transform="translate(-1.52 -1.63)"/><path class="cls-2" d="M150.33,130h.53v4.25h-.53Z" transform="translate(-1.52 -1.63)"/><path class="cls-2" d="M152.33,130.54a.3.3,0,0,1-.33.32.31.31,0,0,1-.32-.32.32.32,0,0,1,.33-.33A.31.31,0,0,1,152.33,130.54Zm-.58,3.71v-2.9h.52v2.9Z" transform="translate(-1.52 -1.63)"/><path class="cls-2" d="M153.79,130.52v.83h.75v.4h-.75v1.57c0,.36.1.56.39.56a1.19,1.19,0,0,0,.31,0l0,.39a1.33,1.33,0,0,1-.47.07.72.72,0,0,1-.57-.22,1.05,1.05,0,0,1-.2-.75v-1.59h-.45v-.4h.45v-.69Z" transform="translate(-1.52 -1.63)"/><path class="cls-2" d="M155,133.94a.36.36,0,1,1,.36.38A.36.36,0,0,1,155,133.94Z" transform="translate(-1.52 -1.63)"/><path class="cls-2" d="M157.65,130.26a6.19,6.19,0,0,1,1-.08,1.62,1.62,0,0,1,1.13.34,1,1,0,0,1,.36.84,1.21,1.21,0,0,1-.31.87,1.71,1.71,0,0,1-1.24.44,1.8,1.8,0,0,1-.42,0v1.61h-.52Zm.52,2a1.8,1.8,0,0,0,.43,0c.63,0,1-.3,1-.86s-.38-.79-1-.79a1.87,1.87,0,0,0-.49,0Z" transform="translate(-1.52 -1.63)"/><path class="cls-2" d="M161,132.9a.93.93,0,0,0,1,1,2,2,0,0,0,.81-.15l.09.37a2.3,2.3,0,0,1-1,.18,1.35,1.35,0,0,1-1.43-1.46,1.41,1.41,0,0,1,1.36-1.56,1.22,1.22,0,0,1,1.2,1.36c0,.11,0,.2,0,.25Zm1.54-.38a.75.75,0,0,0-.73-.86.88.88,0,0,0-.81.86Z" transform="translate(-1.52 -1.63)"/><path class="cls-2" d="M163.68,130h.53v4.25h-.53Z" transform="translate(-1.52 -1.63)"/><path class="cls-2" d="M165.09,130h.53v4.25h-.53Z" transform="translate(-1.52 -1.63)"/><path class="cls-2" d="M166.8,132.9a.94.94,0,0,0,1,1,1.92,1.92,0,0,0,.8-.15l.09.37a2.21,2.21,0,0,1-1,.18,1.34,1.34,0,0,1-1.43-1.46,1.41,1.41,0,0,1,1.36-1.56,1.22,1.22,0,0,1,1.2,1.36,1.38,1.38,0,0,1,0,.25Zm1.55-.38a.75.75,0,0,0-.73-.86.88.88,0,0,0-.81.86Z" transform="translate(-1.52 -1.63)"/><path class="cls-2" d="M169.52,132.14c0-.3,0-.55,0-.79H170l0,.48h0a1.08,1.08,0,0,1,1-.54c.4,0,1,.24,1,1.23v1.73h-.53v-1.67c0-.47-.17-.86-.67-.86a.76.76,0,0,0-.71.54.93.93,0,0,0,0,.25v1.74h-.52Z" transform="translate(-1.52 -1.63)"/><path class="cls-2" d="M173.46,130.52v.83h.75v.4h-.75v1.57c0,.36.1.56.39.56a1.19,1.19,0,0,0,.31,0l0,.39a1.3,1.3,0,0,1-.46.07.7.7,0,0,1-.57-.22,1.05,1.05,0,0,1-.21-.75v-1.59h-.45v-.4h.45v-.69Z" transform="translate(-1.52 -1.63)"/><path class="cls-2" d="M175.07,132.9a.93.93,0,0,0,1,1,2,2,0,0,0,.81-.15l.09.37a2.3,2.3,0,0,1-1,.18,1.35,1.35,0,0,1-1.43-1.46,1.41,1.41,0,0,1,1.36-1.56,1.22,1.22,0,0,1,1.2,1.36c0,.11,0,.2,0,.25Zm1.54-.38a.75.75,0,0,0-.73-.86.88.88,0,0,0-.81.86Z" transform="translate(-1.52 -1.63)"/><path class="cls-2" d="M177.71,133.71a1.28,1.28,0,0,0,.69.21c.39,0,.57-.19.57-.43s-.15-.39-.54-.53-.77-.47-.77-.82a.89.89,0,0,1,1-.85,1.44,1.44,0,0,1,.72.18l-.14.38a1.12,1.12,0,0,0-.59-.17c-.31,0-.49.18-.49.4s.18.35.55.49.77.44.77.88-.4.86-1.09.86a1.62,1.62,0,0,1-.81-.19Z" transform="translate(-1.52 -1.63)"/><path class="cls-2" d="M182.13,133.8h0a1,1,0,0,1-1,.52,1.32,1.32,0,0,1-1.22-1.47,1.39,1.39,0,0,1,1.31-1.56.94.94,0,0,1,.89.5h0l0-.44h.5c0,.25,0,.5,0,.8v3.29h-.53Zm0-1.27a.78.78,0,0,0,0-.22.77.77,0,0,0-.76-.6c-.54,0-.87.46-.87,1.11s.27,1.08.86,1.08a.82.82,0,0,0,.79-.83Z" transform="translate(-1.52 -1.63)"/><path class="cls-2" d="M186,133.46c0,.3,0,.57,0,.79h-.47l0-.47h0a1.11,1.11,0,0,1-1,.54c-.46,0-1-.25-1-1.27v-1.7H184V133c0,.55.17.92.65.92a.77.77,0,0,0,.7-.48.73.73,0,0,0,0-.27v-1.78H186Z" transform="translate(-1.52 -1.63)"/><path class="cls-2" d="M187.13,132.9a.94.94,0,0,0,1,1,2,2,0,0,0,.8-.15l.09.37a2.21,2.21,0,0,1-1,.18,1.34,1.34,0,0,1-1.43-1.46,1.4,1.4,0,0,1,1.36-1.56,1.22,1.22,0,0,1,1.2,1.36,1.38,1.38,0,0,1,0,.25Zm1.55-.38a.75.75,0,0,0-.73-.86.88.88,0,0,0-.81.86Z" transform="translate(-1.52 -1.63)"/><path class="cls-2" d="M191.32,131.35l.57,1.63a7,7,0,0,1,.23.75h0c.07-.24.15-.48.25-.75l.56-1.63h.55l-1.14,2.9h-.5l-1.1-2.9Z" transform="translate(-1.52 -1.63)"/><path class="cls-2" d="M196.57,132.78a1.42,1.42,0,0,1-1.45,1.54,1.38,1.38,0,0,1-1.39-1.49,1.42,1.42,0,0,1,1.44-1.54A1.37,1.37,0,0,1,196.57,132.78Zm-2.3,0c0,.64.36,1.11.88,1.11s.88-.47.88-1.12c0-.49-.25-1.12-.87-1.12S194.27,132.26,194.27,132.81Z" transform="translate(-1.52 -1.63)"/><path class="cls-2" d="M197.24,130h.52v4.25h-.52Z" transform="translate(-1.52 -1.63)"/><path class="cls-2" d="M201.08,133.46c0,.3,0,.57,0,.79h-.47l0-.47h0a1.11,1.11,0,0,1-1,.54c-.46,0-1-.25-1-1.27v-1.7h.53V133c0,.55.17.92.65.92a.77.77,0,0,0,.7-.48.73.73,0,0,0,0-.27v-1.78h.53Z" transform="translate(-1.52 -1.63)"/><path class="cls-2" d="M202.59,130.52v.83h.76v.4h-.76v1.57c0,.36.11.56.4.56a1.19,1.19,0,0,0,.31,0l0,.39a1.33,1.33,0,0,1-.47.07.72.72,0,0,1-.57-.22,1.05,1.05,0,0,1-.2-.75v-1.59h-.45v-.4h.45v-.69Z" transform="translate(-1.52 -1.63)"/><path class="cls-2" d="M203.94,132.3c0-.37,0-.67,0-1h.47l0,.5h0a1.15,1.15,0,0,1,1-.56,1.31,1.31,0,0,1,1.23,1.47,1.37,1.37,0,0,1-1.32,1.56,1,1,0,0,1-.89-.45h0v1.57h-.53Zm.53.77a1.5,1.5,0,0,0,0,.22.81.81,0,0,0,.79.62c.56,0,.88-.46.88-1.12s-.3-1.08-.86-1.08a.83.83,0,0,0-.8.65.78.78,0,0,0,0,.22Z" transform="translate(-1.52 -1.63)"/><path class="cls-2" d="M209,134.25l-.05-.36h0a1.1,1.1,0,0,1-.89.43.83.83,0,0,1-.89-.83c0-.7.62-1.09,1.75-1.08v-.06a.6.6,0,0,0-.66-.67,1.47,1.47,0,0,0-.76.21l-.12-.35a1.86,1.86,0,0,1,.95-.25c.89,0,1.11.6,1.11,1.18v1.09a3.6,3.6,0,0,0,0,.69Zm-.08-1.48c-.58,0-1.23.09-1.23.66a.47.47,0,0,0,.5.5.74.74,0,0,0,.7-.48.55.55,0,0,0,0-.17Z" transform="translate(-1.52 -1.63)"/><path class="cls-2" d="M210.86,130.52v.83h.76v.4h-.76v1.57c0,.36.1.56.4.56a1.05,1.05,0,0,0,.3,0l0,.39a1.37,1.37,0,0,1-.47.07.71.71,0,0,1-.57-.22,1.05,1.05,0,0,1-.2-.75v-1.59h-.45v-.4h.45v-.69Z" transform="translate(-1.52 -1.63)"/><path class="cls-2" d="M213.48,130H214v4.25h-.53Z" transform="translate(-1.52 -1.63)"/><path class="cls-2" d="M216.51,134.25l0-.36h0a1.08,1.08,0,0,1-.89.43.83.83,0,0,1-.89-.83c0-.7.63-1.09,1.75-1.08v-.06a.6.6,0,0,0-.66-.67,1.49,1.49,0,0,0-.76.21l-.12-.35a1.87,1.87,0,0,1,1-.25c.88,0,1.1.6,1.1,1.18v1.09a3.6,3.6,0,0,0,.05.69Zm-.08-1.48c-.58,0-1.23.09-1.23.66a.47.47,0,0,0,.5.5.72.72,0,0,0,.7-.48.55.55,0,0,0,0-.17Z" transform="translate(-1.52 -1.63)"/><path class="cls-2" d="M220.42,132.78a1.42,1.42,0,0,1-1.45,1.54,1.38,1.38,0,0,1-1.39-1.49,1.42,1.42,0,0,1,1.44-1.54A1.37,1.37,0,0,1,220.42,132.78Zm-2.3,0c0,.64.36,1.11.88,1.11s.88-.47.88-1.12c0-.49-.25-1.12-.87-1.12S218.12,132.26,218.12,132.81Z" transform="translate(-1.52 -1.63)"/><path class="cls-2" d="M120.4,139.46c0-.34,0-.64,0-.91h.46l0,.57h0a.86.86,0,0,1,.81-.63h.14v.5l-.18,0a.74.74,0,0,0-.7.68,1.71,1.71,0,0,0,0,.25v1.54h-.52Z" transform="translate(-1.52 -1.63)"/><path class="cls-2" d="M122.6,140.1a.93.93,0,0,0,1,1,2,2,0,0,0,.81-.15l.09.37a2.3,2.3,0,0,1-1,.18,1.35,1.35,0,0,1-1.43-1.46,1.41,1.41,0,0,1,1.37-1.56,1.22,1.22,0,0,1,1.19,1.36c0,.11,0,.19,0,.25Zm1.54-.38a.75.75,0,0,0-.73-.86c-.53,0-.76.5-.81.86Z" transform="translate(-1.52 -1.63)"/><path class="cls-2" d="M125.6,140.1a.94.94,0,0,0,1,1,2,2,0,0,0,.8-.15l.09.37a2.21,2.21,0,0,1-1,.18,1.34,1.34,0,0,1-1.43-1.46,1.41,1.41,0,0,1,1.36-1.56,1.22,1.22,0,0,1,1.2,1.36,1.47,1.47,0,0,1,0,.25Zm1.55-.38a.75.75,0,0,0-.73-.86.88.88,0,0,0-.81.86Z" transform="translate(-1.52 -1.63)"/><path class="cls-2" d="M129,137.72v.83h.76v.4H129v1.57c0,.36.1.56.4.56a1.74,1.74,0,0,0,.3,0l0,.39a1.37,1.37,0,0,1-.47.07.71.71,0,0,1-.57-.22,1.05,1.05,0,0,1-.2-.75V139H128v-.4h.45v-.69Z" transform="translate(-1.52 -1.63)"/><path class="cls-2" d="M131.57,139.34c0-.3,0-.55,0-.79H132l0,.47h0a1,1,0,0,1,.91-.53.87.87,0,0,1,.83.58h0a1.22,1.22,0,0,1,.32-.38,1,1,0,0,1,.64-.2c.39,0,1,.25,1,1.26v1.7h-.52v-1.64c0-.56-.2-.89-.63-.89a.68.68,0,0,0-.62.48.71.71,0,0,0,0,.26v1.79h-.52v-1.74c0-.46-.2-.79-.61-.79a.73.73,0,0,0-.65.53.66.66,0,0,0,0,.25v1.75h-.52Z" transform="translate(-1.52 -1.63)"/><path class="cls-2" d="M139.2,140a1.42,1.42,0,0,1-1.44,1.54,1.38,1.38,0,0,1-1.39-1.49,1.41,1.41,0,0,1,1.44-1.54A1.37,1.37,0,0,1,139.2,140Zm-2.3,0c0,.63.37,1.11.88,1.11s.88-.47.88-1.12c0-.49-.24-1.12-.86-1.12S136.9,139.46,136.9,140Z" transform="translate(-1.52 -1.63)"/><path class="cls-2" d="M139.87,137.2h.53v4.25h-.53Z" transform="translate(-1.52 -1.63)"/><path class="cls-2" d="M141.29,137.2h.52v4.25h-.52Z" transform="translate(-1.52 -1.63)"/><path class="cls-2" d="M143.29,137.74a.33.33,0,0,1-.65,0,.33.33,0,1,1,.65,0Zm-.59,3.71v-2.9h.53v2.9Z" transform="translate(-1.52 -1.63)"/><path class="cls-2" d="M144,140.92a1.37,1.37,0,0,0,.69.2c.38,0,.56-.19.56-.43s-.14-.39-.54-.53-.76-.47-.76-.82a.89.89,0,0,1,1-.85,1.4,1.4,0,0,1,.71.18l-.13.38a1.12,1.12,0,0,0-.59-.17c-.32,0-.49.18-.49.4s.17.34.55.49.76.44.76.87-.39.87-1.08.87a1.68,1.68,0,0,1-.82-.19Z" transform="translate(-1.52 -1.63)"/><path class="cls-2" d="M146.29,141.14a.36.36,0,1,1,.72,0,.35.35,0,0,1-.36.38A.36.36,0,0,1,146.29,141.14Z" transform="translate(-1.52 -1.63)"/><path class="cls-2" d="M152.36,139.68c0-.56-.07-1.24-.06-1.75h0c-.14.48-.31,1-.51,1.54l-.72,2h-.39l-.66-1.92c-.19-.57-.35-1.1-.46-1.58h0c0,.51-.05,1.19-.08,1.79l-.11,1.73h-.5l.28-4h.67l.69,2c.17.5.31.94.41,1.36h0c.1-.41.24-.85.42-1.36l.72-2h.67l.25,4h-.51Z" transform="translate(-1.52 -1.63)"/><path class="cls-2" d="M156.42,140a1.42,1.42,0,0,1-1.45,1.54,1.38,1.38,0,0,1-1.39-1.49,1.42,1.42,0,0,1,1.44-1.54A1.37,1.37,0,0,1,156.42,140Zm-2.3,0c0,.63.36,1.11.88,1.11s.88-.47.88-1.12c0-.49-.25-1.12-.87-1.12S154.12,139.46,154.12,140Z" transform="translate(-1.52 -1.63)"/><path class="cls-2" d="M157.08,139.46c0-.34,0-.64,0-.91h.46l0,.57h0a.85.85,0,0,1,.8-.63h.15v.5l-.18,0a.75.75,0,0,0-.71.68,1.81,1.81,0,0,0,0,.25v1.54h-.53Z" transform="translate(-1.52 -1.63)"/><path class="cls-2" d="M159.05,141.45c0-.19,0-.49,0-.74V137.2h.52V139h0a1.07,1.07,0,0,1,1-.53,1.31,1.31,0,0,1,1.23,1.48,1.38,1.38,0,0,1-1.3,1.55,1,1,0,0,1-1-.55h0l0,.48Zm.54-1.16a1.08,1.08,0,0,0,0,.19.81.81,0,0,0,.79.62c.55,0,.88-.45.88-1.11s-.3-1.08-.86-1.08a.84.84,0,0,0-.81.64,1.3,1.3,0,0,0,0,.22Z" transform="translate(-1.52 -1.63)"/><path class="cls-2" d="M163.07,137.74a.3.3,0,0,1-.33.32.31.31,0,0,1-.32-.32.32.32,0,0,1,.33-.33A.31.31,0,0,1,163.07,137.74Zm-.58,3.71v-2.9H163v2.9Z" transform="translate(-1.52 -1.63)"/><path class="cls-2" d="M165.09,140.92a1.41,1.41,0,0,0,.7.2c.38,0,.56-.19.56-.43s-.15-.39-.54-.53-.77-.47-.77-.82a.89.89,0,0,1,1-.85,1.44,1.44,0,0,1,.72.18l-.13.38a1.19,1.19,0,0,0-.6-.17c-.31,0-.49.18-.49.4s.18.34.56.49.76.44.76.87-.4.87-1.09.87a1.64,1.64,0,0,1-.81-.19Z" transform="translate(-1.52 -1.63)"/><path class="cls-2" d="M170.16,140a1.42,1.42,0,0,1-1.44,1.54,1.38,1.38,0,0,1-1.39-1.49,1.41,1.41,0,0,1,1.44-1.54A1.37,1.37,0,0,1,170.16,140Zm-2.3,0c0,.63.37,1.11.88,1.11s.88-.47.88-1.12c0-.49-.24-1.12-.87-1.12S167.86,139.46,167.86,140Z" transform="translate(-1.52 -1.63)"/><path class="cls-2" d="M170.83,137.2h.53v4.25h-.53Z" transform="translate(-1.52 -1.63)"/><path class="cls-2" d="M172.25,137.2h.53v4.25h-.53Z" transform="translate(-1.52 -1.63)"/><path class="cls-2" d="M174.25,137.74a.3.3,0,0,1-.33.32.31.31,0,0,1-.32-.32.32.32,0,0,1,.33-.33A.31.31,0,0,1,174.25,137.74Zm-.59,3.71v-2.9h.53v2.9Z" transform="translate(-1.52 -1.63)"/><path class="cls-2" d="M177.14,141.35a2,2,0,0,1-.84.16,1.38,1.38,0,0,1-1.44-1.48,1.48,1.48,0,0,1,1.56-1.54,1.82,1.82,0,0,1,.73.15l-.12.41a1.27,1.27,0,0,0-.61-.14,1,1,0,0,0-1,1.1,1,1,0,0,0,1,1.08,1.46,1.46,0,0,0,.65-.14Z" transform="translate(-1.52 -1.63)"/><path class="cls-2" d="M178.34,137.74a.3.3,0,0,1-.33.32.31.31,0,0,1-.32-.32.32.32,0,0,1,.33-.33A.31.31,0,0,1,178.34,137.74Zm-.59,3.71v-2.9h.53v2.9Z" transform="translate(-1.52 -1.63)"/><path class="cls-2" d="M179.79,137.72v.83h.76v.4h-.76v1.57c0,.36.11.56.4.56a1.89,1.89,0,0,0,.31,0l0,.39a1.33,1.33,0,0,1-.47.07.72.72,0,0,1-.57-.22,1.05,1.05,0,0,1-.2-.75V139h-.45v-.4h.45v-.69Z" transform="translate(-1.52 -1.63)"/><path class="cls-2" d="M183.57,140.66c0,.3,0,.57,0,.79h-.47l0-.47h0a1.11,1.11,0,0,1-1,.54c-.46,0-1-.25-1-1.27v-1.7h.52v1.61c0,.55.17.92.65.92a.75.75,0,0,0,.75-.75v-1.78h.52Z" transform="translate(-1.52 -1.63)"/><path class="cls-2" d="M187,137.2v3.51c0,.25,0,.55,0,.74h-.47l0-.5h0a1.07,1.07,0,0,1-1,.57,1.32,1.32,0,0,1-1.24-1.48,1.38,1.38,0,0,1,1.3-1.55,1,1,0,0,1,.88.44h0V137.2Zm-.53,2.53a1.8,1.8,0,0,0,0-.22.79.79,0,0,0-.77-.61c-.54,0-.86.48-.86,1.12s.28,1.07.85,1.07a.79.79,0,0,0,.78-.63,1.5,1.5,0,0,0,0-.22Z" transform="translate(-1.52 -1.63)"/><path class="cls-2" d="M188.42,137.74a.3.3,0,0,1-.33.32.31.31,0,0,1-.32-.32.32.32,0,0,1,.33-.33A.31.31,0,0,1,188.42,137.74Zm-.59,3.71v-2.9h.53v2.9Z" transform="translate(-1.52 -1.63)"/><path class="cls-2" d="M189.24,139.34c0-.3,0-.55,0-.79h.47l0,.48h0a1.08,1.08,0,0,1,1-.54c.41,0,1,.24,1,1.23v1.73h-.53v-1.67c0-.47-.17-.86-.67-.86a.76.76,0,0,0-.71.54,1,1,0,0,0,0,.25v1.74h-.53Z" transform="translate(-1.52 -1.63)"/><path class="cls-2" d="M194,138.55l.57,1.63a7.13,7.13,0,0,1,.24.75h0c.06-.24.15-.48.24-.75l.57-1.63h.55l-1.14,2.9h-.51l-1.1-2.9Z" transform="translate(-1.52 -1.63)"/><path class="cls-2" d="M197,140.1a.94.94,0,0,0,1,1,2,2,0,0,0,.8-.15l.09.37a2.26,2.26,0,0,1-1,.18,1.34,1.34,0,0,1-1.42-1.46,1.4,1.4,0,0,1,1.36-1.56,1.22,1.22,0,0,1,1.2,1.36,1.47,1.47,0,0,1,0,.25Zm1.55-.38a.76.76,0,0,0-.73-.86.87.87,0,0,0-.81.86Z" transform="translate(-1.52 -1.63)"/><path class="cls-2" d="M199.67,137.2h.53v4.25h-.53Z" transform="translate(-1.52 -1.63)"/><path class="cls-2" d="M201.68,137.74a.33.33,0,0,1-.66,0,.32.32,0,0,1,.33-.33A.31.31,0,0,1,201.68,137.74Zm-.59,3.71v-2.9h.53v2.9Z" transform="translate(-1.52 -1.63)"/><path class="cls-2" d="M203.13,137.72v.83h.75v.4h-.75v1.57c0,.36.1.56.39.56a1.89,1.89,0,0,0,.31,0l0,.39a1.3,1.3,0,0,1-.46.07.7.7,0,0,1-.57-.22,1.05,1.05,0,0,1-.21-.75V139h-.45v-.4h.45v-.69Z" transform="translate(-1.52 -1.63)"/><path class="cls-2" d="M206,138.55l.57,1.63a7.13,7.13,0,0,1,.24.75h0c.06-.24.15-.48.24-.75l.56-1.63h.56l-1.14,2.9h-.51l-1.1-2.9Z" transform="translate(-1.52 -1.63)"/><path class="cls-2" d="M208.87,140.1a.94.94,0,0,0,1,1,2,2,0,0,0,.8-.15l.09.37a2.26,2.26,0,0,1-1,.18,1.34,1.34,0,0,1-1.42-1.46,1.4,1.4,0,0,1,1.36-1.56,1.23,1.23,0,0,1,1.2,1.36,1.47,1.47,0,0,1,0,.25Zm1.55-.38a.76.76,0,0,0-.73-.86.87.87,0,0,0-.81.86Z" transform="translate(-1.52 -1.63)"/><path class="cls-2" d="M211.58,137.2h.53v4.25h-.53Z" transform="translate(-1.52 -1.63)"/><path class="cls-2" d="M214.27,139.5c0-.37,0-.67,0-.95h.47l0,.5h0a1.13,1.13,0,0,1,1-.56A1.31,1.31,0,0,1,217,140a1.38,1.38,0,0,1-1.32,1.56,1,1,0,0,1-.9-.46h0v1.58h-.52Zm.52.77a.78.78,0,0,0,0,.22.81.81,0,0,0,.79.62c.56,0,.88-.46.88-1.12s-.31-1.08-.86-1.08a.83.83,0,0,0-.8.65.72.72,0,0,0,0,.22Z" transform="translate(-1.52 -1.63)"/><path class="cls-2" d="M220.31,140a1.42,1.42,0,0,1-1.44,1.54,1.39,1.39,0,0,1-1.4-1.49,1.42,1.42,0,0,1,1.44-1.54A1.37,1.37,0,0,1,220.31,140Zm-2.3,0c0,.63.36,1.11.88,1.11s.88-.47.88-1.12c0-.49-.25-1.12-.87-1.12S218,139.46,218,140Z" transform="translate(-1.52 -1.63)"/><path class="cls-2" d="M220.91,140.92a1.37,1.37,0,0,0,.69.2c.39,0,.57-.19.57-.43s-.15-.39-.54-.53-.77-.47-.77-.82a.89.89,0,0,1,1-.85,1.4,1.4,0,0,1,.71.18l-.13.38a1.12,1.12,0,0,0-.59-.17c-.31,0-.49.18-.49.4s.18.34.55.49.77.44.77.87-.4.87-1.09.87a1.68,1.68,0,0,1-.82-.19Z" transform="translate(-1.52 -1.63)"/><path class="cls-2" d="M225.78,140.66c0,.3,0,.57,0,.79h-.47l0-.47h0a1.11,1.11,0,0,1-1,.54c-.46,0-1-.25-1-1.27v-1.7h.52v1.61c0,.55.17.92.65.92a.76.76,0,0,0,.7-.48.77.77,0,0,0,0-.27v-1.78h.53Z" transform="translate(-1.52 -1.63)"/><path class="cls-2" d="M227,140.1a.94.94,0,0,0,1,1,1.92,1.92,0,0,0,.8-.15l.09.37a2.21,2.21,0,0,1-1,.18,1.34,1.34,0,0,1-1.43-1.46,1.41,1.41,0,0,1,1.36-1.56,1.22,1.22,0,0,1,1.2,1.36,1.47,1.47,0,0,1,0,.25Zm1.55-.38a.75.75,0,0,0-.73-.86.88.88,0,0,0-.81.86Z" transform="translate(-1.52 -1.63)"/><path class="cls-2" d="M229.67,139.46c0-.34,0-.64,0-.91h.46l0,.57h0a.86.86,0,0,1,.8-.63h.15v.5l-.18,0a.75.75,0,0,0-.71.68,1.81,1.81,0,0,0,0,.25v1.54h-.52Z" transform="translate(-1.52 -1.63)"/><path class="cls-2" d="M231.86,140.1a.94.94,0,0,0,1,1,2,2,0,0,0,.8-.15l.09.37a2.21,2.21,0,0,1-1,.18,1.34,1.34,0,0,1-1.43-1.46,1.4,1.4,0,0,1,1.36-1.56,1.22,1.22,0,0,1,1.2,1.36,1.47,1.47,0,0,1,0,.25Zm1.55-.38a.75.75,0,0,0-.73-.86.87.87,0,0,0-.81.86Z" transform="translate(-1.52 -1.63)"/><path class="cls-2" d="M120.4,146.54c0-.3,0-.55,0-.79h.46l0,.47h0a1,1,0,0,1,.91-.53.85.85,0,0,1,.82.58h0a1.22,1.22,0,0,1,.32-.38,1,1,0,0,1,.64-.2c.39,0,1,.25,1,1.26v1.7H124V147c0-.56-.2-.89-.63-.89a.68.68,0,0,0-.62.48.71.71,0,0,0,0,.26v1.79h-.51v-1.73c0-.47-.21-.8-.61-.8a.71.71,0,0,0-.65.53.66.66,0,0,0,0,.25v1.75h-.52Z" transform="translate(-1.52 -1.63)"/><path class="cls-2" d="M127,148.65l0-.36h0a1.07,1.07,0,0,1-.89.43.82.82,0,0,1-.88-.83c0-.7.62-1.09,1.74-1.08v-.06a.59.59,0,0,0-.66-.67,1.43,1.43,0,0,0-.75.21l-.12-.35a1.86,1.86,0,0,1,1-.25c.89,0,1.1.6,1.1,1.18V148a4.65,4.65,0,0,0,0,.69Zm-.08-1.48c-.57,0-1.22.09-1.22.66a.46.46,0,0,0,.49.5.71.71,0,0,0,.7-.49.45.45,0,0,0,0-.16Z" transform="translate(-1.52 -1.63)"/><path class="cls-2" d="M128.54,145.75l.42.63c.11.16.2.31.29.47h0l.29-.48.4-.62h.57l-1,1.41,1,1.49H130l-.42-.65c-.12-.17-.21-.33-.31-.5h0l-.31.5-.42.65h-.58l1-1.48-1-1.42Z" transform="translate(-1.52 -1.63)"/><path class="cls-2" d="M131.66,144.94a.3.3,0,0,1-.33.32.31.31,0,0,1-.32-.32.32.32,0,0,1,.33-.33A.31.31,0,0,1,131.66,144.94Zm-.58,3.71v-2.9h.52v2.9Z" transform="translate(-1.52 -1.63)"/><path class="cls-2" d="M132.48,146.54c0-.3,0-.55,0-.79h.46l0,.47h0a1,1,0,0,1,.91-.53.85.85,0,0,1,.82.58h0a1.24,1.24,0,0,1,.33-.38,1,1,0,0,1,.64-.2c.38,0,1,.25,1,1.26v1.7h-.51V147c0-.56-.21-.89-.63-.89a.69.69,0,0,0-.63.48,1,1,0,0,0,0,.26v1.79h-.51v-1.73c0-.47-.21-.8-.61-.8a.71.71,0,0,0-.65.53.66.66,0,0,0,0,.25v1.75h-.52Z" transform="translate(-1.52 -1.63)"/><path class="cls-2" d="M139.91,147.86c0,.3,0,.57,0,.79h-.47l0-.47h0a1.09,1.09,0,0,1-1,.54c-.46,0-1-.25-1-1.27v-1.7H138v1.61c0,.55.17.92.65.92a.72.72,0,0,0,.74-.75v-1.78h.53Z" transform="translate(-1.52 -1.63)"/><path class="cls-2" d="M140.72,148.12a1.37,1.37,0,0,0,.69.21c.39,0,.57-.2.57-.44s-.15-.39-.54-.53-.77-.47-.77-.82a.89.89,0,0,1,1-.85,1.44,1.44,0,0,1,.72.18l-.14.38a1.12,1.12,0,0,0-.59-.17c-.31,0-.49.18-.49.4s.18.35.56.49.76.44.76.87-.4.87-1.09.87a1.62,1.62,0,0,1-.81-.19Z" transform="translate(-1.52 -1.63)"/><path class="cls-2" d="M143,148.34a.36.36,0,1,1,.72,0,.35.35,0,0,1-.36.38A.36.36,0,0,1,143,148.34Z" transform="translate(-1.52 -1.63)"/><path class="cls-2" d="M145.63,144.67a7.23,7.23,0,0,1,1.11-.09,2.33,2.33,0,0,1,1.64.51,1.85,1.85,0,0,1,.57,1.45,2.16,2.16,0,0,1-.58,1.57,2.5,2.5,0,0,1-1.79.58,8.52,8.52,0,0,1-1-.05Zm.52,3.57a3.89,3.89,0,0,0,.53,0,1.55,1.55,0,0,0,1.72-1.71,1.44,1.44,0,0,0-1.64-1.56,3,3,0,0,0-.61.05Z" transform="translate(-1.52 -1.63)"/><path class="cls-2" d="M152.26,147.18a1.42,1.42,0,0,1-1.44,1.54,1.39,1.39,0,0,1-1.4-1.49,1.42,1.42,0,0,1,1.44-1.54A1.37,1.37,0,0,1,152.26,147.18Zm-2.3,0c0,.63.36,1.12.88,1.12s.88-.48.88-1.13c0-.49-.25-1.12-.87-1.12S150,146.66,150,147.21Z" transform="translate(-1.52 -1.63)"/><path class="cls-2" d="M152.93,146.54c0-.3,0-.55,0-.79h.47l0,.48h0a1.08,1.08,0,0,1,1-.54c.41,0,1,.24,1,1.23v1.73h-.53V147c0-.47-.17-.86-.67-.86a.76.76,0,0,0-.71.54,1,1,0,0,0,0,.25v1.74h-.53Z" transform="translate(-1.52 -1.63)"/><path class="cls-2" d="M156.55,147.3a.94.94,0,0,0,1,1,2,2,0,0,0,.8-.15l.09.37a2.24,2.24,0,0,1-1,.18,1.34,1.34,0,0,1-1.43-1.46,1.4,1.4,0,0,1,1.36-1.56,1.22,1.22,0,0,1,1.2,1.36,1.38,1.38,0,0,1,0,.25Zm1.55-.38a.75.75,0,0,0-.73-.86.87.87,0,0,0-.81.86Z" transform="translate(-1.52 -1.63)"/><path class="cls-2" d="M161.33,148.55a2,2,0,0,1-.83.16,1.38,1.38,0,0,1-1.45-1.48,1.48,1.48,0,0,1,1.56-1.54,1.78,1.78,0,0,1,.73.15l-.12.41a1.21,1.21,0,0,0-.61-.14,1,1,0,0,0-1,1.1,1,1,0,0,0,1,1.08,1.43,1.43,0,0,0,.65-.14Z" transform="translate(-1.52 -1.63)"/><path class="cls-2" d="M163.22,146.7c0-.37,0-.67,0-.95h.47l0,.5h0a1.15,1.15,0,0,1,1-.56,1.31,1.31,0,0,1,1.23,1.47,1.37,1.37,0,0,1-1.32,1.56,1,1,0,0,1-.89-.46h0v1.58h-.53Zm.53.77a1.5,1.5,0,0,0,0,.22.82.82,0,0,0,.79.62c.56,0,.88-.46.88-1.12s-.3-1.08-.86-1.08a.83.83,0,0,0-.8.65.78.78,0,0,0,0,.22Z" transform="translate(-1.52 -1.63)"/><path class="cls-2" d="M166.93,147.3a.94.94,0,0,0,1,1,2,2,0,0,0,.8-.15l.09.37a2.24,2.24,0,0,1-1,.18,1.34,1.34,0,0,1-1.43-1.46,1.4,1.4,0,0,1,1.36-1.56,1.22,1.22,0,0,1,1.2,1.36,1.38,1.38,0,0,1,0,.25Zm1.55-.38a.75.75,0,0,0-.73-.86.87.87,0,0,0-.81.86Z" transform="translate(-1.52 -1.63)"/><path class="cls-2" d="M169.64,144.4h.53v4.25h-.53Z" transform="translate(-1.52 -1.63)"/><path class="cls-2" d="M171.06,144.4h.53v4.25h-.53Z" transform="translate(-1.52 -1.63)"/><path class="cls-2" d="M172.77,147.3a.94.94,0,0,0,1,1,2,2,0,0,0,.8-.15l.09.37a2.26,2.26,0,0,1-1,.18,1.34,1.34,0,0,1-1.42-1.46,1.4,1.4,0,0,1,1.36-1.56,1.23,1.23,0,0,1,1.2,1.36c0,.11,0,.2,0,.25Zm1.55-.38a.76.76,0,0,0-.74-.86.87.87,0,0,0-.8.86Z" transform="translate(-1.52 -1.63)"/><path class="cls-2" d="M175.48,146.54c0-.3,0-.55,0-.79h.47l0,.48h0a1.07,1.07,0,0,1,1-.54c.4,0,1,.24,1,1.23v1.73h-.53V147c0-.47-.17-.86-.67-.86a.78.78,0,0,0-.71.54,1,1,0,0,0,0,.25v1.74h-.53Z" transform="translate(-1.52 -1.63)"/><path class="cls-2" d="M179.42,144.92v.83h.76v.4h-.76v1.57c0,.36.11.56.4.56a1.89,1.89,0,0,0,.31,0l0,.39a1.37,1.37,0,0,1-.47.07.71.71,0,0,1-.57-.22,1.05,1.05,0,0,1-.2-.75v-1.59h-.45v-.4h.45v-.69Z" transform="translate(-1.52 -1.63)"/><path class="cls-2" d="M181,147.3a.94.94,0,0,0,1,1,2,2,0,0,0,.8-.15l.09.37a2.24,2.24,0,0,1-1,.18,1.34,1.34,0,0,1-1.43-1.46,1.4,1.4,0,0,1,1.36-1.56,1.22,1.22,0,0,1,1.2,1.36,1.38,1.38,0,0,1,0,.25Zm1.55-.38a.76.76,0,0,0-.73-.86.87.87,0,0,0-.81.86Z" transform="translate(-1.52 -1.63)"/><path class="cls-2" d="M183.67,148.12a1.41,1.41,0,0,0,.7.21c.38,0,.56-.2.56-.44s-.15-.39-.54-.53-.77-.47-.77-.82a.9.9,0,0,1,1-.85,1.4,1.4,0,0,1,.71.18l-.13.38a1.19,1.19,0,0,0-.6-.17c-.31,0-.48.18-.48.4s.17.35.55.49.76.44.76.87-.4.87-1.08.87a1.66,1.66,0,0,1-.82-.19Z" transform="translate(-1.52 -1.63)"/><path class="cls-2" d="M188.1,148.21h0a1.05,1.05,0,0,1-1,.51,1.32,1.32,0,0,1-1.23-1.47,1.39,1.39,0,0,1,1.31-1.56,1,1,0,0,1,.9.5h0l0-.44h.49c0,.25,0,.5,0,.8v3.29h-.53Zm0-1.28a.78.78,0,0,0,0-.22.76.76,0,0,0-.75-.6c-.55,0-.88.46-.88,1.11s.28,1.08.86,1.08a.79.79,0,0,0,.76-.58,1,1,0,0,0,0-.25Z" transform="translate(-1.52 -1.63)"/><path class="cls-2" d="M191.93,147.86c0,.3,0,.57,0,.79h-.47l0-.47h0a1.08,1.08,0,0,1-1,.54c-.45,0-1-.25-1-1.27v-1.7H190v1.61c0,.55.16.92.64.92a.75.75,0,0,0,.75-.75v-1.78h.53Z" transform="translate(-1.52 -1.63)"/><path class="cls-2" d="M193.1,147.3a.93.93,0,0,0,1,1,2,2,0,0,0,.81-.15l.09.37a2.3,2.3,0,0,1-1,.18,1.35,1.35,0,0,1-1.43-1.46,1.41,1.41,0,0,1,1.36-1.56,1.22,1.22,0,0,1,1.2,1.36c0,.11,0,.2,0,.25Zm1.54-.38a.75.75,0,0,0-.73-.86.88.88,0,0,0-.81.86Z" transform="translate(-1.52 -1.63)"/><path class="cls-2" d="M197.67,144.94a.32.32,0,0,1-.34.32.31.31,0,0,1-.31-.32.33.33,0,1,1,.65,0Zm-.59,3.71v-2.9h.53v2.9Z" transform="translate(-1.52 -1.63)"/><path class="cls-2" d="M198.48,146.7c0-.37,0-.67,0-.95h.47l0,.5h0a1.15,1.15,0,0,1,1-.56,1.31,1.31,0,0,1,1.23,1.47c0,1.05-.63,1.56-1.32,1.56a1,1,0,0,1-.89-.46h0v1.58h-.53Zm.53.77a1.5,1.5,0,0,0,0,.22.82.82,0,0,0,.79.62c.56,0,.88-.46.88-1.12s-.3-1.08-.86-1.08a.83.83,0,0,0-.8.65.78.78,0,0,0,0,.22Z" transform="translate(-1.52 -1.63)"/><path class="cls-2" d="M201.83,148.12a1.37,1.37,0,0,0,.69.21c.39,0,.57-.2.57-.44s-.15-.39-.54-.53-.77-.47-.77-.82a.89.89,0,0,1,1-.85,1.4,1.4,0,0,1,.71.18l-.13.38a1.12,1.12,0,0,0-.59-.17c-.31,0-.49.18-.49.4s.18.35.55.49.77.44.77.87-.4.87-1.09.87a1.68,1.68,0,0,1-.82-.19Z" transform="translate(-1.52 -1.63)"/><path class="cls-2" d="M206.7,147.86c0,.3,0,.57,0,.79h-.47l0-.47h0a1.09,1.09,0,0,1-1,.54c-.46,0-1-.25-1-1.27v-1.7h.52v1.61c0,.55.17.92.65.92a.75.75,0,0,0,.75-.75v-1.78h.52Z" transform="translate(-1.52 -1.63)"/><path class="cls-2" d="M207.58,146.54c0-.3,0-.55,0-.79H208l0,.47h0a1,1,0,0,1,.91-.53.85.85,0,0,1,.82.58h0a1.39,1.39,0,0,1,.33-.38,1,1,0,0,1,.64-.2c.38,0,.95.25.95,1.26v1.7h-.51V147c0-.56-.21-.89-.63-.89a.67.67,0,0,0-.62.48.71.71,0,0,0-.05.26v1.79h-.51v-1.73c0-.47-.21-.8-.61-.8a.71.71,0,0,0-.65.53.66.66,0,0,0,0,.25v1.75h-.52Z" transform="translate(-1.52 -1.63)"/><path class="cls-2" d="M213.79,148.12a1.37,1.37,0,0,0,.69.21c.38,0,.56-.2.56-.44s-.15-.39-.54-.53-.76-.47-.76-.82a.89.89,0,0,1,1-.85,1.4,1.4,0,0,1,.71.18l-.13.38a1.12,1.12,0,0,0-.59-.17c-.32,0-.49.18-.49.4s.17.35.55.49.76.44.76.87-.39.87-1.08.87a1.68,1.68,0,0,1-.82-.19Z" transform="translate(-1.52 -1.63)"/><path class="cls-2" d="M216.82,144.94a.33.33,0,0,1-.65,0,.33.33,0,1,1,.65,0Zm-.59,3.71v-2.9h.53v2.9Z" transform="translate(-1.52 -1.63)"/><path class="cls-2" d="M218.27,144.92v.83H219v.4h-.76v1.57c0,.36.11.56.4.56a1.63,1.63,0,0,0,.3,0l0,.39a1.37,1.37,0,0,1-.47.07.71.71,0,0,1-.57-.22,1.05,1.05,0,0,1-.2-.75v-1.59h-.45v-.4h.45v-.69Z" transform="translate(-1.52 -1.63)"/><path class="cls-2" d="M222.5,148.65l0-.36h0a1.07,1.07,0,0,1-.89.43.82.82,0,0,1-.88-.83c0-.7.62-1.09,1.74-1.08v-.06a.59.59,0,0,0-.66-.67,1.43,1.43,0,0,0-.75.21l-.12-.35a1.83,1.83,0,0,1,1-.25c.89,0,1.1.6,1.1,1.18V148a4.65,4.65,0,0,0,0,.69Zm-.08-1.48c-.57,0-1.23.09-1.23.66a.47.47,0,0,0,.5.5.71.71,0,0,0,.7-.49.45.45,0,0,0,0-.16Z" transform="translate(-1.52 -1.63)"/><path class="cls-2" d="M223.79,146.54c0-.3,0-.55,0-.79h.46l0,.47h0a1,1,0,0,1,.91-.53.87.87,0,0,1,.82.58h0a1.22,1.22,0,0,1,.32-.38,1,1,0,0,1,.65-.2c.38,0,1,.25,1,1.26v1.7h-.52V147c0-.56-.2-.89-.62-.89a.69.69,0,0,0-.63.48,1,1,0,0,0,0,.26v1.79h-.52v-1.73c0-.47-.2-.8-.6-.8a.73.73,0,0,0-.66.53.66.66,0,0,0,0,.25v1.75h-.51Z" transform="translate(-1.52 -1.63)"/><path class="cls-2" d="M229.08,147.3a.94.94,0,0,0,1,1,1.92,1.92,0,0,0,.8-.15l.09.37a2.21,2.21,0,0,1-1,.18,1.34,1.34,0,0,1-1.43-1.46,1.41,1.41,0,0,1,1.36-1.56,1.22,1.22,0,0,1,1.2,1.36,1.38,1.38,0,0,1,0,.25Zm1.55-.38a.75.75,0,0,0-.73-.86.88.88,0,0,0-.81.86Z" transform="translate(-1.52 -1.63)"/><path class="cls-2" d="M232.43,144.92v.83h.76v.4h-.76v1.57c0,.36.1.56.4.56a1.63,1.63,0,0,0,.3,0l0,.39a1.37,1.37,0,0,1-.47.07.71.71,0,0,1-.57-.22,1.05,1.05,0,0,1-.2-.75v-1.59h-.45v-.4h.45v-.69Z" transform="translate(-1.52 -1.63)"/><path class="cls-2" d="M114,194.52a2.12,2.12,0,1,1-2.11-2.16A2.13,2.13,0,0,1,114,194.52Zm-3.89,0a1.77,1.77,0,1,0,1.78-1.89A1.8,1.8,0,0,0,110.14,194.54Zm2.64-.82a1.54,1.54,0,0,0-.68-.16.9.9,0,0,0-1,1,.93.93,0,0,0,1,1,1.33,1.33,0,0,0,.71-.19l.09.27a1.64,1.64,0,0,1-.87.22,1.21,1.21,0,0,1-1.28-1.27,1.29,1.29,0,0,1,1.34-1.3,1.34,1.34,0,0,1,.77.19Z" transform="translate(-1.52 -1.63)"/><path class="cls-2" d="M120.27,194.83c0-.66-.07-1.45-.07-2h0c-.16.55-.36,1.14-.59,1.79l-.84,2.29h-.46l-.76-2.25a18.14,18.14,0,0,1-.55-1.83h0c0,.59,0,1.38-.09,2.08l-.13,2h-.58l.33-4.72h.78l.8,2.28c.2.58.36,1.1.48,1.59h0c.12-.47.29-1,.5-1.59l.84-2.28h.77l.3,4.72h-.6Z" transform="translate(-1.52 -1.63)"/><path class="cls-2" d="M125,195.18a1.66,1.66,0,0,1-1.69,1.8,1.62,1.62,0,0,1-1.62-1.75,1.66,1.66,0,0,1,1.68-1.8A1.61,1.61,0,0,1,125,195.18Zm-2.69,0c0,.74.43,1.3,1,1.3s1-.55,1-1.31c0-.58-.29-1.31-1-1.31S122.32,194.57,122.32,195.21Z" transform="translate(-1.52 -1.63)"/><path class="cls-2" d="M125.79,194.43c0-.35,0-.64,0-.92h.55l0,.56h0a1.26,1.26,0,0,1,1.13-.64c.46,0,1.19.28,1.19,1.44v2h-.61v-2c0-.55-.21-1-.79-1a.93.93,0,0,0-.87.92v2h-.61Z" transform="translate(-1.52 -1.63)"/><path class="cls-2" d="M131.16,194.62c0-.44,0-.79,0-1.11h.55l0,.58h0a1.35,1.35,0,0,1,1.21-.66,1.54,1.54,0,0,1,1.43,1.73,1.61,1.61,0,0,1-1.54,1.82,1.17,1.17,0,0,1-1-.54h0v1.85h-.61Zm.61.9a2,2,0,0,0,0,.25,1,1,0,0,0,.93.72c.65,0,1-.53,1-1.31s-.36-1.26-1-1.26a1,1,0,0,0-.93.77.93.93,0,0,0,0,.25Z" transform="translate(-1.52 -1.63)"/><path class="cls-2" d="M135.14,194.57c0-.4,0-.74,0-1.06h.54l0,.66h0a1,1,0,0,1,.94-.74l.17,0V194a.62.62,0,0,0-.21,0,.86.86,0,0,0-.82.8,1.2,1.2,0,0,0,0,.28v1.81h-.61Z" transform="translate(-1.52 -1.63)"/><path class="cls-2" d="M137.7,195.32a1.09,1.09,0,0,0,1.16,1.17,2.18,2.18,0,0,0,.94-.17l.11.44a2.74,2.74,0,0,1-1.13.21,1.58,1.58,0,0,1-1.67-1.71,1.65,1.65,0,0,1,1.59-1.83,1.44,1.44,0,0,1,1.4,1.6,2,2,0,0,1,0,.29Zm1.81-.45a.88.88,0,0,0-.86-1,1,1,0,0,0-.94,1Z" transform="translate(-1.52 -1.63)"/><path class="cls-2" d="M140.86,194.43c0-.35,0-.64,0-.92h.54l0,.55h0a1.14,1.14,0,0,1,1.06-.63,1,1,0,0,1,1,.68h0a1.51,1.51,0,0,1,.38-.44,1.18,1.18,0,0,1,.75-.24c.45,0,1.11.3,1.11,1.47v2h-.6V195c0-.65-.24-1-.73-1a.8.8,0,0,0-.73.56.91.91,0,0,0,0,.31v2.09H143v-2c0-.54-.24-.93-.71-.93a.83.83,0,0,0-.76.61.76.76,0,0,0-.05.3v2.05h-.61Z" transform="translate(-1.52 -1.63)"/><path class="cls-2" d="M147.39,192.56a.38.38,0,1,1-.76,0,.38.38,0,0,1,.38-.39A.37.37,0,0,1,147.39,192.56Zm-.69,4.34v-3.39h.62v3.39Z" transform="translate(-1.52 -1.63)"/><path class="cls-2" d="M148.68,195.32a1.09,1.09,0,0,0,1.17,1.17,2.25,2.25,0,0,0,.94-.17l.1.44a2.74,2.74,0,0,1-1.13.21,1.57,1.57,0,0,1-1.66-1.71,1.65,1.65,0,0,1,1.59-1.83,1.44,1.44,0,0,1,1.4,1.6c0,.13,0,.22,0,.29Zm1.81-.45a.87.87,0,0,0-.85-1,1,1,0,0,0-.95,1Z" transform="translate(-1.52 -1.63)"/><path class="cls-2" d="M151.85,194.57c0-.4,0-.74,0-1.06h.54l0,.66h0a1,1,0,0,1,.94-.74l.17,0V194a.62.62,0,0,0-.21,0,.88.88,0,0,0-.83.8,2.3,2.3,0,0,0,0,.28v1.81h-.61Z" transform="translate(-1.52 -1.63)"/><path class="cls-2" d="M155.54,196.27a1.58,1.58,0,0,0,.81.24c.45,0,.66-.22.66-.5s-.18-.46-.63-.62c-.61-.22-.9-.56-.9-1a1,1,0,0,1,1.17-1,1.71,1.71,0,0,1,.83.21l-.15.45a1.35,1.35,0,0,0-.69-.2c-.37,0-.57.21-.57.47s.2.4.64.57c.59.23.89.52.89,1s-.46,1-1.27,1a1.93,1.93,0,0,1-1-.23Z" transform="translate(-1.52 -1.63)"/><path class="cls-2" d="M159.08,192.56a.38.38,0,1,1-.76,0,.38.38,0,0,1,.38-.39A.37.37,0,0,1,159.08,192.56Zm-.69,4.34v-3.39H159v3.39Z" transform="translate(-1.52 -1.63)"/><path class="cls-2" d="M160.77,192.54v1h.89V194h-.89v1.83c0,.42.12.65.47.65a1.33,1.33,0,0,0,.35,0l0,.47a1.78,1.78,0,0,1-.55.08.85.85,0,0,1-.66-.26,1.22,1.22,0,0,1-.24-.88V194h-.52v-.47h.52v-.81Z" transform="translate(-1.52 -1.63)"/><path class="cls-2" d="M162.65,195.32a1.08,1.08,0,0,0,1.16,1.17,2.22,2.22,0,0,0,.94-.17l.1.44a2.64,2.64,0,0,1-1.12.21,1.58,1.58,0,0,1-1.67-1.71,1.65,1.65,0,0,1,1.59-1.83,1.44,1.44,0,0,1,1.4,1.6,2,2,0,0,1,0,.29Zm1.81-.45a.89.89,0,0,0-.86-1,1,1,0,0,0-.94,1Z" transform="translate(-1.52 -1.63)"/><path class="cls-2" d="M168.73,194.78v.45H167v-.45Z" transform="translate(-1.52 -1.63)"/><path class="cls-2" d="M170.73,196.9v-.38l.49-.47c1.16-1.1,1.68-1.69,1.69-2.38a.81.81,0,0,0-.9-.89,1.52,1.52,0,0,0-1,.39l-.2-.44a2.06,2.06,0,0,1,1.29-.46,1.28,1.28,0,0,1,1.4,1.32c0,.84-.61,1.52-1.57,2.45l-.37.33v0h2v.51Z" transform="translate(-1.52 -1.63)"/><path class="cls-2" d="M177.35,194.57c0,1.55-.57,2.41-1.58,2.41s-1.49-.84-1.51-2.34.66-2.37,1.58-2.37S177.35,193.12,177.35,194.57Zm-2.47.07c0,1.19.36,1.86.92,1.86s.93-.74.93-1.9-.28-1.85-.92-1.85S174.88,193.4,174.88,194.64Z" transform="translate(-1.52 -1.63)"/><path class="cls-2" d="M177.92,196.9v-.38l.48-.47c1.16-1.1,1.69-1.69,1.69-2.38a.81.81,0,0,0-.9-.89,1.54,1.54,0,0,0-1,.39l-.19-.44a2,2,0,0,1,1.29-.46,1.28,1.28,0,0,1,1.39,1.32c0,.84-.61,1.52-1.57,2.45l-.36.33v0h2v.51Z" transform="translate(-1.52 -1.63)"/><path class="cls-2" d="M182.84,192.92h0l-.79.43-.12-.47,1-.53h.53v4.55h-.6Z" transform="translate(-1.52 -1.63)"/></svg>